G04 Layer_Color=65535*
%FSLAX25Y25*%
%MOIN*%
G70*
G01*
G75*
%ADD45C,0.02362*%
%ADD47C,0.01968*%
%ADD50C,0.00787*%
%ADD64C,0.00984*%
%ADD65C,0.01575*%
%ADD66C,0.01000*%
G36*
X173284Y66509D02*
X173331Y66505D01*
X173340D01*
X173361Y66501D01*
X173391Y66492D01*
X173416Y66483D01*
X173421D01*
X173434Y66475D01*
X173451Y66466D01*
X173459Y66454D01*
X173463Y66449D01*
X173468Y66441D01*
X173472Y66432D01*
Y66415D01*
Y62478D01*
X174296D01*
X174313Y62470D01*
X174330Y62461D01*
X174335Y62457D01*
X174343Y62448D01*
X174356Y62436D01*
X174369Y62414D01*
X174373Y62410D01*
X174377Y62393D01*
X174386Y62367D01*
X174394Y62337D01*
X174399Y62329D01*
X174403Y62307D01*
X174407Y62278D01*
Y62235D01*
Y62231D01*
Y62222D01*
Y62209D01*
Y62196D01*
X174403Y62158D01*
X174394Y62120D01*
Y62111D01*
X174390Y62094D01*
X174382Y62073D01*
X174369Y62047D01*
X174364Y62043D01*
X174356Y62034D01*
X174343Y62021D01*
X174326Y62009D01*
X174322D01*
X174313Y62004D01*
X174296Y62000D01*
X171922D01*
X171892Y62009D01*
X171888Y62013D01*
X171879Y62017D01*
X171867Y62030D01*
X171850Y62047D01*
X171845Y62051D01*
X171841Y62068D01*
X171832Y62090D01*
X171824Y62120D01*
Y62124D01*
Y62128D01*
X171820Y62154D01*
X171815Y62188D01*
Y62235D01*
Y62239D01*
Y62243D01*
Y62269D01*
X171820Y62303D01*
X171824Y62337D01*
Y62342D01*
Y62346D01*
X171832Y62363D01*
X171837Y62389D01*
X171850Y62414D01*
X171854Y62419D01*
X171862Y62431D01*
X171875Y62448D01*
X171888Y62461D01*
X171892Y62465D01*
X171901Y62470D01*
X171918Y62474D01*
X171939Y62478D01*
X172874D01*
Y65886D01*
X172007Y65369D01*
X172003D01*
X171999Y65365D01*
X171969Y65348D01*
X171935Y65335D01*
X171901Y65322D01*
X171879D01*
X171858Y65326D01*
X171837Y65339D01*
X171832Y65343D01*
X171824Y65360D01*
X171815Y65382D01*
X171807Y65416D01*
Y65420D01*
Y65425D01*
X171802Y65437D01*
Y65450D01*
X171798Y65493D01*
Y65548D01*
Y65553D01*
Y65557D01*
Y65583D01*
Y65617D01*
X171802Y65647D01*
Y65655D01*
X171807Y65672D01*
X171811Y65694D01*
X171815Y65715D01*
X171820Y65719D01*
X171824Y65732D01*
X171845Y65766D01*
X171850Y65770D01*
X171858Y65779D01*
X171875Y65792D01*
X171896Y65809D01*
X172925Y66471D01*
X172930D01*
X172938Y66475D01*
X172964Y66483D01*
X172968D01*
X172977Y66488D01*
X172994Y66496D01*
X173015Y66501D01*
X173019D01*
X173037Y66505D01*
X173058Y66509D01*
X173096D01*
X173118Y66513D01*
X173241D01*
X173284Y66509D01*
D02*
G37*
G36*
X164847Y66821D02*
X164894Y66817D01*
X164902D01*
X164924Y66812D01*
X164953Y66804D01*
X164979Y66795D01*
X164983Y66791D01*
X164996Y66787D01*
X165013Y66774D01*
X165026Y66761D01*
X165030Y66757D01*
X165034Y66748D01*
X165039Y66731D01*
X165043Y66714D01*
Y62085D01*
Y62081D01*
Y62068D01*
X165034Y62051D01*
X165026Y62034D01*
X165022Y62030D01*
X165017Y62026D01*
X165000Y62013D01*
X164979Y62004D01*
X164975D01*
X164958Y62000D01*
X164932Y61996D01*
X164894Y61987D01*
X164885D01*
X164872Y61983D01*
X164855D01*
X164813Y61979D01*
X164706D01*
X164663Y61983D01*
X164616Y61987D01*
X164608D01*
X164586Y61992D01*
X164556Y62000D01*
X164526Y62004D01*
X164522Y62009D01*
X164509Y62013D01*
X164492Y62021D01*
X164479Y62034D01*
Y62038D01*
X164475Y62047D01*
X164471Y62064D01*
Y62085D01*
Y66714D01*
Y66718D01*
Y66731D01*
X164479Y66761D01*
X164484Y66765D01*
X164492Y66774D01*
X164505Y66787D01*
X164526Y66795D01*
X164531Y66799D01*
X164552Y66804D01*
X164578Y66808D01*
X164616Y66817D01*
X164625D01*
X164637Y66821D01*
X164655D01*
X164697Y66825D01*
X164804D01*
X164847Y66821D01*
D02*
G37*
G36*
X175757Y62773D02*
X175803Y62769D01*
X175850Y62756D01*
X175897Y62743D01*
X175940Y62722D01*
X175974Y62696D01*
X175979Y62692D01*
X175987Y62679D01*
X176000Y62658D01*
X176017Y62628D01*
X176030Y62581D01*
X176043Y62525D01*
X176051Y62457D01*
X176055Y62376D01*
Y62371D01*
Y62367D01*
Y62354D01*
Y62337D01*
X176051Y62295D01*
X176047Y62243D01*
X176034Y62188D01*
X176021Y62137D01*
X176000Y62090D01*
X175974Y62051D01*
X175970Y62047D01*
X175957Y62038D01*
X175936Y62026D01*
X175906Y62013D01*
X175867Y61996D01*
X175812Y61983D01*
X175752Y61974D01*
X175675Y61970D01*
X175641D01*
X175607Y61974D01*
X175564Y61979D01*
X175517Y61987D01*
X175470Y62004D01*
X175423Y62021D01*
X175389Y62047D01*
X175385Y62051D01*
X175376Y62064D01*
X175364Y62085D01*
X175351Y62120D01*
X175338Y62162D01*
X175325Y62218D01*
X175317Y62286D01*
X175312Y62367D01*
Y62371D01*
Y62380D01*
Y62389D01*
Y62406D01*
X175317Y62448D01*
X175321Y62500D01*
X175334Y62555D01*
X175347Y62606D01*
X175368Y62653D01*
X175394Y62692D01*
X175398Y62696D01*
X175411Y62704D01*
X175432Y62717D01*
X175462Y62734D01*
X175500Y62752D01*
X175551Y62764D01*
X175616Y62773D01*
X175688Y62777D01*
X175722D01*
X175757Y62773D01*
D02*
G37*
G36*
X178357Y66543D02*
X178391D01*
X178468Y66535D01*
X178558Y66526D01*
X178652Y66509D01*
X178750Y66483D01*
X178844Y66454D01*
X178848D01*
X178857Y66449D01*
X178869Y66445D01*
X178886Y66436D01*
X178929Y66415D01*
X178989Y66390D01*
X179053Y66351D01*
X179121Y66308D01*
X179185Y66257D01*
X179249Y66202D01*
X179258Y66193D01*
X179275Y66172D01*
X179305Y66142D01*
X179339Y66095D01*
X179382Y66044D01*
X179420Y65980D01*
X179459Y65907D01*
X179493Y65830D01*
Y65826D01*
X179497Y65822D01*
X179501Y65809D01*
X179506Y65796D01*
X179518Y65753D01*
X179535Y65698D01*
X179548Y65630D01*
X179561Y65553D01*
X179570Y65472D01*
X179574Y65382D01*
Y65378D01*
Y65373D01*
Y65360D01*
Y65343D01*
Y65305D01*
X179570Y65250D01*
X179565Y65185D01*
X179557Y65113D01*
X179548Y65036D01*
X179535Y64955D01*
Y64951D01*
Y64946D01*
X179531Y64934D01*
X179527Y64916D01*
X179518Y64874D01*
X179501Y64818D01*
X179480Y64750D01*
X179450Y64669D01*
X179416Y64583D01*
X179373Y64494D01*
Y64489D01*
X179369Y64481D01*
X179360Y64468D01*
X179352Y64451D01*
X179339Y64425D01*
X179322Y64400D01*
X179283Y64331D01*
X179232Y64250D01*
X179173Y64156D01*
X179100Y64054D01*
X179019Y63943D01*
X179015Y63939D01*
X179010Y63930D01*
X178993Y63913D01*
X178976Y63887D01*
X178955Y63862D01*
X178925Y63828D01*
X178895Y63785D01*
X178857Y63742D01*
X178814Y63691D01*
X178767Y63640D01*
X178716Y63580D01*
X178664Y63520D01*
X178541Y63388D01*
X178404Y63243D01*
X177695Y62504D01*
X179659D01*
X179676Y62495D01*
X179693Y62487D01*
X179698Y62483D01*
X179710Y62474D01*
X179728Y62461D01*
X179740Y62440D01*
X179745Y62436D01*
X179749Y62419D01*
X179757Y62393D01*
X179766Y62363D01*
X179770Y62354D01*
X179775Y62333D01*
X179779Y62295D01*
Y62252D01*
Y62248D01*
Y62243D01*
Y62218D01*
X179775Y62179D01*
X179766Y62141D01*
Y62132D01*
X179762Y62115D01*
X179753Y62085D01*
X179740Y62060D01*
X179736Y62055D01*
X179732Y62043D01*
X179719Y62026D01*
X179702Y62013D01*
X179698D01*
X179685Y62009D01*
X179668Y62004D01*
X179647Y62000D01*
X177140D01*
X177110Y62004D01*
X177080Y62009D01*
X177076Y62013D01*
X177059Y62017D01*
X177042Y62030D01*
X177020Y62047D01*
X177016Y62051D01*
X177008Y62068D01*
X176995Y62094D01*
X176982Y62128D01*
Y62132D01*
Y62137D01*
X176978Y62162D01*
X176973Y62205D01*
Y62256D01*
Y62261D01*
Y62269D01*
Y62282D01*
Y62299D01*
Y62337D01*
X176978Y62376D01*
Y62380D01*
Y62384D01*
X176982Y62410D01*
X176990Y62440D01*
X176999Y62470D01*
X177003Y62478D01*
X177012Y62495D01*
X177025Y62517D01*
X177042Y62547D01*
X177046Y62555D01*
X177063Y62572D01*
X177085Y62602D01*
X177114Y62632D01*
X178011Y63554D01*
X178015Y63559D01*
X178024Y63567D01*
X178041Y63584D01*
X178062Y63610D01*
X178088Y63635D01*
X178118Y63670D01*
X178190Y63746D01*
X178267Y63836D01*
X178348Y63930D01*
X178429Y64028D01*
X178506Y64126D01*
X178511Y64131D01*
X178515Y64139D01*
X178524Y64152D01*
X178536Y64169D01*
X178570Y64216D01*
X178613Y64280D01*
X178660Y64349D01*
X178707Y64425D01*
X178754Y64507D01*
X178793Y64588D01*
Y64592D01*
X178797Y64596D01*
X178809Y64622D01*
X178827Y64665D01*
X178848Y64711D01*
X178869Y64771D01*
X178895Y64835D01*
X178912Y64899D01*
X178929Y64963D01*
Y64972D01*
X178933Y64993D01*
X178942Y65027D01*
X178946Y65066D01*
X178955Y65117D01*
X178959Y65173D01*
X178963Y65284D01*
Y65292D01*
Y65309D01*
X178959Y65339D01*
Y65373D01*
X178951Y65420D01*
X178942Y65467D01*
X178929Y65514D01*
X178912Y65565D01*
X178908Y65570D01*
X178903Y65587D01*
X178891Y65612D01*
X178874Y65647D01*
X178852Y65685D01*
X178831Y65723D01*
X178767Y65800D01*
X178763Y65805D01*
X178750Y65817D01*
X178728Y65834D01*
X178703Y65860D01*
X178669Y65886D01*
X178626Y65911D01*
X178579Y65937D01*
X178528Y65963D01*
X178524Y65967D01*
X178502Y65971D01*
X178472Y65980D01*
X178434Y65992D01*
X178387Y66005D01*
X178331Y66014D01*
X178267Y66018D01*
X178199Y66022D01*
X178161D01*
X178122Y66018D01*
X178067Y66014D01*
X178007Y66009D01*
X177943Y65997D01*
X177874Y65984D01*
X177806Y65963D01*
X177798Y65958D01*
X177776Y65954D01*
X177746Y65941D01*
X177704Y65924D01*
X177657Y65903D01*
X177605Y65881D01*
X177503Y65830D01*
X177499Y65826D01*
X177482Y65817D01*
X177456Y65805D01*
X177426Y65788D01*
X177358Y65749D01*
X177285Y65702D01*
X177281Y65698D01*
X177272Y65694D01*
X177255Y65685D01*
X177238Y65676D01*
X177196Y65655D01*
X177174Y65651D01*
X177157Y65647D01*
X177140D01*
X177127Y65651D01*
X177110Y65659D01*
X177106Y65664D01*
X177102Y65668D01*
X177089Y65685D01*
X177080Y65702D01*
Y65706D01*
X177072Y65728D01*
X177067Y65753D01*
X177059Y65788D01*
Y65792D01*
Y65796D01*
Y65822D01*
X177055Y65860D01*
Y65911D01*
Y65916D01*
Y65920D01*
Y65941D01*
Y65971D01*
Y66001D01*
Y66009D01*
X177059Y66022D01*
X177063Y66044D01*
X177067Y66065D01*
Y66069D01*
X177072Y66082D01*
X177089Y66116D01*
X177093Y66121D01*
X177102Y66133D01*
X177119Y66150D01*
X177144Y66176D01*
X177148D01*
X177153Y66185D01*
X177161Y66193D01*
X177178Y66202D01*
X177200Y66219D01*
X177225Y66236D01*
X177255Y66257D01*
X177289Y66278D01*
X177294Y66283D01*
X177306Y66291D01*
X177332Y66304D01*
X177362Y66317D01*
X177396Y66338D01*
X177439Y66360D01*
X177490Y66381D01*
X177546Y66402D01*
X177554Y66407D01*
X177571Y66411D01*
X177605Y66424D01*
X177644Y66436D01*
X177695Y66454D01*
X177755Y66471D01*
X177815Y66488D01*
X177883Y66505D01*
X177892D01*
X177917Y66513D01*
X177951Y66518D01*
X178003Y66526D01*
X178062Y66535D01*
X178126Y66539D01*
X178199Y66548D01*
X178331D01*
X178357Y66543D01*
D02*
G37*
G36*
X159688Y65356D02*
X159727Y65352D01*
X159736D01*
X159765Y65348D01*
X159804Y65343D01*
X159846Y65335D01*
X159851D01*
X159859Y65331D01*
X159885Y65326D01*
X159919Y65314D01*
X159958Y65301D01*
X159962D01*
X159966Y65296D01*
X159987Y65292D01*
X160009Y65279D01*
X160030Y65267D01*
X160034Y65262D01*
X160043Y65258D01*
X160051Y65245D01*
X160056Y65232D01*
Y65228D01*
X160060Y65224D01*
X160064Y65211D01*
X160069Y65194D01*
Y65190D01*
X160073Y65177D01*
X160077Y65156D01*
Y65126D01*
Y65117D01*
X160081Y65092D01*
Y65053D01*
Y64998D01*
Y64993D01*
Y64985D01*
Y64972D01*
Y64955D01*
Y64912D01*
X160077Y64869D01*
Y64861D01*
X160073Y64840D01*
X160069Y64814D01*
X160060Y64788D01*
Y64784D01*
X160056Y64771D01*
X160047Y64754D01*
X160034Y64741D01*
X160030Y64737D01*
X160026Y64733D01*
X160013Y64728D01*
X159992Y64724D01*
X159987D01*
X159975Y64728D01*
X159953Y64733D01*
X159923Y64741D01*
X159915Y64746D01*
X159898Y64750D01*
X159868Y64763D01*
X159834Y64771D01*
X159825Y64776D01*
X159804Y64780D01*
X159765Y64793D01*
X159723Y64801D01*
X159718D01*
X159710Y64805D01*
X159697D01*
X159680Y64810D01*
X159637Y64814D01*
X159586Y64818D01*
X159556D01*
X159535Y64814D01*
X159479Y64801D01*
X159415Y64780D01*
X159411D01*
X159402Y64771D01*
X159385Y64763D01*
X159364Y64754D01*
X159338Y64737D01*
X159309Y64716D01*
X159274Y64694D01*
X159240Y64665D01*
X159236Y64660D01*
X159223Y64652D01*
X159206Y64635D01*
X159185Y64609D01*
X159155Y64579D01*
X159121Y64545D01*
X159086Y64502D01*
X159048Y64455D01*
X159044Y64451D01*
X159031Y64434D01*
X159010Y64404D01*
X158984Y64366D01*
X158950Y64319D01*
X158916Y64263D01*
X158873Y64203D01*
X158830Y64135D01*
Y62085D01*
Y62081D01*
Y62068D01*
X158822Y62051D01*
X158813Y62034D01*
X158809Y62030D01*
X158805Y62026D01*
X158788Y62013D01*
X158766Y62004D01*
X158762D01*
X158745Y62000D01*
X158719Y61996D01*
X158681Y61987D01*
X158672D01*
X158659Y61983D01*
X158642D01*
X158600Y61979D01*
X158493D01*
X158450Y61983D01*
X158403Y61987D01*
X158395D01*
X158373Y61992D01*
X158343Y62000D01*
X158314Y62004D01*
X158309Y62009D01*
X158297Y62013D01*
X158279Y62021D01*
X158267Y62034D01*
Y62038D01*
X158262Y62047D01*
X158258Y62064D01*
Y62085D01*
Y65198D01*
Y65202D01*
Y65215D01*
X158262Y65232D01*
X158267Y65245D01*
Y65250D01*
X158275Y65258D01*
X158288Y65271D01*
X158305Y65279D01*
X158309Y65284D01*
X158326Y65288D01*
X158352Y65296D01*
X158386Y65301D01*
X158395D01*
X158420Y65305D01*
X158463Y65309D01*
X158561D01*
X158600Y65305D01*
X158642Y65301D01*
X158651D01*
X158672Y65296D01*
X158698Y65292D01*
X158719Y65279D01*
X158723Y65275D01*
X158736Y65271D01*
X158749Y65258D01*
X158762Y65245D01*
X158766Y65241D01*
X158770Y65232D01*
X158775Y65220D01*
Y65198D01*
Y64750D01*
X158779Y64754D01*
X158796Y64776D01*
X158822Y64810D01*
X158852Y64857D01*
X158890Y64904D01*
X158928Y64955D01*
X158971Y65006D01*
X159014Y65053D01*
X159018Y65057D01*
X159031Y65074D01*
X159052Y65096D01*
X159082Y65121D01*
X159112Y65151D01*
X159151Y65181D01*
X159185Y65211D01*
X159223Y65237D01*
X159227Y65241D01*
X159240Y65250D01*
X159262Y65258D01*
X159287Y65275D01*
X159317Y65288D01*
X159351Y65305D01*
X159424Y65331D01*
X159428D01*
X159441Y65335D01*
X159462Y65339D01*
X159488Y65348D01*
X159518Y65352D01*
X159552Y65356D01*
X159624Y65360D01*
X159654D01*
X159688Y65356D01*
D02*
G37*
G36*
X143591D02*
X143629Y65352D01*
X143638D01*
X143667Y65348D01*
X143706Y65343D01*
X143749Y65335D01*
X143753D01*
X143761Y65331D01*
X143787Y65326D01*
X143821Y65314D01*
X143860Y65301D01*
X143864D01*
X143868Y65296D01*
X143889Y65292D01*
X143911Y65279D01*
X143932Y65267D01*
X143937Y65262D01*
X143945Y65258D01*
X143954Y65245D01*
X143958Y65232D01*
Y65228D01*
X143962Y65224D01*
X143966Y65211D01*
X143971Y65194D01*
Y65190D01*
X143975Y65177D01*
X143979Y65156D01*
Y65126D01*
Y65117D01*
X143983Y65092D01*
Y65053D01*
Y64998D01*
Y64993D01*
Y64985D01*
Y64972D01*
Y64955D01*
Y64912D01*
X143979Y64869D01*
Y64861D01*
X143975Y64840D01*
X143971Y64814D01*
X143962Y64788D01*
Y64784D01*
X143958Y64771D01*
X143949Y64754D01*
X143937Y64741D01*
X143932Y64737D01*
X143928Y64733D01*
X143915Y64728D01*
X143894Y64724D01*
X143889D01*
X143877Y64728D01*
X143855Y64733D01*
X143825Y64741D01*
X143817Y64746D01*
X143800Y64750D01*
X143770Y64763D01*
X143736Y64771D01*
X143727Y64776D01*
X143706Y64780D01*
X143667Y64793D01*
X143625Y64801D01*
X143621D01*
X143612Y64805D01*
X143599D01*
X143582Y64810D01*
X143539Y64814D01*
X143488Y64818D01*
X143458D01*
X143437Y64814D01*
X143381Y64801D01*
X143317Y64780D01*
X143313D01*
X143305Y64771D01*
X143287Y64763D01*
X143266Y64754D01*
X143240Y64737D01*
X143211Y64716D01*
X143176Y64694D01*
X143142Y64665D01*
X143138Y64660D01*
X143125Y64652D01*
X143108Y64635D01*
X143087Y64609D01*
X143057Y64579D01*
X143023Y64545D01*
X142989Y64502D01*
X142950Y64455D01*
X142946Y64451D01*
X142933Y64434D01*
X142912Y64404D01*
X142886Y64366D01*
X142852Y64319D01*
X142818Y64263D01*
X142775Y64203D01*
X142732Y64135D01*
Y62085D01*
Y62081D01*
Y62068D01*
X142724Y62051D01*
X142715Y62034D01*
X142711Y62030D01*
X142707Y62026D01*
X142690Y62013D01*
X142668Y62004D01*
X142664D01*
X142647Y62000D01*
X142621Y61996D01*
X142583Y61987D01*
X142574D01*
X142561Y61983D01*
X142544D01*
X142502Y61979D01*
X142395D01*
X142352Y61983D01*
X142305Y61987D01*
X142297D01*
X142275Y61992D01*
X142245Y62000D01*
X142216Y62004D01*
X142211Y62009D01*
X142199Y62013D01*
X142182Y62021D01*
X142169Y62034D01*
Y62038D01*
X142164Y62047D01*
X142160Y62064D01*
Y62085D01*
Y65198D01*
Y65202D01*
Y65215D01*
X142164Y65232D01*
X142169Y65245D01*
Y65250D01*
X142177Y65258D01*
X142190Y65271D01*
X142207Y65279D01*
X142211Y65284D01*
X142228Y65288D01*
X142254Y65296D01*
X142288Y65301D01*
X142297D01*
X142322Y65305D01*
X142365Y65309D01*
X142463D01*
X142502Y65305D01*
X142544Y65301D01*
X142553D01*
X142574Y65296D01*
X142600Y65292D01*
X142621Y65279D01*
X142626Y65275D01*
X142638Y65271D01*
X142651Y65258D01*
X142664Y65245D01*
X142668Y65241D01*
X142673Y65232D01*
X142677Y65220D01*
Y65198D01*
Y64750D01*
X142681Y64754D01*
X142698Y64776D01*
X142724Y64810D01*
X142754Y64857D01*
X142792Y64904D01*
X142831Y64955D01*
X142873Y65006D01*
X142916Y65053D01*
X142920Y65057D01*
X142933Y65074D01*
X142954Y65096D01*
X142984Y65121D01*
X143014Y65151D01*
X143053Y65181D01*
X143087Y65211D01*
X143125Y65237D01*
X143129Y65241D01*
X143142Y65250D01*
X143164Y65258D01*
X143189Y65275D01*
X143219Y65288D01*
X143253Y65305D01*
X143326Y65331D01*
X143330D01*
X143343Y65335D01*
X143364Y65339D01*
X143390Y65348D01*
X143420Y65352D01*
X143454Y65356D01*
X143526Y65360D01*
X143556D01*
X143591Y65356D01*
D02*
G37*
G36*
X170914Y66496D02*
X170940Y66492D01*
X170966Y66488D01*
X170974D01*
X171000Y66479D01*
X171030Y66471D01*
X171051Y66454D01*
X171055Y66449D01*
X171064Y66436D01*
X171068Y66415D01*
Y66385D01*
Y66377D01*
X171064Y66351D01*
X171055Y66313D01*
X171038Y66262D01*
X169578Y62103D01*
X169573Y62098D01*
X169565Y62081D01*
X169552Y62060D01*
X169535Y62038D01*
X169531Y62034D01*
X169518Y62026D01*
X169501Y62013D01*
X169471Y62000D01*
X169463D01*
X169441Y61996D01*
X169407Y61992D01*
X169360Y61987D01*
X169347D01*
X169334Y61983D01*
X169287D01*
X169258Y61979D01*
X169104D01*
X169057Y61983D01*
X169023D01*
X168993Y61987D01*
X168959Y61992D01*
X168950D01*
X168933Y61996D01*
X168912Y62000D01*
X168886Y62004D01*
X168882D01*
X168869Y62009D01*
X168839Y62026D01*
X168835Y62030D01*
X168826Y62034D01*
X168805Y62055D01*
Y62060D01*
X168796Y62068D01*
X168792Y62085D01*
X168784Y62107D01*
X167319Y66266D01*
Y66270D01*
X167315Y66278D01*
X167310Y66291D01*
X167302Y66308D01*
X167293Y66351D01*
X167285Y66390D01*
Y66394D01*
Y66398D01*
X167289Y66415D01*
X167298Y66436D01*
X167315Y66458D01*
X167323Y66462D01*
X167340Y66471D01*
X167375Y66483D01*
X167417Y66492D01*
X167430D01*
X167447Y66496D01*
X167494D01*
X167524Y66501D01*
X167661D01*
X167712Y66496D01*
X167759Y66492D01*
X167767D01*
X167789Y66488D01*
X167819Y66483D01*
X167844Y66475D01*
X167849Y66471D01*
X167861Y66466D01*
X167878Y66454D01*
X167891Y66436D01*
X167895Y66432D01*
X167904Y66424D01*
X167912Y66402D01*
X167925Y66381D01*
X169211Y62611D01*
X169215D01*
X170462Y66373D01*
X170466Y66381D01*
X170470Y66394D01*
X170479Y66415D01*
X170487Y66436D01*
X170492Y66441D01*
X170500Y66449D01*
X170513Y66462D01*
X170534Y66475D01*
X170543Y66479D01*
X170560Y66483D01*
X170590Y66488D01*
X170633Y66492D01*
X170645D01*
X170658Y66496D01*
X170701D01*
X170731Y66501D01*
X170859D01*
X170914Y66496D01*
D02*
G37*
G36*
X149885Y65356D02*
X149923D01*
X149966Y65352D01*
X150013Y65348D01*
X150119Y65331D01*
X150230Y65314D01*
X150346Y65284D01*
X150457Y65245D01*
X150461D01*
X150470Y65241D01*
X150487Y65232D01*
X150504Y65224D01*
X150529Y65211D01*
X150559Y65198D01*
X150623Y65160D01*
X150700Y65113D01*
X150777Y65057D01*
X150858Y64989D01*
X150931Y64912D01*
X150935Y64908D01*
X150939Y64904D01*
X150948Y64891D01*
X150961Y64874D01*
X150978Y64852D01*
X150995Y64827D01*
X151038Y64763D01*
X151084Y64686D01*
X151131Y64596D01*
X151178Y64494D01*
X151217Y64383D01*
Y64378D01*
X151221Y64370D01*
X151225Y64353D01*
X151234Y64327D01*
X151238Y64297D01*
X151247Y64263D01*
X151255Y64225D01*
X151268Y64178D01*
X151277Y64126D01*
X151285Y64075D01*
X151298Y63956D01*
X151311Y63823D01*
X151315Y63678D01*
Y63674D01*
Y63661D01*
Y63640D01*
Y63614D01*
X151311Y63580D01*
Y63542D01*
X151306Y63499D01*
X151302Y63447D01*
X151289Y63341D01*
X151272Y63221D01*
X151247Y63102D01*
X151213Y62978D01*
Y62974D01*
X151208Y62965D01*
X151204Y62948D01*
X151196Y62922D01*
X151183Y62897D01*
X151170Y62862D01*
X151136Y62790D01*
X151093Y62700D01*
X151042Y62611D01*
X150982Y62512D01*
X150909Y62423D01*
X150905Y62419D01*
X150901Y62414D01*
X150888Y62401D01*
X150875Y62384D01*
X150832Y62342D01*
X150773Y62290D01*
X150700Y62235D01*
X150619Y62175D01*
X150521Y62115D01*
X150414Y62064D01*
X150410D01*
X150401Y62060D01*
X150384Y62051D01*
X150363Y62043D01*
X150333Y62034D01*
X150299Y62026D01*
X150260Y62013D01*
X150213Y62000D01*
X150166Y61987D01*
X150111Y61979D01*
X149996Y61957D01*
X149863Y61940D01*
X149718Y61936D01*
X149654D01*
X149620Y61940D01*
X149581D01*
X149539Y61945D01*
X149492Y61949D01*
X149385Y61962D01*
X149274Y61983D01*
X149159Y62009D01*
X149048Y62047D01*
X149043D01*
X149035Y62051D01*
X149022Y62060D01*
X149001Y62068D01*
X148975Y62081D01*
X148949Y62094D01*
X148881Y62132D01*
X148809Y62179D01*
X148727Y62235D01*
X148651Y62303D01*
X148574Y62380D01*
Y62384D01*
X148565Y62389D01*
X148557Y62401D01*
X148544Y62419D01*
X148527Y62440D01*
X148510Y62465D01*
X148467Y62529D01*
X148420Y62606D01*
X148373Y62696D01*
X148326Y62799D01*
X148288Y62910D01*
Y62914D01*
X148283Y62922D01*
X148279Y62939D01*
X148275Y62965D01*
X148266Y62995D01*
X148258Y63029D01*
X148249Y63072D01*
X148245Y63115D01*
X148236Y63166D01*
X148228Y63221D01*
X148211Y63341D01*
X148202Y63473D01*
X148198Y63618D01*
Y63623D01*
Y63635D01*
Y63657D01*
Y63682D01*
X148202Y63717D01*
Y63755D01*
X148206Y63802D01*
X148211Y63849D01*
X148223Y63956D01*
X148241Y64075D01*
X148262Y64195D01*
X148296Y64319D01*
Y64323D01*
X148300Y64331D01*
X148305Y64349D01*
X148313Y64374D01*
X148326Y64400D01*
X148339Y64434D01*
X148369Y64507D01*
X148411Y64592D01*
X148463Y64686D01*
X148522Y64780D01*
X148591Y64869D01*
X148595Y64874D01*
X148599Y64878D01*
X148612Y64891D01*
X148625Y64908D01*
X148672Y64951D01*
X148727Y65002D01*
X148800Y65057D01*
X148885Y65117D01*
X148984Y65177D01*
X149090Y65228D01*
X149095D01*
X149103Y65232D01*
X149120Y65241D01*
X149142Y65250D01*
X149171Y65258D01*
X149206Y65271D01*
X149244Y65284D01*
X149291Y65296D01*
X149338Y65305D01*
X149393Y65318D01*
X149509Y65339D01*
X149641Y65356D01*
X149786Y65360D01*
X149850D01*
X149885Y65356D01*
D02*
G37*
G36*
X140012D02*
X140047D01*
X140089Y65352D01*
X140136Y65348D01*
X140230Y65331D01*
X140337Y65309D01*
X140444Y65279D01*
X140542Y65241D01*
X140546D01*
X140555Y65237D01*
X140567Y65228D01*
X140585Y65220D01*
X140631Y65194D01*
X140691Y65156D01*
X140760Y65109D01*
X140832Y65057D01*
X140905Y64993D01*
X140969Y64921D01*
Y64916D01*
X140977Y64912D01*
X140994Y64886D01*
X141024Y64844D01*
X141063Y64788D01*
X141101Y64720D01*
X141144Y64643D01*
X141178Y64553D01*
X141212Y64455D01*
Y64451D01*
X141217Y64442D01*
X141221Y64430D01*
X141225Y64408D01*
X141229Y64383D01*
X141238Y64357D01*
X141255Y64284D01*
X141268Y64199D01*
X141280Y64101D01*
X141289Y63994D01*
X141293Y63883D01*
Y63781D01*
Y63776D01*
Y63759D01*
X141289Y63734D01*
X141285Y63704D01*
X141276Y63674D01*
X141263Y63644D01*
X141246Y63614D01*
X141225Y63588D01*
X141221Y63584D01*
X141212Y63580D01*
X141199Y63571D01*
X141178Y63563D01*
X141131Y63542D01*
X141101Y63537D01*
X141067Y63533D01*
X139017D01*
Y63529D01*
Y63520D01*
Y63507D01*
Y63490D01*
Y63465D01*
X139022Y63439D01*
X139026Y63375D01*
X139030Y63302D01*
X139039Y63226D01*
X139052Y63144D01*
X139069Y63063D01*
Y63059D01*
X139073Y63055D01*
X139077Y63029D01*
X139090Y62991D01*
X139111Y62939D01*
X139133Y62884D01*
X139163Y62824D01*
X139197Y62764D01*
X139240Y62704D01*
X139244Y62700D01*
X139261Y62679D01*
X139291Y62653D01*
X139325Y62623D01*
X139372Y62585D01*
X139423Y62547D01*
X139487Y62512D01*
X139555Y62478D01*
X139560D01*
X139564Y62474D01*
X139577Y62470D01*
X139590Y62465D01*
X139632Y62453D01*
X139688Y62440D01*
X139760Y62427D01*
X139841Y62414D01*
X139931Y62406D01*
X140034Y62401D01*
X140115D01*
X140166Y62406D01*
X140230Y62410D01*
X140294Y62414D01*
X140363Y62423D01*
X140431Y62436D01*
X140439D01*
X140461Y62440D01*
X140495Y62448D01*
X140533Y62457D01*
X140580Y62470D01*
X140631Y62483D01*
X140683Y62500D01*
X140730Y62517D01*
X140734Y62521D01*
X140751Y62525D01*
X140777Y62534D01*
X140802Y62547D01*
X140871Y62572D01*
X140905Y62585D01*
X140939Y62598D01*
X140943D01*
X140952Y62602D01*
X140969Y62611D01*
X140986Y62619D01*
X141029Y62632D01*
X141067Y62636D01*
X141080D01*
X141093Y62632D01*
X141105Y62623D01*
X141110Y62619D01*
X141118Y62615D01*
X141127Y62602D01*
X141135Y62585D01*
X141140Y62581D01*
X141144Y62568D01*
X141148Y62547D01*
X141152Y62517D01*
Y62508D01*
X141157Y62487D01*
X141161Y62453D01*
Y62410D01*
Y62401D01*
Y62384D01*
Y62359D01*
X141157Y62333D01*
Y62329D01*
X141152Y62312D01*
X141148Y62295D01*
X141144Y62273D01*
Y62269D01*
X141140Y62256D01*
X141127Y62226D01*
Y62222D01*
X141118Y62213D01*
X141110Y62201D01*
X141097Y62188D01*
X141093Y62184D01*
X141088Y62179D01*
X141076Y62175D01*
X141063Y62167D01*
X141041Y62154D01*
X141016Y62141D01*
X140986Y62124D01*
X140982D01*
X140969Y62115D01*
X140947Y62107D01*
X140922Y62098D01*
X140883Y62085D01*
X140845Y62068D01*
X140798Y62055D01*
X140743Y62038D01*
X140734D01*
X140717Y62034D01*
X140687Y62026D01*
X140644Y62017D01*
X140593Y62004D01*
X140533Y61992D01*
X140469Y61983D01*
X140397Y61970D01*
X140388D01*
X140363Y61966D01*
X140324Y61962D01*
X140273Y61953D01*
X140213Y61949D01*
X140140Y61940D01*
X140064Y61936D01*
X139918D01*
X139884Y61940D01*
X139846D01*
X139803Y61945D01*
X139756Y61949D01*
X139649Y61962D01*
X139534Y61983D01*
X139419Y62009D01*
X139308Y62043D01*
X139304D01*
X139295Y62047D01*
X139278Y62055D01*
X139261Y62064D01*
X139235Y62073D01*
X139205Y62090D01*
X139137Y62124D01*
X139060Y62167D01*
X138979Y62222D01*
X138898Y62286D01*
X138821Y62359D01*
Y62363D01*
X138812Y62367D01*
X138804Y62380D01*
X138787Y62397D01*
X138774Y62419D01*
X138753Y62444D01*
X138710Y62504D01*
X138663Y62581D01*
X138612Y62670D01*
X138565Y62773D01*
X138522Y62888D01*
Y62892D01*
X138518Y62901D01*
X138514Y62922D01*
X138505Y62944D01*
X138501Y62974D01*
X138492Y63012D01*
X138484Y63055D01*
X138475Y63102D01*
X138462Y63153D01*
X138454Y63208D01*
X138445Y63273D01*
X138441Y63336D01*
X138428Y63477D01*
X138424Y63631D01*
Y63635D01*
Y63648D01*
Y63670D01*
Y63700D01*
X138428Y63734D01*
Y63776D01*
X138432Y63823D01*
X138437Y63870D01*
X138450Y63986D01*
X138467Y64105D01*
X138492Y64229D01*
X138526Y64353D01*
Y64357D01*
X138531Y64366D01*
X138539Y64383D01*
X138548Y64408D01*
X138556Y64434D01*
X138569Y64468D01*
X138603Y64541D01*
X138646Y64626D01*
X138697Y64716D01*
X138757Y64810D01*
X138825Y64895D01*
X138830Y64899D01*
X138834Y64904D01*
X138847Y64916D01*
X138859Y64934D01*
X138902Y64972D01*
X138958Y65023D01*
X139026Y65079D01*
X139107Y65139D01*
X139201Y65194D01*
X139299Y65241D01*
X139304D01*
X139312Y65245D01*
X139329Y65254D01*
X139346Y65258D01*
X139376Y65271D01*
X139406Y65279D01*
X139440Y65288D01*
X139483Y65301D01*
X139573Y65322D01*
X139679Y65343D01*
X139795Y65356D01*
X139918Y65360D01*
X139978D01*
X140012Y65356D01*
D02*
G37*
G36*
X131131Y66543D02*
X131173D01*
X131220Y66539D01*
X131276Y66535D01*
X131340Y66531D01*
X131404Y66522D01*
X131472Y66509D01*
X131617Y66483D01*
X131767Y66449D01*
X131908Y66398D01*
X131912D01*
X131925Y66390D01*
X131942Y66381D01*
X131968Y66373D01*
X132002Y66355D01*
X132036Y66334D01*
X132079Y66313D01*
X132121Y66287D01*
X132220Y66227D01*
X132322Y66150D01*
X132424Y66065D01*
X132518Y65963D01*
X132523Y65958D01*
X132531Y65950D01*
X132544Y65933D01*
X132561Y65911D01*
X132578Y65881D01*
X132604Y65851D01*
X132630Y65809D01*
X132659Y65766D01*
X132685Y65719D01*
X132719Y65664D01*
X132749Y65604D01*
X132779Y65544D01*
X132834Y65408D01*
X132886Y65254D01*
Y65250D01*
X132890Y65237D01*
X132898Y65211D01*
X132903Y65181D01*
X132916Y65139D01*
X132924Y65092D01*
X132933Y65040D01*
X132946Y64976D01*
X132958Y64908D01*
X132967Y64835D01*
X132980Y64754D01*
X132988Y64673D01*
X132992Y64583D01*
X133001Y64489D01*
X133005Y64293D01*
Y64289D01*
Y64267D01*
Y64242D01*
Y64199D01*
X133001Y64152D01*
X132997Y64097D01*
Y64033D01*
X132988Y63964D01*
X132984Y63892D01*
X132975Y63815D01*
X132950Y63648D01*
X132920Y63477D01*
X132877Y63311D01*
Y63307D01*
X132873Y63294D01*
X132864Y63268D01*
X132852Y63238D01*
X132839Y63200D01*
X132822Y63157D01*
X132805Y63110D01*
X132783Y63055D01*
X132728Y62939D01*
X132659Y62816D01*
X132582Y62687D01*
X132493Y62568D01*
X132489Y62564D01*
X132480Y62555D01*
X132467Y62538D01*
X132446Y62517D01*
X132420Y62491D01*
X132390Y62465D01*
X132356Y62431D01*
X132318Y62397D01*
X132271Y62359D01*
X132224Y62320D01*
X132113Y62243D01*
X131989Y62167D01*
X131852Y62098D01*
X131848D01*
X131835Y62090D01*
X131814Y62085D01*
X131784Y62073D01*
X131746Y62060D01*
X131703Y62047D01*
X131652Y62034D01*
X131596Y62017D01*
X131532Y62000D01*
X131464Y61987D01*
X131391Y61974D01*
X131310Y61962D01*
X131229Y61953D01*
X131143Y61945D01*
X130956Y61936D01*
X130909D01*
X130870Y61940D01*
X130828D01*
X130776Y61945D01*
X130721Y61949D01*
X130657Y61953D01*
X130593Y61962D01*
X130520Y61974D01*
X130375Y62000D01*
X130226Y62034D01*
X130080Y62085D01*
X130076D01*
X130063Y62094D01*
X130046Y62103D01*
X130020Y62115D01*
X129986Y62128D01*
X129952Y62150D01*
X129867Y62196D01*
X129773Y62256D01*
X129670Y62333D01*
X129568Y62419D01*
X129474Y62521D01*
X129470Y62525D01*
X129465Y62534D01*
X129453Y62551D01*
X129436Y62572D01*
X129414Y62602D01*
X129393Y62636D01*
X129367Y62675D01*
X129342Y62717D01*
X129312Y62769D01*
X129282Y62824D01*
X129252Y62880D01*
X129222Y62944D01*
X129166Y63080D01*
X129115Y63234D01*
Y63238D01*
X129111Y63255D01*
X129107Y63277D01*
X129098Y63311D01*
X129090Y63349D01*
X129077Y63401D01*
X129068Y63456D01*
X129060Y63516D01*
X129047Y63584D01*
X129038Y63661D01*
X129026Y63742D01*
X129017Y63828D01*
X129013Y63921D01*
X129004Y64015D01*
X129000Y64216D01*
Y64220D01*
Y64242D01*
Y64267D01*
X129004Y64306D01*
Y64353D01*
X129008Y64408D01*
X129013Y64468D01*
X129017Y64536D01*
X129021Y64609D01*
X129030Y64682D01*
X129056Y64844D01*
X129085Y65010D01*
X129128Y65177D01*
Y65181D01*
X129132Y65198D01*
X129141Y65220D01*
X129154Y65250D01*
X129166Y65288D01*
X129184Y65331D01*
X129201Y65378D01*
X129222Y65433D01*
X129278Y65548D01*
X129342Y65672D01*
X129419Y65796D01*
X129508Y65911D01*
X129512Y65916D01*
X129521Y65924D01*
X129534Y65941D01*
X129555Y65963D01*
X129581Y65988D01*
X129611Y66018D01*
X129645Y66048D01*
X129683Y66082D01*
X129730Y66121D01*
X129777Y66159D01*
X129888Y66236D01*
X130012Y66313D01*
X130149Y66381D01*
X130153D01*
X130166Y66390D01*
X130187Y66398D01*
X130217Y66407D01*
X130255Y66419D01*
X130298Y66432D01*
X130349Y66449D01*
X130405Y66466D01*
X130469Y66479D01*
X130537Y66496D01*
X130610Y66509D01*
X130691Y66522D01*
X130772Y66531D01*
X130862Y66539D01*
X131045Y66548D01*
X131092D01*
X131131Y66543D01*
D02*
G37*
G36*
X162199Y65356D02*
X162238D01*
X162280Y65352D01*
X162327Y65348D01*
X162434Y65331D01*
X162545Y65314D01*
X162660Y65284D01*
X162771Y65245D01*
X162776D01*
X162784Y65241D01*
X162801Y65232D01*
X162818Y65224D01*
X162844Y65211D01*
X162874Y65198D01*
X162938Y65160D01*
X163015Y65113D01*
X163092Y65057D01*
X163173Y64989D01*
X163245Y64912D01*
X163250Y64908D01*
X163254Y64904D01*
X163262Y64891D01*
X163275Y64874D01*
X163292Y64852D01*
X163309Y64827D01*
X163352Y64763D01*
X163399Y64686D01*
X163446Y64596D01*
X163493Y64494D01*
X163531Y64383D01*
Y64378D01*
X163536Y64370D01*
X163540Y64353D01*
X163549Y64327D01*
X163553Y64297D01*
X163561Y64263D01*
X163570Y64225D01*
X163583Y64178D01*
X163591Y64126D01*
X163600Y64075D01*
X163613Y63956D01*
X163625Y63823D01*
X163630Y63678D01*
Y63674D01*
Y63661D01*
Y63640D01*
Y63614D01*
X163625Y63580D01*
Y63542D01*
X163621Y63499D01*
X163617Y63447D01*
X163604Y63341D01*
X163587Y63221D01*
X163561Y63102D01*
X163527Y62978D01*
Y62974D01*
X163523Y62965D01*
X163519Y62948D01*
X163510Y62922D01*
X163497Y62897D01*
X163485Y62862D01*
X163450Y62790D01*
X163408Y62700D01*
X163356Y62611D01*
X163297Y62512D01*
X163224Y62423D01*
X163220Y62419D01*
X163215Y62414D01*
X163203Y62401D01*
X163190Y62384D01*
X163147Y62342D01*
X163087Y62290D01*
X163015Y62235D01*
X162934Y62175D01*
X162836Y62115D01*
X162729Y62064D01*
X162724D01*
X162716Y62060D01*
X162699Y62051D01*
X162678Y62043D01*
X162648Y62034D01*
X162613Y62026D01*
X162575Y62013D01*
X162528Y62000D01*
X162481Y61987D01*
X162426Y61979D01*
X162310Y61957D01*
X162178Y61940D01*
X162033Y61936D01*
X161969D01*
X161934Y61940D01*
X161896D01*
X161853Y61945D01*
X161806Y61949D01*
X161700Y61962D01*
X161589Y61983D01*
X161473Y62009D01*
X161362Y62047D01*
X161358D01*
X161349Y62051D01*
X161337Y62060D01*
X161315Y62068D01*
X161290Y62081D01*
X161264Y62094D01*
X161196Y62132D01*
X161123Y62179D01*
X161042Y62235D01*
X160965Y62303D01*
X160888Y62380D01*
Y62384D01*
X160880Y62389D01*
X160871Y62401D01*
X160859Y62419D01*
X160841Y62440D01*
X160824Y62465D01*
X160782Y62529D01*
X160735Y62606D01*
X160688Y62696D01*
X160641Y62799D01*
X160602Y62910D01*
Y62914D01*
X160598Y62922D01*
X160594Y62939D01*
X160590Y62965D01*
X160581Y62995D01*
X160572Y63029D01*
X160564Y63072D01*
X160560Y63115D01*
X160551Y63166D01*
X160543Y63221D01*
X160525Y63341D01*
X160517Y63473D01*
X160513Y63618D01*
Y63623D01*
Y63635D01*
Y63657D01*
Y63682D01*
X160517Y63717D01*
Y63755D01*
X160521Y63802D01*
X160525Y63849D01*
X160538Y63956D01*
X160555Y64075D01*
X160577Y64195D01*
X160611Y64319D01*
Y64323D01*
X160615Y64331D01*
X160619Y64349D01*
X160628Y64374D01*
X160641Y64400D01*
X160653Y64434D01*
X160683Y64507D01*
X160726Y64592D01*
X160777Y64686D01*
X160837Y64780D01*
X160905Y64869D01*
X160910Y64874D01*
X160914Y64878D01*
X160927Y64891D01*
X160940Y64908D01*
X160987Y64951D01*
X161042Y65002D01*
X161115Y65057D01*
X161200Y65117D01*
X161298Y65177D01*
X161405Y65228D01*
X161409D01*
X161418Y65232D01*
X161435Y65241D01*
X161456Y65250D01*
X161486Y65258D01*
X161520Y65271D01*
X161559Y65284D01*
X161606Y65296D01*
X161653Y65305D01*
X161708Y65318D01*
X161823Y65339D01*
X161956Y65356D01*
X162101Y65360D01*
X162165D01*
X162199Y65356D01*
D02*
G37*
G36*
X156396Y66142D02*
X156443Y66138D01*
X156452D01*
X156473Y66133D01*
X156503Y66125D01*
X156529Y66112D01*
X156533Y66108D01*
X156546Y66104D01*
X156563Y66091D01*
X156576Y66078D01*
X156580Y66074D01*
X156584Y66065D01*
X156588Y66048D01*
X156593Y66031D01*
Y65292D01*
X157408D01*
X157421Y65288D01*
X157438Y65279D01*
X157442Y65275D01*
X157451Y65271D01*
X157464Y65258D01*
X157472Y65237D01*
X157477Y65232D01*
X157481Y65215D01*
X157489Y65190D01*
X157498Y65160D01*
Y65151D01*
X157502Y65130D01*
X157507Y65096D01*
Y65053D01*
Y65049D01*
Y65032D01*
Y65010D01*
X157502Y64981D01*
X157494Y64921D01*
X157485Y64895D01*
X157472Y64869D01*
X157468Y64861D01*
X157451Y64844D01*
X157425Y64827D01*
X157408Y64823D01*
X157391Y64818D01*
X156593D01*
Y63076D01*
Y63072D01*
Y63063D01*
Y63046D01*
Y63025D01*
X156597Y62995D01*
Y62965D01*
X156606Y62897D01*
X156614Y62816D01*
X156631Y62734D01*
X156657Y62658D01*
X156687Y62589D01*
X156691Y62581D01*
X156704Y62564D01*
X156729Y62538D01*
X156764Y62508D01*
X156810Y62478D01*
X156870Y62453D01*
X156943Y62436D01*
X157028Y62427D01*
X157075D01*
X157118Y62431D01*
X157165Y62440D01*
X157169D01*
X157178Y62444D01*
X157203Y62453D01*
X157238Y62461D01*
X157276Y62474D01*
X157280D01*
X157284Y62478D01*
X157306Y62483D01*
X157336Y62495D01*
X157361Y62504D01*
X157366Y62508D01*
X157383Y62512D01*
X157404Y62517D01*
X157425Y62521D01*
X157434D01*
X157455Y62512D01*
X157459D01*
X157464Y62504D01*
X157472Y62495D01*
X157481Y62478D01*
Y62474D01*
X157485Y62461D01*
X157494Y62444D01*
X157498Y62414D01*
Y62406D01*
X157502Y62384D01*
X157507Y62354D01*
Y62312D01*
Y62307D01*
Y62295D01*
Y62278D01*
Y62252D01*
X157498Y62201D01*
X157489Y62150D01*
Y62145D01*
X157485Y62141D01*
X157481Y62120D01*
X157468Y62090D01*
X157447Y62064D01*
X157442Y62060D01*
X157425Y62047D01*
X157400Y62034D01*
X157366Y62017D01*
X157361D01*
X157357Y62013D01*
X157344Y62009D01*
X157327Y62004D01*
X157289Y61992D01*
X157238Y61979D01*
X157233D01*
X157225Y61974D01*
X157212D01*
X157195Y61970D01*
X157148Y61962D01*
X157088Y61953D01*
X157075D01*
X157058Y61949D01*
X157041D01*
X156990Y61945D01*
X156930Y61940D01*
X156887D01*
X156845Y61945D01*
X156785Y61949D01*
X156721Y61957D01*
X156652Y61966D01*
X156580Y61983D01*
X156512Y62004D01*
X156503Y62009D01*
X156482Y62017D01*
X156452Y62030D01*
X156413Y62051D01*
X156366Y62081D01*
X156319Y62111D01*
X156272Y62150D01*
X156230Y62196D01*
X156226Y62201D01*
X156213Y62218D01*
X156191Y62248D01*
X156170Y62286D01*
X156140Y62333D01*
X156114Y62389D01*
X156089Y62453D01*
X156068Y62525D01*
Y62529D01*
Y62534D01*
X156063Y62547D01*
X156059Y62559D01*
X156055Y62602D01*
X156046Y62658D01*
X156038Y62730D01*
X156029Y62807D01*
X156025Y62897D01*
X156021Y62995D01*
Y64818D01*
X155572D01*
X155551Y64827D01*
X155525Y64840D01*
X155512Y64852D01*
X155500Y64869D01*
Y64874D01*
X155495Y64882D01*
X155491Y64895D01*
X155487Y64912D01*
X155478Y64938D01*
X155474Y64972D01*
X155470Y65010D01*
Y65053D01*
Y65057D01*
Y65066D01*
Y65092D01*
X155474Y65126D01*
X155478Y65160D01*
Y65164D01*
Y65168D01*
X155482Y65185D01*
X155491Y65211D01*
X155500Y65237D01*
X155504Y65241D01*
X155508Y65254D01*
X155521Y65267D01*
X155534Y65279D01*
X155538Y65284D01*
X155551Y65288D01*
X155568Y65292D01*
X156021D01*
Y66031D01*
Y66035D01*
Y66048D01*
X156029Y66078D01*
X156033Y66082D01*
X156042Y66091D01*
X156055Y66104D01*
X156076Y66112D01*
X156080Y66116D01*
X156102Y66121D01*
X156127Y66129D01*
X156166Y66138D01*
X156174D01*
X156187Y66142D01*
X156204D01*
X156247Y66146D01*
X156354D01*
X156396Y66142D01*
D02*
G37*
G36*
X136771D02*
X136818Y66138D01*
X136827D01*
X136848Y66133D01*
X136878Y66125D01*
X136904Y66112D01*
X136908Y66108D01*
X136921Y66104D01*
X136938Y66091D01*
X136951Y66078D01*
X136955Y66074D01*
X136959Y66065D01*
X136964Y66048D01*
X136968Y66031D01*
Y65292D01*
X137783D01*
X137796Y65288D01*
X137813Y65279D01*
X137818Y65275D01*
X137826Y65271D01*
X137839Y65258D01*
X137847Y65237D01*
X137852Y65232D01*
X137856Y65215D01*
X137864Y65190D01*
X137873Y65160D01*
Y65151D01*
X137877Y65130D01*
X137882Y65096D01*
Y65053D01*
Y65049D01*
Y65032D01*
Y65010D01*
X137877Y64981D01*
X137869Y64921D01*
X137860Y64895D01*
X137847Y64869D01*
X137843Y64861D01*
X137826Y64844D01*
X137801Y64827D01*
X137783Y64823D01*
X137766Y64818D01*
X136968D01*
Y63076D01*
Y63072D01*
Y63063D01*
Y63046D01*
Y63025D01*
X136972Y62995D01*
Y62965D01*
X136981Y62897D01*
X136989Y62816D01*
X137006Y62734D01*
X137032Y62658D01*
X137062Y62589D01*
X137066Y62581D01*
X137079Y62564D01*
X137104Y62538D01*
X137139Y62508D01*
X137186Y62478D01*
X137245Y62453D01*
X137318Y62436D01*
X137403Y62427D01*
X137450D01*
X137493Y62431D01*
X137540Y62440D01*
X137544D01*
X137553Y62444D01*
X137578Y62453D01*
X137613Y62461D01*
X137651Y62474D01*
X137655D01*
X137660Y62478D01*
X137681Y62483D01*
X137711Y62495D01*
X137736Y62504D01*
X137741Y62508D01*
X137758Y62512D01*
X137779Y62517D01*
X137801Y62521D01*
X137809D01*
X137830Y62512D01*
X137835D01*
X137839Y62504D01*
X137847Y62495D01*
X137856Y62478D01*
Y62474D01*
X137860Y62461D01*
X137869Y62444D01*
X137873Y62414D01*
Y62406D01*
X137877Y62384D01*
X137882Y62354D01*
Y62312D01*
Y62307D01*
Y62295D01*
Y62278D01*
Y62252D01*
X137873Y62201D01*
X137864Y62150D01*
Y62145D01*
X137860Y62141D01*
X137856Y62120D01*
X137843Y62090D01*
X137822Y62064D01*
X137818Y62060D01*
X137801Y62047D01*
X137775Y62034D01*
X137741Y62017D01*
X137736D01*
X137732Y62013D01*
X137719Y62009D01*
X137702Y62004D01*
X137664Y61992D01*
X137613Y61979D01*
X137608D01*
X137600Y61974D01*
X137587D01*
X137570Y61970D01*
X137523Y61962D01*
X137463Y61953D01*
X137450D01*
X137433Y61949D01*
X137416D01*
X137365Y61945D01*
X137305Y61940D01*
X137262D01*
X137220Y61945D01*
X137160Y61949D01*
X137096Y61957D01*
X137028Y61966D01*
X136955Y61983D01*
X136887Y62004D01*
X136878Y62009D01*
X136857Y62017D01*
X136827Y62030D01*
X136788Y62051D01*
X136741Y62081D01*
X136695Y62111D01*
X136648Y62150D01*
X136605Y62196D01*
X136601Y62201D01*
X136588Y62218D01*
X136566Y62248D01*
X136545Y62286D01*
X136515Y62333D01*
X136490Y62389D01*
X136464Y62453D01*
X136443Y62525D01*
Y62529D01*
Y62534D01*
X136438Y62547D01*
X136434Y62559D01*
X136430Y62602D01*
X136421Y62658D01*
X136413Y62730D01*
X136404Y62807D01*
X136400Y62897D01*
X136396Y62995D01*
Y64818D01*
X135947D01*
X135926Y64827D01*
X135900Y64840D01*
X135888Y64852D01*
X135875Y64869D01*
Y64874D01*
X135870Y64882D01*
X135866Y64895D01*
X135862Y64912D01*
X135853Y64938D01*
X135849Y64972D01*
X135845Y65010D01*
Y65053D01*
Y65057D01*
Y65066D01*
Y65092D01*
X135849Y65126D01*
X135853Y65160D01*
Y65164D01*
Y65168D01*
X135858Y65185D01*
X135866Y65211D01*
X135875Y65237D01*
X135879Y65241D01*
X135883Y65254D01*
X135896Y65267D01*
X135909Y65279D01*
X135913Y65284D01*
X135926Y65288D01*
X135943Y65292D01*
X136396D01*
Y66031D01*
Y66035D01*
Y66048D01*
X136404Y66078D01*
X136408Y66082D01*
X136417Y66091D01*
X136430Y66104D01*
X136451Y66112D01*
X136455Y66116D01*
X136477Y66121D01*
X136502Y66129D01*
X136541Y66138D01*
X136549D01*
X136562Y66142D01*
X136579D01*
X136622Y66146D01*
X136729D01*
X136771Y66142D01*
D02*
G37*
G36*
X134397D02*
X134444Y66138D01*
X134453D01*
X134474Y66133D01*
X134504Y66125D01*
X134530Y66112D01*
X134534Y66108D01*
X134547Y66104D01*
X134564Y66091D01*
X134577Y66078D01*
X134581Y66074D01*
X134585Y66065D01*
X134589Y66048D01*
X134594Y66031D01*
Y65292D01*
X135409D01*
X135422Y65288D01*
X135439Y65279D01*
X135443Y65275D01*
X135452Y65271D01*
X135465Y65258D01*
X135473Y65237D01*
X135478Y65232D01*
X135482Y65215D01*
X135490Y65190D01*
X135499Y65160D01*
Y65151D01*
X135503Y65130D01*
X135508Y65096D01*
Y65053D01*
Y65049D01*
Y65032D01*
Y65010D01*
X135503Y64981D01*
X135495Y64921D01*
X135486Y64895D01*
X135473Y64869D01*
X135469Y64861D01*
X135452Y64844D01*
X135426Y64827D01*
X135409Y64823D01*
X135392Y64818D01*
X134594D01*
Y63076D01*
Y63072D01*
Y63063D01*
Y63046D01*
Y63025D01*
X134598Y62995D01*
Y62965D01*
X134607Y62897D01*
X134615Y62816D01*
X134632Y62734D01*
X134658Y62658D01*
X134688Y62589D01*
X134692Y62581D01*
X134705Y62564D01*
X134730Y62538D01*
X134765Y62508D01*
X134811Y62478D01*
X134871Y62453D01*
X134944Y62436D01*
X135029Y62427D01*
X135076D01*
X135119Y62431D01*
X135166Y62440D01*
X135170D01*
X135179Y62444D01*
X135204Y62453D01*
X135239Y62461D01*
X135277Y62474D01*
X135281D01*
X135285Y62478D01*
X135307Y62483D01*
X135337Y62495D01*
X135362Y62504D01*
X135367Y62508D01*
X135384Y62512D01*
X135405Y62517D01*
X135426Y62521D01*
X135435D01*
X135456Y62512D01*
X135460D01*
X135465Y62504D01*
X135473Y62495D01*
X135482Y62478D01*
Y62474D01*
X135486Y62461D01*
X135495Y62444D01*
X135499Y62414D01*
Y62406D01*
X135503Y62384D01*
X135508Y62354D01*
Y62312D01*
Y62307D01*
Y62295D01*
Y62278D01*
Y62252D01*
X135499Y62201D01*
X135490Y62150D01*
Y62145D01*
X135486Y62141D01*
X135482Y62120D01*
X135469Y62090D01*
X135448Y62064D01*
X135443Y62060D01*
X135426Y62047D01*
X135401Y62034D01*
X135367Y62017D01*
X135362D01*
X135358Y62013D01*
X135345Y62009D01*
X135328Y62004D01*
X135290Y61992D01*
X135239Y61979D01*
X135234D01*
X135226Y61974D01*
X135213D01*
X135196Y61970D01*
X135149Y61962D01*
X135089Y61953D01*
X135076D01*
X135059Y61949D01*
X135042D01*
X134991Y61945D01*
X134931Y61940D01*
X134888D01*
X134846Y61945D01*
X134786Y61949D01*
X134722Y61957D01*
X134653Y61966D01*
X134581Y61983D01*
X134513Y62004D01*
X134504Y62009D01*
X134483Y62017D01*
X134453Y62030D01*
X134414Y62051D01*
X134367Y62081D01*
X134320Y62111D01*
X134274Y62150D01*
X134231Y62196D01*
X134227Y62201D01*
X134214Y62218D01*
X134192Y62248D01*
X134171Y62286D01*
X134141Y62333D01*
X134116Y62389D01*
X134090Y62453D01*
X134069Y62525D01*
Y62529D01*
Y62534D01*
X134064Y62547D01*
X134060Y62559D01*
X134056Y62602D01*
X134047Y62658D01*
X134039Y62730D01*
X134030Y62807D01*
X134026Y62897D01*
X134021Y62995D01*
Y64818D01*
X133573D01*
X133552Y64827D01*
X133526Y64840D01*
X133513Y64852D01*
X133501Y64869D01*
Y64874D01*
X133496Y64882D01*
X133492Y64895D01*
X133488Y64912D01*
X133479Y64938D01*
X133475Y64972D01*
X133471Y65010D01*
Y65053D01*
Y65057D01*
Y65066D01*
Y65092D01*
X133475Y65126D01*
X133479Y65160D01*
Y65164D01*
Y65168D01*
X133484Y65185D01*
X133492Y65211D01*
X133501Y65237D01*
X133505Y65241D01*
X133509Y65254D01*
X133522Y65267D01*
X133535Y65279D01*
X133539Y65284D01*
X133552Y65288D01*
X133569Y65292D01*
X134021D01*
Y66031D01*
Y66035D01*
Y66048D01*
X134030Y66078D01*
X134034Y66082D01*
X134043Y66091D01*
X134056Y66104D01*
X134077Y66112D01*
X134081Y66116D01*
X134103Y66121D01*
X134128Y66129D01*
X134167Y66138D01*
X134175D01*
X134188Y66142D01*
X134205D01*
X134248Y66146D01*
X134355D01*
X134397Y66142D01*
D02*
G37*
G36*
X153800Y65356D02*
X153834D01*
X153907Y65348D01*
X153988Y65335D01*
X154078Y65314D01*
X154163Y65288D01*
X154248Y65254D01*
X154253D01*
X154257Y65250D01*
X154283Y65232D01*
X154321Y65211D01*
X154372Y65177D01*
X154428Y65139D01*
X154483Y65087D01*
X154543Y65032D01*
X154594Y64968D01*
X154599Y64959D01*
X154616Y64938D01*
X154641Y64899D01*
X154667Y64852D01*
X154697Y64788D01*
X154731Y64720D01*
X154757Y64639D01*
X154782Y64553D01*
Y64549D01*
X154787Y64545D01*
Y64528D01*
X154791Y64511D01*
X154795Y64489D01*
X154799Y64464D01*
X154808Y64430D01*
X154812Y64395D01*
X154825Y64310D01*
X154833Y64216D01*
X154838Y64105D01*
X154842Y63986D01*
Y62085D01*
Y62081D01*
Y62068D01*
X154833Y62051D01*
X154825Y62034D01*
X154821Y62030D01*
X154816Y62026D01*
X154799Y62013D01*
X154778Y62004D01*
X154774D01*
X154757Y62000D01*
X154731Y61996D01*
X154693Y61987D01*
X154684D01*
X154671Y61983D01*
X154654D01*
X154612Y61979D01*
X154505D01*
X154462Y61983D01*
X154415Y61987D01*
X154406D01*
X154385Y61992D01*
X154355Y62000D01*
X154325Y62004D01*
X154321Y62009D01*
X154308Y62013D01*
X154296Y62021D01*
X154283Y62034D01*
Y62038D01*
X154278Y62047D01*
X154274Y62064D01*
X154270Y62085D01*
Y63909D01*
Y63913D01*
Y63921D01*
Y63934D01*
Y63951D01*
Y64003D01*
X154266Y64062D01*
X154261Y64131D01*
X154253Y64203D01*
X154240Y64276D01*
X154227Y64340D01*
Y64349D01*
X154219Y64366D01*
X154210Y64395D01*
X154197Y64434D01*
X154180Y64481D01*
X154159Y64524D01*
X154133Y64570D01*
X154103Y64618D01*
X154099Y64622D01*
X154090Y64639D01*
X154073Y64660D01*
X154048Y64686D01*
X154018Y64716D01*
X153984Y64746D01*
X153945Y64776D01*
X153898Y64801D01*
X153894Y64805D01*
X153877Y64810D01*
X153851Y64823D01*
X153817Y64835D01*
X153774Y64844D01*
X153723Y64857D01*
X153668Y64861D01*
X153608Y64865D01*
X153587D01*
X153570Y64861D01*
X153527Y64857D01*
X153471Y64848D01*
X153407Y64827D01*
X153335Y64801D01*
X153258Y64763D01*
X153177Y64711D01*
X153173D01*
X153168Y64703D01*
X153155Y64694D01*
X153138Y64682D01*
X153096Y64647D01*
X153040Y64596D01*
X152972Y64536D01*
X152899Y64460D01*
X152814Y64366D01*
X152728Y64263D01*
Y62085D01*
Y62081D01*
Y62068D01*
X152720Y62051D01*
X152711Y62034D01*
X152707Y62030D01*
X152703Y62026D01*
X152686Y62013D01*
X152664Y62004D01*
X152660D01*
X152643Y62000D01*
X152617Y61996D01*
X152579Y61987D01*
X152570D01*
X152558Y61983D01*
X152541D01*
X152498Y61979D01*
X152391D01*
X152348Y61983D01*
X152301Y61987D01*
X152293D01*
X152271Y61992D01*
X152242Y62000D01*
X152212Y62004D01*
X152207Y62009D01*
X152195Y62013D01*
X152178Y62021D01*
X152165Y62034D01*
Y62038D01*
X152161Y62047D01*
X152156Y62064D01*
Y62085D01*
Y65198D01*
Y65202D01*
Y65215D01*
X152161Y65232D01*
X152165Y65245D01*
Y65250D01*
X152173Y65258D01*
X152186Y65271D01*
X152203Y65279D01*
X152207Y65284D01*
X152225Y65288D01*
X152250Y65296D01*
X152284Y65301D01*
X152293D01*
X152319Y65305D01*
X152361Y65309D01*
X152459D01*
X152498Y65305D01*
X152541Y65301D01*
X152549D01*
X152570Y65296D01*
X152596Y65292D01*
X152617Y65279D01*
X152622Y65275D01*
X152634Y65271D01*
X152647Y65258D01*
X152660Y65245D01*
X152664Y65241D01*
X152669Y65232D01*
X152673Y65220D01*
Y65198D01*
Y64788D01*
X152677Y64793D01*
X152686Y64801D01*
X152699Y64818D01*
X152720Y64835D01*
X152741Y64861D01*
X152771Y64891D01*
X152835Y64955D01*
X152916Y65023D01*
X153002Y65096D01*
X153096Y65164D01*
X153194Y65220D01*
X153198D01*
X153207Y65224D01*
X153219Y65232D01*
X153241Y65241D01*
X153262Y65254D01*
X153292Y65262D01*
X153360Y65292D01*
X153442Y65318D01*
X153531Y65339D01*
X153625Y65356D01*
X153723Y65360D01*
X153774D01*
X153800Y65356D01*
D02*
G37*
G36*
X363200Y25945D02*
X312299D01*
Y42178D01*
X363200D01*
Y25945D01*
D02*
G37*
G36*
X52300D02*
X1399D01*
Y41905D01*
X52300D01*
Y25945D01*
D02*
G37*
G36*
X146528Y66531D02*
X146588Y66526D01*
X146652Y66518D01*
X146789Y66496D01*
X146797D01*
X146819Y66488D01*
X146857Y66479D01*
X146900Y66471D01*
X146951Y66458D01*
X147011Y66441D01*
X147126Y66402D01*
X147135Y66398D01*
X147152Y66394D01*
X147182Y66381D01*
X147220Y66364D01*
X147263Y66347D01*
X147310Y66325D01*
X147404Y66274D01*
X147408Y66270D01*
X147425Y66262D01*
X147446Y66249D01*
X147472Y66232D01*
X147528Y66193D01*
X147553Y66172D01*
X147574Y66155D01*
X147579D01*
X147583Y66146D01*
X147600Y66129D01*
X147622Y66108D01*
X147634Y66086D01*
X147639Y66082D01*
X147643Y66069D01*
X147647Y66052D01*
X147656Y66027D01*
Y66022D01*
X147660Y66005D01*
X147664Y65980D01*
X147668Y65950D01*
Y65941D01*
X147673Y65920D01*
X147677Y65886D01*
Y65843D01*
Y65839D01*
Y65830D01*
Y65817D01*
Y65805D01*
X147673Y65762D01*
X147668Y65723D01*
Y65715D01*
X147664Y65698D01*
X147656Y65668D01*
X147647Y65642D01*
X147643Y65638D01*
X147639Y65625D01*
X147626Y65608D01*
X147613Y65595D01*
X147609D01*
X147600Y65591D01*
X147587Y65587D01*
X147566Y65583D01*
X147557D01*
X147545Y65587D01*
X147532Y65591D01*
X147510Y65600D01*
X147489Y65608D01*
X147459Y65625D01*
X147429Y65647D01*
X147425Y65651D01*
X147412Y65659D01*
X147395Y65672D01*
X147370Y65689D01*
X147340Y65715D01*
X147301Y65741D01*
X147254Y65766D01*
X147207Y65796D01*
X147203Y65800D01*
X147182Y65809D01*
X147152Y65826D01*
X147113Y65847D01*
X147066Y65869D01*
X147007Y65894D01*
X146942Y65920D01*
X146870Y65946D01*
X146866D01*
X146861Y65950D01*
X146836Y65958D01*
X146793Y65967D01*
X146738Y65980D01*
X146669Y65992D01*
X146588Y66005D01*
X146499Y66009D01*
X146400Y66014D01*
X146349D01*
X146323Y66009D01*
X146293D01*
X146221Y66001D01*
X146135Y65984D01*
X146046Y65963D01*
X145948Y65933D01*
X145854Y65894D01*
X145849D01*
X145845Y65890D01*
X145832Y65881D01*
X145811Y65873D01*
X145768Y65843D01*
X145709Y65805D01*
X145644Y65753D01*
X145576Y65694D01*
X145503Y65621D01*
X145435Y65540D01*
Y65536D01*
X145427Y65531D01*
X145418Y65518D01*
X145405Y65497D01*
X145393Y65476D01*
X145376Y65450D01*
X145358Y65420D01*
X145337Y65382D01*
X145294Y65301D01*
X145247Y65207D01*
X145205Y65096D01*
X145166Y64976D01*
Y64972D01*
X145162Y64959D01*
X145158Y64942D01*
X145153Y64916D01*
X145145Y64886D01*
X145136Y64848D01*
X145128Y64805D01*
X145119Y64754D01*
X145111Y64703D01*
X145102Y64643D01*
X145094Y64579D01*
X145085Y64515D01*
X145077Y64370D01*
X145072Y64212D01*
Y64208D01*
Y64195D01*
Y64169D01*
Y64139D01*
X145077Y64101D01*
Y64058D01*
X145081Y64011D01*
X145085Y63956D01*
X145094Y63840D01*
X145111Y63712D01*
X145132Y63584D01*
X145162Y63456D01*
Y63452D01*
X145166Y63443D01*
X145170Y63426D01*
X145179Y63401D01*
X145188Y63375D01*
X145200Y63341D01*
X145230Y63268D01*
X145269Y63178D01*
X145311Y63089D01*
X145367Y62995D01*
X145427Y62910D01*
Y62905D01*
X145435Y62901D01*
X145457Y62875D01*
X145495Y62837D01*
X145542Y62786D01*
X145606Y62734D01*
X145679Y62679D01*
X145760Y62628D01*
X145849Y62581D01*
X145854D01*
X145862Y62576D01*
X145875Y62572D01*
X145892Y62564D01*
X145918Y62555D01*
X145948Y62547D01*
X146016Y62525D01*
X146097Y62504D01*
X146195Y62487D01*
X146302Y62474D01*
X146417Y62470D01*
X146486D01*
X146511Y62474D01*
X146575Y62478D01*
X146652Y62487D01*
X146729Y62495D01*
X146810Y62512D01*
X146887Y62534D01*
X146891D01*
X146896Y62538D01*
X146921Y62547D01*
X146960Y62559D01*
X147007Y62576D01*
X147058Y62598D01*
X147118Y62623D01*
X147173Y62649D01*
X147229Y62679D01*
X147233Y62683D01*
X147254Y62692D01*
X147280Y62709D01*
X147310Y62730D01*
X147387Y62777D01*
X147425Y62803D01*
X147459Y62828D01*
X147464Y62833D01*
X147476Y62841D01*
X147489Y62850D01*
X147510Y62862D01*
X147557Y62888D01*
X147579Y62892D01*
X147600Y62897D01*
X147617D01*
X147630Y62892D01*
X147643Y62884D01*
X147647D01*
X147651Y62875D01*
X147660Y62862D01*
X147668Y62845D01*
X147673Y62841D01*
X147677Y62824D01*
X147681Y62799D01*
X147686Y62764D01*
Y62760D01*
Y62756D01*
X147690Y62743D01*
Y62730D01*
X147694Y62687D01*
Y62632D01*
Y62628D01*
Y62623D01*
Y62598D01*
Y62568D01*
X147690Y62534D01*
Y62525D01*
X147686Y62508D01*
X147681Y62487D01*
X147677Y62461D01*
Y62457D01*
X147673Y62444D01*
X147664Y62427D01*
X147651Y62406D01*
X147647Y62401D01*
X147643Y62389D01*
X147626Y62371D01*
X147604Y62346D01*
X147596Y62342D01*
X147587Y62333D01*
X147574Y62320D01*
X147553Y62303D01*
X147528Y62286D01*
X147498Y62265D01*
X147459Y62239D01*
X147455Y62235D01*
X147438Y62226D01*
X147416Y62213D01*
X147382Y62196D01*
X147344Y62175D01*
X147297Y62154D01*
X147241Y62128D01*
X147182Y62103D01*
X147173Y62098D01*
X147152Y62090D01*
X147118Y62077D01*
X147075Y62064D01*
X147019Y62047D01*
X146955Y62026D01*
X146883Y62009D01*
X146806Y61992D01*
X146797D01*
X146784Y61987D01*
X146767Y61983D01*
X146725Y61979D01*
X146669Y61970D01*
X146597Y61962D01*
X146520Y61953D01*
X146434Y61949D01*
X146341Y61945D01*
X146298D01*
X146268Y61949D01*
X146229D01*
X146183Y61953D01*
X146135Y61957D01*
X146080Y61962D01*
X145956Y61979D01*
X145824Y62004D01*
X145687Y62043D01*
X145551Y62090D01*
X145546D01*
X145533Y62098D01*
X145516Y62107D01*
X145491Y62115D01*
X145461Y62132D01*
X145427Y62150D01*
X145346Y62196D01*
X145252Y62256D01*
X145149Y62333D01*
X145051Y62419D01*
X144953Y62517D01*
X144948Y62521D01*
X144940Y62529D01*
X144927Y62547D01*
X144910Y62568D01*
X144893Y62598D01*
X144867Y62628D01*
X144842Y62666D01*
X144812Y62713D01*
X144782Y62760D01*
X144752Y62816D01*
X144718Y62871D01*
X144688Y62931D01*
X144628Y63068D01*
X144573Y63217D01*
Y63221D01*
X144568Y63234D01*
X144560Y63260D01*
X144551Y63289D01*
X144543Y63332D01*
X144530Y63379D01*
X144517Y63435D01*
X144509Y63494D01*
X144496Y63563D01*
X144483Y63635D01*
X144470Y63717D01*
X144462Y63798D01*
X144453Y63887D01*
X144445Y63981D01*
X144440Y64178D01*
Y64186D01*
Y64203D01*
Y64233D01*
X144445Y64272D01*
Y64323D01*
X144449Y64378D01*
X144453Y64442D01*
X144457Y64511D01*
X144466Y64588D01*
X144474Y64665D01*
X144500Y64835D01*
X144534Y65006D01*
X144581Y65173D01*
Y65177D01*
X144590Y65194D01*
X144598Y65215D01*
X144607Y65245D01*
X144624Y65284D01*
X144641Y65326D01*
X144662Y65373D01*
X144688Y65429D01*
X144744Y65544D01*
X144812Y65668D01*
X144893Y65792D01*
X144987Y65911D01*
X144991Y65916D01*
X145000Y65924D01*
X145012Y65941D01*
X145034Y65963D01*
X145060Y65988D01*
X145089Y66014D01*
X145124Y66048D01*
X145162Y66082D01*
X145252Y66159D01*
X145358Y66236D01*
X145478Y66308D01*
X145606Y66373D01*
X145610D01*
X145623Y66381D01*
X145644Y66390D01*
X145670Y66398D01*
X145704Y66411D01*
X145743Y66424D01*
X145790Y66436D01*
X145841Y66454D01*
X145901Y66471D01*
X145960Y66483D01*
X146029Y66496D01*
X146097Y66509D01*
X146247Y66526D01*
X146409Y66535D01*
X146481D01*
X146528Y66531D01*
D02*
G37*
%LPC*%
G36*
X149765Y64882D02*
X149722D01*
X149675Y64878D01*
X149616Y64869D01*
X149547Y64861D01*
X149470Y64844D01*
X149398Y64818D01*
X149325Y64788D01*
X149317Y64784D01*
X149295Y64771D01*
X149261Y64750D01*
X149218Y64724D01*
X149171Y64686D01*
X149120Y64643D01*
X149069Y64592D01*
X149022Y64532D01*
X149018Y64524D01*
X149001Y64502D01*
X148979Y64468D01*
X148954Y64421D01*
X148928Y64366D01*
X148898Y64302D01*
X148873Y64225D01*
X148847Y64144D01*
Y64139D01*
X148843Y64135D01*
Y64122D01*
X148838Y64105D01*
X148830Y64058D01*
X148821Y63998D01*
X148809Y63926D01*
X148800Y63845D01*
X148796Y63755D01*
X148792Y63657D01*
Y63652D01*
Y63644D01*
Y63631D01*
Y63614D01*
Y63588D01*
X148796Y63563D01*
Y63499D01*
X148804Y63426D01*
X148813Y63345D01*
X148821Y63260D01*
X148838Y63174D01*
Y63170D01*
X148843Y63166D01*
Y63153D01*
X148847Y63136D01*
X148860Y63093D01*
X148877Y63042D01*
X148898Y62978D01*
X148924Y62914D01*
X148954Y62845D01*
X148992Y62781D01*
X148996Y62773D01*
X149013Y62756D01*
X149039Y62722D01*
X149069Y62687D01*
X149112Y62645D01*
X149163Y62598D01*
X149223Y62555D01*
X149287Y62517D01*
X149291D01*
X149295Y62512D01*
X149321Y62500D01*
X149359Y62487D01*
X149415Y62470D01*
X149483Y62448D01*
X149560Y62436D01*
X149650Y62423D01*
X149748Y62419D01*
X149791D01*
X149838Y62423D01*
X149897Y62431D01*
X149966Y62440D01*
X150038Y62457D01*
X150111Y62478D01*
X150183Y62508D01*
X150188D01*
X150192Y62512D01*
X150213Y62525D01*
X150248Y62547D01*
X150290Y62572D01*
X150341Y62611D01*
X150393Y62653D01*
X150440Y62704D01*
X150487Y62760D01*
X150491Y62769D01*
X150508Y62790D01*
X150529Y62824D01*
X150555Y62871D01*
X150581Y62927D01*
X150610Y62991D01*
X150640Y63063D01*
X150662Y63144D01*
Y63149D01*
X150666Y63153D01*
Y63166D01*
X150670Y63183D01*
X150679Y63230D01*
X150692Y63289D01*
X150704Y63366D01*
X150713Y63447D01*
X150717Y63542D01*
X150722Y63640D01*
Y63644D01*
Y63652D01*
Y63665D01*
Y63682D01*
Y63708D01*
X150717Y63734D01*
Y63798D01*
X150709Y63870D01*
X150700Y63951D01*
X150687Y64033D01*
X150670Y64118D01*
Y64122D01*
Y64126D01*
X150666Y64139D01*
X150662Y64156D01*
X150649Y64199D01*
X150632Y64250D01*
X150610Y64314D01*
X150585Y64378D01*
X150555Y64447D01*
X150516Y64511D01*
X150512Y64519D01*
X150495Y64541D01*
X150474Y64570D01*
X150440Y64609D01*
X150397Y64652D01*
X150346Y64694D01*
X150290Y64741D01*
X150222Y64780D01*
X150213Y64784D01*
X150188Y64797D01*
X150149Y64814D01*
X150098Y64831D01*
X150030Y64848D01*
X149953Y64865D01*
X149863Y64878D01*
X149765Y64882D01*
D02*
G37*
G36*
X139889Y64912D02*
X139854D01*
X139812Y64908D01*
X139760Y64904D01*
X139705Y64891D01*
X139641Y64878D01*
X139577Y64857D01*
X139513Y64831D01*
X139504Y64827D01*
X139487Y64818D01*
X139457Y64797D01*
X139419Y64776D01*
X139380Y64741D01*
X139333Y64707D01*
X139291Y64665D01*
X139248Y64618D01*
X139244Y64613D01*
X139231Y64596D01*
X139210Y64566D01*
X139188Y64532D01*
X139163Y64489D01*
X139133Y64434D01*
X139107Y64378D01*
X139082Y64314D01*
X139077Y64306D01*
X139073Y64284D01*
X139064Y64250D01*
X139052Y64203D01*
X139039Y64148D01*
X139030Y64088D01*
X139022Y64020D01*
X139017Y63951D01*
X140717D01*
Y63956D01*
Y63973D01*
Y63994D01*
Y64024D01*
X140713Y64062D01*
X140708Y64105D01*
X140704Y64156D01*
X140696Y64208D01*
X140670Y64319D01*
X140636Y64438D01*
X140610Y64498D01*
X140580Y64553D01*
X140550Y64605D01*
X140512Y64656D01*
X140508Y64660D01*
X140503Y64669D01*
X140491Y64682D01*
X140473Y64694D01*
X140452Y64716D01*
X140422Y64737D01*
X140392Y64758D01*
X140354Y64784D01*
X140315Y64810D01*
X140269Y64831D01*
X140217Y64852D01*
X140162Y64874D01*
X140102Y64886D01*
X140034Y64899D01*
X139965Y64908D01*
X139889Y64912D01*
D02*
G37*
G36*
X131011Y66039D02*
X130973D01*
X130947Y66035D01*
X130913D01*
X130875Y66031D01*
X130832Y66027D01*
X130785Y66022D01*
X130682Y66001D01*
X130571Y65975D01*
X130460Y65941D01*
X130358Y65890D01*
X130354D01*
X130345Y65881D01*
X130332Y65877D01*
X130315Y65864D01*
X130268Y65830D01*
X130208Y65788D01*
X130140Y65732D01*
X130072Y65664D01*
X129999Y65587D01*
X129935Y65501D01*
Y65497D01*
X129927Y65489D01*
X129918Y65476D01*
X129910Y65459D01*
X129897Y65437D01*
X129880Y65408D01*
X129845Y65343D01*
X129807Y65258D01*
X129769Y65164D01*
X129730Y65057D01*
X129700Y64938D01*
Y64934D01*
X129696Y64925D01*
Y64904D01*
X129692Y64882D01*
X129683Y64852D01*
X129679Y64818D01*
X129675Y64776D01*
X129666Y64733D01*
X129653Y64630D01*
X129645Y64515D01*
X129636Y64391D01*
X129632Y64259D01*
Y64255D01*
Y64242D01*
Y64220D01*
Y64191D01*
Y64156D01*
X129636Y64114D01*
Y64071D01*
X129640Y64020D01*
X129649Y63904D01*
X129658Y63785D01*
X129675Y63657D01*
X129696Y63529D01*
Y63524D01*
X129700Y63516D01*
X129704Y63499D01*
X129709Y63473D01*
X129717Y63443D01*
X129726Y63413D01*
X129747Y63332D01*
X129777Y63243D01*
X129816Y63149D01*
X129862Y63050D01*
X129914Y62957D01*
Y62952D01*
X129922Y62948D01*
X129931Y62935D01*
X129944Y62918D01*
X129978Y62875D01*
X130025Y62820D01*
X130085Y62760D01*
X130157Y62700D01*
X130238Y62641D01*
X130332Y62585D01*
X130336D01*
X130345Y62581D01*
X130358Y62572D01*
X130379Y62564D01*
X130405Y62555D01*
X130435Y62542D01*
X130473Y62529D01*
X130512Y62521D01*
X130559Y62508D01*
X130605Y62495D01*
X130717Y62474D01*
X130845Y62457D01*
X130985Y62453D01*
X131024D01*
X131050Y62457D01*
X131084D01*
X131122Y62461D01*
X131169Y62465D01*
X131216Y62470D01*
X131319Y62487D01*
X131430Y62512D01*
X131541Y62551D01*
X131643Y62598D01*
X131647D01*
X131656Y62606D01*
X131669Y62615D01*
X131686Y62623D01*
X131737Y62658D01*
X131797Y62700D01*
X131865Y62756D01*
X131933Y62824D01*
X132006Y62901D01*
X132070Y62991D01*
Y62995D01*
X132079Y63003D01*
X132087Y63016D01*
X132096Y63033D01*
X132109Y63059D01*
X132126Y63085D01*
X132143Y63119D01*
X132160Y63157D01*
X132198Y63238D01*
X132237Y63336D01*
X132271Y63443D01*
X132301Y63563D01*
Y63567D01*
X132305Y63576D01*
X132309Y63597D01*
X132314Y63618D01*
X132318Y63648D01*
X132322Y63687D01*
X132331Y63725D01*
X132339Y63772D01*
X132352Y63875D01*
X132360Y63990D01*
X132369Y64118D01*
X132373Y64250D01*
Y64255D01*
Y64267D01*
Y64289D01*
Y64314D01*
Y64349D01*
X132369Y64387D01*
Y64434D01*
X132365Y64481D01*
X132356Y64592D01*
X132343Y64711D01*
X132326Y64835D01*
X132305Y64959D01*
Y64963D01*
X132301Y64972D01*
X132296Y64993D01*
X132292Y65015D01*
X132284Y65044D01*
X132275Y65074D01*
X132249Y65156D01*
X132220Y65241D01*
X132181Y65339D01*
X132134Y65433D01*
X132079Y65527D01*
Y65531D01*
X132070Y65540D01*
X132062Y65548D01*
X132049Y65565D01*
X132015Y65608D01*
X131968Y65664D01*
X131908Y65723D01*
X131835Y65788D01*
X131750Y65847D01*
X131656Y65903D01*
X131652D01*
X131643Y65907D01*
X131630Y65916D01*
X131609Y65924D01*
X131583Y65933D01*
X131553Y65946D01*
X131519Y65958D01*
X131477Y65971D01*
X131434Y65984D01*
X131383Y65997D01*
X131276Y66018D01*
X131148Y66035D01*
X131011Y66039D01*
D02*
G37*
G36*
X162080Y64882D02*
X162037D01*
X161990Y64878D01*
X161930Y64869D01*
X161862Y64861D01*
X161785Y64844D01*
X161713Y64818D01*
X161640Y64788D01*
X161631Y64784D01*
X161610Y64771D01*
X161576Y64750D01*
X161533Y64724D01*
X161486Y64686D01*
X161435Y64643D01*
X161384Y64592D01*
X161337Y64532D01*
X161332Y64524D01*
X161315Y64502D01*
X161294Y64468D01*
X161268Y64421D01*
X161243Y64366D01*
X161213Y64302D01*
X161187Y64225D01*
X161162Y64144D01*
Y64139D01*
X161157Y64135D01*
Y64122D01*
X161153Y64105D01*
X161145Y64058D01*
X161136Y63998D01*
X161123Y63926D01*
X161115Y63845D01*
X161110Y63755D01*
X161106Y63657D01*
Y63652D01*
Y63644D01*
Y63631D01*
Y63614D01*
Y63588D01*
X161110Y63563D01*
Y63499D01*
X161119Y63426D01*
X161127Y63345D01*
X161136Y63260D01*
X161153Y63174D01*
Y63170D01*
X161157Y63166D01*
Y63153D01*
X161162Y63136D01*
X161174Y63093D01*
X161191Y63042D01*
X161213Y62978D01*
X161239Y62914D01*
X161268Y62845D01*
X161307Y62781D01*
X161311Y62773D01*
X161328Y62756D01*
X161354Y62722D01*
X161384Y62687D01*
X161426Y62645D01*
X161478Y62598D01*
X161537Y62555D01*
X161601Y62517D01*
X161606D01*
X161610Y62512D01*
X161636Y62500D01*
X161674Y62487D01*
X161730Y62470D01*
X161798Y62448D01*
X161875Y62436D01*
X161964Y62423D01*
X162063Y62419D01*
X162105D01*
X162152Y62423D01*
X162212Y62431D01*
X162280Y62440D01*
X162353Y62457D01*
X162426Y62478D01*
X162498Y62508D01*
X162502D01*
X162507Y62512D01*
X162528Y62525D01*
X162562Y62547D01*
X162605Y62572D01*
X162656Y62611D01*
X162707Y62653D01*
X162754Y62704D01*
X162801Y62760D01*
X162806Y62769D01*
X162823Y62790D01*
X162844Y62824D01*
X162870Y62871D01*
X162895Y62927D01*
X162925Y62991D01*
X162955Y63063D01*
X162976Y63144D01*
Y63149D01*
X162981Y63153D01*
Y63166D01*
X162985Y63183D01*
X162994Y63230D01*
X163006Y63289D01*
X163019Y63366D01*
X163028Y63447D01*
X163032Y63542D01*
X163036Y63640D01*
Y63644D01*
Y63652D01*
Y63665D01*
Y63682D01*
Y63708D01*
X163032Y63734D01*
Y63798D01*
X163023Y63870D01*
X163015Y63951D01*
X163002Y64033D01*
X162985Y64118D01*
Y64122D01*
Y64126D01*
X162981Y64139D01*
X162976Y64156D01*
X162964Y64199D01*
X162946Y64250D01*
X162925Y64314D01*
X162899Y64378D01*
X162870Y64447D01*
X162831Y64511D01*
X162827Y64519D01*
X162810Y64541D01*
X162788Y64570D01*
X162754Y64609D01*
X162712Y64652D01*
X162660Y64694D01*
X162605Y64741D01*
X162537Y64780D01*
X162528Y64784D01*
X162502Y64797D01*
X162464Y64814D01*
X162413Y64831D01*
X162344Y64848D01*
X162268Y64865D01*
X162178Y64878D01*
X162080Y64882D01*
D02*
G37*
G36*
X324720Y41388D02*
X324502D01*
X323918Y41360D01*
X323375Y41306D01*
X323131Y41265D01*
X322886Y41211D01*
X322669Y41170D01*
X322465Y41116D01*
X322275Y41062D01*
X322112Y41021D01*
X321963Y40966D01*
X321841Y40926D01*
X321745Y40899D01*
X321664Y40871D01*
X321623Y40844D01*
X321610D01*
X321134Y40627D01*
X320713Y40383D01*
X320510Y40260D01*
X320333Y40138D01*
X320157Y40016D01*
X320007Y39894D01*
X319858Y39785D01*
X319736Y39676D01*
X319627Y39581D01*
X319532Y39500D01*
X319464Y39432D01*
X319410Y39378D01*
X319383Y39351D01*
X319369Y39337D01*
X319043Y38957D01*
X318758Y38563D01*
X318513Y38169D01*
X318310Y37802D01*
X318215Y37626D01*
X318147Y37476D01*
X318079Y37341D01*
X318025Y37218D01*
X317984Y37123D01*
X317957Y37056D01*
X317930Y37001D01*
Y36988D01*
X317766Y36458D01*
X317644Y35928D01*
X317549Y35412D01*
X317522Y35168D01*
X317495Y34937D01*
X317468Y34720D01*
X317454Y34530D01*
X317441Y34353D01*
Y34204D01*
X317427Y34082D01*
Y34000D01*
Y33932D01*
Y33918D01*
X317441Y33321D01*
X317495Y32764D01*
X317536Y32506D01*
X317576Y32262D01*
X317617Y32045D01*
X317658Y31827D01*
X317699Y31637D01*
X317739Y31460D01*
X317780Y31311D01*
X317821Y31189D01*
X317848Y31094D01*
X317875Y31012D01*
X317889Y30972D01*
Y30958D01*
X318079Y30483D01*
X318310Y30048D01*
X318418Y29844D01*
X318527Y29668D01*
X318649Y29491D01*
X318758Y29328D01*
X318853Y29193D01*
X318948Y29057D01*
X319043Y28948D01*
X319111Y28853D01*
X319179Y28785D01*
X319220Y28731D01*
X319247Y28704D01*
X319260Y28690D01*
X319613Y28364D01*
X319994Y28065D01*
X320360Y27821D01*
X320700Y27617D01*
X320863Y27522D01*
X320999Y27454D01*
X321134Y27387D01*
X321243Y27332D01*
X321338Y27291D01*
X321406Y27264D01*
X321447Y27237D01*
X321460D01*
X321963Y27074D01*
X322479Y26952D01*
X322968Y26857D01*
X323212Y26830D01*
X323429Y26803D01*
X323633Y26775D01*
X323823Y26762D01*
X324000Y26748D01*
X324136D01*
X324258Y26735D01*
X324421D01*
X324815Y26748D01*
X325005Y26762D01*
X325168Y26775D01*
X325303D01*
X325412Y26789D01*
X325480Y26803D01*
X325507D01*
X325711Y26830D01*
X325915Y26857D01*
X326091Y26898D01*
X326254Y26925D01*
X326403Y26952D01*
X326499Y26979D01*
X326566Y26993D01*
X326593D01*
X326797Y27047D01*
X326987Y27101D01*
X327164Y27156D01*
X327327Y27196D01*
X327449Y27237D01*
X327558Y27278D01*
X327612Y27291D01*
X327639Y27305D01*
X327829Y27373D01*
X327992Y27441D01*
X328128Y27495D01*
X328250Y27549D01*
X328345Y27590D01*
X328413Y27631D01*
X328454Y27645D01*
X328468Y27658D01*
X328576Y27726D01*
X328671Y27780D01*
X328739Y27848D01*
X328807Y27903D01*
X328848Y27957D01*
X328875Y27998D01*
X328889Y28011D01*
Y28025D01*
X328957Y28201D01*
X328984Y28364D01*
X328997Y28432D01*
Y28486D01*
Y28514D01*
Y28527D01*
Y33959D01*
X328984Y34095D01*
X328970Y34204D01*
X328943Y34272D01*
X328929Y34299D01*
X328889Y34407D01*
X328834Y34489D01*
X328794Y34530D01*
X328780Y34543D01*
X328712Y34611D01*
X328630Y34652D01*
X328590Y34665D01*
X328563Y34679D01*
X328468Y34706D01*
X328400Y34733D01*
X323796D01*
X323728Y34720D01*
X323674Y34706D01*
X323647Y34692D01*
X323633Y34679D01*
X323592Y34638D01*
X323552Y34598D01*
X323524Y34557D01*
X323511Y34543D01*
X323484Y34462D01*
X323457Y34380D01*
X323443Y34326D01*
Y34312D01*
Y34299D01*
X323429Y34176D01*
Y34068D01*
Y33986D01*
Y33959D01*
Y33946D01*
Y33810D01*
X323443Y33688D01*
X323457Y33593D01*
X323470Y33511D01*
X323484Y33443D01*
X323497Y33402D01*
X323511Y33375D01*
Y33362D01*
X323552Y33307D01*
X323592Y33267D01*
X323687Y33212D01*
X323769Y33185D01*
X327096D01*
Y29030D01*
X326879Y28921D01*
X326648Y28812D01*
X326444Y28731D01*
X326240Y28663D01*
X326078Y28609D01*
X325955Y28568D01*
X325901Y28554D01*
X325860D01*
X325847Y28541D01*
X325833D01*
X325575Y28486D01*
X325331Y28459D01*
X325113Y28432D01*
X324910Y28405D01*
X324733D01*
X324597Y28391D01*
X324489D01*
X324081Y28405D01*
X323701Y28446D01*
X323348Y28514D01*
X323049Y28582D01*
X322913Y28609D01*
X322791Y28636D01*
X322696Y28677D01*
X322601Y28704D01*
X322533Y28731D01*
X322479Y28745D01*
X322452Y28758D01*
X322438D01*
X322099Y28921D01*
X321800Y29098D01*
X321528Y29274D01*
X321297Y29451D01*
X321094Y29614D01*
X320958Y29736D01*
X320903Y29790D01*
X320863Y29831D01*
X320849Y29844D01*
X320836Y29858D01*
X320605Y30143D01*
X320388Y30442D01*
X320211Y30754D01*
X320062Y31026D01*
X319939Y31284D01*
X319899Y31379D01*
X319858Y31474D01*
X319831Y31542D01*
X319804Y31610D01*
X319790Y31637D01*
Y31651D01*
X319668Y32058D01*
X319573Y32479D01*
X319518Y32886D01*
X319464Y33253D01*
X319450Y33430D01*
X319437Y33579D01*
Y33715D01*
X319423Y33837D01*
Y33932D01*
Y34014D01*
Y34054D01*
Y34068D01*
X319437Y34516D01*
X319478Y34937D01*
X319532Y35317D01*
X319559Y35494D01*
X319600Y35657D01*
X319627Y35806D01*
X319654Y35942D01*
X319681Y36051D01*
X319708Y36159D01*
X319736Y36227D01*
X319749Y36295D01*
X319763Y36322D01*
Y36336D01*
X319912Y36716D01*
X320062Y37056D01*
X320238Y37368D01*
X320388Y37626D01*
X320469Y37748D01*
X320537Y37843D01*
X320591Y37938D01*
X320645Y38006D01*
X320700Y38060D01*
X320727Y38101D01*
X320741Y38128D01*
X320754Y38142D01*
X321012Y38414D01*
X321284Y38644D01*
X321542Y38848D01*
X321800Y39025D01*
X322017Y39160D01*
X322112Y39215D01*
X322194Y39255D01*
X322248Y39296D01*
X322302Y39323D01*
X322329Y39337D01*
X322343D01*
X322710Y39486D01*
X323076Y39595D01*
X323429Y39663D01*
X323755Y39717D01*
X323905Y39731D01*
X324041Y39744D01*
X324163Y39758D01*
X324258Y39772D01*
X324462D01*
X324815Y39758D01*
X325154Y39744D01*
X325439Y39704D01*
X325684Y39663D01*
X325887Y39622D01*
X325982Y39608D01*
X326050Y39595D01*
X326105Y39581D01*
X326145Y39568D01*
X326159Y39554D01*
X326173D01*
X326431Y39473D01*
X326675Y39391D01*
X326879Y39323D01*
X327055Y39242D01*
X327205Y39187D01*
X327313Y39133D01*
X327381Y39106D01*
X327408Y39092D01*
X327599Y38997D01*
X327761Y38916D01*
X327897Y38834D01*
X328019Y38767D01*
X328115Y38712D01*
X328182Y38671D01*
X328223Y38644D01*
X328237Y38631D01*
X328345Y38563D01*
X328440Y38508D01*
X328508Y38481D01*
X328576Y38454D01*
X328617Y38441D01*
X328644Y38427D01*
X328671D01*
X328726Y38441D01*
X328780Y38454D01*
X328807Y38468D01*
X328821D01*
X328861Y38508D01*
X328902Y38549D01*
X328916Y38590D01*
X328929Y38604D01*
X328957Y38699D01*
X328984Y38780D01*
X328997Y38848D01*
Y38875D01*
X329011Y38997D01*
X329024Y39120D01*
Y39215D01*
Y39228D01*
Y39242D01*
Y39364D01*
X329011Y39473D01*
X328997Y39568D01*
Y39649D01*
X328984Y39704D01*
X328970Y39744D01*
X328957Y39772D01*
Y39785D01*
X328902Y39921D01*
X328834Y40016D01*
X328780Y40084D01*
X328766Y40111D01*
X328753D01*
X328698Y40165D01*
X328617Y40233D01*
X328440Y40355D01*
X328359Y40396D01*
X328305Y40437D01*
X328250Y40464D01*
X328237Y40478D01*
X328087Y40559D01*
X327924Y40641D01*
X327775Y40709D01*
X327626Y40776D01*
X327490Y40831D01*
X327395Y40871D01*
X327327Y40885D01*
X327300Y40899D01*
X327082Y40966D01*
X326865Y41034D01*
X326648Y41089D01*
X326458Y41143D01*
X326281Y41184D01*
X326145Y41211D01*
X326091Y41225D01*
X326050Y41238D01*
X326023D01*
X325752Y41292D01*
X325494Y41320D01*
X325236Y41347D01*
X325005Y41374D01*
X324801D01*
X324720Y41388D01*
D02*
G37*
G36*
X342536Y41225D02*
X342183D01*
X342102Y41211D01*
X341980D01*
X341939Y41197D01*
X341912D01*
X341790Y41170D01*
X341694Y41143D01*
X341640Y41129D01*
X341613Y41116D01*
X341545Y41089D01*
X341504Y41048D01*
X341477Y41021D01*
X341464Y41007D01*
X341437Y40953D01*
X341423Y40912D01*
Y40885D01*
Y40871D01*
Y33131D01*
Y32805D01*
Y32479D01*
Y32180D01*
Y31895D01*
Y31664D01*
Y31556D01*
Y31474D01*
Y31406D01*
Y31352D01*
Y31325D01*
Y31311D01*
Y30972D01*
Y30632D01*
X341437Y30333D01*
Y30062D01*
Y29831D01*
X341450Y29736D01*
Y29654D01*
Y29586D01*
Y29546D01*
Y29519D01*
Y29505D01*
X341437D01*
X341246Y29885D01*
X341165Y30062D01*
X341083Y30211D01*
X341016Y30347D01*
X340961Y30456D01*
X340934Y30510D01*
X340920Y30537D01*
X340730Y30917D01*
X340635Y31094D01*
X340554Y31243D01*
X340486Y31379D01*
X340432Y31488D01*
X340404Y31542D01*
X340391Y31569D01*
X340201Y31963D01*
X340106Y32140D01*
X340024Y32302D01*
X339956Y32438D01*
X339902Y32547D01*
X339861Y32615D01*
X339848Y32642D01*
X339630Y33049D01*
X339535Y33239D01*
X339440Y33416D01*
X339359Y33565D01*
X339304Y33674D01*
X339264Y33742D01*
X339250Y33769D01*
X335909Y40016D01*
X335841Y40138D01*
X335787Y40260D01*
X335719Y40355D01*
X335679Y40437D01*
X335638Y40505D01*
X335597Y40545D01*
X335583Y40573D01*
X335570Y40586D01*
X335448Y40736D01*
X335339Y40844D01*
X335258Y40912D01*
X335244Y40939D01*
X335230D01*
X335095Y41021D01*
X334959Y41075D01*
X334905Y41089D01*
X334864Y41102D01*
X334837Y41116D01*
X334823D01*
X334647Y41157D01*
X334470Y41170D01*
X334388Y41184D01*
X333343D01*
X333234Y41170D01*
X333139Y41157D01*
X333044Y41129D01*
X332963Y41089D01*
X332895Y41048D01*
X332840Y41021D01*
X332813Y41007D01*
X332800Y40994D01*
X332718Y40912D01*
X332664Y40817D01*
X332610Y40709D01*
X332582Y40613D01*
X332569Y40518D01*
X332555Y40437D01*
Y40383D01*
Y40369D01*
Y27210D01*
X332569Y27156D01*
X332582Y27115D01*
X332596Y27074D01*
Y27061D01*
X332637Y27020D01*
X332691Y26993D01*
X332732Y26965D01*
X332745D01*
X332840Y26952D01*
X332935Y26925D01*
X333003Y26911D01*
X333031D01*
X333180Y26884D01*
X333329Y26871D01*
X333492D01*
X333682Y26884D01*
X333832Y26898D01*
X333886D01*
X333927Y26911D01*
X333954D01*
X334076Y26938D01*
X334158Y26952D01*
X334226Y26965D01*
X334239D01*
X334321Y26993D01*
X334361Y27020D01*
X334388Y27047D01*
X334402Y27061D01*
X334429Y27115D01*
X334456Y27169D01*
Y27196D01*
Y27210D01*
Y35820D01*
Y36119D01*
Y36417D01*
Y36689D01*
Y36947D01*
X334443Y37150D01*
Y37232D01*
Y37314D01*
Y37368D01*
Y37409D01*
Y37436D01*
Y37449D01*
Y37762D01*
X334429Y38060D01*
Y38332D01*
X334416Y38576D01*
Y38780D01*
Y38862D01*
X334402Y38943D01*
Y38997D01*
Y39038D01*
Y39065D01*
Y39079D01*
X334429D01*
X334647Y38590D01*
X334755Y38373D01*
X334850Y38169D01*
X334932Y37993D01*
X335000Y37857D01*
X335027Y37802D01*
X335040Y37762D01*
X335054Y37748D01*
Y37734D01*
X335190Y37476D01*
X335312Y37232D01*
X335434Y37015D01*
X335529Y36811D01*
X335624Y36648D01*
X335692Y36526D01*
X335733Y36444D01*
X335747Y36431D01*
Y36417D01*
X340092Y28324D01*
X340174Y28174D01*
X340255Y28025D01*
X340323Y27916D01*
X340391Y27808D01*
X340432Y27726D01*
X340472Y27672D01*
X340499Y27631D01*
X340513Y27617D01*
X340662Y27441D01*
X340785Y27305D01*
X340839Y27251D01*
X340880Y27210D01*
X340893Y27196D01*
X340907Y27183D01*
X341056Y27074D01*
X341192Y27020D01*
X341246Y26993D01*
X341287Y26979D01*
X341314Y26965D01*
X341328D01*
X341504Y26938D01*
X341681Y26925D01*
X341749Y26911D01*
X342482D01*
X342591Y26925D01*
X342686Y26938D01*
X342754Y26952D01*
X342781D01*
X342889Y26993D01*
X342971Y27033D01*
X343025Y27074D01*
X343053Y27088D01*
X343134Y27169D01*
X343188Y27264D01*
X343229Y27319D01*
X343243Y27346D01*
X343297Y27468D01*
X343310Y27590D01*
X343324Y27645D01*
Y27685D01*
Y27712D01*
Y27726D01*
Y40871D01*
X343310Y40926D01*
X343297Y40966D01*
X343283Y40994D01*
X343270Y41007D01*
X343229Y41048D01*
X343175Y41089D01*
X343134Y41102D01*
X343120Y41116D01*
X343025Y41157D01*
X342930Y41184D01*
X342849Y41197D01*
X342822D01*
X342686Y41211D01*
X342536Y41225D01*
D02*
G37*
G36*
X351214Y41184D02*
X347806D01*
X347710Y41170D01*
X347629Y41157D01*
X347480Y41102D01*
X347412Y41062D01*
X347371Y41034D01*
X347344Y41021D01*
X347330Y41007D01*
X347262Y40926D01*
X347208Y40844D01*
X347167Y40736D01*
X347140Y40641D01*
X347127Y40559D01*
X347113Y40478D01*
Y40423D01*
Y40410D01*
Y27699D01*
X347127Y27549D01*
X347154Y27427D01*
X347181Y27319D01*
X347222Y27237D01*
X347262Y27183D01*
X347303Y27142D01*
X347317Y27115D01*
X347330Y27101D01*
X347412Y27047D01*
X347507Y27006D01*
X347656Y26965D01*
X347710Y26952D01*
X347765Y26938D01*
X351173D01*
X351486Y26952D01*
X351798Y26979D01*
X352097Y27006D01*
X352368Y27047D01*
X352626Y27074D01*
X352871Y27115D01*
X353088Y27169D01*
X353278Y27210D01*
X353455Y27251D01*
X353604Y27278D01*
X353740Y27319D01*
X353835Y27346D01*
X353917Y27373D01*
X353957Y27387D01*
X353971D01*
X354446Y27577D01*
X354881Y27794D01*
X355084Y27903D01*
X355261Y28011D01*
X355437Y28120D01*
X355587Y28229D01*
X355736Y28337D01*
X355858Y28432D01*
X355967Y28514D01*
X356049Y28595D01*
X356117Y28663D01*
X356171Y28704D01*
X356198Y28731D01*
X356211Y28745D01*
X356537Y29098D01*
X356809Y29491D01*
X357053Y29872D01*
X357244Y30225D01*
X357325Y30388D01*
X357393Y30551D01*
X357461Y30687D01*
X357515Y30795D01*
X357542Y30890D01*
X357570Y30972D01*
X357597Y31012D01*
Y31026D01*
X357760Y31569D01*
X357868Y32112D01*
X357950Y32656D01*
X357991Y32914D01*
X358018Y33158D01*
X358031Y33389D01*
X358045Y33606D01*
X358058Y33783D01*
Y33946D01*
X358072Y34082D01*
Y34176D01*
Y34231D01*
Y34258D01*
X358058Y34842D01*
X358004Y35399D01*
X357963Y35643D01*
X357936Y35888D01*
X357895Y36105D01*
X357855Y36309D01*
X357800Y36499D01*
X357760Y36662D01*
X357733Y36811D01*
X357692Y36920D01*
X357665Y37028D01*
X357637Y37096D01*
X357624Y37137D01*
Y37150D01*
X357434Y37612D01*
X357230Y38033D01*
X357013Y38400D01*
X356904Y38563D01*
X356796Y38712D01*
X356700Y38848D01*
X356605Y38970D01*
X356524Y39079D01*
X356456Y39160D01*
X356388Y39228D01*
X356347Y39283D01*
X356320Y39310D01*
X356307Y39323D01*
X355967Y39636D01*
X355600Y39921D01*
X355247Y40152D01*
X354908Y40342D01*
X354759Y40423D01*
X354609Y40491D01*
X354487Y40559D01*
X354378Y40613D01*
X354283Y40641D01*
X354215Y40668D01*
X354174Y40695D01*
X354161D01*
X353659Y40858D01*
X353129Y40980D01*
X352613Y41062D01*
X352355Y41102D01*
X352124Y41129D01*
X351893Y41143D01*
X351689Y41157D01*
X351499Y41170D01*
X351350D01*
X351214Y41184D01*
D02*
G37*
%LPD*%
G36*
X351459Y39595D02*
X351703Y39568D01*
X351934Y39541D01*
X352137Y39513D01*
X352341Y39486D01*
X352518Y39445D01*
X352681Y39405D01*
X352830Y39364D01*
X352966Y39337D01*
X353075Y39296D01*
X353170Y39269D01*
X353238Y39242D01*
X353292Y39215D01*
X353319Y39201D01*
X353333D01*
X353672Y39038D01*
X353971Y38848D01*
X354229Y38658D01*
X354460Y38481D01*
X354636Y38318D01*
X354772Y38183D01*
X354813Y38128D01*
X354854Y38087D01*
X354881Y38074D01*
Y38060D01*
X355098Y37775D01*
X355275Y37490D01*
X355437Y37205D01*
X355560Y36933D01*
X355655Y36689D01*
X355696Y36594D01*
X355723Y36499D01*
X355750Y36431D01*
X355763Y36377D01*
X355777Y36349D01*
Y36336D01*
X355872Y35956D01*
X355954Y35589D01*
X356008Y35222D01*
X356035Y34896D01*
X356049Y34747D01*
X356062Y34611D01*
Y34489D01*
X356076Y34380D01*
Y34299D01*
Y34244D01*
Y34204D01*
Y34190D01*
X356062Y33661D01*
X356021Y33185D01*
X355994Y32954D01*
X355967Y32751D01*
X355940Y32561D01*
X355913Y32384D01*
X355886Y32221D01*
X355858Y32085D01*
X355831Y31963D01*
X355804Y31854D01*
X355777Y31773D01*
X355763Y31719D01*
X355750Y31678D01*
Y31664D01*
X355614Y31284D01*
X355478Y30944D01*
X355315Y30646D01*
X355166Y30388D01*
X355030Y30184D01*
X354962Y30089D01*
X354921Y30021D01*
X354867Y29967D01*
X354840Y29926D01*
X354826Y29912D01*
X354813Y29899D01*
X354568Y29654D01*
X354310Y29451D01*
X354039Y29274D01*
X353794Y29125D01*
X353577Y29016D01*
X353482Y28962D01*
X353414Y28935D01*
X353346Y28907D01*
X353292Y28880D01*
X353265Y28867D01*
X353251D01*
X352884Y28758D01*
X352504Y28677D01*
X352110Y28609D01*
X351757Y28568D01*
X351581Y28554D01*
X351431Y28541D01*
X351296D01*
X351187Y28527D01*
X349014D01*
Y39608D01*
X351201D01*
X351459Y39595D01*
D02*
G37*
%LPC*%
G36*
X13901Y41116D02*
X13494D01*
X13398Y41102D01*
X13263D01*
X13222Y41088D01*
X13181D01*
X13045Y41075D01*
X12950Y41061D01*
X12896Y41048D01*
X12869Y41034D01*
X12801Y40993D01*
X12760Y40953D01*
X12733Y40925D01*
X12720Y40912D01*
X12692Y40844D01*
X12665Y40776D01*
X12652Y40735D01*
X12638Y40708D01*
X8673Y28744D01*
X8659D01*
X4572Y40735D01*
X4531Y40803D01*
X4504Y40871D01*
X4476Y40898D01*
X4463Y40912D01*
X4422Y40966D01*
X4368Y41007D01*
X4327Y41021D01*
X4313Y41034D01*
X4232Y41061D01*
X4137Y41075D01*
X4069Y41088D01*
X4042D01*
X3892Y41102D01*
X3730Y41116D01*
X3295D01*
X3200Y41102D01*
X3051D01*
X2996Y41088D01*
X2956D01*
X2820Y41061D01*
X2711Y41021D01*
X2657Y40993D01*
X2630Y40980D01*
X2575Y40912D01*
X2548Y40844D01*
X2534Y40790D01*
Y40776D01*
Y40762D01*
X2562Y40640D01*
X2589Y40505D01*
X2616Y40450D01*
X2630Y40409D01*
X2643Y40382D01*
Y40369D01*
X7301Y27142D01*
X7328Y27074D01*
X7342Y27020D01*
X7369Y26992D01*
Y26979D01*
X7437Y26911D01*
X7464Y26897D01*
X7478Y26884D01*
X7573Y26829D01*
X7613Y26816D01*
X7627D01*
X7709Y26802D01*
X7776Y26789D01*
X7831Y26775D01*
X7858D01*
X7966Y26761D01*
X8062Y26748D01*
X8170D01*
X8320Y26734D01*
X8809D01*
X8903Y26748D01*
X9053D01*
X9094Y26761D01*
X9134D01*
X9284Y26775D01*
X9392Y26789D01*
X9460Y26802D01*
X9488D01*
X9583Y26843D01*
X9637Y26884D01*
X9678Y26911D01*
X9691Y26924D01*
X9746Y26992D01*
X9786Y27060D01*
X9813Y27115D01*
X9827Y27128D01*
X14471Y40355D01*
X14526Y40518D01*
X14553Y40640D01*
X14566Y40722D01*
Y40749D01*
Y40844D01*
X14553Y40912D01*
X14526Y40953D01*
X14512Y40966D01*
X14444Y41021D01*
X14349Y41048D01*
X14268Y41075D01*
X14241D01*
X14159Y41088D01*
X14077Y41102D01*
X13901Y41116D01*
D02*
G37*
G36*
X21031Y41048D02*
X17568D01*
X17472Y41034D01*
X17391Y41021D01*
X17242Y40966D01*
X17174Y40925D01*
X17133Y40898D01*
X17106Y40885D01*
X17092Y40871D01*
X17024Y40790D01*
X16970Y40708D01*
X16929Y40600D01*
X16902Y40505D01*
X16889Y40423D01*
X16875Y40341D01*
Y40287D01*
Y40274D01*
Y27563D01*
X16889Y27413D01*
X16916Y27291D01*
X16943Y27182D01*
X16984Y27101D01*
X17024Y27047D01*
X17065Y27006D01*
X17079Y26979D01*
X17092Y26965D01*
X17174Y26911D01*
X17269Y26870D01*
X17418Y26829D01*
X17472Y26816D01*
X17527Y26802D01*
X21587D01*
X21859Y26816D01*
X22103Y26843D01*
X22321Y26857D01*
X22483Y26884D01*
X22619Y26897D01*
X22701Y26911D01*
X22728D01*
X22959Y26965D01*
X23176Y27020D01*
X23366Y27074D01*
X23543Y27128D01*
X23692Y27182D01*
X23801Y27223D01*
X23869Y27250D01*
X23896Y27264D01*
X24100Y27359D01*
X24276Y27454D01*
X24439Y27549D01*
X24588Y27631D01*
X24711Y27712D01*
X24792Y27780D01*
X24860Y27821D01*
X24874Y27834D01*
X25037Y27970D01*
X25172Y28106D01*
X25295Y28228D01*
X25403Y28350D01*
X25485Y28459D01*
X25553Y28541D01*
X25593Y28608D01*
X25607Y28622D01*
X25716Y28798D01*
X25811Y28975D01*
X25906Y29138D01*
X25974Y29301D01*
X26028Y29437D01*
X26069Y29545D01*
X26082Y29613D01*
X26096Y29640D01*
X26150Y29858D01*
X26204Y30075D01*
X26232Y30279D01*
X26245Y30469D01*
X26259Y30632D01*
X26272Y30768D01*
Y30849D01*
Y30863D01*
Y30876D01*
X26259Y31148D01*
X26232Y31392D01*
X26204Y31623D01*
X26164Y31813D01*
X26109Y31976D01*
X26082Y32098D01*
X26055Y32180D01*
X26041Y32207D01*
X25960Y32424D01*
X25851Y32628D01*
X25756Y32805D01*
X25661Y32968D01*
X25580Y33090D01*
X25512Y33185D01*
X25458Y33253D01*
X25444Y33266D01*
X25295Y33429D01*
X25145Y33579D01*
X24996Y33701D01*
X24860Y33810D01*
X24738Y33905D01*
X24629Y33959D01*
X24575Y34000D01*
X24548Y34013D01*
X24358Y34122D01*
X24168Y34203D01*
X23977Y34271D01*
X23814Y34326D01*
X23679Y34366D01*
X23556Y34394D01*
X23489Y34421D01*
X23461D01*
X23624Y34502D01*
X23787Y34584D01*
X23923Y34665D01*
X24045Y34747D01*
X24140Y34815D01*
X24208Y34869D01*
X24262Y34909D01*
X24276Y34923D01*
X24412Y35045D01*
X24521Y35168D01*
X24629Y35276D01*
X24711Y35385D01*
X24779Y35480D01*
X24833Y35548D01*
X24860Y35602D01*
X24874Y35616D01*
X25037Y35914D01*
X25091Y36064D01*
X25145Y36186D01*
X25186Y36308D01*
X25213Y36390D01*
X25240Y36458D01*
Y36471D01*
X25308Y36824D01*
X25335Y36987D01*
X25349Y37137D01*
X25363Y37259D01*
Y37367D01*
Y37422D01*
Y37449D01*
X25349Y37761D01*
X25322Y38047D01*
X25267Y38291D01*
X25227Y38522D01*
X25172Y38698D01*
X25118Y38834D01*
X25104Y38888D01*
X25091Y38929D01*
X25077Y38943D01*
Y38956D01*
X24969Y39201D01*
X24833Y39418D01*
X24697Y39622D01*
X24575Y39785D01*
X24453Y39920D01*
X24358Y40016D01*
X24290Y40070D01*
X24262Y40097D01*
X24045Y40260D01*
X23828Y40409D01*
X23597Y40518D01*
X23380Y40627D01*
X23190Y40708D01*
X23040Y40762D01*
X22986Y40776D01*
X22945Y40790D01*
X22918Y40803D01*
X22905D01*
X22579Y40885D01*
X22239Y40939D01*
X21886Y40993D01*
X21560Y41021D01*
X21397Y41034D01*
X21139D01*
X21031Y41048D01*
D02*
G37*
G36*
X33931Y41116D02*
X33511D01*
X33415Y41102D01*
X33266D01*
X33225Y41088D01*
X33185D01*
X33035Y41075D01*
X32927Y41061D01*
X32859Y41048D01*
X32831Y41034D01*
X32736Y40993D01*
X32669Y40953D01*
X32628Y40925D01*
X32614Y40912D01*
X32574Y40844D01*
X32533Y40776D01*
X32519Y40735D01*
X32506Y40708D01*
X27725Y27481D01*
X27671Y27318D01*
X27644Y27196D01*
X27630Y27115D01*
Y27101D01*
Y27088D01*
X27644Y26992D01*
X27671Y26924D01*
X27698Y26884D01*
X27712Y26870D01*
X27793Y26829D01*
X27888Y26802D01*
X27970Y26775D01*
X27997D01*
X28160Y26748D01*
X28337Y26734D01*
X28730D01*
X28812Y26748D01*
X28934D01*
X28988Y26761D01*
X29015D01*
X29151Y26789D01*
X29246Y26802D01*
X29301Y26829D01*
X29314D01*
X29382Y26870D01*
X29436Y26897D01*
X29464Y26924D01*
X29477Y26938D01*
X29518Y27006D01*
X29545Y27060D01*
X29572Y27101D01*
Y27115D01*
X30740Y30550D01*
X36661D01*
X37883Y27074D01*
X37910Y27006D01*
X37951Y26952D01*
X37965Y26911D01*
X37978Y26897D01*
X38019Y26857D01*
X38073Y26829D01*
X38114Y26816D01*
X38128Y26802D01*
X38223Y26789D01*
X38331Y26775D01*
X38413Y26761D01*
X38440D01*
X38617Y26748D01*
X38793Y26734D01*
X39214D01*
X39309Y26748D01*
X39445D01*
X39486Y26761D01*
X39526D01*
X39662Y26789D01*
X39744Y26816D01*
X39798Y26843D01*
X39812Y26857D01*
X39866Y26924D01*
X39893Y26992D01*
Y27047D01*
Y27074D01*
X39880Y27196D01*
X39852Y27332D01*
X39839Y27386D01*
X39825Y27427D01*
X39812Y27454D01*
Y27468D01*
X35032Y40708D01*
X34991Y40790D01*
X34950Y40844D01*
X34923Y40885D01*
X34909Y40898D01*
X34841Y40966D01*
X34760Y41007D01*
X34705Y41021D01*
X34692Y41034D01*
X34678D01*
X34570Y41061D01*
X34448Y41075D01*
X34393Y41088D01*
X34312D01*
X34122Y41102D01*
X33931Y41116D01*
D02*
G37*
G36*
X50811Y41048D02*
X40830D01*
X40776Y41034D01*
X40721Y41021D01*
X40681Y41007D01*
X40667Y40993D01*
X40626Y40953D01*
X40586Y40898D01*
X40572Y40858D01*
X40558Y40844D01*
X40531Y40762D01*
X40504Y40681D01*
X40491Y40613D01*
Y40600D01*
Y40586D01*
X40477Y40464D01*
X40464Y40355D01*
Y40274D01*
Y40246D01*
Y40233D01*
Y40084D01*
X40477Y39975D01*
X40491Y39893D01*
Y39880D01*
Y39866D01*
X40518Y39771D01*
X40531Y39690D01*
X40558Y39635D01*
Y39622D01*
X40599Y39568D01*
X40626Y39513D01*
X40654Y39500D01*
X40667Y39486D01*
X40721Y39459D01*
X40776Y39445D01*
X44850D01*
Y27074D01*
X44863Y27020D01*
X44877Y26965D01*
X44890Y26938D01*
Y26924D01*
X44931Y26884D01*
X44986Y26857D01*
X45026Y26829D01*
X45040D01*
X45135Y26816D01*
X45230Y26789D01*
X45311Y26775D01*
X45339D01*
X45488Y26748D01*
X45637Y26734D01*
X45800D01*
X45990Y26748D01*
X46126Y26761D01*
X46181D01*
X46221Y26775D01*
X46248D01*
X46371Y26802D01*
X46466Y26816D01*
X46534Y26829D01*
X46547D01*
X46615Y26857D01*
X46670Y26884D01*
X46683Y26911D01*
X46697Y26924D01*
X46724Y26979D01*
X46751Y27020D01*
Y27060D01*
Y27074D01*
Y39445D01*
X50757D01*
X50811Y39459D01*
X50866Y39472D01*
X50893Y39486D01*
X50906D01*
X50961Y39527D01*
X51002Y39568D01*
X51015Y39608D01*
X51029Y39622D01*
X51069Y39703D01*
X51097Y39785D01*
X51110Y39839D01*
Y39866D01*
X51124Y39988D01*
X51137Y40111D01*
Y40151D01*
Y40192D01*
Y40219D01*
Y40233D01*
Y40369D01*
X51124Y40491D01*
X51110Y40559D01*
Y40586D01*
X51083Y40695D01*
X51056Y40776D01*
X51042Y40830D01*
X51029Y40844D01*
X50988Y40912D01*
X50947Y40966D01*
X50920Y40980D01*
X50906Y40993D01*
X50852Y41021D01*
X50811Y41048D01*
D02*
G37*
%LPD*%
G36*
X21343Y33375D02*
X21628Y33361D01*
X21886Y33334D01*
X22090Y33307D01*
X22266Y33266D01*
X22388Y33239D01*
X22470Y33226D01*
X22497Y33212D01*
X22701Y33144D01*
X22891Y33063D01*
X23067Y32981D01*
X23203Y32900D01*
X23325Y32818D01*
X23407Y32764D01*
X23461Y32723D01*
X23475Y32710D01*
X23611Y32587D01*
X23733Y32452D01*
X23842Y32316D01*
X23923Y32180D01*
X23991Y32071D01*
X24032Y31976D01*
X24059Y31922D01*
X24072Y31895D01*
X24140Y31705D01*
X24195Y31514D01*
X24222Y31324D01*
X24249Y31148D01*
X24262Y30999D01*
X24276Y30876D01*
Y30795D01*
Y30781D01*
Y30768D01*
X24262Y30550D01*
X24249Y30347D01*
X24208Y30170D01*
X24168Y30021D01*
X24127Y29899D01*
X24100Y29803D01*
X24072Y29749D01*
X24059Y29722D01*
X23977Y29559D01*
X23882Y29410D01*
X23787Y29287D01*
X23692Y29179D01*
X23611Y29084D01*
X23543Y29016D01*
X23502Y28975D01*
X23489Y28962D01*
X23353Y28853D01*
X23203Y28771D01*
X23054Y28690D01*
X22918Y28622D01*
X22809Y28581D01*
X22714Y28541D01*
X22660Y28527D01*
X22633Y28513D01*
X22443Y28459D01*
X22253Y28432D01*
X22063Y28405D01*
X21886Y28378D01*
X21737D01*
X21614Y28364D01*
X18763D01*
Y33389D01*
X21017D01*
X21343Y33375D01*
D02*
G37*
G36*
X21248Y39472D02*
X21479Y39445D01*
X21669Y39418D01*
X21804Y39391D01*
X21913Y39364D01*
X21981Y39350D01*
X22008Y39337D01*
X22185Y39269D01*
X22334Y39201D01*
X22483Y39133D01*
X22592Y39051D01*
X22687Y38997D01*
X22755Y38943D01*
X22796Y38902D01*
X22809Y38888D01*
X22918Y38780D01*
X23013Y38658D01*
X23095Y38535D01*
X23149Y38427D01*
X23203Y38332D01*
X23230Y38250D01*
X23258Y38196D01*
Y38182D01*
X23312Y38019D01*
X23339Y37856D01*
X23366Y37707D01*
X23393Y37558D01*
Y37435D01*
X23407Y37327D01*
Y37272D01*
Y37245D01*
Y37069D01*
X23380Y36906D01*
X23366Y36756D01*
X23339Y36621D01*
X23312Y36512D01*
X23285Y36430D01*
X23271Y36363D01*
X23258Y36349D01*
X23203Y36200D01*
X23135Y36050D01*
X23067Y35928D01*
X22986Y35819D01*
X22932Y35724D01*
X22877Y35656D01*
X22837Y35616D01*
X22823Y35602D01*
X22714Y35493D01*
X22592Y35385D01*
X22470Y35290D01*
X22348Y35222D01*
X22253Y35168D01*
X22171Y35127D01*
X22103Y35100D01*
X22090Y35086D01*
X21913Y35018D01*
X21723Y34977D01*
X21519Y34937D01*
X21329Y34923D01*
X21166Y34909D01*
X21031Y34896D01*
X18763D01*
Y39500D01*
X20990D01*
X21248Y39472D01*
D02*
G37*
G36*
X36159Y32058D02*
X31202D01*
X33660Y39160D01*
X33674D01*
X36159Y32058D01*
D02*
G37*
D45*
X256925Y43500D02*
G03*
X256925Y43500I-1181J0D01*
G01*
D47*
X358268Y127929D02*
G03*
X358268Y127929I-19686J0D01*
G01*
X354531Y41587D02*
G03*
X322254Y42129I-15949J11539D01*
G01*
X43948Y42222D02*
G03*
X11799Y41329I-16390J10904D01*
G01*
X47244Y127929D02*
G03*
X47244Y127929I-19686J0D01*
G01*
X348425Y133858D02*
Y144882D01*
Y111024D02*
Y122047D01*
Y59055D02*
Y70079D01*
Y42126D02*
Y47244D01*
X37402Y59055D02*
Y70079D01*
Y36220D02*
Y47244D01*
Y133858D02*
Y144882D01*
Y111024D02*
Y122047D01*
D50*
X297799Y97437D02*
Y113185D01*
X310201Y97437D02*
Y113185D01*
X210399Y97437D02*
Y113185D01*
X222801Y97437D02*
Y113185D01*
X124299Y97437D02*
Y113185D01*
X136701Y97437D02*
Y113185D01*
X222678Y40703D02*
Y41097D01*
X219922Y40703D02*
Y41097D01*
X205778Y124803D02*
Y125197D01*
X203022Y124803D02*
Y125197D01*
X218803Y46222D02*
X219197D01*
X218803Y48978D02*
X219197D01*
X107500Y73500D02*
Y90000D01*
X105500Y71500D02*
X107500Y73500D01*
X92500Y71500D02*
X105500D01*
X88500Y67500D02*
X92500Y71500D01*
X88500Y32800D02*
Y67500D01*
Y32800D02*
X90800Y30500D01*
X100600Y33000D02*
X110200D01*
X120000D02*
X122500Y30500D01*
X309000Y0D02*
Y85000D01*
X304000Y90000D02*
X309000Y85000D01*
X61000Y90000D02*
X304000D01*
X56000Y85000D02*
X61000Y90000D01*
X56000Y0D02*
Y85000D01*
X127854Y16047D02*
Y18016D01*
X132776D01*
X177067Y16047D02*
Y18016D01*
X172146D02*
X177067D01*
X122016Y45602D02*
X123984D01*
X122016Y33398D02*
X123984D01*
X122016D02*
Y45602D01*
X123984Y33398D02*
Y45602D01*
X60811Y31157D02*
Y33716D01*
X87189D01*
Y31157D02*
Y33716D01*
X157658Y44043D02*
X177342D01*
X157658Y36957D02*
X177342D01*
Y44043D01*
X157658Y36957D02*
Y44043D01*
X246000Y58811D02*
X261311Y43500D01*
X230689D02*
X246000Y28189D01*
X261311Y43500D01*
X230689D02*
X246000Y58811D01*
X118122Y51303D02*
Y51697D01*
X120878Y51303D02*
Y51697D01*
X57122Y46803D02*
Y47197D01*
X59878Y46803D02*
Y47197D01*
X118122Y60803D02*
Y61197D01*
X120878Y60803D02*
Y61197D01*
X57122Y57303D02*
Y57697D01*
X59878Y57303D02*
Y57697D01*
X299122Y84803D02*
Y85197D01*
X301878Y84803D02*
Y85197D01*
X258722Y84803D02*
Y85197D01*
X261478Y84803D02*
Y85197D01*
X258722Y74803D02*
Y75197D01*
X261478Y74803D02*
Y75197D01*
X140122Y142303D02*
Y142697D01*
X142878Y142303D02*
Y142697D01*
X276122Y84803D02*
Y85197D01*
X278878Y84803D02*
Y85197D01*
X276122Y74803D02*
Y75197D01*
X278878Y74803D02*
Y75197D01*
X226122Y142403D02*
Y142797D01*
X228878Y142403D02*
Y142797D01*
X292622Y84803D02*
Y85197D01*
X295378Y84803D02*
Y85197D01*
X292622Y74803D02*
Y75197D01*
X295378Y74803D02*
Y75197D01*
X288222Y124303D02*
Y124697D01*
X290978Y124303D02*
Y124697D01*
X100378Y131803D02*
Y132197D01*
X97622Y131803D02*
Y132197D01*
X186378Y131803D02*
Y132197D01*
X183622Y131803D02*
Y132197D01*
X272378Y131803D02*
Y132197D01*
X269622Y131803D02*
Y132197D01*
X92622Y140803D02*
Y141197D01*
X95378Y140803D02*
Y141197D01*
X178622Y140803D02*
Y141197D01*
X181378Y140803D02*
Y141197D01*
X264622Y140803D02*
Y141197D01*
X267378Y140803D02*
Y141197D01*
X256303Y14622D02*
X256697D01*
X256303Y17378D02*
X256697D01*
X214878Y26803D02*
Y27197D01*
X212122Y26803D02*
Y27197D01*
X302622Y25303D02*
Y25697D01*
X305378Y25303D02*
Y25697D01*
X260803Y21122D02*
X261197D01*
X260803Y23878D02*
X261197D01*
X219478Y26803D02*
Y27197D01*
X216722Y26803D02*
Y27197D01*
X302622Y35803D02*
Y36197D01*
X305378Y35803D02*
Y36197D01*
X224178Y26803D02*
Y27197D01*
X221422Y26803D02*
Y27197D01*
X269622Y30303D02*
Y30697D01*
X272378Y30303D02*
Y30697D01*
X129122Y26303D02*
Y26697D01*
X131878Y26303D02*
Y26697D01*
X287522Y64603D02*
Y64997D01*
X290278Y64603D02*
Y64997D01*
X256622Y8803D02*
Y9197D01*
X259378Y8803D02*
Y9197D01*
X245378Y8803D02*
Y9197D01*
X242622Y8803D02*
Y9197D01*
X246303Y14622D02*
X246697D01*
X246303Y17378D02*
X246697D01*
X98374Y141945D02*
X137626D01*
Y148284D01*
X98374Y141945D02*
Y148284D01*
X184374Y141945D02*
X223626D01*
Y148284D01*
X184374Y141945D02*
Y148284D01*
X55374Y134055D02*
X94626D01*
X55374Y127717D02*
Y134055D01*
X94626Y127717D02*
Y134055D01*
X141374D02*
X180626D01*
X141374Y127717D02*
Y134055D01*
X180626Y127717D02*
Y134055D01*
X227374D02*
X266626D01*
X227374Y127717D02*
Y134055D01*
X266626Y127717D02*
Y134055D01*
X299905Y31244D02*
Y34000D01*
X296756Y31244D02*
X299905D01*
X288094D02*
Y34000D01*
Y31244D02*
X291244D01*
X252969Y8000D02*
X253953D01*
X115205Y54244D02*
Y59756D01*
X90795Y54244D02*
Y59756D01*
X86205Y71244D02*
Y76756D01*
X61795Y71244D02*
Y76756D01*
X134158Y37350D02*
Y43650D01*
X153842Y37350D02*
Y43650D01*
X134158Y37350D02*
X153842D01*
X134158Y43650D02*
X153842D01*
X75968Y46488D02*
Y57512D01*
X83055Y56331D02*
Y57512D01*
X64945D02*
X83055D01*
X64945Y56331D02*
Y57512D01*
X83055Y46488D02*
Y47669D01*
X64945Y46488D02*
X83055D01*
X64945D02*
Y47669D01*
X302031Y11531D02*
X305968D01*
X103991Y93465D02*
X115409D01*
X103991Y113543D02*
X115409D01*
X275991Y93461D02*
X287409D01*
X275991Y113539D02*
X287409D01*
X312252Y25787D02*
Y151772D01*
X363433D01*
Y25787D02*
Y151772D01*
X312252Y25787D02*
X363433D01*
X1252D02*
Y151772D01*
X52433D01*
Y25787D02*
Y151772D01*
X1252Y25787D02*
X52433D01*
X125878Y60803D02*
Y61197D01*
X123122Y60803D02*
Y61197D01*
X306878Y74803D02*
Y75197D01*
X304122Y74803D02*
Y75197D01*
X103232Y34947D02*
X107168D01*
X103232Y40853D02*
X107168D01*
X95953Y78031D02*
Y81968D01*
X90047Y78031D02*
Y81968D01*
X104953Y78031D02*
Y81968D01*
X99047Y78031D02*
Y81968D01*
X91961Y11291D02*
Y22709D01*
X112039Y11291D02*
Y22709D01*
X130378Y51303D02*
Y51697D01*
X127622Y51303D02*
Y51697D01*
X256478Y74803D02*
Y75197D01*
X253722Y74803D02*
Y75197D01*
X273878Y74803D02*
Y75197D01*
X271122Y74803D02*
Y75197D01*
X290378Y74803D02*
Y75197D01*
X287622Y74803D02*
Y75197D01*
X111614Y76181D02*
Y76575D01*
X114370Y76181D02*
Y76575D01*
X156496Y74606D02*
Y75000D01*
X159252Y74606D02*
Y75000D01*
X201378Y74606D02*
Y75000D01*
X204134Y74606D02*
Y75000D01*
X199803Y81496D02*
X200197D01*
X199803Y84646D02*
X200197D01*
X154921Y81496D02*
X155315D01*
X154921Y84646D02*
X155315D01*
X292522Y64603D02*
Y64997D01*
X295278Y64603D02*
Y64997D01*
X260467Y64681D02*
Y65075D01*
X257711Y64681D02*
Y65075D01*
X271122Y50303D02*
Y50697D01*
X273878Y50303D02*
Y50697D01*
X143803Y59378D02*
X144197D01*
X143803Y56622D02*
X144197D01*
X165703Y59378D02*
X166097D01*
X165703Y56622D02*
X166097D01*
X272378Y40303D02*
Y40697D01*
X269622Y40303D02*
Y40697D01*
X273398Y34984D02*
X285602D01*
X273398Y33016D02*
X285602D01*
Y34984D01*
X273398Y33016D02*
Y34984D01*
X193098Y30616D02*
X205302D01*
X193098Y32584D02*
X205302D01*
X193098Y30616D02*
Y32584D01*
X205302Y30616D02*
Y32584D01*
X270374Y141945D02*
X309626D01*
Y148284D01*
X270374Y141945D02*
Y148284D01*
X215322Y40703D02*
Y41097D01*
X218078Y40703D02*
Y41097D01*
X189500Y21000D02*
Y41000D01*
X179500D02*
X189500D01*
X179500Y21000D02*
Y41000D01*
Y21000D02*
X189500D01*
X155303Y59378D02*
X155697D01*
X155303Y56622D02*
X155697D01*
X299122Y74803D02*
Y75197D01*
X301878Y74803D02*
Y75197D01*
X248722Y74803D02*
Y75197D01*
X251478Y74803D02*
Y75197D01*
X266122Y74803D02*
Y75197D01*
X268878Y74803D02*
Y75197D01*
X282622Y74803D02*
Y75197D01*
X285378Y74803D02*
Y75197D01*
X186403Y47275D02*
X186797D01*
X186403Y44125D02*
X186797D01*
X189916Y60306D02*
X191884D01*
X189916Y48494D02*
X191884D01*
X189916D02*
Y60306D01*
X191884Y48494D02*
Y60306D01*
X204075Y54803D02*
Y55197D01*
X200925Y54803D02*
Y55197D01*
X91331Y39669D02*
X95268D01*
X189991Y93461D02*
X201409D01*
X189991Y113539D02*
X201409D01*
X201622Y43303D02*
Y43697D01*
X204378Y43303D02*
Y43697D01*
X194122Y43303D02*
Y43697D01*
X196878Y43303D02*
Y43697D01*
X210278Y26803D02*
Y27197D01*
X207522Y26803D02*
Y27197D01*
X114154Y16890D02*
Y28110D01*
X120846Y16890D02*
Y28110D01*
X114154D02*
X114547Y28110D01*
X114154Y16890D02*
X114547Y16890D01*
X120453Y28110D02*
X120846Y28110D01*
X120453Y16890D02*
X120846Y16890D01*
X119500Y0D02*
Y5500D01*
X98100Y30500D02*
X100600Y33000D01*
X90800Y30500D02*
X98100D01*
X110200Y33000D02*
X120000D01*
X122500Y17000D02*
Y30500D01*
X119500Y14000D02*
X122500Y17000D01*
X119500Y5500D02*
Y14000D01*
X264258Y60625D02*
Y63775D01*
X270557Y55901D02*
X277643D01*
X270557Y68499D02*
X277643D01*
X283943Y60625D02*
Y63775D01*
X198733Y16047D02*
Y18016D01*
X203654D01*
X233146D02*
X233146Y16047D01*
X228224Y18016D02*
X233146D01*
X127953Y68110D02*
X134252D01*
X127953Y87795D02*
X134252D01*
Y68110D02*
Y87795D01*
X127953Y68110D02*
Y87795D01*
X172835Y68110D02*
X179134D01*
X172835Y87795D02*
X179134D01*
Y68110D02*
Y87795D01*
X172835Y68110D02*
Y87795D01*
X217717Y68110D02*
X224016D01*
X217717Y87795D02*
X224016D01*
Y68110D02*
Y87795D01*
X217717Y68110D02*
Y87795D01*
X176003Y59378D02*
X176397D01*
X176003Y56622D02*
X176397D01*
X345716Y166534D02*
X349652D01*
X326031D02*
X329967D01*
X327999Y168502D02*
Y164567D01*
X34716Y166534D02*
X38652D01*
X15031D02*
X18967D01*
X16999Y168502D02*
Y164567D01*
D64*
X118768Y46685D02*
G03*
X118768Y46685I-492J0D01*
G01*
X88429Y41000D02*
G03*
X88429Y41000I-492J0D01*
G01*
X178839Y49949D02*
G03*
X178839Y49949I-492J0D01*
G01*
X267371Y45170D02*
G03*
X267371Y45170I-492J0D01*
G01*
X104327Y126000D02*
G03*
X104327Y126000I-492J0D01*
G01*
X190327D02*
G03*
X190327Y126000I-492J0D01*
G01*
X89657Y150000D02*
G03*
X89657Y150000I-492J0D01*
G01*
X175657D02*
G03*
X175657Y150000I-492J0D01*
G01*
X261658D02*
G03*
X261658Y150000I-492J0D01*
G01*
X155437Y50146D02*
G03*
X155437Y50146I-492J0D01*
G01*
X272807Y29276D02*
G03*
X272807Y29276I-492J0D01*
G01*
X206877Y36324D02*
G03*
X206877Y36324I-492J0D01*
G01*
X276327Y126000D02*
G03*
X276327Y126000I-492J0D01*
G01*
X186668Y61585D02*
G03*
X186668Y61585I-492J0D01*
G01*
X114449Y29783D02*
G03*
X114449Y29783I-492J0D01*
G01*
X121949Y88898D02*
G03*
X121949Y88898I-492J0D01*
G01*
X166831D02*
G03*
X166831Y88898I-492J0D01*
G01*
X211713D02*
G03*
X211713Y88898I-492J0D01*
G01*
D65*
X174980Y40894D02*
G03*
X174980Y40894I-787J0D01*
G01*
D66*
X261994Y53834D02*
G03*
X261994Y53834I-394J0D01*
G01*
X180300Y16000D02*
Y19149D01*
X182399Y16000D01*
Y19149D01*
X183449D02*
X185548D01*
X184498D01*
Y16000D01*
X188696Y18624D02*
X188172Y19149D01*
X187122D01*
X186597Y18624D01*
Y16525D01*
X187122Y16000D01*
X188172D01*
X188696Y16525D01*
M02*
