G04 Layer_Color=16711935*
%FSLAX25Y25*%
%MOIN*%
G70*
G01*
G75*
%ADD103C,0.08674*%
%ADD104C,0.24422*%
%ADD105R,0.51981X0.24422*%
%ADD106R,0.24422X0.24422*%
%ADD107R,0.36233X0.22453*%
%ADD108C,0.04200*%
G04:AMPARAMS|DCode=109|XSize=63.12mil|YSize=55.24mil|CornerRadius=15.81mil|HoleSize=0mil|Usage=FLASHONLY|Rotation=90.000|XOffset=0mil|YOffset=0mil|HoleType=Round|Shape=RoundedRectangle|*
%AMROUNDEDRECTD109*
21,1,0.06312,0.02362,0,0,90.0*
21,1,0.03150,0.05524,0,0,90.0*
1,1,0.03162,0.01181,0.01575*
1,1,0.03162,0.01181,-0.01575*
1,1,0.03162,-0.01181,-0.01575*
1,1,0.03162,-0.01181,0.01575*
%
%ADD109ROUNDEDRECTD109*%
G04:AMPARAMS|DCode=110|XSize=102.49mil|YSize=84.77mil|CornerRadius=23.19mil|HoleSize=0mil|Usage=FLASHONLY|Rotation=90.000|XOffset=0mil|YOffset=0mil|HoleType=Round|Shape=RoundedRectangle|*
%AMROUNDEDRECTD110*
21,1,0.10249,0.03839,0,0,90.0*
21,1,0.05610,0.08477,0,0,90.0*
1,1,0.04639,0.01919,0.02805*
1,1,0.04639,0.01919,-0.02805*
1,1,0.04639,-0.01919,-0.02805*
1,1,0.04639,-0.01919,0.02805*
%
%ADD110ROUNDEDRECTD110*%
%ADD111C,0.06706*%
%ADD112R,0.06706X0.06706*%
G04:AMPARAMS|DCode=113|XSize=47.37mil|YSize=35.56mil|CornerRadius=10.89mil|HoleSize=0mil|Usage=FLASHONLY|Rotation=0.000|XOffset=0mil|YOffset=0mil|HoleType=Round|Shape=RoundedRectangle|*
%AMROUNDEDRECTD113*
21,1,0.04737,0.01378,0,0,0.0*
21,1,0.02559,0.03556,0,0,0.0*
1,1,0.02178,0.01279,-0.00689*
1,1,0.02178,-0.01279,-0.00689*
1,1,0.02178,-0.01279,0.00689*
1,1,0.02178,0.01279,0.00689*
%
%ADD113ROUNDEDRECTD113*%
%ADD114C,0.03162*%
%ADD115C,0.04737*%
D103*
X348425Y127953D02*
D03*
X328740D02*
D03*
X348425Y53150D02*
D03*
X328740D02*
D03*
X37402D02*
D03*
X17717D02*
D03*
X37402Y127953D02*
D03*
X17717D02*
D03*
X328000Y175000D02*
D03*
X347685D02*
D03*
X17000D02*
D03*
X36685D02*
D03*
D104*
X338583Y90551D02*
D03*
X27559D02*
D03*
D105*
X338000Y13000D02*
D03*
D106*
X12992Y12992D02*
D03*
X40945D02*
D03*
D107*
X249000Y171000D02*
D03*
X163000D02*
D03*
X77000D02*
D03*
D108*
X280500Y49900D02*
D03*
X300500Y53900D02*
D03*
Y45900D02*
D03*
D109*
X288449Y22472D02*
D03*
X269551Y22472D02*
D03*
D110*
X293173Y10268D02*
D03*
X264827D02*
D03*
D111*
X184500Y26000D02*
D03*
D112*
Y36000D02*
D03*
D113*
X264600Y31000D02*
D03*
Y27600D02*
D03*
D114*
X204000Y9000D02*
D03*
D115*
X210000Y152000D02*
D03*
X206000D02*
D03*
Y156500D02*
D03*
X210000D02*
D03*
X222000Y152000D02*
D03*
X218000Y156500D02*
D03*
X214000D02*
D03*
X218000Y152000D02*
D03*
X151000Y118500D02*
D03*
Y123000D02*
D03*
X147000D02*
D03*
X245000Y118500D02*
D03*
X136000Y152000D02*
D03*
X132000D02*
D03*
Y156500D02*
D03*
X128000D02*
D03*
X124000D02*
D03*
X288000Y152000D02*
D03*
X292000D02*
D03*
Y156500D02*
D03*
X288000D02*
D03*
X233000Y123000D02*
D03*
Y118500D02*
D03*
X237000Y123000D02*
D03*
X241000D02*
D03*
X245000D02*
D03*
X249000D02*
D03*
Y118500D02*
D03*
X237000D02*
D03*
X73500Y6000D02*
D03*
X77500D02*
D03*
X81500D02*
D03*
Y10500D02*
D03*
X77500D02*
D03*
X73500D02*
D03*
X65500Y6000D02*
D03*
Y10500D02*
D03*
X69500D02*
D03*
Y6000D02*
D03*
X60500Y20500D02*
D03*
Y16500D02*
D03*
Y12500D02*
D03*
Y24500D02*
D03*
X87000Y20500D02*
D03*
Y16500D02*
D03*
Y12500D02*
D03*
Y24500D02*
D03*
X272000Y156500D02*
D03*
X276000D02*
D03*
X280000D02*
D03*
X284000D02*
D03*
X308000D02*
D03*
X296000D02*
D03*
X300000D02*
D03*
X304000D02*
D03*
X272000Y152000D02*
D03*
X276000D02*
D03*
X280000D02*
D03*
X284000D02*
D03*
X308000D02*
D03*
X296000D02*
D03*
X300000D02*
D03*
X304000D02*
D03*
X202000Y156500D02*
D03*
X186000D02*
D03*
X190000D02*
D03*
X194000D02*
D03*
X198000D02*
D03*
X222000D02*
D03*
X202000Y152000D02*
D03*
X186000D02*
D03*
X190000D02*
D03*
X194000D02*
D03*
X198000D02*
D03*
X214000D02*
D03*
X116000Y156500D02*
D03*
X100000D02*
D03*
X104000D02*
D03*
X108000D02*
D03*
X112000D02*
D03*
X136000D02*
D03*
X120000D02*
D03*
X116000Y152000D02*
D03*
X100000D02*
D03*
X104000D02*
D03*
X108000D02*
D03*
X112000D02*
D03*
X120000D02*
D03*
X124000D02*
D03*
X128000D02*
D03*
X292000Y174209D02*
D03*
X308000D02*
D03*
X304000D02*
D03*
X300000D02*
D03*
X296000D02*
D03*
X272000D02*
D03*
X288000D02*
D03*
X284000D02*
D03*
X280000D02*
D03*
X276000D02*
D03*
X292000Y178709D02*
D03*
X304000D02*
D03*
X300000D02*
D03*
X296000D02*
D03*
X272000D02*
D03*
X288000D02*
D03*
X284000D02*
D03*
X280000D02*
D03*
X276000D02*
D03*
X206000Y174209D02*
D03*
X222000D02*
D03*
X218000D02*
D03*
X214000D02*
D03*
X210000D02*
D03*
X186000D02*
D03*
X202000D02*
D03*
X198000D02*
D03*
X194000D02*
D03*
X190000D02*
D03*
X206000Y178709D02*
D03*
X218000D02*
D03*
X214000D02*
D03*
X210000D02*
D03*
X186000D02*
D03*
X202000D02*
D03*
X198000D02*
D03*
X194000D02*
D03*
X190000D02*
D03*
X120000Y174209D02*
D03*
X136000D02*
D03*
X132000D02*
D03*
X128000D02*
D03*
X124000D02*
D03*
X100000D02*
D03*
X116000D02*
D03*
X112000D02*
D03*
X108000D02*
D03*
X104000D02*
D03*
X120000Y178709D02*
D03*
X132000D02*
D03*
X128000D02*
D03*
X124000D02*
D03*
X100000D02*
D03*
X116000D02*
D03*
X112000D02*
D03*
X108000D02*
D03*
X104000D02*
D03*
X265000Y118500D02*
D03*
X253000D02*
D03*
X229000D02*
D03*
X241000D02*
D03*
X265000Y123000D02*
D03*
X261000D02*
D03*
X257000D02*
D03*
X253000D02*
D03*
X229000D02*
D03*
X163000Y118500D02*
D03*
X179000D02*
D03*
X175000D02*
D03*
X171000D02*
D03*
X167000D02*
D03*
X143000D02*
D03*
X159000D02*
D03*
X155000D02*
D03*
X147000D02*
D03*
X163000Y123000D02*
D03*
X179000D02*
D03*
X175000D02*
D03*
X171000D02*
D03*
X167000D02*
D03*
X143000D02*
D03*
X159000D02*
D03*
X155000D02*
D03*
X61000D02*
D03*
X65000D02*
D03*
X69000D02*
D03*
X73000D02*
D03*
X57000D02*
D03*
X81000D02*
D03*
X85000D02*
D03*
X89000D02*
D03*
X93000D02*
D03*
X77000D02*
D03*
X61000Y118500D02*
D03*
X65000D02*
D03*
X69000D02*
D03*
X73000D02*
D03*
X57000D02*
D03*
X81000D02*
D03*
X85000D02*
D03*
X89000D02*
D03*
X93000D02*
D03*
X77000D02*
D03*
X261000D02*
D03*
X257000D02*
D03*
M02*
