M48
;Layer_Color=9474304
;FILE_FORMAT=2:5
INCH,TZ
;TYPE=PLATED
T1F00S00C0.01181
T2F00S00C0.02362
T3F00S00C0.03543
T4F00S00C0.03937
T5F00S00C0.06102
T6F00S00C0.11811
T7F00S00C0.13780
;TYPE=NON_PLATED
T8F00S00C0.03500
%
T01
X97000Y36000
X107500Y38000
X131500Y32000
X135700Y23600
X130500Y19100
X157400Y26200
X169700Y15200
X190500Y28500
X195000Y32000
X206000Y27000
X202000Y22000
X204000Y9000
X228134Y24000
X230500Y22000
X235000
X237000Y16300
X240000Y16500
X244019Y21905
X246200Y23900
X248800Y22000
X247500Y33000
X248628Y35953
X246000Y37500
X240500Y36000
X254400Y37900
X267200Y34400
X279600Y33500
X283000Y34000
X288800Y32700
X293900Y35600
X298200Y32100
X298600Y25700
X297700Y19900
X299100Y14000
X306100Y12500
X302200Y5300
X284200Y4000
X270100
X271700Y15800
X264000Y18000
X259400Y26200
X255200Y9100
X244000Y3000
X231000Y26500
X223300Y35400
X225500Y44100
X218500Y46900
X219740Y51043
X223200Y55100
X212800Y53200
X210400Y55100
X207000Y49000
X199300Y47100
Y40700
X207800Y39200
X207500Y64500
X199709Y58140
X191400Y57800
X191000Y50500
X196850Y79528
X199300Y87300
X202700Y87700
X205905Y88189
X218897Y85039
X221653Y83464
X221654Y79921
X219685Y77559
X220500Y70500
X223500
X224838Y67662
X230500Y66500
X231000Y62000
X233966Y62000
X236800Y67800
X249000Y65500
X253500Y67000
X256400Y65100
X252600Y72500
X256000Y82000
X256100Y85000
X264900Y85100
X270000Y84900
X272500Y82000
X267500Y81500
X266800Y90700
X289800Y90900
X294500Y91000
X288000Y85000
X289000Y81500
X281300Y81800
X280700Y75000
X276556Y69300
X272200Y67700
X273700Y62000
X274931Y56591
X276600Y53200
X275800Y48200
X282000Y46300
X290500Y44500
X294000Y42500
X294100Y56500
X297200Y56900
X299700Y61800
X301100Y67900
X293900Y65500
X290344Y69000
X290500Y55300
X303400Y50700
X304400Y81300
X304700Y88100
X294500Y116500
X289500
X271000Y138000
X265500Y135000
X204400Y131100
X204300Y118900
X247331Y86191
X245000Y82000
X244200Y57600
X247500Y56900
X249969Y55131
X245700Y53000
X245500Y50000
X242400Y46200
X237700Y47100
X242500Y55100
X253200Y51900
X255100Y47900
X250000Y46500
X249500Y43500
X251500Y41000
X258000Y43500
X268500
X269300Y50500
X267500Y53300
X243000Y38500
X179400Y50600
X170000Y55000
X165000
X149700Y58000
X151500Y42500
X151600Y38500
X160000Y39000
X139000Y40000
X123500Y39500
X123000Y48500
X126000Y52000
X124500Y55500
X116000Y45500
X97000Y40000
X72000Y49000
Y53000
X82500Y74000
X86614
X88500Y81000
X91000
X93500
X96000
X98500
X101000
X107087Y76772
Y73228
X97638Y73622
X130709Y81496
X133071Y79134
X130315Y87008
X138500Y89000
X141300Y90400
X155905Y87008
X151969Y79528
X173622Y76772
X177559Y78740
X174803Y81890
X180756Y134756
X184500Y138000
X99000Y137500
X94000Y135500
T02
X65500Y6000
X69500
X73500
X77500
X81500
Y10500
X77500
X73500
X69500
X65500
X60500Y12500
Y16500
Y20500
Y24500
X87000
Y20500
Y16500
Y12500
X102000Y22000
X264600Y27600
Y31000
X282500Y96000
X286500
Y100000
Y104000
Y108000
X282500
Y112000
X286500
X290500
Y108000
Y104000
Y100000
Y96000
X294500
Y100000
Y104000
Y108000
X282500Y104000
Y100000
X265000Y118500
X261000
X257000
X253000
X249000
X245000
X241000
X237000
X233000
X229000
Y123000
X233000
X237000
X241000
X245000
X249000
X253000
X257000
X261000
X265000
X272000Y152000
X276000
X280000
X284000
X288000
X292000
X296000
X300000
X304000
X308000
Y156500
X304000
X300000
X296000
X292000
X288000
X284000
X280000
X276000
X272000
Y174209
X276000
X280000
X284000
X288000
X292000
X296000
X300000
X304000
X308000
X304000Y178709
X300000
X296000
X292000
X288000
X284000
X280000
X276000
X272000
X218000
X214000
X210000
X206000
X202000
X198000
X194000
X190000
X186000
Y174209
X190000
X194000
X198000
X202000
X206000
X210000
X214000
X218000
X222000
Y156500
X218000
X214000
X210000
X206000
X202000
X198000
X194000
X190000
X186000
Y152000
X190000
X194000
X198000
X202000
X206000
X210000
X214000
X218000
X222000
X207400Y112000
Y108000
Y104000
X203400
X199400
Y108000
X195400
Y112000
X199400
X203400
Y108000
Y100000
X199400
Y96000
X195400
Y100000
Y104000
X203400Y96000
X207400Y100000
X179000Y118500
X175000
X171000
X167000
X163000
X159000
X155000
X151000
X147000
X143000
Y123000
X147000
X151000
X155000
X159000
X163000
X167000
X171000
X175000
X179000
X121000Y112000
X117000
Y108000
X121000
Y104000
Y100000
Y96000
X117000
Y100000
Y104000
X113000
X109000
Y100000
Y96000
X113000
Y100000
Y108000
Y112000
X109000
Y108000
X93000Y118500
X89000
X85000
X81000
X77000
X73000
X69000
X65000
X61000
X57000
Y123000
X61000
X65000
X69000
X73000
X77000
X81000
X85000
X89000
X93000
X100000Y152000
X104000
X108000
X112000
X116000
X120000
X124000
X128000
X132000
X136000
Y156500
X132000
X128000
X124000
X120000
X116000
X112000
X108000
X104000
X100000
Y174209
X104000
X108000
X112000
X116000
X120000
X124000
X128000
X132000
X136000
X132000Y178709
X128000
X124000
X120000
X116000
X112000
X108000
X104000
X100000
T03
X184500Y26000
Y36000
T04
X269551Y22472
X288449Y22472
X348425Y53150
Y127953
X347685Y175000
X328000
X328740Y127953
Y53150
X37402
Y127953
X36685Y175000
X17000
X17717Y127953
Y53150
T05
X264827Y10268
X293173
T06
X12992Y12992
X40945
X338000Y13000
X249000Y171000
X163000
X77000
T07
X338583Y90551
X27559
T08
X280500Y49900
X300500Y45900
Y53900
M30
