G04 Layer_Physical_Order=3*
G04 Layer_Color=16440176*
%FSLAX25Y25*%
%MOIN*%
G70*
G01*
G75*
%ADD43C,0.03937*%
%ADD51C,0.07874*%
%ADD53R,0.51181X0.23622*%
G04:AMPARAMS|DCode=57|XSize=55.12mil|YSize=47.24mil|CornerRadius=11.81mil|HoleSize=0mil|Usage=FLASHONLY|Rotation=90.000|XOffset=0mil|YOffset=0mil|HoleType=Round|Shape=RoundedRectangle|*
%AMROUNDEDRECTD57*
21,1,0.05512,0.02362,0,0,90.0*
21,1,0.03150,0.04724,0,0,90.0*
1,1,0.02362,0.01181,0.01575*
1,1,0.02362,0.01181,-0.01575*
1,1,0.02362,-0.01181,-0.01575*
1,1,0.02362,-0.01181,0.01575*
%
%ADD57ROUNDEDRECTD57*%
G04:AMPARAMS|DCode=58|XSize=94.49mil|YSize=76.77mil|CornerRadius=19.19mil|HoleSize=0mil|Usage=FLASHONLY|Rotation=90.000|XOffset=0mil|YOffset=0mil|HoleType=Round|Shape=RoundedRectangle|*
%AMROUNDEDRECTD58*
21,1,0.09449,0.03839,0,0,90.0*
21,1,0.05610,0.07677,0,0,90.0*
1,1,0.03839,0.01919,0.02805*
1,1,0.03839,0.01919,-0.02805*
1,1,0.03839,-0.01919,-0.02805*
1,1,0.03839,-0.01919,0.02805*
%
%ADD58ROUNDEDRECTD58*%
%ADD59C,0.05905*%
%ADD62C,0.02362*%
G36*
X363700Y179500D02*
Y22100D01*
X314000D01*
X312400Y23700D01*
X312400Y87000D01*
X306700Y92700D01*
X295035D01*
X294500Y92806D01*
X293965Y92700D01*
X289832D01*
X289800Y92706D01*
X289768Y92700D01*
X119000D01*
X120400Y91300D01*
X138772D01*
X139136Y90824D01*
X139125Y90770D01*
X139029Y90701D01*
X138500Y90806D01*
X137809Y90669D01*
X137223Y90277D01*
X136831Y89691D01*
X136694Y89000D01*
X136831Y88309D01*
X137223Y87723D01*
X137809Y87331D01*
X138500Y87194D01*
X139191Y87331D01*
X139777Y87723D01*
X140169Y88309D01*
X140197Y88451D01*
X140757Y88702D01*
X141300Y88594D01*
X141991Y88731D01*
X142577Y89123D01*
X142969Y89709D01*
X143106Y90400D01*
X143027Y90800D01*
X143385Y91300D01*
X219200D01*
X223700Y86800D01*
Y84490D01*
X223200Y84338D01*
X222930Y84742D01*
X222344Y85133D01*
X221653Y85271D01*
X220962Y85133D01*
X220612Y85501D01*
X220566Y85730D01*
X220175Y86317D01*
X219588Y86708D01*
X218897Y86846D01*
X218206Y86708D01*
X217620Y86317D01*
X217228Y85730D01*
X217091Y85039D01*
X217228Y84348D01*
X217620Y83762D01*
X218206Y83370D01*
X218897Y83233D01*
X219588Y83370D01*
X219938Y83003D01*
X219984Y82773D01*
X220376Y82187D01*
X220962Y81796D01*
X221653Y81658D01*
X222344Y81796D01*
X222930Y82187D01*
X223200Y82591D01*
X223700Y82439D01*
Y76300D01*
X215500Y68100D01*
X97300D01*
X90500Y61300D01*
Y37900D01*
X107700Y20700D01*
Y1212D01*
X55354Y1101D01*
X55000Y1454D01*
Y86600D01*
X59700Y91300D01*
X105300D01*
X106700Y92700D01*
X56200D01*
X52500Y89000D01*
Y25442D01*
X29134D01*
X28682Y25255D01*
X28495Y24803D01*
Y21800D01*
X25442D01*
Y24803D01*
X25255Y25255D01*
X24803Y25442D01*
X1700D01*
Y178300D01*
X5800Y182400D01*
X58341D01*
X58675Y181900D01*
X58644Y181827D01*
Y160173D01*
X58832Y159721D01*
X59284Y159534D01*
X94717D01*
X95169Y159721D01*
X95356Y160173D01*
Y181827D01*
X95325Y181900D01*
X95660Y182400D01*
X144341D01*
X144675Y181900D01*
X144644Y181827D01*
Y160173D01*
X144832Y159721D01*
X145283Y159534D01*
X180717D01*
X181168Y159721D01*
X181356Y160173D01*
Y181827D01*
X181325Y181900D01*
X181659Y182400D01*
X230341D01*
X230675Y181900D01*
X230644Y181827D01*
Y160173D01*
X230832Y159721D01*
X231283Y159534D01*
X266717D01*
X267168Y159721D01*
X267356Y160173D01*
Y181827D01*
X267325Y181900D01*
X267659Y182400D01*
X360800D01*
X363700Y179500D01*
D02*
G37*
G36*
X311200Y86300D02*
Y1300D01*
X311159Y1200D01*
X245395D01*
X245243Y1700D01*
X245277Y1723D01*
X245669Y2309D01*
X245806Y3000D01*
X245669Y3691D01*
X245277Y4277D01*
X244691Y4669D01*
X244000Y4806D01*
X243309Y4669D01*
X242723Y4277D01*
X242331Y3691D01*
X242194Y3000D01*
X242331Y2309D01*
X242723Y1723D01*
X242757Y1700D01*
X242605Y1200D01*
X108700D01*
Y21300D01*
X91700Y38300D01*
Y60600D01*
X97900Y66800D01*
X98000Y66700D01*
X206916D01*
X206965Y66200D01*
X206809Y66169D01*
X206223Y65777D01*
X205831Y65191D01*
X205694Y64500D01*
X205831Y63809D01*
X206223Y63223D01*
X206809Y62831D01*
X207500Y62694D01*
X208191Y62831D01*
X208777Y63223D01*
X209169Y63809D01*
X209306Y64500D01*
X209169Y65191D01*
X208777Y65777D01*
X208191Y66169D01*
X208035Y66200D01*
X208084Y66700D01*
X216300D01*
X218859Y69259D01*
X219223Y69223D01*
X219809Y68831D01*
X220500Y68694D01*
X221191Y68831D01*
X221670Y69151D01*
X222000Y69194D01*
X222330Y69151D01*
X222809Y68831D01*
X222986Y68796D01*
X223039Y68666D01*
X223149Y68254D01*
X223031Y67662D01*
X223169Y66971D01*
X223561Y66385D01*
X224147Y65993D01*
X224838Y65856D01*
X225529Y65993D01*
X226115Y66385D01*
X226507Y66971D01*
X226644Y67662D01*
X226507Y68353D01*
X226115Y68939D01*
X225529Y69331D01*
X225352Y69366D01*
X225299Y69496D01*
X225189Y69908D01*
X225306Y70500D01*
X225169Y71191D01*
X224777Y71777D01*
X224191Y72169D01*
X223500Y72306D01*
X222809Y72169D01*
X222579Y72015D01*
X221972Y72145D01*
X221897Y72297D01*
X225300Y75700D01*
Y86700D01*
X230000Y91400D01*
X264623D01*
X265033Y90900D01*
X264994Y90700D01*
X265131Y90009D01*
X265523Y89423D01*
X266109Y89031D01*
X266800Y88894D01*
X267491Y89031D01*
X268077Y89423D01*
X268469Y90009D01*
X268606Y90700D01*
X268567Y90900D01*
X268977Y91400D01*
X287699D01*
X288016Y91013D01*
X287994Y90900D01*
X288131Y90209D01*
X288523Y89623D01*
X289109Y89231D01*
X289800Y89094D01*
X290491Y89231D01*
X291077Y89623D01*
X291469Y90209D01*
X291606Y90900D01*
X291584Y91013D01*
X291898Y91396D01*
X292383D01*
X292696Y91013D01*
X292694Y91000D01*
X292831Y90309D01*
X293223Y89723D01*
X293809Y89331D01*
X294500Y89194D01*
X295191Y89331D01*
X295777Y89723D01*
X296169Y90309D01*
X296306Y91000D01*
X296304Y91013D01*
X296621Y91400D01*
X306100D01*
X311200Y86300D01*
D02*
G37*
%LPC*%
G36*
X328740Y57716D02*
X327558Y57561D01*
X326457Y57104D01*
X325511Y56379D01*
X324785Y55433D01*
X324329Y54331D01*
X324173Y53150D01*
X324329Y51968D01*
X324785Y50866D01*
X325511Y49920D01*
X326457Y49195D01*
X327558Y48739D01*
X328740Y48583D01*
X329922Y48739D01*
X331024Y49195D01*
X331969Y49920D01*
X332695Y50866D01*
X333151Y51968D01*
X333307Y53150D01*
X333151Y54331D01*
X332695Y55433D01*
X331969Y56379D01*
X331024Y57104D01*
X329922Y57561D01*
X328740Y57716D01*
D02*
G37*
G36*
X17717D02*
X16535Y57561D01*
X15433Y57104D01*
X14487Y56379D01*
X13762Y55433D01*
X13306Y54331D01*
X13150Y53150D01*
X13306Y51968D01*
X13762Y50866D01*
X14487Y49920D01*
X15433Y49195D01*
X16535Y48739D01*
X17717Y48583D01*
X18899Y48739D01*
X20000Y49195D01*
X20946Y49920D01*
X21671Y50866D01*
X22128Y51968D01*
X22283Y53150D01*
X22128Y54331D01*
X21671Y55433D01*
X20946Y56379D01*
X20000Y57104D01*
X18899Y57561D01*
X17717Y57716D01*
D02*
G37*
G36*
X102000Y24581D02*
X101332Y24493D01*
X100709Y24235D01*
X100175Y23825D01*
X99765Y23291D01*
X99507Y22668D01*
X99419Y22000D01*
X99507Y21332D01*
X99765Y20709D01*
X100175Y20175D01*
X100709Y19765D01*
X101332Y19507D01*
X102000Y19419D01*
X102668Y19507D01*
X103291Y19765D01*
X103825Y20175D01*
X104235Y20709D01*
X104493Y21332D01*
X104581Y22000D01*
X104493Y22668D01*
X104235Y23291D01*
X103825Y23825D01*
X103291Y24235D01*
X102668Y24493D01*
X102000Y24581D01*
D02*
G37*
G36*
X17717Y132519D02*
X16535Y132364D01*
X15433Y131908D01*
X14487Y131182D01*
X13762Y130236D01*
X13306Y129135D01*
X13150Y127953D01*
X13306Y126771D01*
X13762Y125669D01*
X14487Y124724D01*
X15433Y123998D01*
X16535Y123542D01*
X17717Y123386D01*
X18899Y123542D01*
X20000Y123998D01*
X20946Y124724D01*
X21671Y125669D01*
X22128Y126771D01*
X22283Y127953D01*
X22128Y129135D01*
X21671Y130236D01*
X20946Y131182D01*
X20000Y131908D01*
X18899Y132364D01*
X17717Y132519D01*
D02*
G37*
G36*
X204300Y120706D02*
X203609Y120569D01*
X203023Y120177D01*
X202631Y119591D01*
X202494Y118900D01*
X202631Y118209D01*
X203023Y117623D01*
X203609Y117231D01*
X204300Y117094D01*
X204991Y117231D01*
X205577Y117623D01*
X205969Y118209D01*
X206106Y118900D01*
X205969Y119591D01*
X205577Y120177D01*
X204991Y120569D01*
X204300Y120706D01*
D02*
G37*
G36*
X294500Y118306D02*
X293809Y118169D01*
X293223Y117777D01*
X292831Y117191D01*
X292694Y116500D01*
X292831Y115809D01*
X293223Y115223D01*
X293809Y114831D01*
X294500Y114694D01*
X295191Y114831D01*
X295777Y115223D01*
X296169Y115809D01*
X296306Y116500D01*
X296169Y117191D01*
X295777Y117777D01*
X295191Y118169D01*
X294500Y118306D01*
D02*
G37*
G36*
X328740Y132519D02*
X327558Y132364D01*
X326457Y131908D01*
X325511Y131182D01*
X324785Y130236D01*
X324329Y129135D01*
X324173Y127953D01*
X324329Y126771D01*
X324785Y125669D01*
X325511Y124724D01*
X326457Y123998D01*
X327558Y123542D01*
X328740Y123386D01*
X329922Y123542D01*
X331024Y123998D01*
X331969Y124724D01*
X332695Y125669D01*
X333151Y126771D01*
X333307Y127953D01*
X333151Y129135D01*
X332695Y130236D01*
X331969Y131182D01*
X331024Y131908D01*
X329922Y132364D01*
X328740Y132519D01*
D02*
G37*
G36*
X265000Y125581D02*
X264332Y125493D01*
X263709Y125235D01*
X263175Y124825D01*
X262825D01*
X262291Y125235D01*
X261668Y125493D01*
X261000Y125581D01*
X260332Y125493D01*
X259709Y125235D01*
X259175Y124825D01*
X258825D01*
X258291Y125235D01*
X257668Y125493D01*
X257000Y125581D01*
X256332Y125493D01*
X255709Y125235D01*
X255175Y124825D01*
X254825D01*
X254291Y125235D01*
X253668Y125493D01*
X253000Y125581D01*
X252332Y125493D01*
X251709Y125235D01*
X251175Y124825D01*
X250825D01*
X250291Y125235D01*
X249668Y125493D01*
X249000Y125581D01*
X248332Y125493D01*
X247709Y125235D01*
X247175Y124825D01*
X246825D01*
X246291Y125235D01*
X245668Y125493D01*
X245000Y125581D01*
X244332Y125493D01*
X243709Y125235D01*
X243175Y124825D01*
X242825D01*
X242291Y125235D01*
X241668Y125493D01*
X241000Y125581D01*
X240332Y125493D01*
X239709Y125235D01*
X239175Y124825D01*
X238825D01*
X238291Y125235D01*
X237668Y125493D01*
X237000Y125581D01*
X236332Y125493D01*
X235709Y125235D01*
X235175Y124825D01*
X234825D01*
X234291Y125235D01*
X233668Y125493D01*
X233000Y125581D01*
X232332Y125493D01*
X231709Y125235D01*
X231175Y124825D01*
X230825D01*
X230291Y125235D01*
X229668Y125493D01*
X229000Y125581D01*
X228332Y125493D01*
X227709Y125235D01*
X227175Y124825D01*
X226765Y124291D01*
X226507Y123668D01*
X226419Y123000D01*
X226507Y122332D01*
X226765Y121709D01*
X227175Y121175D01*
X227318Y121065D01*
Y120435D01*
X227175Y120325D01*
X226765Y119791D01*
X226507Y119168D01*
X226419Y118500D01*
X226507Y117832D01*
X226765Y117209D01*
X227175Y116675D01*
X227709Y116265D01*
X228332Y116007D01*
X229000Y115919D01*
X229668Y116007D01*
X230291Y116265D01*
X230825Y116675D01*
X231175D01*
X231709Y116265D01*
X232332Y116007D01*
X233000Y115919D01*
X233668Y116007D01*
X234291Y116265D01*
X234825Y116675D01*
X235175D01*
X235709Y116265D01*
X236332Y116007D01*
X237000Y115919D01*
X237668Y116007D01*
X238291Y116265D01*
X238825Y116675D01*
X239175D01*
X239709Y116265D01*
X240332Y116007D01*
X241000Y115919D01*
X241668Y116007D01*
X242291Y116265D01*
X242825Y116675D01*
X243175D01*
X243709Y116265D01*
X244332Y116007D01*
X245000Y115919D01*
X245668Y116007D01*
X246291Y116265D01*
X246825Y116675D01*
X247175D01*
X247709Y116265D01*
X248332Y116007D01*
X249000Y115919D01*
X249668Y116007D01*
X250291Y116265D01*
X250825Y116675D01*
X251175D01*
X251709Y116265D01*
X252332Y116007D01*
X253000Y115919D01*
X253668Y116007D01*
X254291Y116265D01*
X254825Y116675D01*
X255175D01*
X255709Y116265D01*
X256332Y116007D01*
X257000Y115919D01*
X257668Y116007D01*
X258291Y116265D01*
X258825Y116675D01*
X259175D01*
X259709Y116265D01*
X260332Y116007D01*
X261000Y115919D01*
X261668Y116007D01*
X262291Y116265D01*
X262825Y116675D01*
X263175D01*
X263709Y116265D01*
X264332Y116007D01*
X265000Y115919D01*
X265668Y116007D01*
X266291Y116265D01*
X266825Y116675D01*
X267235Y117209D01*
X267493Y117832D01*
X267581Y118500D01*
X267493Y119168D01*
X267235Y119791D01*
X266825Y120325D01*
X266682Y120435D01*
Y121065D01*
X266825Y121175D01*
X267235Y121709D01*
X267493Y122332D01*
X267581Y123000D01*
X267493Y123668D01*
X267235Y124291D01*
X266825Y124825D01*
X266291Y125235D01*
X265668Y125493D01*
X265000Y125581D01*
D02*
G37*
G36*
X179000D02*
X178332Y125493D01*
X177709Y125235D01*
X177175Y124825D01*
X176825D01*
X176291Y125235D01*
X175668Y125493D01*
X175000Y125581D01*
X174332Y125493D01*
X173709Y125235D01*
X173175Y124825D01*
X172825D01*
X172291Y125235D01*
X171668Y125493D01*
X171000Y125581D01*
X170332Y125493D01*
X169709Y125235D01*
X169175Y124825D01*
X168825D01*
X168291Y125235D01*
X167668Y125493D01*
X167000Y125581D01*
X166332Y125493D01*
X165709Y125235D01*
X165175Y124825D01*
X164825D01*
X164291Y125235D01*
X163668Y125493D01*
X163000Y125581D01*
X162332Y125493D01*
X161709Y125235D01*
X161175Y124825D01*
X160825D01*
X160291Y125235D01*
X159668Y125493D01*
X159000Y125581D01*
X158332Y125493D01*
X157709Y125235D01*
X157175Y124825D01*
X156825D01*
X156291Y125235D01*
X155668Y125493D01*
X155000Y125581D01*
X154332Y125493D01*
X153709Y125235D01*
X153175Y124825D01*
X152825D01*
X152291Y125235D01*
X151668Y125493D01*
X151000Y125581D01*
X150332Y125493D01*
X149709Y125235D01*
X149175Y124825D01*
X148825D01*
X148291Y125235D01*
X147668Y125493D01*
X147000Y125581D01*
X146332Y125493D01*
X145709Y125235D01*
X145175Y124825D01*
X144825D01*
X144291Y125235D01*
X143668Y125493D01*
X143000Y125581D01*
X142332Y125493D01*
X141709Y125235D01*
X141175Y124825D01*
X140765Y124291D01*
X140507Y123668D01*
X140419Y123000D01*
X140507Y122332D01*
X140765Y121709D01*
X141175Y121175D01*
X141318Y121065D01*
Y120435D01*
X141175Y120325D01*
X140765Y119791D01*
X140507Y119168D01*
X140419Y118500D01*
X140507Y117832D01*
X140765Y117209D01*
X141175Y116675D01*
X141709Y116265D01*
X142332Y116007D01*
X143000Y115919D01*
X143668Y116007D01*
X144291Y116265D01*
X144825Y116675D01*
X145175D01*
X145709Y116265D01*
X146332Y116007D01*
X147000Y115919D01*
X147668Y116007D01*
X148291Y116265D01*
X148825Y116675D01*
X149175D01*
X149709Y116265D01*
X150332Y116007D01*
X151000Y115919D01*
X151668Y116007D01*
X152291Y116265D01*
X152825Y116675D01*
X153175D01*
X153709Y116265D01*
X154332Y116007D01*
X155000Y115919D01*
X155668Y116007D01*
X156291Y116265D01*
X156825Y116675D01*
X157175D01*
X157709Y116265D01*
X158332Y116007D01*
X159000Y115919D01*
X159668Y116007D01*
X160291Y116265D01*
X160825Y116675D01*
X161175D01*
X161709Y116265D01*
X162332Y116007D01*
X163000Y115919D01*
X163668Y116007D01*
X164291Y116265D01*
X164825Y116675D01*
X165175D01*
X165709Y116265D01*
X166332Y116007D01*
X167000Y115919D01*
X167668Y116007D01*
X168291Y116265D01*
X168825Y116675D01*
X169175D01*
X169709Y116265D01*
X170332Y116007D01*
X171000Y115919D01*
X171668Y116007D01*
X172291Y116265D01*
X172825Y116675D01*
X173175D01*
X173709Y116265D01*
X174332Y116007D01*
X175000Y115919D01*
X175668Y116007D01*
X176291Y116265D01*
X176825Y116675D01*
X177175D01*
X177709Y116265D01*
X178332Y116007D01*
X179000Y115919D01*
X179668Y116007D01*
X180291Y116265D01*
X180825Y116675D01*
X181235Y117209D01*
X181493Y117832D01*
X181581Y118500D01*
X181493Y119168D01*
X181235Y119791D01*
X180825Y120325D01*
X180682Y120435D01*
Y121065D01*
X180825Y121175D01*
X181235Y121709D01*
X181493Y122332D01*
X181581Y123000D01*
X181493Y123668D01*
X181235Y124291D01*
X180825Y124825D01*
X180291Y125235D01*
X179668Y125493D01*
X179000Y125581D01*
D02*
G37*
G36*
X93000D02*
X92332Y125493D01*
X91709Y125235D01*
X91175Y124825D01*
X90825D01*
X90291Y125235D01*
X89668Y125493D01*
X89000Y125581D01*
X88332Y125493D01*
X87709Y125235D01*
X87175Y124825D01*
X86825D01*
X86291Y125235D01*
X85668Y125493D01*
X85000Y125581D01*
X84332Y125493D01*
X83709Y125235D01*
X83175Y124825D01*
X82825D01*
X82291Y125235D01*
X81668Y125493D01*
X81000Y125581D01*
X80332Y125493D01*
X79709Y125235D01*
X79175Y124825D01*
X78825D01*
X78291Y125235D01*
X77668Y125493D01*
X77000Y125581D01*
X76332Y125493D01*
X75709Y125235D01*
X75175Y124825D01*
X74825D01*
X74291Y125235D01*
X73668Y125493D01*
X73000Y125581D01*
X72332Y125493D01*
X71709Y125235D01*
X71175Y124825D01*
X70825D01*
X70291Y125235D01*
X69668Y125493D01*
X69000Y125581D01*
X68332Y125493D01*
X67709Y125235D01*
X67175Y124825D01*
X66825D01*
X66291Y125235D01*
X65668Y125493D01*
X65000Y125581D01*
X64332Y125493D01*
X63709Y125235D01*
X63175Y124825D01*
X62825D01*
X62291Y125235D01*
X61668Y125493D01*
X61000Y125581D01*
X60332Y125493D01*
X59709Y125235D01*
X59175Y124825D01*
X58825D01*
X58291Y125235D01*
X57668Y125493D01*
X57000Y125581D01*
X56332Y125493D01*
X55709Y125235D01*
X55175Y124825D01*
X54765Y124291D01*
X54507Y123668D01*
X54419Y123000D01*
X54507Y122332D01*
X54765Y121709D01*
X55175Y121175D01*
X55318Y121065D01*
Y120435D01*
X55175Y120325D01*
X54765Y119791D01*
X54507Y119168D01*
X54419Y118500D01*
X54507Y117832D01*
X54765Y117209D01*
X55175Y116675D01*
X55709Y116265D01*
X56332Y116007D01*
X57000Y115919D01*
X57668Y116007D01*
X58291Y116265D01*
X58825Y116675D01*
X59175D01*
X59709Y116265D01*
X60332Y116007D01*
X61000Y115919D01*
X61668Y116007D01*
X62291Y116265D01*
X62825Y116675D01*
X63175D01*
X63709Y116265D01*
X64332Y116007D01*
X65000Y115919D01*
X65668Y116007D01*
X66291Y116265D01*
X66825Y116675D01*
X67175D01*
X67709Y116265D01*
X68332Y116007D01*
X69000Y115919D01*
X69668Y116007D01*
X70291Y116265D01*
X70825Y116675D01*
X71175D01*
X71709Y116265D01*
X72332Y116007D01*
X73000Y115919D01*
X73668Y116007D01*
X74291Y116265D01*
X74825Y116675D01*
X75175D01*
X75709Y116265D01*
X76332Y116007D01*
X77000Y115919D01*
X77668Y116007D01*
X78291Y116265D01*
X78825Y116675D01*
X79175D01*
X79709Y116265D01*
X80332Y116007D01*
X81000Y115919D01*
X81668Y116007D01*
X82291Y116265D01*
X82825Y116675D01*
X83175D01*
X83709Y116265D01*
X84332Y116007D01*
X85000Y115919D01*
X85668Y116007D01*
X86291Y116265D01*
X86825Y116675D01*
X87175D01*
X87709Y116265D01*
X88332Y116007D01*
X89000Y115919D01*
X89668Y116007D01*
X90291Y116265D01*
X90825Y116675D01*
X91175D01*
X91709Y116265D01*
X92332Y116007D01*
X93000Y115919D01*
X93668Y116007D01*
X94291Y116265D01*
X94825Y116675D01*
X95235Y117209D01*
X95493Y117832D01*
X95581Y118500D01*
X95493Y119168D01*
X95235Y119791D01*
X94825Y120325D01*
X94682Y120435D01*
Y121065D01*
X94825Y121175D01*
X95235Y121709D01*
X95493Y122332D01*
X95581Y123000D01*
X95493Y123668D01*
X95235Y124291D01*
X94825Y124825D01*
X94291Y125235D01*
X93668Y125493D01*
X93000Y125581D01*
D02*
G37*
G36*
X130315Y88814D02*
X129624Y88677D01*
X129038Y88285D01*
X128646Y87699D01*
X128509Y87008D01*
X128646Y86317D01*
X129038Y85731D01*
X129624Y85339D01*
X130315Y85202D01*
X131006Y85339D01*
X131592Y85731D01*
X131984Y86317D01*
X132121Y87008D01*
X131984Y87699D01*
X131592Y88285D01*
X131006Y88677D01*
X130315Y88814D01*
D02*
G37*
G36*
X155905D02*
X155214Y88677D01*
X154628Y88285D01*
X154237Y87699D01*
X154099Y87008D01*
X154237Y86317D01*
X154628Y85731D01*
X155214Y85339D01*
X155905Y85202D01*
X156597Y85339D01*
X157183Y85731D01*
X157574Y86317D01*
X157712Y87008D01*
X157574Y87699D01*
X157183Y88285D01*
X156597Y88677D01*
X155905Y88814D01*
D02*
G37*
G36*
X289500Y118306D02*
X288809Y118169D01*
X288223Y117777D01*
X287831Y117191D01*
X287694Y116500D01*
X287831Y115809D01*
X288223Y115223D01*
X288809Y114831D01*
X289500Y114694D01*
X290191Y114831D01*
X290777Y115223D01*
X291169Y115809D01*
X291306Y116500D01*
X291169Y117191D01*
X290777Y117777D01*
X290191Y118169D01*
X289500Y118306D01*
D02*
G37*
G36*
X205905Y89995D02*
X205214Y89858D01*
X204628Y89466D01*
X204440Y89185D01*
X204008Y88991D01*
X203817Y89084D01*
X203391Y89369D01*
X202700Y89506D01*
X202009Y89369D01*
X201423Y88977D01*
X201167Y88595D01*
X200593Y88554D01*
X200577Y88577D01*
X199991Y88969D01*
X199300Y89106D01*
X198609Y88969D01*
X198023Y88577D01*
X197631Y87991D01*
X197494Y87300D01*
X197631Y86609D01*
X198023Y86023D01*
X198609Y85631D01*
X199300Y85494D01*
X199991Y85631D01*
X200577Y86023D01*
X200833Y86405D01*
X201407Y86446D01*
X201423Y86423D01*
X202009Y86031D01*
X202700Y85894D01*
X203391Y86031D01*
X203977Y86423D01*
X204165Y86704D01*
X204597Y86898D01*
X204788Y86804D01*
X205214Y86520D01*
X205905Y86382D01*
X206596Y86520D01*
X207182Y86911D01*
X207574Y87498D01*
X207712Y88189D01*
X207574Y88880D01*
X207182Y89466D01*
X206596Y89858D01*
X205905Y89995D01*
D02*
G37*
G36*
X204400Y132906D02*
X203709Y132769D01*
X203123Y132377D01*
X202731Y131791D01*
X202594Y131100D01*
X202731Y130409D01*
X203123Y129823D01*
X203709Y129431D01*
X204400Y129294D01*
X205091Y129431D01*
X205677Y129823D01*
X206069Y130409D01*
X206206Y131100D01*
X206069Y131791D01*
X205677Y132377D01*
X205091Y132769D01*
X204400Y132906D01*
D02*
G37*
G36*
X17000Y179567D02*
X15818Y179411D01*
X14717Y178955D01*
X13771Y178229D01*
X13045Y177283D01*
X12589Y176182D01*
X12433Y175000D01*
X12589Y173818D01*
X13045Y172717D01*
X13771Y171771D01*
X14717Y171045D01*
X15818Y170589D01*
X17000Y170433D01*
X18182Y170589D01*
X19283Y171045D01*
X20229Y171771D01*
X20955Y172717D01*
X21411Y173818D01*
X21567Y175000D01*
X21411Y176182D01*
X20955Y177283D01*
X20229Y178229D01*
X19283Y178955D01*
X18182Y179411D01*
X17000Y179567D01*
D02*
G37*
G36*
X308000Y159081D02*
X307332Y158993D01*
X306709Y158735D01*
X306175Y158325D01*
X305825D01*
X305291Y158735D01*
X304668Y158993D01*
X304000Y159081D01*
X303332Y158993D01*
X302709Y158735D01*
X302175Y158325D01*
X301825D01*
X301291Y158735D01*
X300668Y158993D01*
X300000Y159081D01*
X299332Y158993D01*
X298709Y158735D01*
X298175Y158325D01*
X297825D01*
X297291Y158735D01*
X296668Y158993D01*
X296000Y159081D01*
X295332Y158993D01*
X294709Y158735D01*
X294175Y158325D01*
X293825D01*
X293291Y158735D01*
X292668Y158993D01*
X292000Y159081D01*
X291332Y158993D01*
X290709Y158735D01*
X290175Y158325D01*
X289825D01*
X289291Y158735D01*
X288668Y158993D01*
X288000Y159081D01*
X287332Y158993D01*
X286709Y158735D01*
X286175Y158325D01*
X285825D01*
X285291Y158735D01*
X284668Y158993D01*
X284000Y159081D01*
X283332Y158993D01*
X282709Y158735D01*
X282175Y158325D01*
X281825D01*
X281291Y158735D01*
X280668Y158993D01*
X280000Y159081D01*
X279332Y158993D01*
X278709Y158735D01*
X278175Y158325D01*
X277825D01*
X277291Y158735D01*
X276668Y158993D01*
X276000Y159081D01*
X275332Y158993D01*
X274709Y158735D01*
X274175Y158325D01*
X273825D01*
X273291Y158735D01*
X272668Y158993D01*
X272000Y159081D01*
X271332Y158993D01*
X270709Y158735D01*
X270175Y158325D01*
X269765Y157791D01*
X269507Y157168D01*
X269419Y156500D01*
X269507Y155832D01*
X269765Y155209D01*
X270175Y154675D01*
X270318Y154565D01*
Y153935D01*
X270175Y153825D01*
X269765Y153291D01*
X269507Y152668D01*
X269419Y152000D01*
X269507Y151332D01*
X269765Y150709D01*
X270175Y150175D01*
X270709Y149765D01*
X271332Y149507D01*
X272000Y149419D01*
X272668Y149507D01*
X273291Y149765D01*
X273825Y150175D01*
X274175D01*
X274709Y149765D01*
X275332Y149507D01*
X276000Y149419D01*
X276668Y149507D01*
X277291Y149765D01*
X277825Y150175D01*
X278175D01*
X278709Y149765D01*
X279332Y149507D01*
X280000Y149419D01*
X280668Y149507D01*
X281291Y149765D01*
X281825Y150175D01*
X282175D01*
X282709Y149765D01*
X283332Y149507D01*
X284000Y149419D01*
X284668Y149507D01*
X285291Y149765D01*
X285825Y150175D01*
X286175D01*
X286709Y149765D01*
X287332Y149507D01*
X288000Y149419D01*
X288668Y149507D01*
X289291Y149765D01*
X289825Y150175D01*
X290175D01*
X290709Y149765D01*
X291332Y149507D01*
X292000Y149419D01*
X292668Y149507D01*
X293291Y149765D01*
X293825Y150175D01*
X294175D01*
X294709Y149765D01*
X295332Y149507D01*
X296000Y149419D01*
X296668Y149507D01*
X297291Y149765D01*
X297825Y150175D01*
X298175D01*
X298709Y149765D01*
X299332Y149507D01*
X300000Y149419D01*
X300668Y149507D01*
X301291Y149765D01*
X301825Y150175D01*
X302175D01*
X302709Y149765D01*
X303332Y149507D01*
X304000Y149419D01*
X304668Y149507D01*
X305291Y149765D01*
X305825Y150175D01*
X306175D01*
X306709Y149765D01*
X307332Y149507D01*
X308000Y149419D01*
X308668Y149507D01*
X309291Y149765D01*
X309825Y150175D01*
X310235Y150709D01*
X310493Y151332D01*
X310581Y152000D01*
X310493Y152668D01*
X310235Y153291D01*
X309825Y153825D01*
X309682Y153935D01*
Y154565D01*
X309825Y154675D01*
X310235Y155209D01*
X310493Y155832D01*
X310581Y156500D01*
X310493Y157168D01*
X310235Y157791D01*
X309825Y158325D01*
X309291Y158735D01*
X308668Y158993D01*
X308000Y159081D01*
D02*
G37*
G36*
X222000D02*
X221332Y158993D01*
X220709Y158735D01*
X220175Y158325D01*
X219825D01*
X219291Y158735D01*
X218668Y158993D01*
X218000Y159081D01*
X217332Y158993D01*
X216709Y158735D01*
X216175Y158325D01*
X215825D01*
X215291Y158735D01*
X214668Y158993D01*
X214000Y159081D01*
X213332Y158993D01*
X212709Y158735D01*
X212175Y158325D01*
X211825D01*
X211291Y158735D01*
X210668Y158993D01*
X210000Y159081D01*
X209332Y158993D01*
X208709Y158735D01*
X208175Y158325D01*
X207825D01*
X207291Y158735D01*
X206668Y158993D01*
X206000Y159081D01*
X205332Y158993D01*
X204709Y158735D01*
X204175Y158325D01*
X203825D01*
X203291Y158735D01*
X202668Y158993D01*
X202000Y159081D01*
X201332Y158993D01*
X200709Y158735D01*
X200175Y158325D01*
X199825D01*
X199291Y158735D01*
X198668Y158993D01*
X198000Y159081D01*
X197332Y158993D01*
X196709Y158735D01*
X196175Y158325D01*
X195825D01*
X195291Y158735D01*
X194668Y158993D01*
X194000Y159081D01*
X193332Y158993D01*
X192709Y158735D01*
X192175Y158325D01*
X191825D01*
X191291Y158735D01*
X190668Y158993D01*
X190000Y159081D01*
X189332Y158993D01*
X188709Y158735D01*
X188175Y158325D01*
X187825D01*
X187291Y158735D01*
X186668Y158993D01*
X186000Y159081D01*
X185332Y158993D01*
X184709Y158735D01*
X184175Y158325D01*
X183765Y157791D01*
X183507Y157168D01*
X183419Y156500D01*
X183507Y155832D01*
X183765Y155209D01*
X184175Y154675D01*
X184318Y154565D01*
Y153935D01*
X184175Y153825D01*
X183765Y153291D01*
X183507Y152668D01*
X183419Y152000D01*
X183507Y151332D01*
X183765Y150709D01*
X184175Y150175D01*
X184709Y149765D01*
X185332Y149507D01*
X186000Y149419D01*
X186668Y149507D01*
X187291Y149765D01*
X187825Y150175D01*
X188175D01*
X188709Y149765D01*
X189332Y149507D01*
X190000Y149419D01*
X190668Y149507D01*
X191291Y149765D01*
X191825Y150175D01*
X192175D01*
X192709Y149765D01*
X193332Y149507D01*
X194000Y149419D01*
X194668Y149507D01*
X195291Y149765D01*
X195825Y150175D01*
X196175D01*
X196709Y149765D01*
X197332Y149507D01*
X198000Y149419D01*
X198668Y149507D01*
X199291Y149765D01*
X199825Y150175D01*
X200175D01*
X200709Y149765D01*
X201332Y149507D01*
X202000Y149419D01*
X202668Y149507D01*
X203291Y149765D01*
X203825Y150175D01*
X204175D01*
X204709Y149765D01*
X205332Y149507D01*
X206000Y149419D01*
X206668Y149507D01*
X207291Y149765D01*
X207825Y150175D01*
X208175D01*
X208709Y149765D01*
X209332Y149507D01*
X210000Y149419D01*
X210668Y149507D01*
X211291Y149765D01*
X211825Y150175D01*
X212175D01*
X212709Y149765D01*
X213332Y149507D01*
X214000Y149419D01*
X214668Y149507D01*
X215291Y149765D01*
X215825Y150175D01*
X216175D01*
X216709Y149765D01*
X217332Y149507D01*
X218000Y149419D01*
X218668Y149507D01*
X219291Y149765D01*
X219825Y150175D01*
X220175D01*
X220709Y149765D01*
X221332Y149507D01*
X222000Y149419D01*
X222668Y149507D01*
X223291Y149765D01*
X223825Y150175D01*
X224235Y150709D01*
X224493Y151332D01*
X224581Y152000D01*
X224493Y152668D01*
X224235Y153291D01*
X223825Y153825D01*
X223682Y153935D01*
Y154565D01*
X223825Y154675D01*
X224235Y155209D01*
X224493Y155832D01*
X224581Y156500D01*
X224493Y157168D01*
X224235Y157791D01*
X223825Y158325D01*
X223291Y158735D01*
X222668Y158993D01*
X222000Y159081D01*
D02*
G37*
G36*
X328000Y179567D02*
X326818Y179411D01*
X325717Y178955D01*
X324771Y178229D01*
X324045Y177283D01*
X323589Y176182D01*
X323433Y175000D01*
X323589Y173818D01*
X324045Y172717D01*
X324771Y171771D01*
X325717Y171045D01*
X326818Y170589D01*
X328000Y170433D01*
X329182Y170589D01*
X330283Y171045D01*
X331229Y171771D01*
X331955Y172717D01*
X332411Y173818D01*
X332567Y175000D01*
X332411Y176182D01*
X331955Y177283D01*
X331229Y178229D01*
X330283Y178955D01*
X329182Y179411D01*
X328000Y179567D01*
D02*
G37*
G36*
X304000Y181290D02*
X303332Y181202D01*
X302709Y180944D01*
X302175Y180534D01*
X301825D01*
X301291Y180944D01*
X300668Y181202D01*
X300000Y181290D01*
X299332Y181202D01*
X298709Y180944D01*
X298175Y180534D01*
X297825D01*
X297291Y180944D01*
X296668Y181202D01*
X296000Y181290D01*
X295332Y181202D01*
X294709Y180944D01*
X294175Y180534D01*
X293825D01*
X293291Y180944D01*
X292668Y181202D01*
X292000Y181290D01*
X291332Y181202D01*
X290709Y180944D01*
X290175Y180534D01*
X289825D01*
X289291Y180944D01*
X288668Y181202D01*
X288000Y181290D01*
X287332Y181202D01*
X286709Y180944D01*
X286175Y180534D01*
X285825D01*
X285291Y180944D01*
X284668Y181202D01*
X284000Y181290D01*
X283332Y181202D01*
X282709Y180944D01*
X282175Y180534D01*
X281825D01*
X281291Y180944D01*
X280668Y181202D01*
X280000Y181290D01*
X279332Y181202D01*
X278709Y180944D01*
X278175Y180534D01*
X277825D01*
X277291Y180944D01*
X276668Y181202D01*
X276000Y181290D01*
X275332Y181202D01*
X274709Y180944D01*
X274175Y180534D01*
X273825D01*
X273291Y180944D01*
X272668Y181202D01*
X272000Y181290D01*
X271332Y181202D01*
X270709Y180944D01*
X270175Y180534D01*
X269765Y179999D01*
X269507Y179377D01*
X269419Y178709D01*
X269507Y178041D01*
X269765Y177418D01*
X270175Y176883D01*
X270318Y176774D01*
Y176144D01*
X270175Y176034D01*
X269765Y175499D01*
X269507Y174877D01*
X269419Y174209D01*
X269507Y173541D01*
X269765Y172918D01*
X270175Y172383D01*
X270709Y171973D01*
X271332Y171715D01*
X272000Y171627D01*
X272668Y171715D01*
X273291Y171973D01*
X273825Y172383D01*
X274175D01*
X274709Y171973D01*
X275332Y171715D01*
X276000Y171627D01*
X276668Y171715D01*
X277291Y171973D01*
X277825Y172383D01*
X278175D01*
X278709Y171973D01*
X279332Y171715D01*
X280000Y171627D01*
X280668Y171715D01*
X281291Y171973D01*
X281825Y172383D01*
X282175D01*
X282709Y171973D01*
X283332Y171715D01*
X284000Y171627D01*
X284668Y171715D01*
X285291Y171973D01*
X285825Y172383D01*
X286175D01*
X286709Y171973D01*
X287332Y171715D01*
X288000Y171627D01*
X288668Y171715D01*
X289291Y171973D01*
X289825Y172383D01*
X290175D01*
X290709Y171973D01*
X291332Y171715D01*
X292000Y171627D01*
X292668Y171715D01*
X293291Y171973D01*
X293825Y172383D01*
X294175D01*
X294709Y171973D01*
X295332Y171715D01*
X296000Y171627D01*
X296668Y171715D01*
X297291Y171973D01*
X297825Y172383D01*
X298175D01*
X298709Y171973D01*
X299332Y171715D01*
X300000Y171627D01*
X300668Y171715D01*
X301291Y171973D01*
X301825Y172383D01*
X302175D01*
X302709Y171973D01*
X303332Y171715D01*
X304000Y171627D01*
X304668Y171715D01*
X305291Y171973D01*
X305825Y172383D01*
X306175D01*
X306709Y171973D01*
X307332Y171715D01*
X308000Y171627D01*
X308668Y171715D01*
X309291Y171973D01*
X309825Y172383D01*
X310235Y172918D01*
X310493Y173541D01*
X310581Y174209D01*
X310493Y174877D01*
X310235Y175499D01*
X309825Y176034D01*
X309291Y176444D01*
X308668Y176702D01*
X308000Y176790D01*
X307332Y176702D01*
X306709Y176444D01*
X306175Y176034D01*
X306137D01*
X305827Y176334D01*
X305825Y176883D01*
X306235Y177418D01*
X306493Y178041D01*
X306581Y178709D01*
X306493Y179377D01*
X306235Y179999D01*
X305825Y180534D01*
X305291Y180944D01*
X304668Y181202D01*
X304000Y181290D01*
D02*
G37*
G36*
X218000D02*
X217332Y181202D01*
X216709Y180944D01*
X216175Y180534D01*
X215825D01*
X215291Y180944D01*
X214668Y181202D01*
X214000Y181290D01*
X213332Y181202D01*
X212709Y180944D01*
X212175Y180534D01*
X211825D01*
X211291Y180944D01*
X210668Y181202D01*
X210000Y181290D01*
X209332Y181202D01*
X208709Y180944D01*
X208175Y180534D01*
X207825D01*
X207291Y180944D01*
X206668Y181202D01*
X206000Y181290D01*
X205332Y181202D01*
X204709Y180944D01*
X204175Y180534D01*
X203825D01*
X203291Y180944D01*
X202668Y181202D01*
X202000Y181290D01*
X201332Y181202D01*
X200709Y180944D01*
X200175Y180534D01*
X199825D01*
X199291Y180944D01*
X198668Y181202D01*
X198000Y181290D01*
X197332Y181202D01*
X196709Y180944D01*
X196175Y180534D01*
X195825D01*
X195291Y180944D01*
X194668Y181202D01*
X194000Y181290D01*
X193332Y181202D01*
X192709Y180944D01*
X192175Y180534D01*
X191825D01*
X191291Y180944D01*
X190668Y181202D01*
X190000Y181290D01*
X189332Y181202D01*
X188709Y180944D01*
X188175Y180534D01*
X187825D01*
X187291Y180944D01*
X186668Y181202D01*
X186000Y181290D01*
X185332Y181202D01*
X184709Y180944D01*
X184175Y180534D01*
X183765Y179999D01*
X183507Y179377D01*
X183419Y178709D01*
X183507Y178041D01*
X183765Y177418D01*
X184175Y176883D01*
X184318Y176774D01*
Y176144D01*
X184175Y176034D01*
X183765Y175499D01*
X183507Y174877D01*
X183419Y174209D01*
X183507Y173541D01*
X183765Y172918D01*
X184175Y172383D01*
X184709Y171973D01*
X185332Y171715D01*
X186000Y171627D01*
X186668Y171715D01*
X187291Y171973D01*
X187825Y172383D01*
X188175D01*
X188709Y171973D01*
X189332Y171715D01*
X190000Y171627D01*
X190668Y171715D01*
X191291Y171973D01*
X191825Y172383D01*
X192175D01*
X192709Y171973D01*
X193332Y171715D01*
X194000Y171627D01*
X194668Y171715D01*
X195291Y171973D01*
X195825Y172383D01*
X196175D01*
X196709Y171973D01*
X197332Y171715D01*
X198000Y171627D01*
X198668Y171715D01*
X199291Y171973D01*
X199825Y172383D01*
X200175D01*
X200709Y171973D01*
X201332Y171715D01*
X202000Y171627D01*
X202668Y171715D01*
X203291Y171973D01*
X203825Y172383D01*
X204175D01*
X204709Y171973D01*
X205332Y171715D01*
X206000Y171627D01*
X206668Y171715D01*
X207291Y171973D01*
X207825Y172383D01*
X208175D01*
X208709Y171973D01*
X209332Y171715D01*
X210000Y171627D01*
X210668Y171715D01*
X211291Y171973D01*
X211825Y172383D01*
X212175D01*
X212709Y171973D01*
X213332Y171715D01*
X214000Y171627D01*
X214668Y171715D01*
X215291Y171973D01*
X215825Y172383D01*
X216175D01*
X216709Y171973D01*
X217332Y171715D01*
X218000Y171627D01*
X218668Y171715D01*
X219291Y171973D01*
X219825Y172383D01*
X220175D01*
X220709Y171973D01*
X221332Y171715D01*
X222000Y171627D01*
X222668Y171715D01*
X223291Y171973D01*
X223825Y172383D01*
X224235Y172918D01*
X224493Y173541D01*
X224581Y174209D01*
X224493Y174877D01*
X224235Y175499D01*
X223825Y176034D01*
X223291Y176444D01*
X222668Y176702D01*
X222000Y176790D01*
X221332Y176702D01*
X220709Y176444D01*
X220175Y176034D01*
X220137D01*
X219827Y176334D01*
X219825Y176883D01*
X220235Y177418D01*
X220493Y178041D01*
X220581Y178709D01*
X220493Y179377D01*
X220235Y179999D01*
X219825Y180534D01*
X219291Y180944D01*
X218668Y181202D01*
X218000Y181290D01*
D02*
G37*
G36*
X132000D02*
X131332Y181202D01*
X130709Y180944D01*
X130175Y180534D01*
X129825D01*
X129291Y180944D01*
X128668Y181202D01*
X128000Y181290D01*
X127332Y181202D01*
X126709Y180944D01*
X126175Y180534D01*
X125825D01*
X125291Y180944D01*
X124668Y181202D01*
X124000Y181290D01*
X123332Y181202D01*
X122709Y180944D01*
X122175Y180534D01*
X121825D01*
X121291Y180944D01*
X120668Y181202D01*
X120000Y181290D01*
X119332Y181202D01*
X118709Y180944D01*
X118175Y180534D01*
X117825D01*
X117291Y180944D01*
X116668Y181202D01*
X116000Y181290D01*
X115332Y181202D01*
X114709Y180944D01*
X114175Y180534D01*
X113825D01*
X113291Y180944D01*
X112668Y181202D01*
X112000Y181290D01*
X111332Y181202D01*
X110709Y180944D01*
X110175Y180534D01*
X109825D01*
X109291Y180944D01*
X108668Y181202D01*
X108000Y181290D01*
X107332Y181202D01*
X106709Y180944D01*
X106175Y180534D01*
X105825D01*
X105291Y180944D01*
X104668Y181202D01*
X104000Y181290D01*
X103332Y181202D01*
X102709Y180944D01*
X102175Y180534D01*
X101825D01*
X101291Y180944D01*
X100668Y181202D01*
X100000Y181290D01*
X99332Y181202D01*
X98709Y180944D01*
X98175Y180534D01*
X97765Y179999D01*
X97507Y179377D01*
X97419Y178709D01*
X97507Y178041D01*
X97765Y177418D01*
X98175Y176883D01*
X98318Y176774D01*
Y176144D01*
X98175Y176034D01*
X97765Y175499D01*
X97507Y174877D01*
X97419Y174209D01*
X97507Y173541D01*
X97765Y172918D01*
X98175Y172383D01*
X98709Y171973D01*
X99332Y171715D01*
X100000Y171627D01*
X100668Y171715D01*
X101291Y171973D01*
X101825Y172383D01*
X102175D01*
X102709Y171973D01*
X103332Y171715D01*
X104000Y171627D01*
X104668Y171715D01*
X105291Y171973D01*
X105825Y172383D01*
X106175D01*
X106709Y171973D01*
X107332Y171715D01*
X108000Y171627D01*
X108668Y171715D01*
X109291Y171973D01*
X109825Y172383D01*
X110175D01*
X110709Y171973D01*
X111332Y171715D01*
X112000Y171627D01*
X112668Y171715D01*
X113291Y171973D01*
X113825Y172383D01*
X114175D01*
X114709Y171973D01*
X115332Y171715D01*
X116000Y171627D01*
X116668Y171715D01*
X117291Y171973D01*
X117825Y172383D01*
X118175D01*
X118709Y171973D01*
X119332Y171715D01*
X120000Y171627D01*
X120668Y171715D01*
X121291Y171973D01*
X121825Y172383D01*
X122175D01*
X122709Y171973D01*
X123332Y171715D01*
X124000Y171627D01*
X124668Y171715D01*
X125291Y171973D01*
X125825Y172383D01*
X126175D01*
X126709Y171973D01*
X127332Y171715D01*
X128000Y171627D01*
X128668Y171715D01*
X129291Y171973D01*
X129825Y172383D01*
X130175D01*
X130709Y171973D01*
X131332Y171715D01*
X132000Y171627D01*
X132668Y171715D01*
X133291Y171973D01*
X133825Y172383D01*
X134175D01*
X134709Y171973D01*
X135332Y171715D01*
X136000Y171627D01*
X136668Y171715D01*
X137291Y171973D01*
X137825Y172383D01*
X138235Y172918D01*
X138493Y173541D01*
X138581Y174209D01*
X138493Y174877D01*
X138235Y175499D01*
X137825Y176034D01*
X137291Y176444D01*
X136668Y176702D01*
X136000Y176790D01*
X135332Y176702D01*
X134709Y176444D01*
X134175Y176034D01*
X134137D01*
X133827Y176334D01*
X133825Y176883D01*
X134235Y177418D01*
X134493Y178041D01*
X134581Y178709D01*
X134493Y179377D01*
X134235Y179999D01*
X133825Y180534D01*
X133291Y180944D01*
X132668Y181202D01*
X132000Y181290D01*
D02*
G37*
G36*
X94000Y137306D02*
X93309Y137169D01*
X92723Y136777D01*
X92331Y136191D01*
X92194Y135500D01*
X92331Y134809D01*
X92723Y134223D01*
X93309Y133831D01*
X94000Y133694D01*
X94691Y133831D01*
X95277Y134223D01*
X95669Y134809D01*
X95806Y135500D01*
X95669Y136191D01*
X95277Y136777D01*
X94691Y137169D01*
X94000Y137306D01*
D02*
G37*
G36*
X265500Y136806D02*
X264809Y136669D01*
X264223Y136277D01*
X263831Y135691D01*
X263694Y135000D01*
X263831Y134309D01*
X264223Y133723D01*
X264809Y133331D01*
X265500Y133194D01*
X266191Y133331D01*
X266777Y133723D01*
X267169Y134309D01*
X267306Y135000D01*
X267169Y135691D01*
X266777Y136277D01*
X266191Y136669D01*
X265500Y136806D01*
D02*
G37*
G36*
X180756Y136562D02*
X180065Y136425D01*
X179479Y136033D01*
X179087Y135447D01*
X178949Y134756D01*
X179087Y134065D01*
X179479Y133479D01*
X180065Y133087D01*
X180756Y132949D01*
X181447Y133087D01*
X182033Y133479D01*
X182425Y134065D01*
X182562Y134756D01*
X182425Y135447D01*
X182033Y136033D01*
X181447Y136425D01*
X180756Y136562D01*
D02*
G37*
G36*
X99000Y139306D02*
X98309Y139169D01*
X97723Y138777D01*
X97331Y138191D01*
X97194Y137500D01*
X97331Y136809D01*
X97723Y136223D01*
X98309Y135831D01*
X99000Y135694D01*
X99691Y135831D01*
X100277Y136223D01*
X100669Y136809D01*
X100806Y137500D01*
X100669Y138191D01*
X100277Y138777D01*
X99691Y139169D01*
X99000Y139306D01*
D02*
G37*
G36*
X136000Y159081D02*
X135332Y158993D01*
X134709Y158735D01*
X134175Y158325D01*
X133825D01*
X133291Y158735D01*
X132668Y158993D01*
X132000Y159081D01*
X131332Y158993D01*
X130709Y158735D01*
X130175Y158325D01*
X129825D01*
X129291Y158735D01*
X128668Y158993D01*
X128000Y159081D01*
X127332Y158993D01*
X126709Y158735D01*
X126175Y158325D01*
X125825D01*
X125291Y158735D01*
X124668Y158993D01*
X124000Y159081D01*
X123332Y158993D01*
X122709Y158735D01*
X122175Y158325D01*
X121825D01*
X121291Y158735D01*
X120668Y158993D01*
X120000Y159081D01*
X119332Y158993D01*
X118709Y158735D01*
X118175Y158325D01*
X117825D01*
X117291Y158735D01*
X116668Y158993D01*
X116000Y159081D01*
X115332Y158993D01*
X114709Y158735D01*
X114175Y158325D01*
X113825D01*
X113291Y158735D01*
X112668Y158993D01*
X112000Y159081D01*
X111332Y158993D01*
X110709Y158735D01*
X110175Y158325D01*
X109825D01*
X109291Y158735D01*
X108668Y158993D01*
X108000Y159081D01*
X107332Y158993D01*
X106709Y158735D01*
X106175Y158325D01*
X105825D01*
X105291Y158735D01*
X104668Y158993D01*
X104000Y159081D01*
X103332Y158993D01*
X102709Y158735D01*
X102175Y158325D01*
X101825D01*
X101291Y158735D01*
X100668Y158993D01*
X100000Y159081D01*
X99332Y158993D01*
X98709Y158735D01*
X98175Y158325D01*
X97765Y157791D01*
X97507Y157168D01*
X97419Y156500D01*
X97507Y155832D01*
X97765Y155209D01*
X98175Y154675D01*
X98318Y154565D01*
Y153935D01*
X98175Y153825D01*
X97765Y153291D01*
X97507Y152668D01*
X97419Y152000D01*
X97507Y151332D01*
X97765Y150709D01*
X98175Y150175D01*
X98709Y149765D01*
X99332Y149507D01*
X100000Y149419D01*
X100668Y149507D01*
X101291Y149765D01*
X101825Y150175D01*
X102175D01*
X102709Y149765D01*
X103332Y149507D01*
X104000Y149419D01*
X104668Y149507D01*
X105291Y149765D01*
X105825Y150175D01*
X106175D01*
X106709Y149765D01*
X107332Y149507D01*
X108000Y149419D01*
X108668Y149507D01*
X109291Y149765D01*
X109825Y150175D01*
X110175D01*
X110709Y149765D01*
X111332Y149507D01*
X112000Y149419D01*
X112668Y149507D01*
X113291Y149765D01*
X113825Y150175D01*
X114175D01*
X114709Y149765D01*
X115332Y149507D01*
X116000Y149419D01*
X116668Y149507D01*
X117291Y149765D01*
X117825Y150175D01*
X118175D01*
X118709Y149765D01*
X119332Y149507D01*
X120000Y149419D01*
X120668Y149507D01*
X121291Y149765D01*
X121825Y150175D01*
X122175D01*
X122709Y149765D01*
X123332Y149507D01*
X124000Y149419D01*
X124668Y149507D01*
X125291Y149765D01*
X125825Y150175D01*
X126175D01*
X126709Y149765D01*
X127332Y149507D01*
X128000Y149419D01*
X128668Y149507D01*
X129291Y149765D01*
X129825Y150175D01*
X130175D01*
X130709Y149765D01*
X131332Y149507D01*
X132000Y149419D01*
X132668Y149507D01*
X133291Y149765D01*
X133825Y150175D01*
X134175D01*
X134709Y149765D01*
X135332Y149507D01*
X136000Y149419D01*
X136668Y149507D01*
X137291Y149765D01*
X137825Y150175D01*
X138235Y150709D01*
X138493Y151332D01*
X138581Y152000D01*
X138493Y152668D01*
X138235Y153291D01*
X137825Y153825D01*
X137682Y153935D01*
Y154565D01*
X137825Y154675D01*
X138235Y155209D01*
X138493Y155832D01*
X138581Y156500D01*
X138493Y157168D01*
X138235Y157791D01*
X137825Y158325D01*
X137291Y158735D01*
X136668Y158993D01*
X136000Y159081D01*
D02*
G37*
G36*
X271000Y139806D02*
X270309Y139669D01*
X269723Y139277D01*
X269331Y138691D01*
X269194Y138000D01*
X269331Y137309D01*
X269723Y136723D01*
X270309Y136331D01*
X271000Y136194D01*
X271691Y136331D01*
X272277Y136723D01*
X272669Y137309D01*
X272806Y138000D01*
X272669Y138691D01*
X272277Y139277D01*
X271691Y139669D01*
X271000Y139806D01*
D02*
G37*
G36*
X184500D02*
X183809Y139669D01*
X183223Y139277D01*
X182831Y138691D01*
X182694Y138000D01*
X182831Y137309D01*
X183223Y136723D01*
X183809Y136331D01*
X184500Y136194D01*
X185191Y136331D01*
X185777Y136723D01*
X186169Y137309D01*
X186306Y138000D01*
X186169Y138691D01*
X185777Y139277D01*
X185191Y139669D01*
X184500Y139806D01*
D02*
G37*
G36*
X101000Y82806D02*
X100309Y82669D01*
X99750Y82296D01*
X99191Y82669D01*
X98500Y82806D01*
X97809Y82669D01*
X97250Y82296D01*
X96691Y82669D01*
X96000Y82806D01*
X95309Y82669D01*
X94750Y82296D01*
X94191Y82669D01*
X93500Y82806D01*
X92809Y82669D01*
X92250Y82296D01*
X91691Y82669D01*
X91000Y82806D01*
X90309Y82669D01*
X89750Y82296D01*
X89191Y82669D01*
X88500Y82806D01*
X87809Y82669D01*
X87223Y82277D01*
X86831Y81691D01*
X86694Y81000D01*
X86831Y80309D01*
X87223Y79723D01*
X87809Y79331D01*
X88500Y79194D01*
X89191Y79331D01*
X89750Y79704D01*
X90309Y79331D01*
X91000Y79194D01*
X91691Y79331D01*
X92250Y79704D01*
X92809Y79331D01*
X93500Y79194D01*
X94191Y79331D01*
X94750Y79704D01*
X95309Y79331D01*
X96000Y79194D01*
X96691Y79331D01*
X97250Y79704D01*
X97809Y79331D01*
X98500Y79194D01*
X99191Y79331D01*
X99750Y79704D01*
X100309Y79331D01*
X101000Y79194D01*
X101691Y79331D01*
X102277Y79723D01*
X102669Y80309D01*
X102806Y81000D01*
X102669Y81691D01*
X102277Y82277D01*
X101691Y82669D01*
X101000Y82806D01*
D02*
G37*
G36*
X338583Y102991D02*
X336637Y102838D01*
X334738Y102382D01*
X332935Y101635D01*
X331271Y100615D01*
X329786Y99348D01*
X328519Y97863D01*
X327499Y96199D01*
X326752Y94395D01*
X326296Y92497D01*
X326143Y90551D01*
X326296Y88605D01*
X326752Y86707D01*
X327499Y84904D01*
X328519Y83239D01*
X329786Y81755D01*
X331271Y80487D01*
X332935Y79467D01*
X334738Y78720D01*
X336637Y78264D01*
X338583Y78111D01*
X340529Y78264D01*
X342427Y78720D01*
X344230Y79467D01*
X345895Y80487D01*
X347379Y81755D01*
X348647Y83239D01*
X349667Y84904D01*
X350414Y86707D01*
X350869Y88605D01*
X351023Y90551D01*
X350869Y92497D01*
X350414Y94395D01*
X349667Y96199D01*
X348647Y97863D01*
X347379Y99348D01*
X345895Y100615D01*
X344230Y101635D01*
X342427Y102382D01*
X340529Y102838D01*
X338583Y102991D01*
D02*
G37*
G36*
X27559D02*
X25613Y102838D01*
X23715Y102382D01*
X21911Y101635D01*
X20247Y100615D01*
X18763Y99348D01*
X17495Y97863D01*
X16475Y96199D01*
X15728Y94395D01*
X15272Y92497D01*
X15119Y90551D01*
X15272Y88605D01*
X15728Y86707D01*
X16475Y84904D01*
X17495Y83239D01*
X18763Y81755D01*
X20247Y80487D01*
X21911Y79467D01*
X23715Y78720D01*
X25613Y78264D01*
X27559Y78111D01*
X29505Y78264D01*
X31403Y78720D01*
X33207Y79467D01*
X34871Y80487D01*
X36355Y81755D01*
X37623Y83239D01*
X38643Y84904D01*
X39390Y86707D01*
X39846Y88605D01*
X39999Y90551D01*
X39846Y92497D01*
X39390Y94395D01*
X38643Y96199D01*
X37623Y97863D01*
X36355Y99348D01*
X34871Y100615D01*
X33207Y101635D01*
X31403Y102382D01*
X29505Y102838D01*
X27559Y102991D01*
D02*
G37*
G36*
X174803Y83696D02*
X174111Y83558D01*
X173526Y83167D01*
X173134Y82581D01*
X172996Y81890D01*
X173134Y81198D01*
X173526Y80612D01*
X174111Y80221D01*
X174803Y80083D01*
X175494Y80221D01*
X176080Y80612D01*
X176472Y81198D01*
X176609Y81890D01*
X176472Y82581D01*
X176080Y83167D01*
X175494Y83558D01*
X174803Y83696D01*
D02*
G37*
G36*
X173622Y78578D02*
X172931Y78440D01*
X172345Y78049D01*
X171953Y77463D01*
X171816Y76772D01*
X171953Y76080D01*
X172345Y75494D01*
X172931Y75103D01*
X173622Y74965D01*
X174313Y75103D01*
X174899Y75494D01*
X175291Y76080D01*
X175428Y76772D01*
X175291Y77463D01*
X174899Y78049D01*
X174313Y78440D01*
X173622Y78578D01*
D02*
G37*
G36*
X130709Y83302D02*
X130017Y83165D01*
X129431Y82773D01*
X129040Y82187D01*
X128902Y81496D01*
X129040Y80805D01*
X129431Y80219D01*
X130017Y79827D01*
X130709Y79690D01*
X130872Y79722D01*
X131297Y79297D01*
X131264Y79134D01*
X131402Y78443D01*
X131794Y77857D01*
X132380Y77465D01*
X133071Y77328D01*
X133762Y77465D01*
X134348Y77857D01*
X134740Y78443D01*
X134877Y79134D01*
X134740Y79825D01*
X134348Y80411D01*
X133762Y80803D01*
X133071Y80940D01*
X132908Y80908D01*
X132483Y81333D01*
X132515Y81496D01*
X132378Y82187D01*
X131986Y82773D01*
X131400Y83165D01*
X130709Y83302D01*
D02*
G37*
G36*
X177559Y80546D02*
X176868Y80409D01*
X176282Y80017D01*
X175890Y79431D01*
X175753Y78740D01*
X175890Y78049D01*
X176282Y77463D01*
X176868Y77071D01*
X177559Y76934D01*
X178250Y77071D01*
X178836Y77463D01*
X179228Y78049D01*
X179365Y78740D01*
X179228Y79431D01*
X178836Y80017D01*
X178250Y80409D01*
X177559Y80546D01*
D02*
G37*
G36*
X219685Y79365D02*
X218994Y79228D01*
X218408Y78836D01*
X218016Y78250D01*
X217879Y77559D01*
X218016Y76868D01*
X218408Y76282D01*
X218994Y75890D01*
X219685Y75753D01*
X220376Y75890D01*
X220962Y76282D01*
X221354Y76868D01*
X221491Y77559D01*
X221354Y78250D01*
X220962Y78836D01*
X220376Y79228D01*
X219685Y79365D01*
D02*
G37*
G36*
X187453Y39592D02*
X181547D01*
X181095Y39405D01*
X180908Y38953D01*
Y33047D01*
X181095Y32595D01*
X181547Y32408D01*
X187453D01*
X187905Y32595D01*
X188092Y33047D01*
Y38953D01*
X187905Y39405D01*
X187453Y39592D01*
D02*
G37*
G36*
X283000Y35806D02*
X282309Y35669D01*
X281723Y35277D01*
X281331Y34691D01*
X281194Y34000D01*
X281331Y33309D01*
X281723Y32723D01*
X282309Y32331D01*
X283000Y32194D01*
X283691Y32331D01*
X284277Y32723D01*
X284669Y33309D01*
X284806Y34000D01*
X284669Y34691D01*
X284277Y35277D01*
X283691Y35669D01*
X283000Y35806D01*
D02*
G37*
G36*
X246000Y39306D02*
X245309Y39169D01*
X244723Y38777D01*
X244331Y38191D01*
X244194Y37500D01*
X244331Y36809D01*
X244723Y36223D01*
X245309Y35831D01*
X246000Y35694D01*
X246350Y35763D01*
X246926Y35432D01*
X246960Y35261D01*
X247042Y35139D01*
X246885Y34762D01*
X246771Y34644D01*
X246223Y34277D01*
X245831Y33691D01*
X245694Y33000D01*
X245831Y32309D01*
X246223Y31723D01*
X246809Y31331D01*
X247500Y31194D01*
X248191Y31331D01*
X248777Y31723D01*
X249169Y32309D01*
X249306Y33000D01*
X249169Y33691D01*
X249087Y33814D01*
X249243Y34190D01*
X249357Y34309D01*
X249906Y34675D01*
X250297Y35261D01*
X250435Y35953D01*
X250297Y36644D01*
X249906Y37230D01*
X249320Y37622D01*
X248628Y37759D01*
X248278Y37690D01*
X247703Y38021D01*
X247669Y38191D01*
X247277Y38777D01*
X246691Y39169D01*
X246000Y39306D01*
D02*
G37*
G36*
X223300Y37206D02*
X222609Y37069D01*
X222023Y36677D01*
X221631Y36091D01*
X221494Y35400D01*
X221631Y34709D01*
X222023Y34123D01*
X222609Y33731D01*
X223300Y33594D01*
X223991Y33731D01*
X224577Y34123D01*
X224969Y34709D01*
X225106Y35400D01*
X224969Y36091D01*
X224577Y36677D01*
X223991Y37069D01*
X223300Y37206D01*
D02*
G37*
G36*
X151500Y44306D02*
X150809Y44169D01*
X150223Y43777D01*
X149831Y43191D01*
X149694Y42500D01*
X149831Y41809D01*
X150223Y41223D01*
X150809Y40831D01*
X151242Y40745D01*
Y40235D01*
X150909Y40169D01*
X150323Y39777D01*
X149931Y39191D01*
X149794Y38500D01*
X149931Y37809D01*
X150323Y37223D01*
X150909Y36831D01*
X151600Y36694D01*
X152291Y36831D01*
X152877Y37223D01*
X153269Y37809D01*
X153406Y38500D01*
X153269Y39191D01*
X152877Y39777D01*
X152291Y40169D01*
X151858Y40255D01*
Y40765D01*
X152191Y40831D01*
X152777Y41223D01*
X153169Y41809D01*
X153306Y42500D01*
X153169Y43191D01*
X152777Y43777D01*
X152191Y44169D01*
X151500Y44306D01*
D02*
G37*
G36*
X107500Y39806D02*
X106809Y39669D01*
X106223Y39277D01*
X105831Y38691D01*
X105694Y38000D01*
X105831Y37309D01*
X106223Y36723D01*
X106809Y36331D01*
X107500Y36194D01*
X108191Y36331D01*
X108777Y36723D01*
X109169Y37309D01*
X109306Y38000D01*
X109169Y38691D01*
X108777Y39277D01*
X108191Y39669D01*
X107500Y39806D01*
D02*
G37*
G36*
X240500Y37806D02*
X239809Y37669D01*
X239223Y37277D01*
X238831Y36691D01*
X238694Y36000D01*
X238831Y35309D01*
X239223Y34723D01*
X239809Y34331D01*
X240500Y34194D01*
X241191Y34331D01*
X241777Y34723D01*
X242169Y35309D01*
X242306Y36000D01*
X242169Y36691D01*
X241777Y37277D01*
X241191Y37669D01*
X240500Y37806D01*
D02*
G37*
G36*
X185000Y29508D02*
Y26500D01*
X188008D01*
X187952Y26925D01*
X187595Y27787D01*
X187027Y28527D01*
X186287Y29095D01*
X185425Y29452D01*
X185000Y29508D01*
D02*
G37*
G36*
X184000D02*
X183575Y29452D01*
X182713Y29095D01*
X181973Y28527D01*
X181405Y27787D01*
X181048Y26925D01*
X180992Y26500D01*
X184000D01*
Y29508D01*
D02*
G37*
G36*
X231000Y28306D02*
X230309Y28169D01*
X229723Y27777D01*
X229331Y27191D01*
X229194Y26500D01*
X229303Y25951D01*
X228923Y25631D01*
X228898Y25620D01*
X228825Y25669D01*
X228134Y25806D01*
X227443Y25669D01*
X226857Y25277D01*
X226465Y24691D01*
X226327Y24000D01*
X226465Y23309D01*
X226857Y22723D01*
X227443Y22331D01*
X228134Y22194D01*
X228266Y22220D01*
X228733Y21803D01*
X228831Y21309D01*
X229223Y20723D01*
X229809Y20331D01*
X230500Y20194D01*
X231191Y20331D01*
X231777Y20723D01*
X232169Y21309D01*
X232306Y22000D01*
X232169Y22691D01*
X231777Y23277D01*
X231191Y23669D01*
X230500Y23806D01*
X230367Y23780D01*
X229992Y24115D01*
X229977Y24452D01*
X230093Y24584D01*
X230408Y24811D01*
X231000Y24694D01*
X231691Y24831D01*
X232277Y25223D01*
X232669Y25809D01*
X232806Y26500D01*
X232669Y27191D01*
X232277Y27777D01*
X231691Y28169D01*
X231000Y28306D01*
D02*
G37*
G36*
X265880Y32994D02*
X263320D01*
X262821Y32894D01*
X262398Y32612D01*
X262115Y32188D01*
X262016Y31689D01*
Y30311D01*
X262115Y29812D01*
X262398Y29388D01*
Y29212D01*
X262115Y28788D01*
X262016Y28289D01*
Y26911D01*
X262115Y26412D01*
X262398Y25989D01*
X262821Y25706D01*
X263320Y25606D01*
X265880D01*
X266379Y25706D01*
X266802Y25989D01*
X267085Y26412D01*
X267184Y26911D01*
Y28289D01*
X267085Y28788D01*
X266802Y29212D01*
Y29388D01*
X267085Y29812D01*
X267184Y30311D01*
Y31689D01*
X267085Y32188D01*
X266802Y32612D01*
X266379Y32894D01*
X265880Y32994D01*
D02*
G37*
G36*
X195000Y33806D02*
X194309Y33669D01*
X193723Y33277D01*
X193331Y32691D01*
X193194Y32000D01*
X193331Y31309D01*
X193723Y30723D01*
X194309Y30331D01*
X195000Y30194D01*
X195691Y30331D01*
X196277Y30723D01*
X196669Y31309D01*
X196806Y32000D01*
X196669Y32691D01*
X196277Y33277D01*
X195691Y33669D01*
X195000Y33806D01*
D02*
G37*
G36*
X206000Y28806D02*
X205309Y28669D01*
X204723Y28277D01*
X204331Y27691D01*
X204194Y27000D01*
X204331Y26309D01*
X204723Y25723D01*
X205309Y25331D01*
X206000Y25194D01*
X206691Y25331D01*
X207277Y25723D01*
X207669Y26309D01*
X207806Y27000D01*
X207669Y27691D01*
X207277Y28277D01*
X206691Y28669D01*
X206000Y28806D01*
D02*
G37*
G36*
X131500Y33806D02*
X130809Y33669D01*
X130223Y33277D01*
X129831Y32691D01*
X129694Y32000D01*
X129831Y31309D01*
X130223Y30723D01*
X130809Y30331D01*
X131500Y30194D01*
X132191Y30331D01*
X132777Y30723D01*
X133169Y31309D01*
X133306Y32000D01*
X133169Y32691D01*
X132777Y33277D01*
X132191Y33669D01*
X131500Y33806D01*
D02*
G37*
G36*
X245700Y54806D02*
X245009Y54669D01*
X244423Y54277D01*
X244031Y53691D01*
X243894Y53000D01*
X244031Y52309D01*
X244423Y51723D01*
Y51647D01*
X244212Y51262D01*
X243831Y50691D01*
X243694Y50000D01*
X243831Y49309D01*
X244223Y48723D01*
X244809Y48331D01*
X245500Y48194D01*
X246191Y48331D01*
X246777Y48723D01*
X247169Y49309D01*
X247306Y50000D01*
X247169Y50691D01*
X246777Y51277D01*
Y51353D01*
X246988Y51738D01*
X247369Y52309D01*
X247506Y53000D01*
X247369Y53691D01*
X246977Y54277D01*
X246391Y54669D01*
X245700Y54806D01*
D02*
G37*
G36*
X199300Y48906D02*
X198609Y48769D01*
X198023Y48377D01*
X197631Y47791D01*
X197494Y47100D01*
X197631Y46409D01*
X198023Y45823D01*
X198609Y45431D01*
X199300Y45294D01*
X199991Y45431D01*
X200577Y45823D01*
X200969Y46409D01*
X201106Y47100D01*
X200969Y47791D01*
X200577Y48377D01*
X199991Y48769D01*
X199300Y48906D01*
D02*
G37*
G36*
X116000Y47306D02*
X115309Y47169D01*
X114723Y46777D01*
X114331Y46191D01*
X114194Y45500D01*
X114331Y44809D01*
X114723Y44223D01*
X115309Y43831D01*
X116000Y43694D01*
X116691Y43831D01*
X117277Y44223D01*
X117669Y44809D01*
X117806Y45500D01*
X117669Y46191D01*
X117277Y46777D01*
X116691Y47169D01*
X116000Y47306D01*
D02*
G37*
G36*
X300500Y48324D02*
X300440Y48298D01*
X300375Y48311D01*
X299693Y48175D01*
X299587Y48105D01*
X299462Y48080D01*
X298883Y47693D01*
X298813Y47587D01*
X298707Y47517D01*
X298320Y46938D01*
X298295Y46813D01*
X298225Y46707D01*
X298089Y46025D01*
X298114Y45900D01*
X298089Y45775D01*
X298225Y45092D01*
X298295Y44987D01*
X298320Y44862D01*
X298707Y44283D01*
X298813Y44212D01*
X298883Y44107D01*
X299462Y43720D01*
X299587Y43695D01*
X299693Y43625D01*
X300375Y43489D01*
X300440Y43502D01*
X300500Y43477D01*
X300560Y43502D01*
X300625Y43489D01*
X301308Y43625D01*
X301413Y43695D01*
X301538Y43720D01*
X302117Y44107D01*
X302187Y44212D01*
X302293Y44283D01*
X302680Y44862D01*
X302705Y44987D01*
X302775Y45092D01*
X302911Y45775D01*
X302886Y45900D01*
X302911Y46025D01*
X302775Y46707D01*
X302705Y46813D01*
X302680Y46938D01*
X302293Y47517D01*
X302187Y47587D01*
X302117Y47693D01*
X301538Y48080D01*
X301413Y48105D01*
X301308Y48175D01*
X300625Y48311D01*
X300560Y48298D01*
X300500Y48324D01*
D02*
G37*
G36*
X267500Y55106D02*
X266809Y54969D01*
X266223Y54577D01*
X265831Y53991D01*
X265694Y53300D01*
X265831Y52609D01*
X266223Y52023D01*
X266809Y51631D01*
X267263Y51541D01*
X267542Y51276D01*
X267594Y51004D01*
X267494Y50500D01*
X267631Y49809D01*
X268023Y49223D01*
X268609Y48831D01*
X269300Y48694D01*
X269991Y48831D01*
X270577Y49223D01*
X270969Y49809D01*
X271106Y50500D01*
X270969Y51191D01*
X270577Y51777D01*
X269991Y52169D01*
X269537Y52259D01*
X269258Y52524D01*
X269206Y52796D01*
X269306Y53300D01*
X269169Y53991D01*
X268777Y54577D01*
X268191Y54969D01*
X267500Y55106D01*
D02*
G37*
G36*
X225500Y45906D02*
X224809Y45769D01*
X224223Y45377D01*
X223831Y44791D01*
X223694Y44100D01*
X223831Y43409D01*
X224223Y42823D01*
X224809Y42431D01*
X225500Y42294D01*
X226191Y42431D01*
X226777Y42823D01*
X227169Y43409D01*
X227306Y44100D01*
X227169Y44791D01*
X226777Y45377D01*
X226191Y45769D01*
X225500Y45906D01*
D02*
G37*
G36*
X139000Y41806D02*
X138309Y41669D01*
X137723Y41277D01*
X137331Y40691D01*
X137194Y40000D01*
X137331Y39309D01*
X137723Y38723D01*
X138309Y38331D01*
X139000Y38194D01*
X139691Y38331D01*
X140277Y38723D01*
X140669Y39309D01*
X140806Y40000D01*
X140669Y40691D01*
X140277Y41277D01*
X139691Y41669D01*
X139000Y41806D01*
D02*
G37*
G36*
X207800Y41006D02*
X207109Y40869D01*
X206523Y40477D01*
X206131Y39891D01*
X205994Y39200D01*
X206131Y38509D01*
X206523Y37923D01*
X207109Y37531D01*
X207800Y37394D01*
X208491Y37531D01*
X209077Y37923D01*
X209469Y38509D01*
X209606Y39200D01*
X209469Y39891D01*
X209077Y40477D01*
X208491Y40869D01*
X207800Y41006D01*
D02*
G37*
G36*
X160000Y40806D02*
X159309Y40669D01*
X158723Y40277D01*
X158331Y39691D01*
X158194Y39000D01*
X158331Y38309D01*
X158723Y37723D01*
X159309Y37331D01*
X160000Y37194D01*
X160691Y37331D01*
X161277Y37723D01*
X161669Y38309D01*
X161806Y39000D01*
X161669Y39691D01*
X161277Y40277D01*
X160691Y40669D01*
X160000Y40806D01*
D02*
G37*
G36*
X250000Y48306D02*
X249309Y48169D01*
X248723Y47777D01*
X248331Y47191D01*
X248194Y46500D01*
X248331Y45809D01*
X248511Y45540D01*
X248390Y44889D01*
X248223Y44777D01*
X247831Y44191D01*
X247694Y43500D01*
X247831Y42809D01*
X248223Y42223D01*
X248809Y41831D01*
X249500Y41694D01*
X249740Y41232D01*
X249694Y41000D01*
X249831Y40309D01*
X250223Y39723D01*
X250809Y39331D01*
X251500Y39194D01*
X252191Y39331D01*
X252777Y39723D01*
X253169Y40309D01*
X253306Y41000D01*
X253169Y41691D01*
X252777Y42277D01*
X252191Y42669D01*
X251500Y42806D01*
X251260Y43268D01*
X251306Y43500D01*
X251169Y44191D01*
X250989Y44460D01*
X251110Y45111D01*
X251277Y45223D01*
X251669Y45809D01*
X251806Y46500D01*
X251669Y47191D01*
X251277Y47777D01*
X250691Y48169D01*
X250000Y48306D01*
D02*
G37*
G36*
X268500Y45306D02*
X267809Y45169D01*
X267223Y44777D01*
X266831Y44191D01*
X266694Y43500D01*
X266831Y42809D01*
X267223Y42223D01*
X267809Y41831D01*
X268500Y41694D01*
X269191Y41831D01*
X269777Y42223D01*
X270169Y42809D01*
X270306Y43500D01*
X270169Y44191D01*
X269777Y44777D01*
X269191Y45169D01*
X268500Y45306D01*
D02*
G37*
G36*
X258000D02*
X257309Y45169D01*
X256723Y44777D01*
X256331Y44191D01*
X256194Y43500D01*
X256331Y42809D01*
X256723Y42223D01*
X257309Y41831D01*
X258000Y41694D01*
X258691Y41831D01*
X259277Y42223D01*
X259669Y42809D01*
X259806Y43500D01*
X259669Y44191D01*
X259277Y44777D01*
X258691Y45169D01*
X258000Y45306D01*
D02*
G37*
G36*
X290500Y46306D02*
X289809Y46169D01*
X289223Y45777D01*
X288831Y45191D01*
X288694Y44500D01*
X288831Y43809D01*
X289223Y43223D01*
X289809Y42831D01*
X290500Y42694D01*
X291191Y42831D01*
X291777Y43223D01*
X291902Y43409D01*
X291904Y43413D01*
X292331Y43191D01*
X292326Y43164D01*
X292194Y42500D01*
X292331Y41809D01*
X292723Y41223D01*
X293309Y40831D01*
X294000Y40694D01*
X294691Y40831D01*
X295277Y41223D01*
X295669Y41809D01*
X295806Y42500D01*
X295669Y43191D01*
X295277Y43777D01*
X294691Y44169D01*
X294000Y44306D01*
X293309Y44169D01*
X292723Y43777D01*
X292598Y43591D01*
X292596Y43587D01*
X292169Y43809D01*
X292174Y43836D01*
X292306Y44500D01*
X292169Y45191D01*
X291777Y45777D01*
X291191Y46169D01*
X290500Y46306D01*
D02*
G37*
G36*
X259400Y28006D02*
X258709Y27869D01*
X258123Y27477D01*
X257731Y26891D01*
X257594Y26200D01*
X257731Y25509D01*
X258123Y24923D01*
X258709Y24531D01*
X259400Y24394D01*
X260091Y24531D01*
X260677Y24923D01*
X261069Y25509D01*
X261206Y26200D01*
X261069Y26891D01*
X260677Y27477D01*
X260091Y27869D01*
X259400Y28006D01*
D02*
G37*
G36*
X264327Y15632D02*
X262908D01*
X261928Y15437D01*
X261098Y14882D01*
X260543Y14052D01*
X260349Y13073D01*
Y10768D01*
X264327D01*
Y15632D01*
D02*
G37*
G36*
X295093D02*
X293673D01*
Y10768D01*
X297652D01*
Y13073D01*
X297457Y14052D01*
X296902Y14882D01*
X296072Y15437D01*
X295093Y15632D01*
D02*
G37*
G36*
X292673D02*
X291254D01*
X290275Y15437D01*
X289444Y14882D01*
X288890Y14052D01*
X288695Y13073D01*
Y10768D01*
X292673D01*
Y15632D01*
D02*
G37*
G36*
X266746D02*
X265327D01*
Y10768D01*
X269305D01*
Y13073D01*
X269110Y14052D01*
X268555Y14882D01*
X267725Y15437D01*
X266746Y15632D01*
D02*
G37*
G36*
X130500Y20906D02*
X129809Y20769D01*
X129223Y20377D01*
X128831Y19791D01*
X128694Y19100D01*
X128831Y18409D01*
X129223Y17823D01*
X129809Y17431D01*
X130500Y17294D01*
X131191Y17431D01*
X131777Y17823D01*
X132169Y18409D01*
X132306Y19100D01*
X132169Y19791D01*
X131777Y20377D01*
X131191Y20769D01*
X130500Y20906D01*
D02*
G37*
G36*
X264000Y19806D02*
X263309Y19669D01*
X262723Y19277D01*
X262331Y18691D01*
X262194Y18000D01*
X262331Y17309D01*
X262723Y16723D01*
X263309Y16331D01*
X264000Y16194D01*
X264691Y16331D01*
X265277Y16723D01*
X265669Y17309D01*
X265806Y18000D01*
X265669Y18691D01*
X265277Y19277D01*
X264691Y19669D01*
X264000Y19806D01*
D02*
G37*
G36*
X169700Y17006D02*
X169009Y16869D01*
X168423Y16477D01*
X168031Y15891D01*
X167894Y15200D01*
X168031Y14509D01*
X168423Y13923D01*
X169009Y13531D01*
X169700Y13394D01*
X170391Y13531D01*
X170977Y13923D01*
X171369Y14509D01*
X171506Y15200D01*
X171369Y15891D01*
X170977Y16477D01*
X170391Y16869D01*
X169700Y17006D01*
D02*
G37*
G36*
X292673Y9768D02*
X288695D01*
Y7463D01*
X288890Y6483D01*
X289444Y5653D01*
X290275Y5098D01*
X291254Y4904D01*
X292673D01*
Y9768D01*
D02*
G37*
G36*
X269305Y9768D02*
X265327D01*
Y4904D01*
X266746D01*
X267725Y5098D01*
X268555Y5653D01*
X269110Y6483D01*
X269305Y7463D01*
Y9768D01*
D02*
G37*
G36*
X264327D02*
X260349D01*
Y7463D01*
X260543Y6483D01*
X261098Y5653D01*
X261928Y5098D01*
X262908Y4904D01*
X264327D01*
Y9768D01*
D02*
G37*
G36*
X297652Y9768D02*
X293673D01*
Y4904D01*
X295093D01*
X296072Y5098D01*
X296902Y5653D01*
X297457Y6483D01*
X297652Y7463D01*
Y9768D01*
D02*
G37*
G36*
X306100Y14306D02*
X305409Y14169D01*
X304823Y13777D01*
X304431Y13191D01*
X304294Y12500D01*
X304431Y11809D01*
X304823Y11223D01*
X305409Y10831D01*
X306100Y10694D01*
X306791Y10831D01*
X307377Y11223D01*
X307769Y11809D01*
X307906Y12500D01*
X307769Y13191D01*
X307377Y13777D01*
X306791Y14169D01*
X306100Y14306D01*
D02*
G37*
G36*
X255200Y10906D02*
X254509Y10769D01*
X253923Y10377D01*
X253531Y9791D01*
X253394Y9100D01*
X253531Y8409D01*
X253923Y7823D01*
X254509Y7431D01*
X255200Y7294D01*
X255891Y7431D01*
X256477Y7823D01*
X256869Y8409D01*
X257006Y9100D01*
X256869Y9791D01*
X256477Y10377D01*
X255891Y10769D01*
X255200Y10906D01*
D02*
G37*
G36*
X204000Y10806D02*
X203309Y10669D01*
X202723Y10277D01*
X202331Y9691D01*
X202194Y9000D01*
X202331Y8309D01*
X202723Y7723D01*
X203309Y7331D01*
X204000Y7194D01*
X204691Y7331D01*
X205277Y7723D01*
X205669Y8309D01*
X205806Y9000D01*
X205669Y9691D01*
X205277Y10277D01*
X204691Y10669D01*
X204000Y10806D01*
D02*
G37*
G36*
X240000Y18306D02*
X239309Y18169D01*
X238723Y17777D01*
X238711Y17760D01*
X238077Y17711D01*
X237691Y17969D01*
X237000Y18106D01*
X236309Y17969D01*
X235723Y17577D01*
X235331Y16991D01*
X235194Y16300D01*
X235331Y15609D01*
X235723Y15023D01*
X236309Y14631D01*
X237000Y14494D01*
X237691Y14631D01*
X238277Y15023D01*
X238289Y15040D01*
X238923Y15089D01*
X239309Y14831D01*
X240000Y14694D01*
X240691Y14831D01*
X241277Y15223D01*
X241669Y15809D01*
X241806Y16500D01*
X241669Y17191D01*
X241277Y17777D01*
X240691Y18169D01*
X240000Y18306D01*
D02*
G37*
G36*
X287949Y25854D02*
X287268D01*
X286577Y25716D01*
X285990Y25324D01*
X285599Y24738D01*
X285461Y24047D01*
Y22973D01*
X287949D01*
Y25854D01*
D02*
G37*
G36*
X188008Y25500D02*
X185000D01*
Y22492D01*
X185425Y22548D01*
X186287Y22905D01*
X187027Y23473D01*
X187595Y24213D01*
X187952Y25075D01*
X188008Y25500D01*
D02*
G37*
G36*
X184000D02*
X180992D01*
X181048Y25075D01*
X181405Y24213D01*
X181973Y23473D01*
X182713Y22905D01*
X183575Y22548D01*
X184000Y22492D01*
Y25500D01*
D02*
G37*
G36*
X269051Y25854D02*
X268370D01*
X267679Y25716D01*
X267093Y25324D01*
X266701Y24738D01*
X266564Y24047D01*
Y22973D01*
X269051D01*
Y25854D01*
D02*
G37*
G36*
X157400Y28006D02*
X156709Y27869D01*
X156123Y27477D01*
X155731Y26891D01*
X155594Y26200D01*
X155731Y25509D01*
X156123Y24923D01*
X156709Y24531D01*
X157400Y24394D01*
X158091Y24531D01*
X158677Y24923D01*
X159069Y25509D01*
X159206Y26200D01*
X159069Y26891D01*
X158677Y27477D01*
X158091Y27869D01*
X157400Y28006D01*
D02*
G37*
G36*
X289630Y25854D02*
X288949D01*
Y22973D01*
X291436D01*
Y24047D01*
X291299Y24738D01*
X290907Y25324D01*
X290321Y25716D01*
X289630Y25854D01*
D02*
G37*
G36*
X270732Y25854D02*
X270051D01*
Y22973D01*
X272539D01*
Y24047D01*
X272401Y24738D01*
X272010Y25324D01*
X271424Y25716D01*
X270732Y25854D01*
D02*
G37*
G36*
X287949Y21972D02*
X285461D01*
Y20898D01*
X285599Y20206D01*
X285990Y19620D01*
X286577Y19229D01*
X287268Y19091D01*
X287949D01*
Y21972D01*
D02*
G37*
G36*
X272539D02*
X270051D01*
Y19091D01*
X270732D01*
X271424Y19229D01*
X272010Y19620D01*
X272401Y20206D01*
X272539Y20898D01*
Y21972D01*
D02*
G37*
G36*
X269051D02*
X266564D01*
Y20898D01*
X266701Y20206D01*
X267093Y19620D01*
X267679Y19229D01*
X268370Y19091D01*
X269051D01*
Y21972D01*
D02*
G37*
G36*
X291436D02*
X288949D01*
Y19091D01*
X289630D01*
X290321Y19229D01*
X290907Y19620D01*
X291299Y20206D01*
X291436Y20898D01*
Y21972D01*
D02*
G37*
G36*
X246200Y25706D02*
X245509Y25569D01*
X244923Y25177D01*
X244531Y24591D01*
X244394Y23900D01*
X243925Y23693D01*
X243327Y23574D01*
X242741Y23183D01*
X242350Y22597D01*
X242212Y21905D01*
X242350Y21214D01*
X242741Y20628D01*
X243327Y20237D01*
X244019Y20099D01*
X244710Y20237D01*
X245296Y20628D01*
X245688Y21214D01*
X245825Y21905D01*
X246294Y22112D01*
X246515Y22156D01*
X246964Y22010D01*
X247036Y21789D01*
X247131Y21309D01*
X247523Y20723D01*
X248109Y20331D01*
X248800Y20194D01*
X249491Y20331D01*
X250077Y20723D01*
X250469Y21309D01*
X250606Y22000D01*
X250469Y22691D01*
X250077Y23277D01*
X249491Y23669D01*
X248800Y23806D01*
X248485Y23744D01*
X248037Y23890D01*
X247964Y24111D01*
X247869Y24591D01*
X247477Y25177D01*
X246891Y25569D01*
X246200Y25706D01*
D02*
G37*
G36*
X235000Y23806D02*
X234309Y23669D01*
X233723Y23277D01*
X233331Y22691D01*
X233194Y22000D01*
X233331Y21309D01*
X233723Y20723D01*
X234309Y20331D01*
X235000Y20194D01*
X235691Y20331D01*
X236277Y20723D01*
X236669Y21309D01*
X236806Y22000D01*
X236669Y22691D01*
X236277Y23277D01*
X235691Y23669D01*
X235000Y23806D01*
D02*
G37*
G36*
X179400Y52406D02*
X178709Y52269D01*
X178123Y51877D01*
X177731Y51291D01*
X177594Y50600D01*
X177731Y49909D01*
X178123Y49323D01*
X178709Y48931D01*
X179400Y48794D01*
X180091Y48931D01*
X180677Y49323D01*
X181069Y49909D01*
X181206Y50600D01*
X181069Y51291D01*
X180677Y51877D01*
X180091Y52269D01*
X179400Y52406D01*
D02*
G37*
G36*
X247331Y87998D02*
X246640Y87860D01*
X246054Y87469D01*
X245662Y86883D01*
X245525Y86191D01*
X245662Y85500D01*
X246054Y84914D01*
X246640Y84522D01*
X247331Y84385D01*
X248022Y84522D01*
X248608Y84914D01*
X249000Y85500D01*
X249137Y86191D01*
X249000Y86883D01*
X248608Y87469D01*
X248022Y87860D01*
X247331Y87998D01*
D02*
G37*
G36*
X264900Y86906D02*
X264209Y86769D01*
X263623Y86377D01*
X263231Y85791D01*
X263094Y85100D01*
X263231Y84409D01*
X263623Y83823D01*
X264209Y83431D01*
X264900Y83294D01*
X265591Y83431D01*
X266177Y83823D01*
X266569Y84409D01*
X266706Y85100D01*
X266569Y85791D01*
X266177Y86377D01*
X265591Y86769D01*
X264900Y86906D01*
D02*
G37*
G36*
X304700Y89906D02*
X304009Y89769D01*
X303423Y89377D01*
X303031Y88791D01*
X302894Y88100D01*
X303031Y87409D01*
X303423Y86823D01*
X304009Y86431D01*
X304700Y86294D01*
X305391Y86431D01*
X305977Y86823D01*
X306369Y87409D01*
X306506Y88100D01*
X306369Y88791D01*
X305977Y89377D01*
X305391Y89769D01*
X304700Y89906D01*
D02*
G37*
G36*
X300500Y56323D02*
X300440Y56298D01*
X300375Y56311D01*
X299693Y56175D01*
X299587Y56105D01*
X299462Y56080D01*
X298883Y55693D01*
X298813Y55588D01*
X298707Y55517D01*
X298320Y54938D01*
X298295Y54813D01*
X298225Y54707D01*
X298089Y54025D01*
X298114Y53900D01*
X298089Y53775D01*
X298225Y53092D01*
X298295Y52987D01*
X298320Y52862D01*
X298707Y52283D01*
X298813Y52213D01*
X298883Y52107D01*
X299462Y51720D01*
X299587Y51695D01*
X299693Y51625D01*
X300375Y51489D01*
X300440Y51502D01*
X300500Y51477D01*
X300560Y51502D01*
X300625Y51489D01*
X301308Y51625D01*
X301413Y51695D01*
X301538Y51720D01*
X302117Y52107D01*
X302187Y52213D01*
X302293Y52283D01*
X302680Y52862D01*
X302705Y52987D01*
X302775Y53092D01*
X302911Y53775D01*
X302886Y53900D01*
X302911Y54025D01*
X302775Y54707D01*
X302705Y54813D01*
X302680Y54938D01*
X302293Y55517D01*
X302187Y55588D01*
X302117Y55693D01*
X301538Y56080D01*
X301413Y56105D01*
X301308Y56175D01*
X300625Y56311D01*
X300560Y56298D01*
X300500Y56323D01*
D02*
G37*
G36*
X244200Y59406D02*
X243509Y59269D01*
X242923Y58877D01*
X242531Y58291D01*
X242394Y57600D01*
X242531Y56909D01*
X242923Y56323D01*
X243509Y55931D01*
X244200Y55794D01*
X244891Y55931D01*
X245320Y56217D01*
X245679Y56211D01*
X245917Y56081D01*
X246223Y55623D01*
X246809Y55231D01*
X247500Y55094D01*
X248084Y55210D01*
X248163Y55131D01*
X248300Y54440D01*
X248692Y53854D01*
X249278Y53462D01*
X249969Y53325D01*
X250660Y53462D01*
X251246Y53854D01*
X251638Y54440D01*
X251775Y55131D01*
X251638Y55822D01*
X251246Y56408D01*
X250660Y56800D01*
X249969Y56937D01*
X249385Y56821D01*
X249306Y56900D01*
X249169Y57591D01*
X248777Y58177D01*
X248191Y58569D01*
X247500Y58706D01*
X246809Y58569D01*
X246380Y58283D01*
X246021Y58289D01*
X245783Y58420D01*
X245477Y58877D01*
X244891Y59269D01*
X244200Y59406D01*
D02*
G37*
G36*
X223200Y56906D02*
X222509Y56769D01*
X221923Y56377D01*
X221531Y55791D01*
X221394Y55100D01*
X221531Y54409D01*
X221923Y53823D01*
X222509Y53431D01*
X223200Y53294D01*
X223891Y53431D01*
X224477Y53823D01*
X224869Y54409D01*
X225006Y55100D01*
X224869Y55791D01*
X224477Y56377D01*
X223891Y56769D01*
X223200Y56906D01*
D02*
G37*
G36*
X199709Y59947D02*
X199018Y59809D01*
X198432Y59417D01*
X198041Y58831D01*
X197903Y58140D01*
X198041Y57449D01*
X198432Y56863D01*
X199018Y56471D01*
X199709Y56334D01*
X200401Y56471D01*
X200987Y56863D01*
X201378Y57449D01*
X201516Y58140D01*
X201378Y58831D01*
X200987Y59417D01*
X200401Y59809D01*
X199709Y59947D01*
D02*
G37*
G36*
X249000Y67306D02*
X248309Y67169D01*
X247723Y66777D01*
X247331Y66191D01*
X247194Y65500D01*
X247331Y64809D01*
X247723Y64223D01*
X248309Y63831D01*
X249000Y63694D01*
X249691Y63831D01*
X250277Y64223D01*
X250669Y64809D01*
X250806Y65500D01*
X250669Y66191D01*
X250277Y66777D01*
X249691Y67169D01*
X249000Y67306D01*
D02*
G37*
G36*
X233966Y63806D02*
X233275Y63669D01*
X232689Y63277D01*
X232689Y63277D01*
X232277D01*
X231691Y63669D01*
X231000Y63806D01*
X230309Y63669D01*
X229723Y63277D01*
X229331Y62691D01*
X229194Y62000D01*
X229331Y61309D01*
X229723Y60723D01*
X230309Y60331D01*
X231000Y60194D01*
X231691Y60331D01*
X232277Y60723D01*
X232277Y60723D01*
X232689D01*
X233275Y60331D01*
X233966Y60194D01*
X234657Y60331D01*
X235243Y60723D01*
X235635Y61309D01*
X235772Y62000D01*
X235635Y62691D01*
X235243Y63277D01*
X234657Y63669D01*
X233966Y63806D01*
D02*
G37*
G36*
X294100Y58306D02*
X293409Y58169D01*
X292823Y57777D01*
X292431Y57191D01*
X292325Y56658D01*
X291820Y56513D01*
X291777Y56577D01*
X291191Y56969D01*
X290500Y57106D01*
X289809Y56969D01*
X289223Y56577D01*
X288831Y55991D01*
X288694Y55300D01*
X288831Y54609D01*
X289223Y54023D01*
X289809Y53631D01*
X290500Y53494D01*
X291191Y53631D01*
X291777Y54023D01*
X292169Y54609D01*
X292275Y55142D01*
X292780Y55287D01*
X292823Y55223D01*
X293409Y54831D01*
X294100Y54694D01*
X294791Y54831D01*
X295377Y55223D01*
X295769Y55809D01*
X295906Y56500D01*
X295769Y57191D01*
X295377Y57777D01*
X294791Y58169D01*
X294100Y58306D01*
D02*
G37*
G36*
X126000Y53806D02*
X125309Y53669D01*
X124723Y53277D01*
X124331Y52691D01*
X124194Y52000D01*
X124331Y51309D01*
X124723Y50723D01*
X125309Y50331D01*
X126000Y50194D01*
X126691Y50331D01*
X127277Y50723D01*
X127669Y51309D01*
X127806Y52000D01*
X127669Y52691D01*
X127277Y53277D01*
X126691Y53669D01*
X126000Y53806D01*
D02*
G37*
G36*
X253200Y53706D02*
X252509Y53569D01*
X251923Y53177D01*
X251531Y52591D01*
X251394Y51900D01*
X251531Y51209D01*
X251923Y50623D01*
X252509Y50231D01*
X253200Y50094D01*
X253891Y50231D01*
X254477Y50623D01*
X254869Y51209D01*
X255006Y51900D01*
X254869Y52591D01*
X254477Y53177D01*
X253891Y53569D01*
X253200Y53706D01*
D02*
G37*
G36*
X219740Y52850D02*
X219049Y52712D01*
X218463Y52321D01*
X218071Y51735D01*
X217934Y51043D01*
X218071Y50352D01*
X218463Y49766D01*
X219049Y49374D01*
X219740Y49237D01*
X220431Y49374D01*
X221018Y49766D01*
X221409Y50352D01*
X221547Y51043D01*
X221409Y51735D01*
X221018Y52321D01*
X220431Y52712D01*
X219740Y52850D01*
D02*
G37*
G36*
X210400Y56906D02*
X209709Y56769D01*
X209123Y56377D01*
X208731Y55791D01*
X208594Y55100D01*
X208731Y54409D01*
X209123Y53823D01*
X209709Y53431D01*
X210400Y53294D01*
X210547Y53323D01*
X211051Y52913D01*
X211131Y52509D01*
X211523Y51923D01*
X212109Y51531D01*
X212800Y51394D01*
X213491Y51531D01*
X214077Y51923D01*
X214469Y52509D01*
X214606Y53200D01*
X214469Y53891D01*
X214077Y54477D01*
X213491Y54869D01*
X212800Y55006D01*
X212653Y54977D01*
X212149Y55387D01*
X212069Y55791D01*
X211677Y56377D01*
X211091Y56769D01*
X210400Y56906D01*
D02*
G37*
G36*
X165000Y56806D02*
X164309Y56669D01*
X163723Y56277D01*
X163331Y55691D01*
X163194Y55000D01*
X163331Y54309D01*
X163723Y53723D01*
X164309Y53331D01*
X165000Y53194D01*
X165691Y53331D01*
X166277Y53723D01*
X166669Y54309D01*
X166806Y55000D01*
X166669Y55691D01*
X166277Y56277D01*
X165691Y56669D01*
X165000Y56806D01*
D02*
G37*
G36*
X280500Y52324D02*
X280439Y52298D01*
X280375Y52311D01*
X279693Y52175D01*
X279587Y52105D01*
X279462Y52080D01*
X278883Y51693D01*
X278813Y51587D01*
X278707Y51517D01*
X278320Y50938D01*
X278295Y50813D01*
X278225Y50708D01*
X278089Y50025D01*
X278114Y49900D01*
X278089Y49775D01*
X278225Y49093D01*
X278295Y48987D01*
X278320Y48862D01*
X278707Y48283D01*
X278813Y48213D01*
X278883Y48107D01*
X279462Y47720D01*
X279587Y47695D01*
X279693Y47625D01*
X280375Y47489D01*
X280439Y47502D01*
X280500Y47477D01*
X280560Y47502D01*
X280625Y47489D01*
X281308Y47625D01*
X281413Y47695D01*
X281538Y47720D01*
X282117Y48107D01*
X282187Y48213D01*
X282293Y48283D01*
X282680Y48862D01*
X282705Y48987D01*
X282775Y49093D01*
X282911Y49775D01*
X282886Y49900D01*
X282911Y50025D01*
X282775Y50708D01*
X282705Y50813D01*
X282680Y50938D01*
X282293Y51517D01*
X282187Y51587D01*
X282117Y51693D01*
X281538Y52080D01*
X281413Y52105D01*
X281308Y52175D01*
X280625Y52311D01*
X280560Y52298D01*
X280500Y52324D01*
D02*
G37*
G36*
X274931Y58398D02*
X274240Y58260D01*
X273654Y57869D01*
X273262Y57283D01*
X273125Y56591D01*
X273262Y55900D01*
X273654Y55314D01*
X274240Y54922D01*
X274931Y54785D01*
X274960Y54791D01*
X275227Y54334D01*
X274931Y53891D01*
X274794Y53200D01*
X274931Y52509D01*
X275323Y51923D01*
X275909Y51531D01*
X276600Y51394D01*
X277291Y51531D01*
X277877Y51923D01*
X278269Y52509D01*
X278406Y53200D01*
X278269Y53891D01*
X277877Y54477D01*
X277291Y54869D01*
X276600Y55006D01*
X276571Y55001D01*
X276304Y55457D01*
X276600Y55900D01*
X276737Y56591D01*
X276600Y57283D01*
X276208Y57869D01*
X275622Y58260D01*
X274931Y58398D01*
D02*
G37*
G36*
X230500Y68306D02*
X229809Y68169D01*
X229223Y67777D01*
X228831Y67191D01*
X228694Y66500D01*
X228831Y65809D01*
X229223Y65223D01*
X229809Y64831D01*
X230500Y64694D01*
X231191Y64831D01*
X231777Y65223D01*
X232169Y65809D01*
X232306Y66500D01*
X232169Y67191D01*
X231777Y67777D01*
X231191Y68169D01*
X230500Y68306D01*
D02*
G37*
G36*
X267500Y83306D02*
X266809Y83169D01*
X266223Y82777D01*
X265831Y82191D01*
X265694Y81500D01*
X265831Y80809D01*
X266223Y80223D01*
X266809Y79831D01*
X267500Y79694D01*
X268191Y79831D01*
X268777Y80223D01*
X269169Y80809D01*
X269306Y81500D01*
X269169Y82191D01*
X268777Y82777D01*
X268191Y83169D01*
X267500Y83306D01*
D02*
G37*
G36*
X289000D02*
X288309Y83169D01*
X287723Y82777D01*
X287331Y82191D01*
X287194Y81500D01*
X287331Y80809D01*
X287723Y80223D01*
X288309Y79831D01*
X289000Y79694D01*
X289691Y79831D01*
X290277Y80223D01*
X290669Y80809D01*
X290806Y81500D01*
X290669Y82191D01*
X290277Y82777D01*
X289691Y83169D01*
X289000Y83306D01*
D02*
G37*
G36*
X272500Y83806D02*
X271809Y83669D01*
X271223Y83277D01*
X270831Y82691D01*
X270694Y82000D01*
X270831Y81309D01*
X271223Y80723D01*
X271809Y80331D01*
X272500Y80194D01*
X273191Y80331D01*
X273777Y80723D01*
X274169Y81309D01*
X274306Y82000D01*
X274169Y82691D01*
X273777Y83277D01*
X273191Y83669D01*
X272500Y83806D01*
D02*
G37*
G36*
X256100Y86806D02*
X255409Y86669D01*
X254823Y86277D01*
X254431Y85691D01*
X254294Y85000D01*
X254431Y84309D01*
X254720Y83877D01*
X254723Y83277D01*
X254331Y82691D01*
X254194Y82000D01*
X254331Y81309D01*
X254723Y80723D01*
X255309Y80331D01*
X256000Y80194D01*
X256691Y80331D01*
X257277Y80723D01*
X257669Y81309D01*
X257806Y82000D01*
X257669Y82691D01*
X257380Y83123D01*
X257377Y83723D01*
X257769Y84309D01*
X257906Y85000D01*
X257769Y85691D01*
X257377Y86277D01*
X256791Y86669D01*
X256100Y86806D01*
D02*
G37*
G36*
X276556Y71106D02*
X275865Y70969D01*
X275279Y70577D01*
X274887Y69991D01*
X274749Y69300D01*
X274887Y68609D01*
X275279Y68023D01*
X275865Y67631D01*
X276556Y67494D01*
X277247Y67631D01*
X277833Y68023D01*
X278225Y68609D01*
X278362Y69300D01*
X278225Y69991D01*
X277833Y70577D01*
X277247Y70969D01*
X276556Y71106D01*
D02*
G37*
G36*
X290344Y70806D02*
X289653Y70669D01*
X289067Y70277D01*
X288675Y69691D01*
X288538Y69000D01*
X288675Y68309D01*
X289067Y67723D01*
X289653Y67331D01*
X290344Y67194D01*
X291035Y67331D01*
X291621Y67723D01*
X292013Y68309D01*
X292150Y69000D01*
X292013Y69691D01*
X291621Y70277D01*
X291035Y70669D01*
X290344Y70806D01*
D02*
G37*
G36*
X253500Y68806D02*
X252809Y68669D01*
X252223Y68277D01*
X251831Y67691D01*
X251694Y67000D01*
X251831Y66309D01*
X252223Y65723D01*
X252809Y65331D01*
X253500Y65194D01*
X254191Y65331D01*
X254777Y65723D01*
X255169Y66309D01*
X255306Y67000D01*
X255169Y67691D01*
X254777Y68277D01*
X254191Y68669D01*
X253500Y68806D01*
D02*
G37*
%LPD*%
D43*
X73500Y6000D02*
D03*
X77500D02*
D03*
X81500D02*
D03*
Y10500D02*
D03*
X77500D02*
D03*
X73500D02*
D03*
X65500Y6000D02*
D03*
Y10500D02*
D03*
X69500D02*
D03*
Y6000D02*
D03*
X60500Y20500D02*
D03*
Y16500D02*
D03*
Y12500D02*
D03*
Y24500D02*
D03*
X87000Y20500D02*
D03*
Y16500D02*
D03*
Y12500D02*
D03*
Y24500D02*
D03*
X109000Y108000D02*
D03*
X113000D02*
D03*
Y112000D02*
D03*
X109000D02*
D03*
X113000Y104000D02*
D03*
Y100000D02*
D03*
Y96000D02*
D03*
X109000D02*
D03*
Y100000D02*
D03*
Y104000D02*
D03*
X117000D02*
D03*
Y100000D02*
D03*
Y96000D02*
D03*
X121000D02*
D03*
Y100000D02*
D03*
Y104000D02*
D03*
Y108000D02*
D03*
Y112000D02*
D03*
X117000D02*
D03*
Y108000D02*
D03*
X203400D02*
D03*
Y112000D02*
D03*
X207400D02*
D03*
Y108000D02*
D03*
Y104000D02*
D03*
Y100000D02*
D03*
X203400Y96000D02*
D03*
Y100000D02*
D03*
Y104000D02*
D03*
X195400D02*
D03*
Y100000D02*
D03*
Y96000D02*
D03*
X199400D02*
D03*
Y100000D02*
D03*
Y104000D02*
D03*
X195400Y112000D02*
D03*
X199400D02*
D03*
Y108000D02*
D03*
X195400D02*
D03*
X290500D02*
D03*
Y112000D02*
D03*
X294500Y108000D02*
D03*
Y104000D02*
D03*
Y100000D02*
D03*
Y96000D02*
D03*
X290500D02*
D03*
Y100000D02*
D03*
Y104000D02*
D03*
X282500D02*
D03*
Y100000D02*
D03*
Y96000D02*
D03*
X286500D02*
D03*
Y100000D02*
D03*
Y104000D02*
D03*
X282500Y112000D02*
D03*
X286500D02*
D03*
Y108000D02*
D03*
X282500D02*
D03*
D51*
X348425Y127953D02*
D03*
Y53150D02*
D03*
X37402D02*
D03*
Y127953D02*
D03*
X347685Y175000D02*
D03*
X36685D02*
D03*
D53*
X338000Y13000D02*
D03*
D57*
X288449Y22472D02*
D03*
X269551Y22472D02*
D03*
D58*
X293173Y10268D02*
D03*
X264827D02*
D03*
D59*
X184500Y26000D02*
D03*
D62*
X202000Y22000D02*
D03*
X218500Y46900D02*
D03*
X135700Y23600D02*
D03*
X243000Y38500D02*
D03*
X270000Y84900D02*
D03*
X245000Y82000D02*
D03*
X242400Y46200D02*
D03*
X303400Y50700D02*
D03*
X282000Y46300D02*
D03*
X284200Y4000D02*
D03*
X270100D02*
D03*
X288000Y85000D02*
D03*
X281300Y81800D02*
D03*
X304400Y81300D02*
D03*
X299700Y61800D02*
D03*
X191400Y57800D02*
D03*
X199300Y40700D02*
D03*
X302200Y5300D02*
D03*
X299100Y14000D02*
D03*
X297700Y19900D02*
D03*
X298600Y25700D02*
D03*
X298200Y32100D02*
D03*
X293900Y35600D02*
D03*
X288800Y32700D02*
D03*
X271700Y15800D02*
D03*
X267200Y34400D02*
D03*
X254400Y37900D02*
D03*
X255100Y47900D02*
D03*
X237700Y47100D02*
D03*
X123000Y48500D02*
D03*
X124500Y55500D02*
D03*
X123500Y39500D02*
D03*
X97000Y36000D02*
D03*
Y40000D02*
D03*
X72000Y49000D02*
D03*
Y53000D02*
D03*
X82500Y74000D02*
D03*
X107087Y73228D02*
D03*
X301100Y67900D02*
D03*
X297200Y56900D02*
D03*
X149700Y58000D02*
D03*
X207000Y49000D02*
D03*
X191000Y50500D02*
D03*
X190500Y28500D02*
D03*
X275800Y48200D02*
D03*
X293900Y65500D02*
D03*
X280700Y75000D02*
D03*
X273700Y62000D02*
D03*
X272200Y67700D02*
D03*
X236800Y67800D02*
D03*
X252600Y72500D02*
D03*
X242500Y55100D02*
D03*
X256400Y65100D02*
D03*
X196850Y79528D02*
D03*
X221654Y79921D02*
D03*
X151969Y79528D02*
D03*
X107087Y76772D02*
D03*
X86614Y74000D02*
D03*
X97638Y73622D02*
D03*
X279600Y33500D02*
D03*
X170000Y55000D02*
D03*
M02*
