G04 Layer_Physical_Order=2*
G04 Layer_Color=3039647*
%FSLAX25Y25*%
%MOIN*%
G70*
G01*
G75*
%ADD43C,0.03937*%
%ADD44C,0.00591*%
%ADD46C,0.01181*%
%ADD47C,0.01968*%
%ADD51C,0.07874*%
%ADD54R,0.23622X0.23622*%
G04:AMPARAMS|DCode=61|XSize=39.37mil|YSize=27.56mil|CornerRadius=6.89mil|HoleSize=0mil|Usage=FLASHONLY|Rotation=0.000|XOffset=0mil|YOffset=0mil|HoleType=Round|Shape=RoundedRectangle|*
%AMROUNDEDRECTD61*
21,1,0.03937,0.01378,0,0,0.0*
21,1,0.02559,0.02756,0,0,0.0*
1,1,0.01378,0.01279,-0.00689*
1,1,0.01378,-0.01279,-0.00689*
1,1,0.01378,-0.01279,0.00689*
1,1,0.01378,0.01279,0.00689*
%
%ADD61ROUNDEDRECTD61*%
%ADD62C,0.02362*%
G36*
X129111Y111586D02*
Y93000D01*
X127704D01*
Y112286D01*
X128204Y112493D01*
X129111Y111586D01*
D02*
G37*
G36*
X263824Y136296D02*
X263756Y136204D01*
X235800D01*
X235800Y136204D01*
X235339Y136113D01*
X234948Y135852D01*
X234948Y135852D01*
X219649Y120552D01*
X219387Y120161D01*
X219296Y119700D01*
X219296Y119700D01*
Y93000D01*
X218566D01*
Y120963D01*
X234399Y136796D01*
X263572D01*
X263824Y136296D01*
D02*
G37*
G36*
X245652Y86959D02*
X245656Y86849D01*
X245525Y86191D01*
X245662Y85500D01*
X246054Y84914D01*
X246640Y84522D01*
X247331Y84385D01*
X248022Y84522D01*
X248608Y84914D01*
X249000Y85500D01*
X249137Y86191D01*
X249077Y86496D01*
X249480Y86996D01*
X254998D01*
X255150Y86496D01*
X254823Y86277D01*
X254431Y85691D01*
X254294Y85000D01*
X254431Y84309D01*
X254720Y83877D01*
X254723Y83277D01*
X254331Y82691D01*
X254194Y82000D01*
X254331Y81309D01*
X254723Y80723D01*
X255309Y80331D01*
X256000Y80194D01*
X256691Y80331D01*
X257277Y80723D01*
X257669Y81309D01*
X257806Y82000D01*
X257669Y82691D01*
X257380Y83123D01*
X257377Y83723D01*
X257769Y84309D01*
X257906Y85000D01*
X257769Y85691D01*
X257377Y86277D01*
X257050Y86496D01*
X257202Y86996D01*
X269087D01*
X269199Y86496D01*
X268723Y86177D01*
X268331Y85591D01*
X268194Y84900D01*
X268331Y84209D01*
X268723Y83623D01*
X269309Y83231D01*
X270000Y83094D01*
X270575Y83208D01*
X270852Y82911D01*
X270906Y82803D01*
X270831Y82691D01*
X270694Y82000D01*
X270831Y81309D01*
X271223Y80723D01*
X271809Y80331D01*
X272500Y80194D01*
X273191Y80331D01*
X273777Y80723D01*
X274169Y81309D01*
X274306Y82000D01*
X274169Y82691D01*
X273777Y83277D01*
X273191Y83669D01*
X272500Y83806D01*
X271925Y83692D01*
X271648Y83989D01*
X271594Y84097D01*
X271669Y84209D01*
X271806Y84900D01*
X271669Y85591D01*
X271277Y86177D01*
X270801Y86496D01*
X270913Y86996D01*
X286898D01*
X287050Y86496D01*
X286723Y86277D01*
X286331Y85691D01*
X286194Y85000D01*
X286331Y84309D01*
X286723Y83723D01*
X287309Y83331D01*
X287573Y83279D01*
X287723Y82777D01*
X287331Y82191D01*
X287194Y81500D01*
X287331Y80809D01*
X287723Y80223D01*
X288309Y79831D01*
X289000Y79694D01*
X289691Y79831D01*
X290277Y80223D01*
X290669Y80809D01*
X290806Y81500D01*
X290669Y82191D01*
X290277Y82777D01*
X289691Y83169D01*
X289427Y83221D01*
X289277Y83723D01*
X289669Y84309D01*
X289806Y85000D01*
X289669Y85691D01*
X289277Y86277D01*
X288950Y86496D01*
X289102Y86996D01*
X298060D01*
X300170Y84886D01*
X300170Y84886D01*
X300561Y84625D01*
X301022Y84534D01*
X301022Y84534D01*
X303060D01*
X304048Y83546D01*
X303883Y83004D01*
X303709Y82969D01*
X303123Y82577D01*
X302731Y81991D01*
X302594Y81300D01*
X302731Y80609D01*
X303123Y80023D01*
X303709Y79631D01*
X304400Y79494D01*
X305091Y79631D01*
X305296Y79768D01*
X305796Y79501D01*
Y14246D01*
X305409Y14169D01*
X304823Y13777D01*
X304431Y13191D01*
X304294Y12500D01*
X304431Y11809D01*
X304823Y11223D01*
X305409Y10831D01*
X306100Y10694D01*
X306791Y10831D01*
X307377Y11223D01*
X307500Y11406D01*
X308000Y11255D01*
Y-400D01*
X168000D01*
X168000Y28800D01*
X188885Y49685D01*
X189485Y49578D01*
X189723Y49223D01*
X190309Y48831D01*
X191000Y48694D01*
X191691Y48831D01*
X192277Y49223D01*
X192669Y49809D01*
X192806Y50500D01*
X192669Y51191D01*
X192277Y51777D01*
X191922Y52015D01*
X191815Y52615D01*
X211561Y72361D01*
X219196D01*
X219348Y71861D01*
X219223Y71777D01*
X218831Y71191D01*
X218694Y70500D01*
X218831Y69809D01*
X219223Y69223D01*
X219809Y68831D01*
X220500Y68694D01*
X221191Y68831D01*
X221670Y69151D01*
X222000Y69194D01*
X222330Y69151D01*
X222809Y68831D01*
X222986Y68796D01*
X223039Y68666D01*
X223149Y68254D01*
X223031Y67662D01*
X223169Y66971D01*
X223561Y66385D01*
X224147Y65993D01*
X224838Y65856D01*
X225529Y65993D01*
X226115Y66385D01*
X226507Y66971D01*
X226644Y67662D01*
X226507Y68353D01*
X226115Y68939D01*
X225529Y69331D01*
X225352Y69366D01*
X225299Y69496D01*
X225189Y69908D01*
X225306Y70500D01*
X225169Y71191D01*
X224777Y71777D01*
X224652Y71861D01*
X224804Y72361D01*
X241000D01*
X241452Y72548D01*
X243452Y74548D01*
X243639Y75000D01*
Y80177D01*
X244139Y80444D01*
X244309Y80331D01*
X245000Y80194D01*
X245691Y80331D01*
X246277Y80723D01*
X246669Y81309D01*
X246806Y82000D01*
X246669Y82691D01*
X246277Y83277D01*
X245691Y83669D01*
X245000Y83806D01*
X244309Y83669D01*
X244139Y83556D01*
X243639Y83823D01*
Y86500D01*
X243551Y86713D01*
X243502Y86849D01*
X243716Y87349D01*
X245444D01*
X245652Y86959D01*
D02*
G37*
G36*
X125296Y89000D02*
Y86258D01*
X125296Y86258D01*
X125387Y85797D01*
X125648Y85406D01*
X129011Y82044D01*
X128902Y81496D01*
X129040Y80805D01*
X129431Y80219D01*
X130017Y79827D01*
X130709Y79690D01*
X130872Y79722D01*
X131297Y79297D01*
X131264Y79134D01*
X131402Y78443D01*
X131794Y77857D01*
X132380Y77465D01*
X133071Y77328D01*
X133762Y77465D01*
X134348Y77857D01*
X134740Y78443D01*
X134877Y79134D01*
X134740Y79825D01*
X134669Y79931D01*
Y89000D01*
X136694D01*
X136831Y88309D01*
X137223Y87723D01*
X137809Y87331D01*
X138500Y87194D01*
X139191Y87331D01*
X139777Y87723D01*
X140169Y88309D01*
X140197Y88451D01*
X140757Y88702D01*
X141300Y88594D01*
X141991Y88731D01*
X142394Y89000D01*
X170056Y89000D01*
Y79134D01*
X170056Y79134D01*
X170147Y78673D01*
X170408Y78282D01*
X171833Y76858D01*
X171816Y76772D01*
X171953Y76080D01*
X172345Y75494D01*
X172931Y75103D01*
X173622Y74965D01*
X174313Y75103D01*
X174899Y75494D01*
X175291Y76080D01*
X175428Y76772D01*
X175291Y77463D01*
X174899Y78049D01*
X174313Y78440D01*
X173622Y78578D01*
X173536Y78561D01*
X172464Y79633D01*
Y89000D01*
X173599D01*
Y83216D01*
X173526Y83167D01*
X173134Y82581D01*
X172996Y81890D01*
X173134Y81198D01*
X173526Y80612D01*
X174111Y80221D01*
X174803Y80083D01*
X175494Y80221D01*
X175518Y80237D01*
X176067Y80002D01*
X176109Y79759D01*
X175890Y79431D01*
X175753Y78740D01*
X175890Y78049D01*
X176282Y77463D01*
X176868Y77071D01*
X177559Y76934D01*
X178250Y77071D01*
X178836Y77463D01*
X179228Y78049D01*
X179365Y78740D01*
X179228Y79431D01*
X178836Y80017D01*
X178763Y80066D01*
Y88524D01*
X179239Y89000D01*
X200836D01*
X201104Y88500D01*
X201031Y88391D01*
X200894Y87700D01*
X201031Y87009D01*
X201423Y86423D01*
X202009Y86031D01*
X202700Y85894D01*
X203391Y86031D01*
X203977Y86423D01*
X204165Y86704D01*
X204597Y86898D01*
X204788Y86804D01*
X205214Y86520D01*
X205905Y86382D01*
X206596Y86520D01*
X207182Y86911D01*
X207574Y87498D01*
X207712Y88189D01*
X207638Y88560D01*
X208077Y89000D01*
X216158D01*
Y86574D01*
X216158Y86574D01*
X216250Y86113D01*
X216511Y85723D01*
X217108Y85125D01*
X217091Y85039D01*
X217228Y84348D01*
X217620Y83762D01*
X218206Y83370D01*
X218897Y83233D01*
X219588Y83370D01*
X219938Y83003D01*
X219984Y82773D01*
X220376Y82187D01*
X220666Y81993D01*
Y81392D01*
X220376Y81199D01*
X219985Y80612D01*
X219847Y79921D01*
X219913Y79593D01*
X219685Y79365D01*
X218994Y79228D01*
X218408Y78836D01*
X218016Y78250D01*
X217879Y77559D01*
X218016Y76868D01*
X218408Y76282D01*
X218994Y75890D01*
X219685Y75753D01*
X220376Y75890D01*
X220962Y76282D01*
X221011Y76355D01*
X231102D01*
X231102Y76355D01*
X231563Y76446D01*
X231954Y76708D01*
X238981Y83735D01*
X239243Y84126D01*
X239334Y84587D01*
Y89000D01*
X240727D01*
X243000Y86500D01*
Y75000D01*
X241000Y73000D01*
X122000D01*
X119000Y76000D01*
X109249D01*
X108839Y76500D01*
X108893Y76772D01*
X108756Y77463D01*
X108364Y78049D01*
X107778Y78440D01*
X107087Y78578D01*
X106395Y78440D01*
X105809Y78049D01*
X105418Y77463D01*
X105280Y76772D01*
X105334Y76500D01*
X104924Y76000D01*
X88500D01*
X85500Y79000D01*
Y85895D01*
X88605Y89000D01*
X125296D01*
D02*
G37*
G36*
X236926Y85085D02*
X230604Y78763D01*
X223541D01*
X223332Y79154D01*
X223329Y79263D01*
X223460Y79921D01*
X223322Y80612D01*
X222931Y81199D01*
X222641Y81392D01*
Y81994D01*
X222930Y82187D01*
X223322Y82773D01*
X223460Y83464D01*
X223322Y84156D01*
X222930Y84742D01*
X222857Y84790D01*
Y85847D01*
X222857Y85847D01*
X222766Y86308D01*
X222505Y86698D01*
X221704Y87499D01*
Y89000D01*
X236926D01*
Y85085D01*
D02*
G37*
G36*
X364000Y181000D02*
Y25724D01*
X363591Y25450D01*
X312409D01*
X312000Y25724D01*
Y91000D01*
X310000Y93000D01*
X299137D01*
X298946Y93462D01*
X299639Y94154D01*
X299834Y94447D01*
X299903Y94793D01*
Y112000D01*
X299834Y112346D01*
X299639Y112639D01*
X296219Y116059D01*
X296306Y116500D01*
X296169Y117191D01*
X295777Y117777D01*
X295191Y118169D01*
X294500Y118306D01*
X293809Y118169D01*
X293223Y117777D01*
X292831Y117191D01*
X292811Y117090D01*
X292333Y116945D01*
X292139Y117139D01*
X291846Y117334D01*
X291500Y117403D01*
X291027D01*
X290777Y117777D01*
X290191Y118169D01*
X289500Y118306D01*
X288809Y118169D01*
X288223Y117777D01*
X287831Y117191D01*
X287694Y116500D01*
X287831Y115809D01*
X288223Y115223D01*
X288809Y114831D01*
X289169Y114760D01*
X289220Y114240D01*
X289209Y114235D01*
X288675Y113825D01*
X288325D01*
X287791Y114235D01*
X287168Y114493D01*
X286500Y114581D01*
X285832Y114493D01*
X285209Y114235D01*
X284675Y113825D01*
X284325D01*
X283791Y114235D01*
X283168Y114493D01*
X282500Y114581D01*
X281832Y114493D01*
X281209Y114235D01*
X280675Y113825D01*
X280265Y113291D01*
X280007Y112668D01*
X279919Y112000D01*
X280007Y111332D01*
X280265Y110709D01*
X280675Y110175D01*
Y109825D01*
X280265Y109291D01*
X280007Y108668D01*
X279919Y108000D01*
X280007Y107332D01*
X280265Y106709D01*
X280675Y106175D01*
Y105825D01*
X280265Y105291D01*
X280007Y104668D01*
X279919Y104000D01*
X280007Y103332D01*
X280265Y102709D01*
X280675Y102175D01*
Y101825D01*
X280265Y101291D01*
X280007Y100668D01*
X279919Y100000D01*
X280007Y99332D01*
X280265Y98709D01*
X280675Y98175D01*
Y97825D01*
X280265Y97291D01*
X280007Y96668D01*
X279919Y96000D01*
X280007Y95332D01*
X280265Y94709D01*
X280675Y94175D01*
X281209Y93765D01*
X281832Y93507D01*
X281884Y93500D01*
X281851Y93000D01*
X239334D01*
Y98131D01*
X252999Y111796D01*
X267000D01*
X267000Y111796D01*
X267461Y111887D01*
X267851Y112148D01*
X276852Y121149D01*
X276852Y121149D01*
X277113Y121539D01*
X277204Y122000D01*
Y149729D01*
X277291Y149765D01*
X277825Y150175D01*
X278175D01*
X278709Y149765D01*
X279332Y149507D01*
X280000Y149419D01*
X280668Y149507D01*
X281291Y149765D01*
X281825Y150175D01*
X282175D01*
X282709Y149765D01*
X283332Y149507D01*
X284000Y149419D01*
X284668Y149507D01*
X285291Y149765D01*
X285825Y150175D01*
X286175D01*
X286709Y149765D01*
X287332Y149507D01*
X288000Y149419D01*
X288668Y149507D01*
X289291Y149765D01*
X289825Y150175D01*
X290175D01*
X290709Y149765D01*
X291332Y149507D01*
X292000Y149419D01*
X292668Y149507D01*
X293291Y149765D01*
X293825Y150175D01*
X294175D01*
X294709Y149765D01*
X295332Y149507D01*
X296000Y149419D01*
X296668Y149507D01*
X297291Y149765D01*
X297825Y150175D01*
X298175D01*
X298709Y149765D01*
X299332Y149507D01*
X300000Y149419D01*
X300668Y149507D01*
X301291Y149765D01*
X301825Y150175D01*
X302175D01*
X302709Y149765D01*
X303332Y149507D01*
X304000Y149419D01*
X304668Y149507D01*
X305291Y149765D01*
X305825Y150175D01*
X306175D01*
X306709Y149765D01*
X307332Y149507D01*
X308000Y149419D01*
X308668Y149507D01*
X309291Y149765D01*
X309825Y150175D01*
X310235Y150709D01*
X310493Y151332D01*
X310581Y152000D01*
X310493Y152668D01*
X310235Y153291D01*
X309825Y153825D01*
X309682Y153935D01*
Y154565D01*
X309825Y154675D01*
X310235Y155209D01*
X310493Y155832D01*
X310581Y156500D01*
X310493Y157168D01*
X310235Y157791D01*
X309825Y158325D01*
X309291Y158735D01*
X308668Y158993D01*
X308000Y159081D01*
X307332Y158993D01*
X306709Y158735D01*
X306175Y158325D01*
X305825D01*
X305291Y158735D01*
X304668Y158993D01*
X304000Y159081D01*
X303332Y158993D01*
X302709Y158735D01*
X302175Y158325D01*
X301825D01*
X301291Y158735D01*
X300668Y158993D01*
X300000Y159081D01*
X299332Y158993D01*
X298709Y158735D01*
X298175Y158325D01*
X297825D01*
X297291Y158735D01*
X296668Y158993D01*
X296000Y159081D01*
X295332Y158993D01*
X294709Y158735D01*
X294175Y158325D01*
X293825D01*
X293291Y158735D01*
X292668Y158993D01*
X292000Y159081D01*
X291332Y158993D01*
X290709Y158735D01*
X290175Y158325D01*
X289825D01*
X289291Y158735D01*
X288668Y158993D01*
X288000Y159081D01*
X287332Y158993D01*
X286709Y158735D01*
X286175Y158325D01*
X285825D01*
X285291Y158735D01*
X284668Y158993D01*
X284000Y159081D01*
X283332Y158993D01*
X282709Y158735D01*
X282175Y158325D01*
X281825D01*
X281291Y158735D01*
X280668Y158993D01*
X280000Y159081D01*
X279332Y158993D01*
X278709Y158735D01*
X278175Y158325D01*
X277825D01*
X277291Y158735D01*
X276668Y158993D01*
X276000Y159081D01*
X275332Y158993D01*
X274709Y158735D01*
X274175Y158325D01*
X273825D01*
X273291Y158735D01*
X272668Y158993D01*
X272000Y159081D01*
X271332Y158993D01*
X270709Y158735D01*
X270175Y158325D01*
X269765Y157791D01*
X269507Y157168D01*
X269419Y156500D01*
X269507Y155832D01*
X269765Y155209D01*
X270175Y154675D01*
X270318Y154565D01*
Y153935D01*
X270175Y153825D01*
X269765Y153291D01*
X269507Y152668D01*
X269419Y152000D01*
X269507Y151332D01*
X269765Y150709D01*
X270175Y150175D01*
X270709Y149765D01*
X271332Y149507D01*
X272000Y149419D01*
X272668Y149507D01*
X273291Y149765D01*
X273825Y150175D01*
X274175D01*
X274709Y149765D01*
X274796Y149729D01*
Y122499D01*
X266501Y114204D01*
X252500D01*
X252039Y114113D01*
X251648Y113851D01*
X251648Y113851D01*
X237278Y99481D01*
X237017Y99091D01*
X236926Y98630D01*
X236926Y98630D01*
Y93000D01*
X221704D01*
Y119201D01*
X236299Y133796D01*
X264174D01*
X264223Y133723D01*
X264809Y133331D01*
X265500Y133194D01*
X266191Y133331D01*
X266777Y133723D01*
X267169Y134309D01*
X267306Y135000D01*
X267169Y135691D01*
X266777Y136277D01*
X266750Y136296D01*
X266901Y136796D01*
X269674D01*
X269723Y136723D01*
X270309Y136331D01*
X271000Y136194D01*
X271691Y136331D01*
X272277Y136723D01*
X272669Y137309D01*
X272806Y138000D01*
X272669Y138691D01*
X272277Y139277D01*
X271691Y139669D01*
X271000Y139806D01*
X270309Y139669D01*
X269723Y139277D01*
X269674Y139204D01*
X233900D01*
X233439Y139113D01*
X233049Y138851D01*
X216511Y122314D01*
X216250Y121923D01*
X216158Y121462D01*
X216158Y121462D01*
Y93000D01*
X212731D01*
X212539Y93462D01*
X214539Y95461D01*
X214734Y95754D01*
X214803Y96100D01*
Y121600D01*
X214734Y121946D01*
X214539Y122239D01*
X206119Y130659D01*
X206206Y131100D01*
X206069Y131791D01*
X205677Y132377D01*
X205091Y132769D01*
X204400Y132906D01*
X203709Y132769D01*
X203123Y132377D01*
X202731Y131791D01*
X202594Y131100D01*
X202731Y130409D01*
X203123Y129823D01*
X203709Y129431D01*
X204400Y129294D01*
X204841Y129381D01*
X212997Y121226D01*
Y117453D01*
X212902Y117378D01*
X212339Y117321D01*
X212339Y117321D01*
X210121Y119539D01*
X209828Y119734D01*
X209482Y119803D01*
X205827D01*
X205577Y120177D01*
X204991Y120569D01*
X204300Y120706D01*
X203609Y120569D01*
X203023Y120177D01*
X202631Y119591D01*
X202494Y118900D01*
X202631Y118209D01*
X203023Y117623D01*
X203609Y117231D01*
X204300Y117094D01*
X204991Y117231D01*
X205577Y117623D01*
X205827Y117997D01*
X209108D01*
X210797Y116308D01*
Y97974D01*
X205823Y93000D01*
X204049D01*
X204016Y93500D01*
X204068Y93507D01*
X204691Y93765D01*
X205225Y94175D01*
X205635Y94709D01*
X205893Y95332D01*
X205981Y96000D01*
X205893Y96668D01*
X205635Y97291D01*
X205485Y97486D01*
X205585Y97815D01*
X205914Y97915D01*
X206109Y97765D01*
X206732Y97507D01*
X207400Y97419D01*
X208068Y97507D01*
X208691Y97765D01*
X209225Y98175D01*
X209635Y98709D01*
X209893Y99332D01*
X209981Y100000D01*
X209893Y100668D01*
X209635Y101291D01*
X209225Y101825D01*
X209361Y102351D01*
X209635Y102709D01*
X209893Y103332D01*
X209981Y104000D01*
X209893Y104668D01*
X209635Y105291D01*
X209225Y105825D01*
Y106175D01*
X209635Y106709D01*
X209893Y107332D01*
X209981Y108000D01*
X209893Y108668D01*
X209635Y109291D01*
X209225Y109825D01*
Y110175D01*
X209635Y110709D01*
X209893Y111332D01*
X209981Y112000D01*
X209893Y112668D01*
X209635Y113291D01*
X209225Y113825D01*
X208691Y114235D01*
X208068Y114493D01*
X207400Y114581D01*
X206732Y114493D01*
X206109Y114235D01*
X205575Y113825D01*
X205225D01*
X204691Y114235D01*
X204068Y114493D01*
X203400Y114581D01*
X202732Y114493D01*
X202109Y114235D01*
X201575Y113825D01*
X201225D01*
X200691Y114235D01*
X200068Y114493D01*
X199400Y114581D01*
X198732Y114493D01*
X198109Y114235D01*
X197575Y113825D01*
X197225D01*
X196691Y114235D01*
X196068Y114493D01*
X195400Y114581D01*
X194732Y114493D01*
X194109Y114235D01*
X193575Y113825D01*
X193165Y113291D01*
X192907Y112668D01*
X192819Y112000D01*
X192907Y111332D01*
X193165Y110709D01*
X193575Y110175D01*
Y109825D01*
X193165Y109291D01*
X192907Y108668D01*
X192819Y108000D01*
X192907Y107332D01*
X193165Y106709D01*
X193575Y106175D01*
Y105825D01*
X193165Y105291D01*
X192907Y104668D01*
X192819Y104000D01*
X192907Y103332D01*
X193165Y102709D01*
X193575Y102175D01*
Y101825D01*
X193165Y101291D01*
X192907Y100668D01*
X192819Y100000D01*
X192907Y99332D01*
X193165Y98709D01*
X193575Y98175D01*
Y97825D01*
X193165Y97291D01*
X192907Y96668D01*
X192819Y96000D01*
X192907Y95332D01*
X193165Y94709D01*
X193575Y94175D01*
X194109Y93765D01*
X194732Y93507D01*
X194784Y93500D01*
X194751Y93000D01*
X183475D01*
X183283Y93462D01*
X189434Y99613D01*
X189434Y99613D01*
X189695Y100004D01*
X189787Y100465D01*
Y133917D01*
X189695Y134378D01*
X189434Y134769D01*
X186289Y137914D01*
X186306Y138000D01*
X186169Y138691D01*
X185777Y139277D01*
X185191Y139669D01*
X184500Y139806D01*
X183809Y139669D01*
X183223Y139277D01*
X182831Y138691D01*
X182694Y138000D01*
X182831Y137309D01*
X183223Y136723D01*
X183809Y136331D01*
X184500Y136194D01*
X184586Y136211D01*
X187378Y133419D01*
Y130543D01*
X186878Y130336D01*
X182545Y134670D01*
X182562Y134756D01*
X182425Y135447D01*
X182033Y136033D01*
X181447Y136425D01*
X180756Y136562D01*
X180065Y136425D01*
X179479Y136033D01*
X179263Y135711D01*
X178763Y135863D01*
Y143060D01*
X185246Y149543D01*
X185332Y149507D01*
X186000Y149419D01*
X186668Y149507D01*
X187291Y149765D01*
X187825Y150175D01*
X188175D01*
X188709Y149765D01*
X189332Y149507D01*
X190000Y149419D01*
X190668Y149507D01*
X191291Y149765D01*
X191825Y150175D01*
X192175D01*
X192709Y149765D01*
X193332Y149507D01*
X194000Y149419D01*
X194668Y149507D01*
X195291Y149765D01*
X195825Y150175D01*
X196175D01*
X196709Y149765D01*
X197332Y149507D01*
X198000Y149419D01*
X198668Y149507D01*
X199291Y149765D01*
X199825Y150175D01*
X200175D01*
X200709Y149765D01*
X201332Y149507D01*
X202000Y149419D01*
X202668Y149507D01*
X203291Y149765D01*
X203825Y150175D01*
X204175D01*
X204709Y149765D01*
X205332Y149507D01*
X206000Y149419D01*
X206668Y149507D01*
X207291Y149765D01*
X207825Y150175D01*
X208175D01*
X208709Y149765D01*
X209332Y149507D01*
X210000Y149419D01*
X210668Y149507D01*
X211291Y149765D01*
X211825Y150175D01*
X212175D01*
X212709Y149765D01*
X213332Y149507D01*
X214000Y149419D01*
X214668Y149507D01*
X215291Y149765D01*
X215825Y150175D01*
X216175D01*
X216709Y149765D01*
X217332Y149507D01*
X218000Y149419D01*
X218668Y149507D01*
X219291Y149765D01*
X219825Y150175D01*
X220175D01*
X220709Y149765D01*
X221332Y149507D01*
X222000Y149419D01*
X222668Y149507D01*
X223291Y149765D01*
X223825Y150175D01*
X224235Y150709D01*
X224493Y151332D01*
X224581Y152000D01*
X224493Y152668D01*
X224235Y153291D01*
X223825Y153825D01*
X223682Y153935D01*
Y154565D01*
X223825Y154675D01*
X224235Y155209D01*
X224493Y155832D01*
X224581Y156500D01*
X224493Y157168D01*
X224235Y157791D01*
X223825Y158325D01*
X223291Y158735D01*
X222668Y158993D01*
X222000Y159081D01*
X221332Y158993D01*
X220709Y158735D01*
X220175Y158325D01*
X219825D01*
X219291Y158735D01*
X218668Y158993D01*
X218000Y159081D01*
X217332Y158993D01*
X216709Y158735D01*
X216175Y158325D01*
X215825D01*
X215291Y158735D01*
X214668Y158993D01*
X214000Y159081D01*
X213332Y158993D01*
X212709Y158735D01*
X212175Y158325D01*
X211825D01*
X211291Y158735D01*
X210668Y158993D01*
X210000Y159081D01*
X209332Y158993D01*
X208709Y158735D01*
X208175Y158325D01*
X207825D01*
X207291Y158735D01*
X206668Y158993D01*
X206000Y159081D01*
X205332Y158993D01*
X204709Y158735D01*
X204175Y158325D01*
X203825D01*
X203291Y158735D01*
X202668Y158993D01*
X202000Y159081D01*
X201332Y158993D01*
X200709Y158735D01*
X200175Y158325D01*
X199825D01*
X199291Y158735D01*
X198668Y158993D01*
X198000Y159081D01*
X197332Y158993D01*
X196709Y158735D01*
X196175Y158325D01*
X195825D01*
X195291Y158735D01*
X194668Y158993D01*
X194000Y159081D01*
X193332Y158993D01*
X192709Y158735D01*
X192175Y158325D01*
X191825D01*
X191291Y158735D01*
X190668Y158993D01*
X190000Y159081D01*
X189332Y158993D01*
X188709Y158735D01*
X188175Y158325D01*
X187825D01*
X187291Y158735D01*
X186668Y158993D01*
X186000Y159081D01*
X185332Y158993D01*
X184709Y158735D01*
X184175Y158325D01*
X183765Y157791D01*
X183507Y157168D01*
X183419Y156500D01*
X183507Y155832D01*
X183765Y155209D01*
X184175Y154675D01*
X184318Y154565D01*
Y153935D01*
X184175Y153825D01*
X183765Y153291D01*
X183507Y152668D01*
X183419Y152000D01*
X183507Y151332D01*
X183543Y151246D01*
X176707Y144411D01*
X176446Y144020D01*
X176355Y143559D01*
X176355Y143559D01*
Y131496D01*
X176355Y131496D01*
X176446Y131035D01*
X176707Y130645D01*
X182654Y124698D01*
Y104042D01*
X171612Y93000D01*
X134669D01*
Y149240D01*
X135169Y149574D01*
X135332Y149507D01*
X136000Y149419D01*
X136668Y149507D01*
X137291Y149765D01*
X137825Y150175D01*
X138235Y150709D01*
X138493Y151332D01*
X138581Y152000D01*
X138493Y152668D01*
X138235Y153291D01*
X137825Y153825D01*
X137682Y153935D01*
Y154565D01*
X137825Y154675D01*
X138235Y155209D01*
X138493Y155832D01*
X138581Y156500D01*
X138493Y157168D01*
X138235Y157791D01*
X137825Y158325D01*
X137291Y158735D01*
X136668Y158993D01*
X136000Y159081D01*
X135332Y158993D01*
X134709Y158735D01*
X134175Y158325D01*
X133825D01*
X133291Y158735D01*
X132668Y158993D01*
X132000Y159081D01*
X131332Y158993D01*
X130709Y158735D01*
X130175Y158325D01*
X129825D01*
X129291Y158735D01*
X128668Y158993D01*
X128000Y159081D01*
X127332Y158993D01*
X126709Y158735D01*
X126175Y158325D01*
X125825D01*
X125291Y158735D01*
X124668Y158993D01*
X124000Y159081D01*
X123332Y158993D01*
X122709Y158735D01*
X122175Y158325D01*
X121825D01*
X121291Y158735D01*
X120668Y158993D01*
X120000Y159081D01*
X119332Y158993D01*
X118709Y158735D01*
X118175Y158325D01*
X117825D01*
X117291Y158735D01*
X116668Y158993D01*
X116000Y159081D01*
X115332Y158993D01*
X114709Y158735D01*
X114175Y158325D01*
X113825D01*
X113291Y158735D01*
X112668Y158993D01*
X112000Y159081D01*
X111332Y158993D01*
X110709Y158735D01*
X110175Y158325D01*
X109825D01*
X109291Y158735D01*
X108668Y158993D01*
X108000Y159081D01*
X107332Y158993D01*
X106709Y158735D01*
X106175Y158325D01*
X105825D01*
X105291Y158735D01*
X104668Y158993D01*
X104000Y159081D01*
X103332Y158993D01*
X102709Y158735D01*
X102175Y158325D01*
X101825D01*
X101291Y158735D01*
X100668Y158993D01*
X100000Y159081D01*
X99332Y158993D01*
X98709Y158735D01*
X98175Y158325D01*
X97765Y157791D01*
X97507Y157168D01*
X97419Y156500D01*
X97507Y155832D01*
X97765Y155209D01*
X98175Y154675D01*
X98318Y154565D01*
Y153935D01*
X98175Y153825D01*
X97765Y153291D01*
X97507Y152668D01*
X97419Y152000D01*
X97507Y151332D01*
X97765Y150709D01*
X98175Y150175D01*
X98709Y149765D01*
X99332Y149507D01*
X100000Y149419D01*
X100668Y149507D01*
X101291Y149765D01*
X101825Y150175D01*
X102175D01*
X102709Y149765D01*
X103332Y149507D01*
X104000Y149419D01*
X104668Y149507D01*
X105291Y149765D01*
X105825Y150175D01*
X106175D01*
X106709Y149765D01*
X107332Y149507D01*
X108000Y149419D01*
X108668Y149507D01*
X109291Y149765D01*
X109825Y150175D01*
X110175D01*
X110709Y149765D01*
X111332Y149507D01*
X112000Y149419D01*
X112668Y149507D01*
X113291Y149765D01*
X113825Y150175D01*
X114175D01*
X114709Y149765D01*
X115332Y149507D01*
X116000Y149419D01*
X116668Y149507D01*
X117291Y149765D01*
X117825Y150175D01*
X118175D01*
X118709Y149765D01*
X119332Y149507D01*
X120000Y149419D01*
X120668Y149507D01*
X121291Y149765D01*
X121825Y150175D01*
X122175D01*
X122709Y149765D01*
X123332Y149507D01*
X124000Y149419D01*
X124668Y149507D01*
X125291Y149765D01*
X125825Y150175D01*
X126175D01*
X126709Y149765D01*
X127332Y149507D01*
X128000Y149419D01*
X128668Y149507D01*
X129291Y149765D01*
X129825Y150175D01*
X130175D01*
X130709Y149765D01*
X131332Y149507D01*
X132000Y149419D01*
X132260Y149191D01*
Y93000D01*
X131519D01*
Y112085D01*
X131428Y112546D01*
X131167Y112937D01*
X105752Y138352D01*
X105361Y138613D01*
X104900Y138704D01*
X104900Y138704D01*
X100326D01*
X100277Y138777D01*
X99691Y139169D01*
X99000Y139306D01*
X98309Y139169D01*
X97723Y138777D01*
X97331Y138191D01*
X97194Y137500D01*
X97325Y136842D01*
X97321Y136732D01*
X97113Y136342D01*
X95568D01*
X95277Y136777D01*
X94691Y137169D01*
X94000Y137306D01*
X93309Y137169D01*
X92723Y136777D01*
X92331Y136191D01*
X92194Y135500D01*
X92331Y134809D01*
X92723Y134223D01*
X93309Y133831D01*
X94000Y133694D01*
X94691Y133831D01*
X94845Y133934D01*
X103463D01*
X125296Y112101D01*
Y93000D01*
X121649D01*
X121616Y93500D01*
X121668Y93507D01*
X122291Y93765D01*
X122825Y94175D01*
X123235Y94709D01*
X123493Y95332D01*
X123581Y96000D01*
X123493Y96668D01*
X123235Y97291D01*
X122825Y97825D01*
Y98175D01*
X123235Y98709D01*
X123493Y99332D01*
X123581Y100000D01*
X123493Y100668D01*
X123235Y101291D01*
X122825Y101825D01*
Y102175D01*
X123235Y102709D01*
X123493Y103332D01*
X123581Y104000D01*
X123493Y104668D01*
X123235Y105291D01*
X122825Y105825D01*
Y106175D01*
X123235Y106709D01*
X123493Y107332D01*
X123581Y108000D01*
X123493Y108668D01*
X123235Y109291D01*
X122825Y109825D01*
Y110175D01*
X123235Y110709D01*
X123493Y111332D01*
X123581Y112000D01*
X123493Y112668D01*
X123235Y113291D01*
X122825Y113825D01*
X122291Y114235D01*
X121668Y114493D01*
X121000Y114581D01*
X120332Y114493D01*
X119709Y114235D01*
X119175Y113825D01*
X118825D01*
X118291Y114235D01*
X117668Y114493D01*
X117000Y114581D01*
X116332Y114493D01*
X115709Y114235D01*
X115175Y113825D01*
X114825D01*
X114291Y114235D01*
X113668Y114493D01*
X113000Y114581D01*
X112332Y114493D01*
X111709Y114235D01*
X111175Y113825D01*
X110825D01*
X110291Y114235D01*
X109668Y114493D01*
X109000Y114581D01*
X108332Y114493D01*
X107709Y114235D01*
X107175Y113825D01*
X106765Y113291D01*
X106507Y112668D01*
X106419Y112000D01*
X106507Y111332D01*
X106765Y110709D01*
X107175Y110175D01*
Y109825D01*
X106765Y109291D01*
X106507Y108668D01*
X106419Y108000D01*
X106507Y107332D01*
X106765Y106709D01*
X107175Y106175D01*
Y105825D01*
X106765Y105291D01*
X106507Y104668D01*
X106419Y104000D01*
X106507Y103332D01*
X106765Y102709D01*
X107175Y102175D01*
Y101825D01*
X106765Y101291D01*
X106507Y100668D01*
X106419Y100000D01*
X106507Y99332D01*
X106765Y98709D01*
X107175Y98175D01*
Y97825D01*
X106765Y97291D01*
X106507Y96668D01*
X106419Y96000D01*
X106507Y95332D01*
X106765Y94709D01*
X107175Y94175D01*
X107709Y93765D01*
X108332Y93507D01*
X108384Y93500D01*
X108351Y93000D01*
X55000D01*
X53000Y91000D01*
X52900Y52900D01*
X25000Y24605D01*
Y1000D01*
X1000D01*
Y181000D01*
X2000Y182000D01*
X58529D01*
X58644Y181827D01*
Y160173D01*
X58832Y159721D01*
X59284Y159534D01*
X94717D01*
X95169Y159721D01*
X95356Y160173D01*
Y181827D01*
X95472Y182000D01*
X144528D01*
X144644Y181827D01*
Y160173D01*
X144832Y159721D01*
X145283Y159534D01*
X180717D01*
X181168Y159721D01*
X181356Y160173D01*
Y181827D01*
X181472Y182000D01*
X230528D01*
X230644Y181827D01*
Y160173D01*
X230832Y159721D01*
X231283Y159534D01*
X266717D01*
X267168Y159721D01*
X267356Y160173D01*
Y181827D01*
X267472Y182000D01*
X363000D01*
X364000Y181000D01*
D02*
G37*
G36*
X84000Y86000D02*
Y78000D01*
X88000Y74000D01*
X96000D01*
X98000Y72000D01*
Y44000D01*
X115000Y27000D01*
Y1000D01*
X55000D01*
Y86000D01*
X58000Y89000D01*
X81000D01*
X84000Y86000D01*
D02*
G37*
%LPC*%
G36*
X187453Y39592D02*
X181547D01*
X181095Y39405D01*
X180908Y38953D01*
Y33047D01*
X181095Y32595D01*
X181547Y32408D01*
X187453D01*
X187905Y32595D01*
X188092Y33047D01*
Y38953D01*
X187905Y39405D01*
X187453Y39592D01*
D02*
G37*
G36*
X288800Y34506D02*
X288109Y34369D01*
X287523Y33977D01*
X287131Y33391D01*
X286994Y32700D01*
X287131Y32009D01*
X287523Y31423D01*
X288109Y31031D01*
X288800Y30894D01*
X289491Y31031D01*
X290077Y31423D01*
X290469Y32009D01*
X290606Y32700D01*
X290469Y33391D01*
X290077Y33977D01*
X289491Y34369D01*
X288800Y34506D01*
D02*
G37*
G36*
X223300Y37206D02*
X222609Y37069D01*
X222023Y36677D01*
X221631Y36091D01*
X221494Y35400D01*
X221631Y34709D01*
X222023Y34123D01*
X222609Y33731D01*
X223300Y33594D01*
X223991Y33731D01*
X224577Y34123D01*
X224969Y34709D01*
X225106Y35400D01*
X224969Y36091D01*
X224577Y36677D01*
X223991Y37069D01*
X223300Y37206D01*
D02*
G37*
G36*
X293900Y37406D02*
X293209Y37269D01*
X292623Y36877D01*
X292231Y36291D01*
X292094Y35600D01*
X292231Y34909D01*
X292623Y34323D01*
X293209Y33931D01*
X293900Y33794D01*
X294591Y33931D01*
X295177Y34323D01*
X295569Y34909D01*
X295706Y35600D01*
X295569Y36291D01*
X295177Y36877D01*
X294591Y37269D01*
X293900Y37406D01*
D02*
G37*
G36*
X190500Y30306D02*
X189809Y30169D01*
X189223Y29777D01*
X188831Y29191D01*
X188694Y28500D01*
X188831Y27809D01*
X189223Y27223D01*
X189809Y26831D01*
X190500Y26694D01*
X191191Y26831D01*
X191777Y27223D01*
X192169Y27809D01*
X192306Y28500D01*
X192169Y29191D01*
X191777Y29777D01*
X191191Y30169D01*
X190500Y30306D01*
D02*
G37*
G36*
X231000Y28306D02*
X230309Y28169D01*
X229723Y27777D01*
X229331Y27191D01*
X229194Y26500D01*
X229303Y25951D01*
X228923Y25631D01*
X228898Y25620D01*
X228825Y25669D01*
X228134Y25806D01*
X227443Y25669D01*
X226857Y25277D01*
X226465Y24691D01*
X226327Y24000D01*
X226465Y23309D01*
X226857Y22723D01*
X227443Y22331D01*
X228134Y22194D01*
X228266Y22220D01*
X228733Y21803D01*
X228831Y21309D01*
X229223Y20723D01*
X229809Y20331D01*
X230500Y20194D01*
X231191Y20331D01*
X231777Y20723D01*
X232169Y21309D01*
X232306Y22000D01*
X232169Y22691D01*
X231777Y23277D01*
X231191Y23669D01*
X230500Y23806D01*
X230367Y23780D01*
X229992Y24115D01*
X229977Y24452D01*
X230093Y24584D01*
X230408Y24811D01*
X231000Y24694D01*
X231691Y24831D01*
X232277Y25223D01*
X232669Y25809D01*
X232806Y26500D01*
X232669Y27191D01*
X232277Y27777D01*
X231691Y28169D01*
X231000Y28306D01*
D02*
G37*
G36*
X267200Y36206D02*
X266509Y36069D01*
X265923Y35677D01*
X265531Y35091D01*
X265394Y34400D01*
X265531Y33709D01*
X265675Y33494D01*
X265408Y32994D01*
X263320D01*
X262821Y32894D01*
X262398Y32612D01*
X262115Y32188D01*
X262016Y31689D01*
Y30311D01*
X262115Y29812D01*
X262398Y29388D01*
X262821Y29106D01*
X263320Y29006D01*
X265880D01*
X266379Y29106D01*
X266802Y29388D01*
X267085Y29812D01*
X267184Y30311D01*
Y31689D01*
X267102Y32103D01*
X267123Y32208D01*
X267170Y32311D01*
X267390Y32631D01*
X267891Y32731D01*
X268477Y33123D01*
X268869Y33709D01*
X269006Y34400D01*
X268869Y35091D01*
X268477Y35677D01*
X267891Y36069D01*
X267200Y36206D01*
D02*
G37*
G36*
X298200Y33906D02*
X297509Y33769D01*
X296923Y33377D01*
X296531Y32791D01*
X296394Y32100D01*
X296531Y31409D01*
X296923Y30823D01*
X297509Y30431D01*
X298200Y30294D01*
X298891Y30431D01*
X299477Y30823D01*
X299869Y31409D01*
X300006Y32100D01*
X299869Y32791D01*
X299477Y33377D01*
X298891Y33769D01*
X298200Y33906D01*
D02*
G37*
G36*
X195000Y33806D02*
X194309Y33669D01*
X193723Y33277D01*
X193331Y32691D01*
X193194Y32000D01*
X193331Y31309D01*
X193723Y30723D01*
X194309Y30331D01*
X195000Y30194D01*
X195691Y30331D01*
X196277Y30723D01*
X196669Y31309D01*
X196806Y32000D01*
X196669Y32691D01*
X196277Y33277D01*
X195691Y33669D01*
X195000Y33806D01*
D02*
G37*
G36*
X258000Y45306D02*
X257309Y45169D01*
X256723Y44777D01*
X256331Y44191D01*
X256194Y43500D01*
X256331Y42809D01*
X256723Y42223D01*
X257309Y41831D01*
X258000Y41694D01*
X258691Y41831D01*
X259277Y42223D01*
X259669Y42809D01*
X259806Y43500D01*
X259669Y44191D01*
X259277Y44777D01*
X258691Y45169D01*
X258000Y45306D01*
D02*
G37*
G36*
X242400Y48006D02*
X241709Y47869D01*
X241123Y47477D01*
X240731Y46891D01*
X240594Y46200D01*
X240731Y45509D01*
X241123Y44923D01*
X241709Y44531D01*
X242400Y44394D01*
X243091Y44531D01*
X243677Y44923D01*
X244069Y45509D01*
X244206Y46200D01*
X244069Y46891D01*
X243677Y47477D01*
X243091Y47869D01*
X242400Y48006D01*
D02*
G37*
G36*
X199300Y42506D02*
X198609Y42369D01*
X198023Y41977D01*
X197631Y41391D01*
X197494Y40700D01*
X197631Y40009D01*
X198023Y39423D01*
X198609Y39031D01*
X199300Y38894D01*
X199991Y39031D01*
X200577Y39423D01*
X200969Y40009D01*
X201106Y40700D01*
X200969Y41391D01*
X200577Y41977D01*
X199991Y42369D01*
X199300Y42506D01*
D02*
G37*
G36*
X290500Y46306D02*
X289809Y46169D01*
X289223Y45777D01*
X288831Y45191D01*
X288694Y44500D01*
X288831Y43809D01*
X289223Y43223D01*
X289809Y42831D01*
X290500Y42694D01*
X291191Y42831D01*
X291777Y43223D01*
X291902Y43409D01*
X291904Y43413D01*
X292331Y43191D01*
X292326Y43164D01*
X292194Y42500D01*
X292331Y41809D01*
X292723Y41223D01*
X293309Y40831D01*
X294000Y40694D01*
X294691Y40831D01*
X295277Y41223D01*
X295669Y41809D01*
X295806Y42500D01*
X295669Y43191D01*
X295277Y43777D01*
X294691Y44169D01*
X294000Y44306D01*
X293309Y44169D01*
X292723Y43777D01*
X292598Y43591D01*
X292596Y43587D01*
X292169Y43809D01*
X292174Y43836D01*
X292306Y44500D01*
X292169Y45191D01*
X291777Y45777D01*
X291191Y46169D01*
X290500Y46306D01*
D02*
G37*
G36*
X250000Y48306D02*
X249309Y48169D01*
X248723Y47777D01*
X248331Y47191D01*
X248194Y46500D01*
X248331Y45809D01*
X248511Y45540D01*
X248390Y44889D01*
X248223Y44777D01*
X247831Y44191D01*
X247694Y43500D01*
X247831Y42809D01*
X248223Y42223D01*
X248809Y41831D01*
X249500Y41694D01*
X249740Y41232D01*
X249694Y41000D01*
X249831Y40309D01*
X250223Y39723D01*
X250809Y39331D01*
X251500Y39194D01*
X252191Y39331D01*
X252777Y39723D01*
X253169Y40309D01*
X253306Y41000D01*
X253169Y41691D01*
X252777Y42277D01*
X252191Y42669D01*
X251500Y42806D01*
X251260Y43268D01*
X251306Y43500D01*
X251169Y44191D01*
X250989Y44460D01*
X251110Y45111D01*
X251277Y45223D01*
X251669Y45809D01*
X251806Y46500D01*
X251669Y47191D01*
X251277Y47777D01*
X250691Y48169D01*
X250000Y48306D01*
D02*
G37*
G36*
X254400Y39706D02*
X253709Y39569D01*
X253123Y39177D01*
X252731Y38591D01*
X252594Y37900D01*
X252731Y37209D01*
X253123Y36623D01*
X253709Y36231D01*
X254400Y36094D01*
X255091Y36231D01*
X255677Y36623D01*
X256069Y37209D01*
X256206Y37900D01*
X256069Y38591D01*
X255677Y39177D01*
X255091Y39569D01*
X254400Y39706D01*
D02*
G37*
G36*
X283000Y35806D02*
X282309Y35669D01*
X281723Y35277D01*
X281434Y34845D01*
X280918Y34782D01*
X280847Y34798D01*
X280291Y35169D01*
X279600Y35306D01*
X278909Y35169D01*
X278323Y34777D01*
X277931Y34191D01*
X277794Y33500D01*
X277931Y32809D01*
X278323Y32223D01*
X278909Y31831D01*
X279600Y31694D01*
X280291Y31831D01*
X280877Y32223D01*
X281166Y32655D01*
X281682Y32718D01*
X281753Y32702D01*
X282309Y32331D01*
X283000Y32194D01*
X283691Y32331D01*
X284277Y32723D01*
X284669Y33309D01*
X284806Y34000D01*
X284669Y34691D01*
X284277Y35277D01*
X283691Y35669D01*
X283000Y35806D01*
D02*
G37*
G36*
X218500Y48706D02*
X217809Y48569D01*
X217223Y48177D01*
X216831Y47591D01*
X216694Y46900D01*
X216831Y46209D01*
X217223Y45623D01*
X217809Y45231D01*
X218500Y45094D01*
X219191Y45231D01*
X219777Y45623D01*
X220169Y46209D01*
X220306Y46900D01*
X220169Y47591D01*
X219777Y48177D01*
X219191Y48569D01*
X218500Y48706D01*
D02*
G37*
G36*
X243000Y40306D02*
X242309Y40169D01*
X241723Y39777D01*
X241331Y39191D01*
X241194Y38500D01*
X241260Y38165D01*
X240835Y37740D01*
X240500Y37806D01*
X239809Y37669D01*
X239223Y37277D01*
X238831Y36691D01*
X238694Y36000D01*
X238831Y35309D01*
X239223Y34723D01*
X239809Y34331D01*
X240500Y34194D01*
X241191Y34331D01*
X241777Y34723D01*
X242169Y35309D01*
X242306Y36000D01*
X242240Y36335D01*
X242665Y36760D01*
X243000Y36694D01*
X243691Y36831D01*
X243871Y36951D01*
X244401Y36704D01*
X244723Y36223D01*
X245309Y35831D01*
X246000Y35694D01*
X246350Y35763D01*
X246926Y35432D01*
X246960Y35261D01*
X247042Y35139D01*
X246885Y34762D01*
X246771Y34644D01*
X246223Y34277D01*
X245831Y33691D01*
X245694Y33000D01*
X245831Y32309D01*
X246223Y31723D01*
X246809Y31331D01*
X247500Y31194D01*
X248191Y31331D01*
X248777Y31723D01*
X249169Y32309D01*
X249306Y33000D01*
X249169Y33691D01*
X249087Y33814D01*
X249243Y34190D01*
X249357Y34309D01*
X249906Y34675D01*
X250297Y35261D01*
X250435Y35953D01*
X250297Y36644D01*
X249906Y37230D01*
X249320Y37622D01*
X248628Y37759D01*
X247937Y37622D01*
X247768Y37692D01*
X247669Y38191D01*
X247277Y38777D01*
X246691Y39169D01*
X246000Y39306D01*
X245309Y39169D01*
X245129Y39049D01*
X244599Y39296D01*
X244277Y39777D01*
X243691Y40169D01*
X243000Y40306D01*
D02*
G37*
G36*
X207800Y41006D02*
X207109Y40869D01*
X206523Y40477D01*
X206131Y39891D01*
X205994Y39200D01*
X206131Y38509D01*
X206523Y37923D01*
X207109Y37531D01*
X207800Y37394D01*
X208491Y37531D01*
X209077Y37923D01*
X209469Y38509D01*
X209606Y39200D01*
X209469Y39891D01*
X209077Y40477D01*
X208491Y40869D01*
X207800Y41006D01*
D02*
G37*
G36*
X299100Y15806D02*
X298409Y15669D01*
X297823Y15277D01*
X297531Y14841D01*
X296976Y14771D01*
X296902Y14882D01*
X296072Y15437D01*
X295093Y15632D01*
X291254D01*
X290275Y15437D01*
X289444Y14882D01*
X288890Y14052D01*
X288695Y13073D01*
Y7463D01*
X288890Y6483D01*
X289444Y5653D01*
X290275Y5098D01*
X291254Y4904D01*
X295093D01*
X296072Y5098D01*
X296902Y5653D01*
X297457Y6483D01*
X297652Y7463D01*
Y12236D01*
X298151Y12503D01*
X298409Y12331D01*
X299100Y12194D01*
X299791Y12331D01*
X300377Y12723D01*
X300769Y13309D01*
X300906Y14000D01*
X300769Y14691D01*
X300377Y15277D01*
X299791Y15669D01*
X299100Y15806D01*
D02*
G37*
G36*
X271700Y17606D02*
X271009Y17469D01*
X270423Y17077D01*
X270031Y16491D01*
X269894Y15800D01*
X270031Y15109D01*
X270423Y14523D01*
X271009Y14131D01*
X271700Y13994D01*
X272391Y14131D01*
X272977Y14523D01*
X273369Y15109D01*
X273506Y15800D01*
X273369Y16491D01*
X272977Y17077D01*
X272391Y17469D01*
X271700Y17606D01*
D02*
G37*
G36*
X264000Y19806D02*
X263309Y19669D01*
X262723Y19277D01*
X262331Y18691D01*
X262194Y18000D01*
X262331Y17309D01*
X262723Y16723D01*
X263309Y16331D01*
X264000Y16194D01*
X264691Y16331D01*
X265277Y16723D01*
X265669Y17309D01*
X265806Y18000D01*
X265669Y18691D01*
X265277Y19277D01*
X264691Y19669D01*
X264000Y19806D01*
D02*
G37*
G36*
X297700Y21706D02*
X297009Y21569D01*
X296423Y21177D01*
X296031Y20591D01*
X295894Y19900D01*
X296031Y19209D01*
X296423Y18623D01*
X297009Y18231D01*
X297700Y18094D01*
X298391Y18231D01*
X298977Y18623D01*
X299369Y19209D01*
X299506Y19900D01*
X299369Y20591D01*
X298977Y21177D01*
X298391Y21569D01*
X297700Y21706D01*
D02*
G37*
G36*
X240000Y18306D02*
X239309Y18169D01*
X238723Y17777D01*
X238711Y17760D01*
X238077Y17711D01*
X237691Y17969D01*
X237000Y18106D01*
X236309Y17969D01*
X235723Y17577D01*
X235331Y16991D01*
X235194Y16300D01*
X235331Y15609D01*
X235723Y15023D01*
X236309Y14631D01*
X237000Y14494D01*
X237691Y14631D01*
X238277Y15023D01*
X238289Y15040D01*
X238923Y15089D01*
X239309Y14831D01*
X240000Y14694D01*
X240691Y14831D01*
X241277Y15223D01*
X241669Y15809D01*
X241806Y16500D01*
X241669Y17191D01*
X241277Y17777D01*
X240691Y18169D01*
X240000Y18306D01*
D02*
G37*
G36*
X266746Y15632D02*
X262908D01*
X261928Y15437D01*
X261098Y14882D01*
X260543Y14052D01*
X260349Y13073D01*
Y7463D01*
X260543Y6483D01*
X261098Y5653D01*
X261928Y5098D01*
X262908Y4904D01*
X266746D01*
X267725Y5098D01*
X268236Y5440D01*
X268406Y5553D01*
X268766Y5192D01*
X268646Y5013D01*
X268431Y4691D01*
X268294Y4000D01*
X268431Y3309D01*
X268823Y2723D01*
X269409Y2331D01*
X270100Y2194D01*
X270791Y2331D01*
X271377Y2723D01*
X271769Y3309D01*
X271906Y4000D01*
X271769Y4691D01*
X271377Y5277D01*
X270791Y5669D01*
X270100Y5806D01*
X269409Y5669D01*
X269142Y5491D01*
X268973Y5378D01*
X268612Y5738D01*
X268732Y5917D01*
X269110Y6483D01*
X269305Y7463D01*
Y13073D01*
X269110Y14052D01*
X268555Y14882D01*
X267725Y15437D01*
X266746Y15632D01*
D02*
G37*
G36*
X244000Y4806D02*
X243309Y4669D01*
X242723Y4277D01*
X242331Y3691D01*
X242194Y3000D01*
X242331Y2309D01*
X242723Y1723D01*
X243309Y1331D01*
X244000Y1194D01*
X244691Y1331D01*
X245277Y1723D01*
X245669Y2309D01*
X245806Y3000D01*
X245669Y3691D01*
X245277Y4277D01*
X244691Y4669D01*
X244000Y4806D01*
D02*
G37*
G36*
X284200Y5806D02*
X283509Y5669D01*
X282923Y5277D01*
X282531Y4691D01*
X282394Y4000D01*
X282531Y3309D01*
X282923Y2723D01*
X283509Y2331D01*
X284200Y2194D01*
X284891Y2331D01*
X285477Y2723D01*
X285869Y3309D01*
X286006Y4000D01*
X285869Y4691D01*
X285477Y5277D01*
X284891Y5669D01*
X284200Y5806D01*
D02*
G37*
G36*
X204000Y10806D02*
X203309Y10669D01*
X202723Y10277D01*
X202331Y9691D01*
X202194Y9000D01*
X202331Y8309D01*
X202723Y7723D01*
X203309Y7331D01*
X204000Y7194D01*
X204691Y7331D01*
X205277Y7723D01*
X205669Y8309D01*
X205806Y9000D01*
X205669Y9691D01*
X205277Y10277D01*
X204691Y10669D01*
X204000Y10806D01*
D02*
G37*
G36*
X302200Y7106D02*
X301509Y6969D01*
X300923Y6577D01*
X300531Y5991D01*
X300394Y5300D01*
X300531Y4609D01*
X300923Y4023D01*
X301509Y3631D01*
X302200Y3494D01*
X302891Y3631D01*
X303477Y4023D01*
X303869Y4609D01*
X304006Y5300D01*
X303869Y5991D01*
X303477Y6577D01*
X302891Y6969D01*
X302200Y7106D01*
D02*
G37*
G36*
X248800Y23806D02*
X248109Y23669D01*
X247523Y23277D01*
X247131Y22691D01*
X246994Y22000D01*
X247131Y21309D01*
X247523Y20723D01*
X248109Y20331D01*
X248800Y20194D01*
X249491Y20331D01*
X250077Y20723D01*
X250469Y21309D01*
X250606Y22000D01*
X250469Y22691D01*
X250077Y23277D01*
X249491Y23669D01*
X248800Y23806D01*
D02*
G37*
G36*
X235000D02*
X234309Y23669D01*
X233723Y23277D01*
X233331Y22691D01*
X233194Y22000D01*
X233331Y21309D01*
X233723Y20723D01*
X234309Y20331D01*
X235000Y20194D01*
X235691Y20331D01*
X236277Y20723D01*
X236669Y21309D01*
X236806Y22000D01*
X236669Y22691D01*
X236277Y23277D01*
X235691Y23669D01*
X235000Y23806D01*
D02*
G37*
G36*
X184500Y29574D02*
X183575Y29452D01*
X182713Y29095D01*
X181973Y28527D01*
X181405Y27787D01*
X181048Y26925D01*
X180926Y26000D01*
X181048Y25075D01*
X181405Y24213D01*
X181973Y23473D01*
X182713Y22905D01*
X183575Y22548D01*
X184500Y22426D01*
X185425Y22548D01*
X186287Y22905D01*
X187027Y23473D01*
X187595Y24213D01*
X187952Y25075D01*
X188074Y26000D01*
X187952Y26925D01*
X187595Y27787D01*
X187027Y28527D01*
X186287Y29095D01*
X185425Y29452D01*
X184500Y29574D01*
D02*
G37*
G36*
X259400Y28006D02*
X258709Y27869D01*
X258123Y27477D01*
X257731Y26891D01*
X257594Y26200D01*
X257731Y25509D01*
X258123Y24923D01*
X258709Y24531D01*
X259400Y24394D01*
X260091Y24531D01*
X260677Y24923D01*
X261069Y25509D01*
X261206Y26200D01*
X261069Y26891D01*
X260677Y27477D01*
X260091Y27869D01*
X259400Y28006D01*
D02*
G37*
G36*
X298600Y27506D02*
X297909Y27369D01*
X297323Y26977D01*
X296931Y26391D01*
X296794Y25700D01*
X296931Y25009D01*
X297323Y24423D01*
X297909Y24031D01*
X298600Y23894D01*
X299291Y24031D01*
X299877Y24423D01*
X300269Y25009D01*
X300406Y25700D01*
X300269Y26391D01*
X299877Y26977D01*
X299291Y27369D01*
X298600Y27506D01*
D02*
G37*
G36*
X289630Y25854D02*
X287268D01*
X286577Y25716D01*
X285990Y25324D01*
X285599Y24738D01*
X285461Y24047D01*
Y20898D01*
X285599Y20206D01*
X285990Y19620D01*
X286577Y19229D01*
X287268Y19091D01*
X289630D01*
X290321Y19229D01*
X290907Y19620D01*
X291299Y20206D01*
X291436Y20898D01*
Y24047D01*
X291299Y24738D01*
X290907Y25324D01*
X290321Y25716D01*
X289630Y25854D01*
D02*
G37*
G36*
X270732Y25854D02*
X268370D01*
X267679Y25716D01*
X267093Y25324D01*
X266701Y24738D01*
X266564Y24047D01*
Y20898D01*
X266701Y20206D01*
X267093Y19620D01*
X267679Y19229D01*
X268370Y19091D01*
X270732D01*
X271424Y19229D01*
X272010Y19620D01*
X272401Y20206D01*
X272539Y20898D01*
Y24047D01*
X272401Y24738D01*
X272010Y25324D01*
X271424Y25716D01*
X270732Y25854D01*
D02*
G37*
G36*
X202000Y23806D02*
X201309Y23669D01*
X200723Y23277D01*
X200331Y22691D01*
X200194Y22000D01*
X200331Y21309D01*
X200723Y20723D01*
X201309Y20331D01*
X202000Y20194D01*
X202691Y20331D01*
X203277Y20723D01*
X203669Y21309D01*
X203806Y22000D01*
X203669Y22691D01*
X203277Y23277D01*
X202691Y23669D01*
X202000Y23806D01*
D02*
G37*
G36*
X244019Y23712D02*
X243327Y23574D01*
X242741Y23183D01*
X242350Y22597D01*
X242212Y21905D01*
X242350Y21214D01*
X242741Y20628D01*
X243327Y20237D01*
X244019Y20099D01*
X244710Y20237D01*
X245296Y20628D01*
X245688Y21214D01*
X245825Y21905D01*
X245688Y22597D01*
X245296Y23183D01*
X244710Y23574D01*
X244019Y23712D01*
D02*
G37*
G36*
X237700Y48906D02*
X237009Y48769D01*
X236423Y48377D01*
X236031Y47791D01*
X235894Y47100D01*
X236031Y46409D01*
X236423Y45823D01*
X237009Y45431D01*
X237700Y45294D01*
X238391Y45431D01*
X238977Y45823D01*
X239369Y46409D01*
X239506Y47100D01*
X239369Y47791D01*
X238977Y48377D01*
X238391Y48769D01*
X237700Y48906D01*
D02*
G37*
G36*
X280700Y76806D02*
X280009Y76669D01*
X279423Y76277D01*
X279031Y75691D01*
X278894Y75000D01*
X279031Y74309D01*
X279423Y73723D01*
X280009Y73331D01*
X280700Y73194D01*
X281391Y73331D01*
X281977Y73723D01*
X282369Y74309D01*
X282506Y75000D01*
X282369Y75691D01*
X281977Y76277D01*
X281391Y76669D01*
X280700Y76806D01*
D02*
G37*
G36*
X252600Y74306D02*
X251909Y74169D01*
X251323Y73777D01*
X250931Y73191D01*
X250794Y72500D01*
X250931Y71809D01*
X251323Y71223D01*
X251909Y70831D01*
X252600Y70694D01*
X253291Y70831D01*
X253877Y71223D01*
X254269Y71809D01*
X254406Y72500D01*
X254269Y73191D01*
X253877Y73777D01*
X253291Y74169D01*
X252600Y74306D01*
D02*
G37*
G36*
X230500Y68306D02*
X229809Y68169D01*
X229223Y67777D01*
X228831Y67191D01*
X228694Y66500D01*
X228831Y65809D01*
X229223Y65223D01*
X229809Y64831D01*
X230500Y64694D01*
X231191Y64831D01*
X231777Y65223D01*
X232169Y65809D01*
X232306Y66500D01*
X232169Y67191D01*
X231777Y67777D01*
X231191Y68169D01*
X230500Y68306D01*
D02*
G37*
G36*
X293900Y67306D02*
X293209Y67169D01*
X292623Y66777D01*
X292231Y66191D01*
X292094Y65500D01*
X292231Y64809D01*
X292623Y64223D01*
X293209Y63831D01*
X293900Y63694D01*
X294591Y63831D01*
X295177Y64223D01*
X295569Y64809D01*
X295706Y65500D01*
X295569Y66191D01*
X295177Y66777D01*
X294591Y67169D01*
X293900Y67306D01*
D02*
G37*
G36*
X272200Y69506D02*
X271509Y69369D01*
X270923Y68977D01*
X270531Y68391D01*
X270394Y67700D01*
X270531Y67009D01*
X270923Y66423D01*
X271509Y66031D01*
X272200Y65894D01*
X272891Y66031D01*
X273477Y66423D01*
X273869Y67009D01*
X274006Y67700D01*
X273869Y68391D01*
X273477Y68977D01*
X272891Y69369D01*
X272200Y69506D01*
D02*
G37*
G36*
X301100Y69706D02*
X300409Y69569D01*
X299823Y69177D01*
X299431Y68591D01*
X299294Y67900D01*
X299431Y67209D01*
X299823Y66623D01*
X300409Y66231D01*
X301100Y66094D01*
X301791Y66231D01*
X302377Y66623D01*
X302769Y67209D01*
X302906Y67900D01*
X302769Y68591D01*
X302377Y69177D01*
X301791Y69569D01*
X301100Y69706D01*
D02*
G37*
G36*
X236800Y69606D02*
X236109Y69469D01*
X235523Y69077D01*
X235131Y68491D01*
X234994Y67800D01*
X235131Y67109D01*
X235523Y66523D01*
X236109Y66131D01*
X236800Y65994D01*
X237491Y66131D01*
X238077Y66523D01*
X238469Y67109D01*
X238606Y67800D01*
X238469Y68491D01*
X238077Y69077D01*
X237491Y69469D01*
X236800Y69606D01*
D02*
G37*
G36*
X267500Y83306D02*
X266809Y83169D01*
X266223Y82777D01*
X265831Y82191D01*
X265694Y81500D01*
X265831Y80809D01*
X266223Y80223D01*
X266809Y79831D01*
X267500Y79694D01*
X268191Y79831D01*
X268777Y80223D01*
X269169Y80809D01*
X269306Y81500D01*
X269169Y82191D01*
X268777Y82777D01*
X268191Y83169D01*
X267500Y83306D01*
D02*
G37*
G36*
X281300Y83606D02*
X280609Y83469D01*
X280023Y83077D01*
X279631Y82491D01*
X279494Y81800D01*
X279631Y81109D01*
X280023Y80523D01*
X280609Y80131D01*
X281300Y79994D01*
X281991Y80131D01*
X282577Y80523D01*
X282969Y81109D01*
X283106Y81800D01*
X282969Y82491D01*
X282577Y83077D01*
X281991Y83469D01*
X281300Y83606D01*
D02*
G37*
G36*
X249000Y67306D02*
X248309Y67169D01*
X247723Y66777D01*
X247331Y66191D01*
X247194Y65500D01*
X247331Y64809D01*
X247723Y64223D01*
X248309Y63831D01*
X249000Y63694D01*
X249691Y63831D01*
X250277Y64223D01*
X250669Y64809D01*
X250806Y65500D01*
X250669Y66191D01*
X250277Y66777D01*
X249691Y67169D01*
X249000Y67306D01*
D02*
G37*
G36*
X267500Y55106D02*
X266809Y54969D01*
X266223Y54577D01*
X265831Y53991D01*
X265694Y53300D01*
X265831Y52609D01*
X266223Y52023D01*
X266809Y51631D01*
X267263Y51541D01*
X267542Y51276D01*
X267594Y51004D01*
X267494Y50500D01*
X267631Y49809D01*
X268023Y49223D01*
X268609Y48831D01*
X269300Y48694D01*
X269991Y48831D01*
X270577Y49223D01*
X270969Y49809D01*
X271106Y50500D01*
X270969Y51191D01*
X270577Y51777D01*
X269991Y52169D01*
X269537Y52259D01*
X269258Y52524D01*
X269206Y52796D01*
X269306Y53300D01*
X269169Y53991D01*
X268777Y54577D01*
X268191Y54969D01*
X267500Y55106D01*
D02*
G37*
G36*
X219740Y52850D02*
X219049Y52712D01*
X218463Y52321D01*
X218071Y51735D01*
X217934Y51043D01*
X218071Y50352D01*
X218463Y49766D01*
X219049Y49374D01*
X219740Y49237D01*
X220431Y49374D01*
X221018Y49766D01*
X221409Y50352D01*
X221547Y51043D01*
X221409Y51735D01*
X221018Y52321D01*
X220431Y52712D01*
X219740Y52850D01*
D02*
G37*
G36*
X210400Y56906D02*
X209709Y56769D01*
X209123Y56377D01*
X208731Y55791D01*
X208594Y55100D01*
X208731Y54409D01*
X209123Y53823D01*
X209709Y53431D01*
X210400Y53294D01*
X210547Y53323D01*
X211051Y52913D01*
X211131Y52509D01*
X211523Y51923D01*
X212109Y51531D01*
X212800Y51394D01*
X213491Y51531D01*
X214077Y51923D01*
X214469Y52509D01*
X214606Y53200D01*
X214469Y53891D01*
X214077Y54477D01*
X213491Y54869D01*
X212800Y55006D01*
X212653Y54977D01*
X212149Y55387D01*
X212069Y55791D01*
X211677Y56377D01*
X211091Y56769D01*
X210400Y56906D01*
D02*
G37*
G36*
X253200Y53706D02*
X252509Y53569D01*
X251923Y53177D01*
X251531Y52591D01*
X251394Y51900D01*
X251531Y51209D01*
X251923Y50623D01*
X252509Y50231D01*
X253200Y50094D01*
X253891Y50231D01*
X254477Y50623D01*
X254869Y51209D01*
X255006Y51900D01*
X254869Y52591D01*
X254477Y53177D01*
X253891Y53569D01*
X253200Y53706D01*
D02*
G37*
G36*
X275800Y50006D02*
X275109Y49869D01*
X274523Y49477D01*
X274131Y48891D01*
X273994Y48200D01*
X274131Y47509D01*
X274523Y46923D01*
X275109Y46531D01*
X275800Y46394D01*
X276491Y46531D01*
X277077Y46923D01*
X277469Y47509D01*
X277606Y48200D01*
X277469Y48891D01*
X277077Y49477D01*
X276491Y49869D01*
X275800Y50006D01*
D02*
G37*
G36*
X255100Y49706D02*
X254409Y49569D01*
X253823Y49177D01*
X253431Y48591D01*
X253294Y47900D01*
X253431Y47209D01*
X253823Y46623D01*
X254409Y46231D01*
X255100Y46094D01*
X255791Y46231D01*
X256377Y46623D01*
X256769Y47209D01*
X256906Y47900D01*
X256769Y48591D01*
X256377Y49177D01*
X255791Y49569D01*
X255100Y49706D01*
D02*
G37*
G36*
X207000Y50806D02*
X206309Y50669D01*
X205723Y50277D01*
X205331Y49691D01*
X205194Y49000D01*
X205331Y48309D01*
X205723Y47723D01*
X206309Y47331D01*
X207000Y47194D01*
X207691Y47331D01*
X208277Y47723D01*
X208669Y48309D01*
X208806Y49000D01*
X208669Y49691D01*
X208277Y50277D01*
X207691Y50669D01*
X207000Y50806D01*
D02*
G37*
G36*
X300500Y48324D02*
X300440Y48298D01*
X300375Y48311D01*
X299693Y48175D01*
X299587Y48105D01*
X299462Y48080D01*
X298883Y47693D01*
X298813Y47587D01*
X298707Y47517D01*
X298320Y46938D01*
X298295Y46813D01*
X298225Y46707D01*
X298089Y46025D01*
X298114Y45900D01*
X298089Y45775D01*
X298225Y45092D01*
X298295Y44987D01*
X298320Y44862D01*
X298707Y44283D01*
X298813Y44212D01*
X298883Y44107D01*
X299462Y43720D01*
X299587Y43695D01*
X299693Y43625D01*
X300375Y43489D01*
X300440Y43502D01*
X300500Y43477D01*
X300560Y43502D01*
X300625Y43489D01*
X301308Y43625D01*
X301413Y43695D01*
X301538Y43720D01*
X302117Y44107D01*
X302187Y44212D01*
X302293Y44283D01*
X302680Y44862D01*
X302705Y44987D01*
X302775Y45092D01*
X302911Y45775D01*
X302886Y45900D01*
X302911Y46025D01*
X302775Y46707D01*
X302705Y46813D01*
X302680Y46938D01*
X302293Y47517D01*
X302187Y47587D01*
X302117Y47693D01*
X301538Y48080D01*
X301413Y48105D01*
X301308Y48175D01*
X300625Y48311D01*
X300560Y48298D01*
X300500Y48324D01*
D02*
G37*
G36*
X273700Y63806D02*
X273009Y63669D01*
X272423Y63277D01*
X272031Y62691D01*
X271894Y62000D01*
X272031Y61309D01*
X272423Y60723D01*
X273009Y60331D01*
X273700Y60194D01*
X274391Y60331D01*
X274977Y60723D01*
X275369Y61309D01*
X275506Y62000D01*
X275369Y62691D01*
X274977Y63277D01*
X274391Y63669D01*
X273700Y63806D01*
D02*
G37*
G36*
X299700Y63606D02*
X299009Y63469D01*
X298423Y63077D01*
X298031Y62491D01*
X297894Y61800D01*
X298031Y61109D01*
X298423Y60523D01*
X299009Y60131D01*
X299700Y59994D01*
X300391Y60131D01*
X300977Y60523D01*
X301369Y61109D01*
X301506Y61800D01*
X301369Y62491D01*
X300977Y63077D01*
X300391Y63469D01*
X299700Y63606D01*
D02*
G37*
G36*
X207500Y66306D02*
X206809Y66169D01*
X206223Y65777D01*
X205831Y65191D01*
X205694Y64500D01*
X205831Y63809D01*
X206223Y63223D01*
X206809Y62831D01*
X207500Y62694D01*
X208191Y62831D01*
X208777Y63223D01*
X209169Y63809D01*
X209306Y64500D01*
X209169Y65191D01*
X208777Y65777D01*
X208191Y66169D01*
X207500Y66306D01*
D02*
G37*
G36*
X253500Y68806D02*
X252809Y68669D01*
X252223Y68277D01*
X251831Y67691D01*
X251694Y67000D01*
X251831Y66309D01*
X252223Y65723D01*
X252809Y65331D01*
X253500Y65194D01*
X254127Y65318D01*
X254336Y65221D01*
X254611Y65010D01*
X254731Y64409D01*
X255123Y63823D01*
X255709Y63431D01*
X256400Y63294D01*
X257091Y63431D01*
X257677Y63823D01*
X258069Y64409D01*
X258206Y65100D01*
X258069Y65791D01*
X257677Y66377D01*
X257091Y66769D01*
X256400Y66906D01*
X255773Y66782D01*
X255564Y66879D01*
X255289Y67089D01*
X255169Y67691D01*
X254777Y68277D01*
X254191Y68669D01*
X253500Y68806D01*
D02*
G37*
G36*
X233966Y63806D02*
X233275Y63669D01*
X232689Y63277D01*
X232689Y63277D01*
X232277D01*
X231691Y63669D01*
X231000Y63806D01*
X230309Y63669D01*
X229723Y63277D01*
X229331Y62691D01*
X229194Y62000D01*
X229331Y61309D01*
X229723Y60723D01*
X230309Y60331D01*
X231000Y60194D01*
X231691Y60331D01*
X232277Y60723D01*
X232277Y60723D01*
X232689D01*
X233275Y60331D01*
X233966Y60194D01*
X234657Y60331D01*
X235243Y60723D01*
X235635Y61309D01*
X235772Y62000D01*
X235635Y62691D01*
X235243Y63277D01*
X234657Y63669D01*
X233966Y63806D01*
D02*
G37*
G36*
X280500Y52324D02*
X280439Y52298D01*
X280375Y52311D01*
X279693Y52175D01*
X279587Y52105D01*
X279462Y52080D01*
X278883Y51693D01*
X278813Y51587D01*
X278707Y51517D01*
X278320Y50938D01*
X278295Y50813D01*
X278225Y50708D01*
X278089Y50025D01*
X278114Y49900D01*
X278089Y49775D01*
X278225Y49093D01*
X278295Y48987D01*
X278320Y48862D01*
X278707Y48283D01*
X278813Y48213D01*
X278883Y48107D01*
X279462Y47720D01*
X279587Y47695D01*
X279693Y47625D01*
X280099Y47544D01*
X280345Y47012D01*
X280331Y46991D01*
X280194Y46300D01*
X280331Y45609D01*
X280723Y45023D01*
X281309Y44631D01*
X282000Y44494D01*
X282691Y44631D01*
X283277Y45023D01*
X283669Y45609D01*
X283806Y46300D01*
X283669Y46991D01*
X283277Y47577D01*
X282691Y47969D01*
X282663Y47975D01*
X282455Y48526D01*
X282680Y48862D01*
X282705Y48987D01*
X282775Y49093D01*
X282911Y49775D01*
X282886Y49900D01*
X282911Y50025D01*
X282775Y50708D01*
X282705Y50813D01*
X282680Y50938D01*
X282293Y51517D01*
X282187Y51587D01*
X282117Y51693D01*
X281538Y52080D01*
X281413Y52105D01*
X281308Y52175D01*
X280625Y52311D01*
X280560Y52298D01*
X280500Y52324D01*
D02*
G37*
G36*
X274931Y58398D02*
X274240Y58260D01*
X273654Y57869D01*
X273262Y57283D01*
X273125Y56591D01*
X273262Y55900D01*
X273654Y55314D01*
X274240Y54922D01*
X274931Y54785D01*
X274960Y54791D01*
X275227Y54334D01*
X274931Y53891D01*
X274794Y53200D01*
X274931Y52509D01*
X275323Y51923D01*
X275909Y51531D01*
X276600Y51394D01*
X277291Y51531D01*
X277877Y51923D01*
X278269Y52509D01*
X278406Y53200D01*
X278269Y53891D01*
X277877Y54477D01*
X277291Y54869D01*
X276600Y55006D01*
X276571Y55001D01*
X276304Y55457D01*
X276600Y55900D01*
X276737Y56591D01*
X276600Y57283D01*
X276208Y57869D01*
X275622Y58260D01*
X274931Y58398D01*
D02*
G37*
G36*
X223200Y56906D02*
X222509Y56769D01*
X221923Y56377D01*
X221531Y55791D01*
X221394Y55100D01*
X221531Y54409D01*
X221923Y53823D01*
X222509Y53431D01*
X223200Y53294D01*
X223891Y53431D01*
X224477Y53823D01*
X224869Y54409D01*
X225006Y55100D01*
X224869Y55791D01*
X224477Y56377D01*
X223891Y56769D01*
X223200Y56906D01*
D02*
G37*
G36*
X297200Y58706D02*
X296509Y58569D01*
X295923Y58177D01*
X295817Y58019D01*
X295377Y57777D01*
X295185Y57905D01*
X294791Y58169D01*
X294100Y58306D01*
X293409Y58169D01*
X292823Y57777D01*
X292431Y57191D01*
X292325Y56658D01*
X291820Y56513D01*
X291777Y56577D01*
X291191Y56969D01*
X290500Y57106D01*
X289809Y56969D01*
X289223Y56577D01*
X288831Y55991D01*
X288694Y55300D01*
X288831Y54609D01*
X289223Y54023D01*
X289809Y53631D01*
X290500Y53494D01*
X291191Y53631D01*
X291777Y54023D01*
X292169Y54609D01*
X292275Y55142D01*
X292780Y55287D01*
X292823Y55223D01*
X293409Y54831D01*
X294100Y54694D01*
X294791Y54831D01*
X295377Y55223D01*
X295483Y55381D01*
X295923Y55623D01*
X296114Y55495D01*
X296509Y55231D01*
X297200Y55094D01*
X297891Y55231D01*
X297934Y55259D01*
X298258Y54989D01*
X298315Y54913D01*
X298295Y54813D01*
X298225Y54707D01*
X298089Y54025D01*
X298114Y53900D01*
X298089Y53775D01*
X298225Y53092D01*
X298295Y52987D01*
X298320Y52862D01*
X298707Y52283D01*
X298813Y52213D01*
X298883Y52107D01*
X299462Y51720D01*
X299587Y51695D01*
X299693Y51625D01*
X300375Y51489D01*
X300440Y51502D01*
X300500Y51477D01*
X300560Y51502D01*
X300625Y51489D01*
X301307Y51624D01*
X301496Y51521D01*
X301615Y51411D01*
X301709Y51279D01*
X301594Y50700D01*
X301731Y50009D01*
X302123Y49423D01*
X302709Y49031D01*
X303400Y48894D01*
X304091Y49031D01*
X304677Y49423D01*
X305069Y50009D01*
X305206Y50700D01*
X305069Y51391D01*
X304677Y51977D01*
X304091Y52369D01*
X303400Y52506D01*
X302989Y52425D01*
X302680Y52862D01*
X302705Y52987D01*
X302775Y53092D01*
X302911Y53775D01*
X302886Y53900D01*
X302911Y54025D01*
X302775Y54707D01*
X302705Y54813D01*
X302680Y54938D01*
X302293Y55517D01*
X302187Y55588D01*
X302117Y55693D01*
X301538Y56080D01*
X301413Y56105D01*
X301308Y56175D01*
X300625Y56311D01*
X300560Y56298D01*
X300500Y56323D01*
X300440Y56298D01*
X300375Y56311D01*
X299693Y56175D01*
X299587Y56105D01*
X299462Y56080D01*
X299292Y55966D01*
X299097Y56078D01*
X298886Y56297D01*
X299006Y56900D01*
X298869Y57591D01*
X298477Y58177D01*
X297891Y58569D01*
X297200Y58706D01*
D02*
G37*
G36*
X244200Y59406D02*
X243509Y59269D01*
X242923Y58877D01*
X242531Y58291D01*
X242394Y57600D01*
X242440Y57366D01*
X242500Y56906D01*
X241809Y56769D01*
X241223Y56377D01*
X240831Y55791D01*
X240694Y55100D01*
X240831Y54409D01*
X241223Y53823D01*
X241809Y53431D01*
X242500Y53294D01*
X243191Y53431D01*
X243512Y53646D01*
X243962Y53345D01*
X243894Y53000D01*
X244031Y52309D01*
X244423Y51723D01*
Y51647D01*
X244212Y51262D01*
X243831Y50691D01*
X243694Y50000D01*
X243831Y49309D01*
X244223Y48723D01*
X244809Y48331D01*
X245500Y48194D01*
X246191Y48331D01*
X246777Y48723D01*
X247169Y49309D01*
X247306Y50000D01*
X247169Y50691D01*
X246777Y51277D01*
Y51353D01*
X246988Y51738D01*
X247369Y52309D01*
X247506Y53000D01*
X247369Y53691D01*
X246977Y54277D01*
X246391Y54669D01*
X245700Y54806D01*
X245009Y54669D01*
X244688Y54454D01*
X244238Y54755D01*
X244306Y55100D01*
X244260Y55335D01*
X244200Y55794D01*
X244891Y55931D01*
X245320Y56217D01*
X245679Y56211D01*
X245917Y56081D01*
X246223Y55623D01*
X246809Y55231D01*
X247500Y55094D01*
X248191Y55231D01*
X248777Y55623D01*
X249169Y56209D01*
X249306Y56900D01*
X249169Y57591D01*
X248777Y58177D01*
X248191Y58569D01*
X247500Y58706D01*
X246809Y58569D01*
X246380Y58283D01*
X246021Y58289D01*
X245783Y58420D01*
X245477Y58877D01*
X244891Y59269D01*
X244200Y59406D01*
D02*
G37*
G36*
X151969Y81334D02*
X151277Y81196D01*
X150691Y80805D01*
X150300Y80219D01*
X150162Y79528D01*
X150300Y78836D01*
X150691Y78250D01*
X151277Y77859D01*
X151969Y77721D01*
X152660Y77859D01*
X153246Y78250D01*
X153637Y78836D01*
X153775Y79528D01*
X153637Y80219D01*
X153246Y80805D01*
X152660Y81196D01*
X151969Y81334D01*
D02*
G37*
G36*
X196850D02*
X196159Y81196D01*
X195573Y80805D01*
X195182Y80219D01*
X195044Y79528D01*
X195182Y78836D01*
X195573Y78250D01*
X196159Y77859D01*
X196850Y77721D01*
X197542Y77859D01*
X198128Y78250D01*
X198519Y78836D01*
X198657Y79528D01*
X198519Y80219D01*
X198128Y80805D01*
X197542Y81196D01*
X196850Y81334D01*
D02*
G37*
G36*
X27559Y102991D02*
X25613Y102838D01*
X23715Y102382D01*
X21911Y101635D01*
X20247Y100615D01*
X18763Y99348D01*
X17495Y97863D01*
X16475Y96199D01*
X15728Y94395D01*
X15272Y92497D01*
X15119Y90551D01*
X15272Y88605D01*
X15728Y86707D01*
X16475Y84904D01*
X17495Y83239D01*
X18763Y81755D01*
X20247Y80487D01*
X21911Y79467D01*
X23715Y78720D01*
X25613Y78264D01*
X27559Y78111D01*
X29505Y78264D01*
X31403Y78720D01*
X33207Y79467D01*
X34871Y80487D01*
X36355Y81755D01*
X37623Y83239D01*
X38643Y84904D01*
X39390Y86707D01*
X39846Y88605D01*
X39999Y90551D01*
X39846Y92497D01*
X39390Y94395D01*
X38643Y96199D01*
X37623Y97863D01*
X36355Y99348D01*
X34871Y100615D01*
X33207Y101635D01*
X31403Y102382D01*
X29505Y102838D01*
X27559Y102991D01*
D02*
G37*
G36*
X347685Y179567D02*
X346503Y179411D01*
X345402Y178955D01*
X344456Y178229D01*
X343730Y177283D01*
X343274Y176182D01*
X343118Y175000D01*
X343274Y173818D01*
X343730Y172717D01*
X344456Y171771D01*
X345402Y171045D01*
X346503Y170589D01*
X347685Y170433D01*
X348867Y170589D01*
X349968Y171045D01*
X350914Y171771D01*
X351640Y172717D01*
X352096Y173818D01*
X352252Y175000D01*
X352096Y176182D01*
X351640Y177283D01*
X350914Y178229D01*
X349968Y178955D01*
X348867Y179411D01*
X347685Y179567D01*
D02*
G37*
G36*
X36685D02*
X35503Y179411D01*
X34402Y178955D01*
X33456Y178229D01*
X32730Y177283D01*
X32274Y176182D01*
X32118Y175000D01*
X32274Y173818D01*
X32730Y172717D01*
X33456Y171771D01*
X34402Y171045D01*
X35503Y170589D01*
X36685Y170433D01*
X37867Y170589D01*
X38968Y171045D01*
X39914Y171771D01*
X40640Y172717D01*
X41096Y173818D01*
X41252Y175000D01*
X41096Y176182D01*
X40640Y177283D01*
X39914Y178229D01*
X38968Y178955D01*
X37867Y179411D01*
X36685Y179567D01*
D02*
G37*
G36*
X132000Y181290D02*
X131332Y181202D01*
X130709Y180944D01*
X130175Y180534D01*
X129825D01*
X129291Y180944D01*
X128668Y181202D01*
X128000Y181290D01*
X127332Y181202D01*
X126709Y180944D01*
X126175Y180534D01*
X125825D01*
X125291Y180944D01*
X124668Y181202D01*
X124000Y181290D01*
X123332Y181202D01*
X122709Y180944D01*
X122175Y180534D01*
X121825D01*
X121291Y180944D01*
X120668Y181202D01*
X120000Y181290D01*
X119332Y181202D01*
X118709Y180944D01*
X118175Y180534D01*
X117825D01*
X117291Y180944D01*
X116668Y181202D01*
X116000Y181290D01*
X115332Y181202D01*
X114709Y180944D01*
X114175Y180534D01*
X113825D01*
X113291Y180944D01*
X112668Y181202D01*
X112000Y181290D01*
X111332Y181202D01*
X110709Y180944D01*
X110175Y180534D01*
X109825D01*
X109291Y180944D01*
X108668Y181202D01*
X108000Y181290D01*
X107332Y181202D01*
X106709Y180944D01*
X106175Y180534D01*
X105825D01*
X105291Y180944D01*
X104668Y181202D01*
X104000Y181290D01*
X103332Y181202D01*
X102709Y180944D01*
X102175Y180534D01*
X101825D01*
X101291Y180944D01*
X100668Y181202D01*
X100000Y181290D01*
X99332Y181202D01*
X98709Y180944D01*
X98175Y180534D01*
X97765Y179999D01*
X97507Y179377D01*
X97419Y178709D01*
X97507Y178041D01*
X97765Y177418D01*
X98175Y176883D01*
X98318Y176774D01*
Y176144D01*
X98175Y176034D01*
X97765Y175499D01*
X97507Y174877D01*
X97419Y174209D01*
X97507Y173541D01*
X97765Y172918D01*
X98175Y172383D01*
X98709Y171973D01*
X99332Y171715D01*
X100000Y171627D01*
X100668Y171715D01*
X101291Y171973D01*
X101825Y172383D01*
X102175D01*
X102709Y171973D01*
X103332Y171715D01*
X104000Y171627D01*
X104668Y171715D01*
X105291Y171973D01*
X105825Y172383D01*
X106175D01*
X106709Y171973D01*
X107332Y171715D01*
X108000Y171627D01*
X108668Y171715D01*
X109291Y171973D01*
X109825Y172383D01*
X110175D01*
X110709Y171973D01*
X111332Y171715D01*
X112000Y171627D01*
X112668Y171715D01*
X113291Y171973D01*
X113825Y172383D01*
X114175D01*
X114709Y171973D01*
X115332Y171715D01*
X116000Y171627D01*
X116668Y171715D01*
X117291Y171973D01*
X117825Y172383D01*
X118175D01*
X118709Y171973D01*
X119332Y171715D01*
X120000Y171627D01*
X120668Y171715D01*
X121291Y171973D01*
X121825Y172383D01*
X122175D01*
X122709Y171973D01*
X123332Y171715D01*
X124000Y171627D01*
X124668Y171715D01*
X125291Y171973D01*
X125825Y172383D01*
X126175D01*
X126709Y171973D01*
X127332Y171715D01*
X128000Y171627D01*
X128668Y171715D01*
X129291Y171973D01*
X129825Y172383D01*
X130175D01*
X130709Y171973D01*
X131332Y171715D01*
X132000Y171627D01*
X132668Y171715D01*
X133291Y171973D01*
X133825Y172383D01*
X134175D01*
X134709Y171973D01*
X135332Y171715D01*
X136000Y171627D01*
X136668Y171715D01*
X137291Y171973D01*
X137825Y172383D01*
X138235Y172918D01*
X138493Y173541D01*
X138581Y174209D01*
X138493Y174877D01*
X138235Y175499D01*
X137825Y176034D01*
X137291Y176444D01*
X136668Y176702D01*
X136000Y176790D01*
X135332Y176702D01*
X134709Y176444D01*
X134175Y176034D01*
X134137D01*
X133827Y176334D01*
X133825Y176883D01*
X134235Y177418D01*
X134493Y178041D01*
X134581Y178709D01*
X134493Y179377D01*
X134235Y179999D01*
X133825Y180534D01*
X133291Y180944D01*
X132668Y181202D01*
X132000Y181290D01*
D02*
G37*
G36*
X304000D02*
X303332Y181202D01*
X302709Y180944D01*
X302175Y180534D01*
X301825D01*
X301291Y180944D01*
X300668Y181202D01*
X300000Y181290D01*
X299332Y181202D01*
X298709Y180944D01*
X298175Y180534D01*
X297825D01*
X297291Y180944D01*
X296668Y181202D01*
X296000Y181290D01*
X295332Y181202D01*
X294709Y180944D01*
X294175Y180534D01*
X293825D01*
X293291Y180944D01*
X292668Y181202D01*
X292000Y181290D01*
X291332Y181202D01*
X290709Y180944D01*
X290175Y180534D01*
X289825D01*
X289291Y180944D01*
X288668Y181202D01*
X288000Y181290D01*
X287332Y181202D01*
X286709Y180944D01*
X286175Y180534D01*
X285825D01*
X285291Y180944D01*
X284668Y181202D01*
X284000Y181290D01*
X283332Y181202D01*
X282709Y180944D01*
X282175Y180534D01*
X281825D01*
X281291Y180944D01*
X280668Y181202D01*
X280000Y181290D01*
X279332Y181202D01*
X278709Y180944D01*
X278175Y180534D01*
X277825D01*
X277291Y180944D01*
X276668Y181202D01*
X276000Y181290D01*
X275332Y181202D01*
X274709Y180944D01*
X274175Y180534D01*
X273825D01*
X273291Y180944D01*
X272668Y181202D01*
X272000Y181290D01*
X271332Y181202D01*
X270709Y180944D01*
X270175Y180534D01*
X269765Y179999D01*
X269507Y179377D01*
X269419Y178709D01*
X269507Y178041D01*
X269765Y177418D01*
X270175Y176883D01*
X270318Y176774D01*
Y176144D01*
X270175Y176034D01*
X269765Y175499D01*
X269507Y174877D01*
X269419Y174209D01*
X269507Y173541D01*
X269765Y172918D01*
X270175Y172383D01*
X270709Y171973D01*
X271332Y171715D01*
X272000Y171627D01*
X272668Y171715D01*
X273291Y171973D01*
X273825Y172383D01*
X274175D01*
X274709Y171973D01*
X275332Y171715D01*
X276000Y171627D01*
X276668Y171715D01*
X277291Y171973D01*
X277825Y172383D01*
X278175D01*
X278709Y171973D01*
X279332Y171715D01*
X280000Y171627D01*
X280668Y171715D01*
X281291Y171973D01*
X281825Y172383D01*
X282175D01*
X282709Y171973D01*
X283332Y171715D01*
X284000Y171627D01*
X284668Y171715D01*
X285291Y171973D01*
X285825Y172383D01*
X286175D01*
X286709Y171973D01*
X287332Y171715D01*
X288000Y171627D01*
X288668Y171715D01*
X289291Y171973D01*
X289825Y172383D01*
X290175D01*
X290709Y171973D01*
X291332Y171715D01*
X292000Y171627D01*
X292668Y171715D01*
X293291Y171973D01*
X293825Y172383D01*
X294175D01*
X294709Y171973D01*
X295332Y171715D01*
X296000Y171627D01*
X296668Y171715D01*
X297291Y171973D01*
X297825Y172383D01*
X298175D01*
X298709Y171973D01*
X299332Y171715D01*
X300000Y171627D01*
X300668Y171715D01*
X301291Y171973D01*
X301825Y172383D01*
X302175D01*
X302709Y171973D01*
X303332Y171715D01*
X304000Y171627D01*
X304668Y171715D01*
X305291Y171973D01*
X305825Y172383D01*
X306175D01*
X306709Y171973D01*
X307332Y171715D01*
X308000Y171627D01*
X308668Y171715D01*
X309291Y171973D01*
X309825Y172383D01*
X310235Y172918D01*
X310493Y173541D01*
X310581Y174209D01*
X310493Y174877D01*
X310235Y175499D01*
X309825Y176034D01*
X309291Y176444D01*
X308668Y176702D01*
X308000Y176790D01*
X307332Y176702D01*
X306709Y176444D01*
X306175Y176034D01*
X306137D01*
X305827Y176334D01*
X305825Y176883D01*
X306235Y177418D01*
X306493Y178041D01*
X306581Y178709D01*
X306493Y179377D01*
X306235Y179999D01*
X305825Y180534D01*
X305291Y180944D01*
X304668Y181202D01*
X304000Y181290D01*
D02*
G37*
G36*
X218000D02*
X217332Y181202D01*
X216709Y180944D01*
X216175Y180534D01*
X215825D01*
X215291Y180944D01*
X214668Y181202D01*
X214000Y181290D01*
X213332Y181202D01*
X212709Y180944D01*
X212175Y180534D01*
X211825D01*
X211291Y180944D01*
X210668Y181202D01*
X210000Y181290D01*
X209332Y181202D01*
X208709Y180944D01*
X208175Y180534D01*
X207825D01*
X207291Y180944D01*
X206668Y181202D01*
X206000Y181290D01*
X205332Y181202D01*
X204709Y180944D01*
X204175Y180534D01*
X203825D01*
X203291Y180944D01*
X202668Y181202D01*
X202000Y181290D01*
X201332Y181202D01*
X200709Y180944D01*
X200175Y180534D01*
X199825D01*
X199291Y180944D01*
X198668Y181202D01*
X198000Y181290D01*
X197332Y181202D01*
X196709Y180944D01*
X196175Y180534D01*
X195825D01*
X195291Y180944D01*
X194668Y181202D01*
X194000Y181290D01*
X193332Y181202D01*
X192709Y180944D01*
X192175Y180534D01*
X191825D01*
X191291Y180944D01*
X190668Y181202D01*
X190000Y181290D01*
X189332Y181202D01*
X188709Y180944D01*
X188175Y180534D01*
X187825D01*
X187291Y180944D01*
X186668Y181202D01*
X186000Y181290D01*
X185332Y181202D01*
X184709Y180944D01*
X184175Y180534D01*
X183765Y179999D01*
X183507Y179377D01*
X183419Y178709D01*
X183507Y178041D01*
X183765Y177418D01*
X184175Y176883D01*
X184318Y176774D01*
Y176144D01*
X184175Y176034D01*
X183765Y175499D01*
X183507Y174877D01*
X183419Y174209D01*
X183507Y173541D01*
X183765Y172918D01*
X184175Y172383D01*
X184709Y171973D01*
X185332Y171715D01*
X186000Y171627D01*
X186668Y171715D01*
X187291Y171973D01*
X187825Y172383D01*
X188175D01*
X188709Y171973D01*
X189332Y171715D01*
X190000Y171627D01*
X190668Y171715D01*
X191291Y171973D01*
X191825Y172383D01*
X192175D01*
X192709Y171973D01*
X193332Y171715D01*
X194000Y171627D01*
X194668Y171715D01*
X195291Y171973D01*
X195825Y172383D01*
X196175D01*
X196709Y171973D01*
X197332Y171715D01*
X198000Y171627D01*
X198668Y171715D01*
X199291Y171973D01*
X199825Y172383D01*
X200175D01*
X200709Y171973D01*
X201332Y171715D01*
X202000Y171627D01*
X202668Y171715D01*
X203291Y171973D01*
X203825Y172383D01*
X204175D01*
X204709Y171973D01*
X205332Y171715D01*
X206000Y171627D01*
X206668Y171715D01*
X207291Y171973D01*
X207825Y172383D01*
X208175D01*
X208709Y171973D01*
X209332Y171715D01*
X210000Y171627D01*
X210668Y171715D01*
X211291Y171973D01*
X211825Y172383D01*
X212175D01*
X212709Y171973D01*
X213332Y171715D01*
X214000Y171627D01*
X214668Y171715D01*
X215291Y171973D01*
X215825Y172383D01*
X216175D01*
X216709Y171973D01*
X217332Y171715D01*
X218000Y171627D01*
X218668Y171715D01*
X219291Y171973D01*
X219825Y172383D01*
X220175D01*
X220709Y171973D01*
X221332Y171715D01*
X222000Y171627D01*
X222668Y171715D01*
X223291Y171973D01*
X223825Y172383D01*
X224235Y172918D01*
X224493Y173541D01*
X224581Y174209D01*
X224493Y174877D01*
X224235Y175499D01*
X223825Y176034D01*
X223291Y176444D01*
X222668Y176702D01*
X222000Y176790D01*
X221332Y176702D01*
X220709Y176444D01*
X220175Y176034D01*
X220137D01*
X219827Y176334D01*
X219825Y176883D01*
X220235Y177418D01*
X220493Y178041D01*
X220581Y178709D01*
X220493Y179377D01*
X220235Y179999D01*
X219825Y180534D01*
X219291Y180944D01*
X218668Y181202D01*
X218000Y181290D01*
D02*
G37*
G36*
X338583Y102991D02*
X336637Y102838D01*
X334738Y102382D01*
X332935Y101635D01*
X331271Y100615D01*
X329786Y99348D01*
X328519Y97863D01*
X327499Y96199D01*
X326752Y94395D01*
X326296Y92497D01*
X326143Y90551D01*
X326296Y88605D01*
X326752Y86707D01*
X327499Y84904D01*
X328519Y83239D01*
X329786Y81755D01*
X331271Y80487D01*
X332935Y79467D01*
X334738Y78720D01*
X336637Y78264D01*
X338583Y78111D01*
X340529Y78264D01*
X342427Y78720D01*
X344230Y79467D01*
X345895Y80487D01*
X347379Y81755D01*
X348647Y83239D01*
X349667Y84904D01*
X350414Y86707D01*
X350869Y88605D01*
X351023Y90551D01*
X350869Y92497D01*
X350414Y94395D01*
X349667Y96199D01*
X348647Y97863D01*
X347379Y99348D01*
X345895Y100615D01*
X344230Y101635D01*
X342427Y102382D01*
X340529Y102838D01*
X338583Y102991D01*
D02*
G37*
G36*
X348425Y132519D02*
X347243Y132364D01*
X346142Y131908D01*
X345196Y131182D01*
X344470Y130236D01*
X344014Y129135D01*
X343859Y127953D01*
X344014Y126771D01*
X344470Y125669D01*
X345196Y124724D01*
X346142Y123998D01*
X347243Y123542D01*
X348425Y123386D01*
X349607Y123542D01*
X350709Y123998D01*
X351654Y124724D01*
X352380Y125669D01*
X352836Y126771D01*
X352992Y127953D01*
X352836Y129135D01*
X352380Y130236D01*
X351654Y131182D01*
X350709Y131908D01*
X349607Y132364D01*
X348425Y132519D01*
D02*
G37*
G36*
X37402D02*
X36220Y132364D01*
X35118Y131908D01*
X34172Y131182D01*
X33447Y130236D01*
X32991Y129135D01*
X32835Y127953D01*
X32991Y126771D01*
X33447Y125669D01*
X34172Y124724D01*
X35118Y123998D01*
X36220Y123542D01*
X37402Y123386D01*
X38583Y123542D01*
X39685Y123998D01*
X40631Y124724D01*
X41356Y125669D01*
X41813Y126771D01*
X41968Y127953D01*
X41813Y129135D01*
X41356Y130236D01*
X40631Y131182D01*
X39685Y131908D01*
X38583Y132364D01*
X37402Y132519D01*
D02*
G37*
G36*
X348425Y57716D02*
X347243Y57561D01*
X346142Y57104D01*
X345196Y56379D01*
X344470Y55433D01*
X344014Y54331D01*
X343859Y53150D01*
X344014Y51968D01*
X344470Y50866D01*
X345196Y49920D01*
X346142Y49195D01*
X347243Y48739D01*
X348425Y48583D01*
X349607Y48739D01*
X350709Y49195D01*
X351654Y49920D01*
X352380Y50866D01*
X352836Y51968D01*
X352992Y53150D01*
X352836Y54331D01*
X352380Y55433D01*
X351654Y56379D01*
X350709Y57104D01*
X349607Y57561D01*
X348425Y57716D01*
D02*
G37*
G36*
X37402D02*
X36220Y57561D01*
X35118Y57104D01*
X34172Y56379D01*
X33447Y55433D01*
X32991Y54331D01*
X32835Y53150D01*
X32991Y51968D01*
X33447Y50866D01*
X34172Y49920D01*
X35118Y49195D01*
X36220Y48739D01*
X37402Y48583D01*
X38583Y48739D01*
X39685Y49195D01*
X40631Y49920D01*
X41356Y50866D01*
X41813Y51968D01*
X41968Y53150D01*
X41813Y54331D01*
X41356Y55433D01*
X40631Y56379D01*
X39685Y57104D01*
X38583Y57561D01*
X37402Y57716D01*
D02*
G37*
G36*
X97000Y41806D02*
X96309Y41669D01*
X95723Y41277D01*
X95331Y40691D01*
X95194Y40000D01*
X95331Y39309D01*
X95723Y38723D01*
X96309Y38331D01*
X96692Y38255D01*
Y37745D01*
X96309Y37669D01*
X95723Y37277D01*
X95331Y36691D01*
X95194Y36000D01*
X95331Y35309D01*
X95723Y34723D01*
X96309Y34331D01*
X97000Y34194D01*
X97691Y34331D01*
X98277Y34723D01*
X98669Y35309D01*
X98806Y36000D01*
X98669Y36691D01*
X98277Y37277D01*
X97691Y37669D01*
X97308Y37745D01*
Y38255D01*
X97691Y38331D01*
X98277Y38723D01*
X98669Y39309D01*
X98806Y40000D01*
X98669Y40691D01*
X98277Y41277D01*
X97691Y41669D01*
X97000Y41806D01*
D02*
G37*
G36*
X102000Y24581D02*
X101332Y24493D01*
X100709Y24235D01*
X100175Y23825D01*
X99765Y23291D01*
X99507Y22668D01*
X99419Y22000D01*
X99507Y21332D01*
X99765Y20709D01*
X100175Y20175D01*
X100709Y19765D01*
X101332Y19507D01*
X102000Y19419D01*
X102668Y19507D01*
X103291Y19765D01*
X103825Y20175D01*
X104235Y20709D01*
X104493Y21332D01*
X104581Y22000D01*
X104493Y22668D01*
X104235Y23291D01*
X103825Y23825D01*
X103291Y24235D01*
X102668Y24493D01*
X102000Y24581D01*
D02*
G37*
%LPD*%
D43*
X151000Y118500D02*
D03*
Y123000D02*
D03*
X147000D02*
D03*
X245000Y118500D02*
D03*
X132000Y152000D02*
D03*
X233000Y123000D02*
D03*
Y118500D02*
D03*
X237000Y123000D02*
D03*
X241000D02*
D03*
X245000D02*
D03*
X249000D02*
D03*
Y118500D02*
D03*
X237000D02*
D03*
X73500Y6000D02*
D03*
X77500D02*
D03*
X81500D02*
D03*
Y10500D02*
D03*
X77500D02*
D03*
X73500D02*
D03*
X65500Y6000D02*
D03*
Y10500D02*
D03*
X69500D02*
D03*
Y6000D02*
D03*
X60500Y20500D02*
D03*
Y16500D02*
D03*
Y12500D02*
D03*
Y24500D02*
D03*
X87000Y20500D02*
D03*
Y16500D02*
D03*
Y12500D02*
D03*
Y24500D02*
D03*
X276000Y152000D02*
D03*
X186000D02*
D03*
X265000Y118500D02*
D03*
X253000D02*
D03*
X229000D02*
D03*
X241000D02*
D03*
X265000Y123000D02*
D03*
X261000D02*
D03*
X257000D02*
D03*
X253000D02*
D03*
X229000D02*
D03*
X163000Y118500D02*
D03*
X179000D02*
D03*
X175000D02*
D03*
X171000D02*
D03*
X167000D02*
D03*
X143000D02*
D03*
X159000D02*
D03*
X155000D02*
D03*
X147000D02*
D03*
X163000Y123000D02*
D03*
X179000D02*
D03*
X175000D02*
D03*
X171000D02*
D03*
X167000D02*
D03*
X143000D02*
D03*
X159000D02*
D03*
X155000D02*
D03*
X61000D02*
D03*
X65000D02*
D03*
X69000D02*
D03*
X73000D02*
D03*
X57000D02*
D03*
X81000D02*
D03*
X85000D02*
D03*
X89000D02*
D03*
X93000D02*
D03*
X77000D02*
D03*
X61000Y118500D02*
D03*
X65000D02*
D03*
X69000D02*
D03*
X73000D02*
D03*
X57000D02*
D03*
X81000D02*
D03*
X85000D02*
D03*
X89000D02*
D03*
X93000D02*
D03*
X77000D02*
D03*
X261000D02*
D03*
X257000D02*
D03*
D44*
X293400Y131100D02*
X304700Y119800D01*
Y88100D02*
Y119800D01*
X205600Y87800D02*
X213900Y96100D01*
X204400Y131100D02*
X213900Y121600D01*
Y96100D02*
Y121600D01*
X202700Y87700D02*
Y88600D01*
X204300Y118900D02*
X209482D01*
X211700Y116682D01*
Y97600D02*
Y116682D01*
X202700Y88600D02*
X211700Y97600D01*
X289500Y116500D02*
X291500D01*
X294500D02*
X299000Y112000D01*
X294500Y91000D02*
X295207D01*
X299000Y94793D01*
X295682Y93146D02*
X297500Y94963D01*
X299000Y94793D02*
Y112000D01*
X291500Y116500D02*
X297500Y110500D01*
Y94963D02*
Y110500D01*
X289800Y90900D02*
X292046Y93146D01*
X295682D01*
D46*
X307000Y13500D02*
Y82297D01*
X303559Y85738D02*
X307000Y82297D01*
X301022Y85738D02*
X303559D01*
X298559Y88200D02*
X301022Y85738D01*
X276000Y122000D02*
Y152000D01*
X267000Y113000D02*
X276000Y122000D01*
X306100Y12500D02*
Y12600D01*
X307000Y13500D01*
X233900Y138000D02*
X271000D01*
X217362Y121462D02*
X233900Y138000D01*
X235800Y135000D02*
X265500D01*
X220500Y119700D02*
X235800Y135000D01*
X94000Y135500D02*
X94362Y135138D01*
X99000Y137500D02*
X104900D01*
X94362Y135138D02*
X103962D01*
X126500Y112600D01*
X217362Y86574D02*
Y121462D01*
X220500Y87000D02*
Y119700D01*
Y87000D02*
X221653Y85847D01*
X218897Y84976D02*
Y85039D01*
X217362Y86574D02*
X218897Y85039D01*
X221653Y83464D02*
Y85847D01*
X252500Y113000D02*
X267000D01*
X248663Y88200D02*
X298559D01*
X238130Y84587D02*
Y98630D01*
X252500Y113000D01*
X231102Y77559D02*
X238130Y84587D01*
X219685Y77559D02*
X231102D01*
X184500Y138000D02*
X188583Y133917D01*
X177559Y143559D02*
X186000Y152000D01*
X177559Y131496D02*
Y143559D01*
Y78740D02*
Y89441D01*
X171260Y79134D02*
Y90945D01*
Y79134D02*
X173622Y76772D01*
X180756Y134756D02*
X186221Y129291D01*
X171260Y90945D02*
X183858Y103543D01*
Y125197D01*
X177559Y131496D02*
X183858Y125197D01*
X177559Y89441D02*
X188583Y100465D01*
Y133917D01*
X174803Y81890D02*
Y90551D01*
X186221Y101969D01*
Y129291D01*
X130709Y81496D02*
Y82049D01*
X132000Y152000D02*
X133465Y150535D01*
X126500Y86258D02*
Y112600D01*
Y86258D02*
X130709Y82049D01*
X133071Y79134D02*
X133465Y79527D01*
Y150535D01*
X130315Y87008D02*
Y112085D01*
X248310Y88554D02*
X248663Y88200D01*
X240700D02*
X241054Y88554D01*
X248310D01*
X104900Y137500D02*
X130315Y112085D01*
D47*
X101000Y44500D02*
X107500Y38000D01*
X101000Y44500D02*
Y81000D01*
X165000Y55000D02*
X178100Y41900D01*
X196000D01*
D51*
X328740Y127953D02*
D03*
Y53150D02*
D03*
X17717D02*
D03*
Y127953D02*
D03*
X328000Y175000D02*
D03*
X17000D02*
D03*
D54*
X12992Y12992D02*
D03*
D61*
X264600Y27600D02*
D03*
D62*
X304700Y88100D02*
D03*
X206000Y27000D02*
D03*
X255200Y9100D02*
D03*
X199300Y87300D02*
D03*
X204400Y131100D02*
D03*
X204300Y118900D02*
D03*
X169700Y15200D02*
D03*
X264900Y85100D02*
D03*
X306100Y12500D02*
D03*
X289500Y116500D02*
D03*
X289800Y90900D02*
D03*
X294500Y91000D02*
D03*
X107500Y38000D02*
D03*
X72000Y49000D02*
D03*
Y53000D02*
D03*
X82500Y74000D02*
D03*
X155905Y87008D02*
D03*
X88500Y81000D02*
D03*
X91000D02*
D03*
X93500D02*
D03*
X96000D02*
D03*
X98500D02*
D03*
X101000D02*
D03*
X271000Y138000D02*
D03*
X265500Y135000D02*
D03*
X180756Y134756D02*
D03*
X184500Y138000D02*
D03*
X99000Y137500D02*
D03*
X94000Y135500D02*
D03*
X225500Y44100D02*
D03*
X246200Y23900D02*
D03*
X199709Y58140D02*
D03*
X202700Y87700D02*
D03*
X294500Y116500D02*
D03*
X199300Y47100D02*
D03*
X268500Y43500D02*
D03*
X276556Y69300D02*
D03*
X290344Y69000D02*
D03*
X249969Y55131D02*
D03*
X205905Y88189D02*
D03*
X218897Y85039D02*
D03*
X221653Y83464D02*
D03*
X219685Y77559D02*
D03*
X177559Y78740D02*
D03*
X174803Y81890D02*
D03*
X173622Y76772D02*
D03*
X133071Y79134D02*
D03*
X130709Y81496D02*
D03*
X130315Y87008D02*
D03*
X86614Y74000D02*
D03*
X97638Y73622D02*
D03*
X165000Y55000D02*
D03*
M02*
