G04 Layer_Physical_Order=1*
G04 Layer_Color=255*
%FSLAX25Y25*%
%MOIN*%
G70*
G01*
G75*
%ADD10R,0.13189X0.08858*%
%ADD11R,0.03543X0.02756*%
%ADD12R,0.02756X0.03543*%
%ADD13R,0.02362X0.04724*%
%ADD14R,0.08268X0.11811*%
%ADD15C,0.03100*%
%ADD16R,0.04331X0.02559*%
%ADD17R,0.26575X0.25984*%
%ADD18R,0.03543X0.06299*%
%ADD19O,0.02362X0.08661*%
G04:AMPARAMS|DCode=20|XSize=11.81mil|YSize=70.87mil|CornerRadius=0mil|HoleSize=0mil|Usage=FLASHONLY|Rotation=315.000|XOffset=0mil|YOffset=0mil|HoleType=Round|Shape=Round|*
%AMOVALD20*
21,1,0.05905,0.01181,0.00000,0.00000,45.0*
1,1,0.01181,-0.02088,-0.02088*
1,1,0.01181,0.02088,0.02088*
%
%ADD20OVALD20*%

G04:AMPARAMS|DCode=21|XSize=11.81mil|YSize=70.87mil|CornerRadius=0mil|HoleSize=0mil|Usage=FLASHONLY|Rotation=225.000|XOffset=0mil|YOffset=0mil|HoleType=Round|Shape=Round|*
%AMOVALD21*
21,1,0.05905,0.01181,0.00000,0.00000,315.0*
1,1,0.01181,-0.02088,0.02088*
1,1,0.01181,0.02088,-0.02088*
%
%ADD21OVALD21*%

%ADD22O,0.07874X0.02756*%
%ADD23R,0.41299X0.32992*%
%ADD24R,0.04000X0.13795*%
%ADD25R,0.02362X0.05118*%
%ADD26R,0.02362X0.03150*%
%ADD27R,0.16732X0.01968*%
%ADD28R,0.07087X0.07087*%
G04:AMPARAMS|DCode=29|XSize=59.05mil|YSize=13.78mil|CornerRadius=1.38mil|HoleSize=0mil|Usage=FLASHONLY|Rotation=90.000|XOffset=0mil|YOffset=0mil|HoleType=Round|Shape=RoundedRectangle|*
%AMROUNDEDRECTD29*
21,1,0.05905,0.01102,0,0,90.0*
21,1,0.05630,0.01378,0,0,90.0*
1,1,0.00276,0.00551,0.02815*
1,1,0.00276,0.00551,-0.02815*
1,1,0.00276,-0.00551,-0.02815*
1,1,0.00276,-0.00551,0.02815*
%
%ADD29ROUNDEDRECTD29*%
%ADD30O,0.02559X0.09842*%
G04:AMPARAMS|DCode=31|XSize=98.42mil|YSize=66.93mil|CornerRadius=16.73mil|HoleSize=0mil|Usage=FLASHONLY|Rotation=0.000|XOffset=0mil|YOffset=0mil|HoleType=Round|Shape=RoundedRectangle|*
%AMROUNDEDRECTD31*
21,1,0.09842,0.03347,0,0,0.0*
21,1,0.06496,0.06693,0,0,0.0*
1,1,0.03346,0.03248,-0.01673*
1,1,0.03346,-0.03248,-0.01673*
1,1,0.03346,-0.03248,0.01673*
1,1,0.03346,0.03248,0.01673*
%
%ADD31ROUNDEDRECTD31*%
G04:AMPARAMS|DCode=32|XSize=31.5mil|YSize=31.5mil|CornerRadius=4.72mil|HoleSize=0mil|Usage=FLASHONLY|Rotation=180.000|XOffset=0mil|YOffset=0mil|HoleType=Round|Shape=RoundedRectangle|*
%AMROUNDEDRECTD32*
21,1,0.03150,0.02205,0,0,180.0*
21,1,0.02205,0.03150,0,0,180.0*
1,1,0.00945,-0.01102,0.01102*
1,1,0.00945,0.01102,0.01102*
1,1,0.00945,0.01102,-0.01102*
1,1,0.00945,-0.01102,-0.01102*
%
%ADD32ROUNDEDRECTD32*%
%ADD33R,0.05315X0.20866*%
%ADD34R,0.03740X0.06693*%
%ADD35R,0.06693X0.03740*%
%ADD36R,0.20866X0.05315*%
%ADD37R,0.03543X0.03937*%
%ADD38R,0.02559X0.04331*%
%ADD39R,0.03937X0.03543*%
%ADD40R,0.02756X0.04724*%
G04:AMPARAMS|DCode=41|XSize=70.87mil|YSize=47.24mil|CornerRadius=4.72mil|HoleSize=0mil|Usage=FLASHONLY|Rotation=180.000|XOffset=0mil|YOffset=0mil|HoleType=Round|Shape=RoundedRectangle|*
%AMROUNDEDRECTD41*
21,1,0.07087,0.03780,0,0,180.0*
21,1,0.06142,0.04724,0,0,180.0*
1,1,0.00945,-0.03071,0.01890*
1,1,0.00945,0.03071,0.01890*
1,1,0.00945,0.03071,-0.01890*
1,1,0.00945,-0.03071,-0.01890*
%
%ADD41ROUNDEDRECTD41*%
%ADD42O,0.09842X0.02559*%
%ADD43C,0.03937*%
%ADD44C,0.00591*%
%ADD45C,0.02362*%
%ADD46C,0.01181*%
%ADD47C,0.01968*%
%ADD48C,0.03937*%
%ADD49C,0.03150*%
%ADD50C,0.00787*%
%ADD51C,0.07874*%
%ADD52C,0.23622*%
%ADD53R,0.51181X0.23622*%
%ADD54R,0.23622X0.23622*%
%ADD55R,0.35433X0.21654*%
%ADD56C,0.03400*%
G04:AMPARAMS|DCode=57|XSize=55.12mil|YSize=47.24mil|CornerRadius=11.81mil|HoleSize=0mil|Usage=FLASHONLY|Rotation=90.000|XOffset=0mil|YOffset=0mil|HoleType=Round|Shape=RoundedRectangle|*
%AMROUNDEDRECTD57*
21,1,0.05512,0.02362,0,0,90.0*
21,1,0.03150,0.04724,0,0,90.0*
1,1,0.02362,0.01181,0.01575*
1,1,0.02362,0.01181,-0.01575*
1,1,0.02362,-0.01181,-0.01575*
1,1,0.02362,-0.01181,0.01575*
%
%ADD57ROUNDEDRECTD57*%
G04:AMPARAMS|DCode=58|XSize=94.49mil|YSize=76.77mil|CornerRadius=19.19mil|HoleSize=0mil|Usage=FLASHONLY|Rotation=90.000|XOffset=0mil|YOffset=0mil|HoleType=Round|Shape=RoundedRectangle|*
%AMROUNDEDRECTD58*
21,1,0.09449,0.03839,0,0,90.0*
21,1,0.05610,0.07677,0,0,90.0*
1,1,0.03839,0.01919,0.02805*
1,1,0.03839,0.01919,-0.02805*
1,1,0.03839,-0.01919,-0.02805*
1,1,0.03839,-0.01919,0.02805*
%
%ADD58ROUNDEDRECTD58*%
%ADD59C,0.05905*%
%ADD60R,0.05905X0.05905*%
G04:AMPARAMS|DCode=61|XSize=39.37mil|YSize=27.56mil|CornerRadius=6.89mil|HoleSize=0mil|Usage=FLASHONLY|Rotation=0.000|XOffset=0mil|YOffset=0mil|HoleType=Round|Shape=RoundedRectangle|*
%AMROUNDEDRECTD61*
21,1,0.03937,0.01378,0,0,0.0*
21,1,0.02559,0.02756,0,0,0.0*
1,1,0.01378,0.01279,-0.00689*
1,1,0.01378,-0.01279,-0.00689*
1,1,0.01378,-0.01279,0.00689*
1,1,0.01378,0.01279,0.00689*
%
%ADD61ROUNDEDRECTD61*%
%ADD62C,0.02362*%
G36*
X294400Y65539D02*
X295672D01*
X296124Y65726D01*
X296597Y65562D01*
Y64038D01*
X296124Y63874D01*
X295672Y64061D01*
X292128D01*
X291676Y63874D01*
X291671Y63860D01*
X291129D01*
X291124Y63874D01*
X290672Y64061D01*
X287128D01*
X286676Y63874D01*
X286489Y63422D01*
Y62808D01*
X277527D01*
X277527Y62808D01*
X277182Y62739D01*
X276889Y62543D01*
X274292Y59947D01*
X274097Y59654D01*
X274028Y59308D01*
Y58118D01*
X273654Y57869D01*
X273262Y57283D01*
X273125Y56591D01*
X273262Y55900D01*
X273347Y55773D01*
X273080Y55273D01*
X270828D01*
X270571Y55453D01*
X270381Y55670D01*
Y59365D01*
X270298Y59780D01*
X270063Y60132D01*
X269712Y60367D01*
X269297Y60449D01*
X263155D01*
X262740Y60367D01*
X262389Y60132D01*
X262154Y59780D01*
X262071Y59365D01*
Y56809D01*
X261923Y56725D01*
X261423Y57016D01*
Y60557D01*
X261500Y60744D01*
Y61497D01*
X271000D01*
X271346Y61566D01*
X271639Y61761D01*
X275899Y66021D01*
X277819D01*
Y65035D01*
X277902Y64620D01*
X278137Y64268D01*
X278488Y64033D01*
X278903Y63951D01*
X285045D01*
X285460Y64033D01*
X285811Y64268D01*
X286046Y64620D01*
X286129Y65035D01*
Y65741D01*
X286629Y65841D01*
X286676Y65726D01*
X287128Y65539D01*
X290672D01*
X291124Y65726D01*
X291129Y65740D01*
X291671D01*
X291676Y65726D01*
X292128Y65539D01*
X293400D01*
Y67556D01*
X294400D01*
Y65539D01*
D02*
G37*
G36*
X87500Y69554D02*
Y49500D01*
X86000Y48000D01*
X83000D01*
X81000Y46000D01*
Y38000D01*
X80500Y37500D01*
X77500D01*
X77000Y38000D01*
Y53000D01*
X72000Y58000D01*
X67559D01*
X64550Y61009D01*
X61008Y64551D01*
X61008Y70063D01*
X65732D01*
X70161Y65634D01*
X77838Y65634D01*
X82267Y70063D01*
X86991D01*
X87500Y69554D01*
D02*
G37*
G36*
X115992Y66449D02*
X115992Y60937D01*
X111268D01*
X106840Y65366D01*
X99162Y65366D01*
X94733Y60937D01*
X90009D01*
X90009Y66450D01*
X93550Y69991D01*
X112450Y69991D01*
X115992Y66449D01*
D02*
G37*
G36*
X52500Y176000D02*
Y128000D01*
X58000Y122500D01*
Y96500D01*
X52500Y91000D01*
X52500Y52105D01*
X24895Y24500D01*
X1879Y21057D01*
X1500Y21383D01*
Y181000D01*
X2000Y181500D01*
X47000D01*
X52500Y176000D01*
D02*
G37*
G36*
X306000Y70227D02*
X307272D01*
X307600Y70363D01*
X308100Y70137D01*
Y13596D01*
X307600Y13444D01*
X307377Y13777D01*
X306791Y14169D01*
X306100Y14306D01*
X305409Y14169D01*
X304823Y13777D01*
X304431Y13191D01*
X304294Y12500D01*
X304351Y12209D01*
X303399Y11257D01*
X302898D01*
X302483Y11175D01*
X302131Y10940D01*
X301896Y10588D01*
X301814Y10173D01*
Y7969D01*
X301896Y7554D01*
X302131Y7202D01*
X302483Y6967D01*
X302898Y6885D01*
X305102D01*
X305517Y6967D01*
X305869Y7202D01*
X306104Y7554D01*
X306186Y7969D01*
Y10173D01*
X306109Y10561D01*
X306277Y10729D01*
X306791Y10831D01*
X307377Y11223D01*
X307600Y11556D01*
X308100Y11404D01*
Y-300D01*
X187854Y-501D01*
X187500Y-148D01*
X187500Y18694D01*
X196928D01*
X200010Y15612D01*
X199802Y15112D01*
X191943D01*
X191491Y14924D01*
X191304Y14472D01*
Y2661D01*
X191491Y2209D01*
X191943Y2022D01*
X200211D01*
X200663Y2209D01*
X200850Y2661D01*
Y14064D01*
X201350Y14271D01*
X202899Y12723D01*
X203485Y12331D01*
X204176Y12194D01*
X224000D01*
X224691Y12331D01*
X225277Y12723D01*
X227277Y14723D01*
X227669Y15309D01*
X227806Y16000D01*
X227669Y16691D01*
X227584Y16818D01*
Y21362D01*
X227397Y21814D01*
X226945Y22001D01*
X225264D01*
X225060Y22501D01*
X225211Y22866D01*
Y25622D01*
X225555Y26097D01*
X227226D01*
X227335Y25597D01*
X226857Y25277D01*
X226465Y24691D01*
X226327Y24000D01*
X226465Y23309D01*
X226857Y22723D01*
X227443Y22331D01*
X228134Y22194D01*
X228266Y22220D01*
X228733Y21803D01*
X228831Y21309D01*
X229223Y20723D01*
X229809Y20331D01*
X230500Y20194D01*
X230941Y20281D01*
X233218Y18004D01*
X233511Y17809D01*
X233857Y17740D01*
X233857Y17740D01*
X234689D01*
X234972Y17240D01*
X234950Y17203D01*
X231300D01*
X230954Y17134D01*
X230661Y16939D01*
X223626Y9903D01*
X205527D01*
X205277Y10277D01*
X204691Y10669D01*
X204000Y10806D01*
X203309Y10669D01*
X202723Y10277D01*
X202331Y9691D01*
X202194Y9000D01*
X202331Y8309D01*
X202723Y7723D01*
X203309Y7331D01*
X204000Y7194D01*
X204691Y7331D01*
X205277Y7723D01*
X205527Y8097D01*
X224000D01*
X224346Y8166D01*
X224639Y8361D01*
X230530Y14253D01*
X231030Y14046D01*
Y2661D01*
X231217Y2209D01*
X231669Y2022D01*
X239937D01*
X240389Y2209D01*
X240576Y2661D01*
Y14472D01*
X240543Y14553D01*
X240691Y14831D01*
X241227Y15189D01*
X241458Y15131D01*
X241727Y14996D01*
Y14228D01*
X241914Y13776D01*
Y13643D01*
X241776Y13586D01*
X241589Y13134D01*
Y10378D01*
X241776Y9926D01*
X242228Y9739D01*
X244740D01*
X245717Y8761D01*
X245510Y8261D01*
X242228D01*
X241776Y8074D01*
X241589Y7622D01*
Y4866D01*
X241776Y4414D01*
X242118Y4273D01*
X242380Y3765D01*
X242331Y3691D01*
X242194Y3000D01*
X242331Y2309D01*
X242723Y1723D01*
X243309Y1331D01*
X244000Y1194D01*
X244691Y1331D01*
X245277Y1723D01*
X245669Y2309D01*
X245806Y3000D01*
X245669Y3691D01*
X245620Y3765D01*
X245882Y4273D01*
X246224Y4414D01*
X246411Y4866D01*
Y6010D01*
X246705Y6157D01*
X246911Y6186D01*
X247310Y5787D01*
Y3669D01*
X247497Y3217D01*
X247949Y3030D01*
X250311D01*
X250763Y3217D01*
X251237Y3217D01*
X251689Y3030D01*
X254051D01*
X254503Y3217D01*
X254690Y3669D01*
Y4341D01*
X255953D01*
X256228Y4227D01*
X259772D01*
X260224Y4414D01*
X260411Y4866D01*
Y5782D01*
X260911Y5933D01*
X261098Y5653D01*
X261928Y5098D01*
X262908Y4904D01*
X264327D01*
Y10268D01*
Y15632D01*
X262908D01*
X261928Y15437D01*
X261714Y15294D01*
X261273Y15530D01*
Y17097D01*
X262473D01*
X262723Y16723D01*
X263309Y16331D01*
X264000Y16194D01*
X264691Y16331D01*
X265277Y16723D01*
X265669Y17309D01*
X265806Y18000D01*
X265669Y18691D01*
X265277Y19277D01*
X264811Y19589D01*
X264946Y20089D01*
X265134D01*
X265586Y20276D01*
X265773Y20728D01*
Y23240D01*
X266102Y23569D01*
X266564Y23377D01*
Y22973D01*
X269551D01*
Y22472D01*
X270051D01*
Y19091D01*
X270732D01*
X271424Y19229D01*
X272010Y19620D01*
X272088Y19738D01*
X272588Y19586D01*
Y18476D01*
X272645Y18192D01*
X272678Y18143D01*
Y17118D01*
X272678Y17118D01*
X272769Y16657D01*
X273030Y16267D01*
X274149Y15148D01*
X274149Y15148D01*
X274445Y14950D01*
X274374Y14479D01*
X274362Y14450D01*
X270732D01*
X270280Y14263D01*
X270093Y13811D01*
Y10768D01*
X274275D01*
X278458D01*
Y13811D01*
X278271Y14263D01*
X278192Y14296D01*
X278291Y14796D01*
X279709D01*
X279808Y14296D01*
X279729Y14263D01*
X279542Y13811D01*
Y10768D01*
X287907D01*
Y13811D01*
X287720Y14263D01*
X287611Y14308D01*
X287662Y14828D01*
X287961Y14887D01*
X288351Y15148D01*
X289499Y16296D01*
X301974D01*
X302131Y16060D01*
X302483Y15825D01*
X302898Y15743D01*
X305102D01*
X305517Y15825D01*
X305869Y16060D01*
X306104Y16412D01*
X306186Y16827D01*
Y19031D01*
X306104Y19446D01*
X305869Y19798D01*
X305517Y20033D01*
X305102Y20115D01*
X302898D01*
X302483Y20033D01*
X302131Y19798D01*
X301896Y19446D01*
X301814Y19031D01*
Y18704D01*
X290247D01*
X290198Y19204D01*
X290321Y19229D01*
X290907Y19620D01*
X291299Y20206D01*
X291436Y20898D01*
Y21972D01*
X288449D01*
Y22973D01*
X291436D01*
Y24047D01*
X291304Y24712D01*
X291326Y24743D01*
X291774Y24949D01*
X294617Y22106D01*
X294910Y21910D01*
X295256Y21841D01*
X301589D01*
Y21366D01*
X301776Y20914D01*
X302228Y20727D01*
X305772D01*
X306224Y20914D01*
X306411Y21366D01*
Y24122D01*
X306224Y24574D01*
X305772Y24761D01*
X302228D01*
X301776Y24574D01*
X301589Y24122D01*
Y23647D01*
X295630D01*
X293109Y26168D01*
X293317Y26668D01*
X295181D01*
X295633Y26855D01*
X295820Y27307D01*
Y27353D01*
X301589D01*
Y26878D01*
X301776Y26426D01*
X302228Y26239D01*
X305772D01*
X306224Y26426D01*
X306411Y26878D01*
Y29634D01*
X306224Y30086D01*
X305772Y30273D01*
X302228D01*
X301776Y30086D01*
X301589Y29634D01*
Y29159D01*
X295984D01*
X295820Y29323D01*
Y32425D01*
X295633Y32877D01*
X295181Y33064D01*
X292819D01*
X292367Y32877D01*
X292180Y32425D01*
Y27805D01*
X291680Y27598D01*
X289363Y29914D01*
X289070Y30110D01*
X288724Y30179D01*
X285159D01*
Y31441D01*
X284972Y31893D01*
X284520Y32080D01*
X284143D01*
Y32633D01*
X284277Y32723D01*
X284669Y33309D01*
X284806Y34000D01*
X284669Y34691D01*
X284277Y35277D01*
X284143Y35367D01*
Y35920D01*
X284520D01*
X284972Y36107D01*
X285159Y36559D01*
Y40825D01*
X285330Y40957D01*
X285621Y41070D01*
X288439Y38251D01*
Y35575D01*
X288627Y35123D01*
X289079Y34936D01*
X291441D01*
X291893Y35123D01*
X292080Y35575D01*
Y40693D01*
X291893Y41145D01*
X291441Y41332D01*
X289079D01*
X288857Y41240D01*
X286548Y43549D01*
X286613Y43645D01*
X286704Y44106D01*
Y45630D01*
X287043Y45857D01*
X287516Y46565D01*
X287683Y47400D01*
X287516Y48235D01*
X287043Y48943D01*
X286335Y49416D01*
X285500Y49582D01*
X284665Y49416D01*
X283957Y48943D01*
X283484Y48235D01*
X283317Y47400D01*
X283484Y46565D01*
X283957Y45857D01*
X284296Y45630D01*
Y44704D01*
X273382D01*
X273224Y45086D01*
X272883Y45227D01*
X272983Y45727D01*
X274272D01*
X274724Y45914D01*
X274911Y46366D01*
Y47244D01*
X272500D01*
Y47744D01*
X272000D01*
Y49761D01*
X271469D01*
X271059Y50261D01*
X271106Y50500D01*
X271059Y50739D01*
X271469Y51239D01*
X274272D01*
X274724Y51426D01*
X274850Y51731D01*
X275067Y51819D01*
X275287Y51869D01*
X275406Y51867D01*
X275909Y51531D01*
X276600Y51394D01*
X277291Y51531D01*
X277877Y51923D01*
X278269Y52509D01*
X278406Y53200D01*
X278269Y53891D01*
X278430Y54551D01*
X278487Y54584D01*
X278503Y54582D01*
X278903Y54502D01*
X281474D01*
Y57476D01*
X281974D01*
Y57976D01*
X286129D01*
Y58415D01*
X286629Y58797D01*
X286631Y58797D01*
X295958D01*
X296304Y58866D01*
X296597Y59061D01*
X298139Y60603D01*
X298334Y60896D01*
X298403Y61242D01*
X298403Y61242D01*
Y70010D01*
X298728Y70227D01*
X300000D01*
Y72244D01*
X301000D01*
Y70227D01*
X302272D01*
X302724Y70414D01*
X302729Y70428D01*
X303271D01*
X303276Y70414D01*
X303728Y70227D01*
X305000D01*
Y72244D01*
X306000D01*
Y70227D01*
D02*
G37*
G36*
X298089Y89134D02*
Y86378D01*
X298276Y85926D01*
X298728Y85739D01*
X302272D01*
X302724Y85926D01*
X302911Y86378D01*
Y86689D01*
X303411Y86840D01*
X303423Y86823D01*
X304009Y86431D01*
X304700Y86294D01*
X305391Y86431D01*
X305498Y86502D01*
X308100Y83900D01*
Y79863D01*
X307600Y79637D01*
X307272Y79773D01*
X303728D01*
X303276Y79586D01*
X303271Y79572D01*
X302729D01*
X302724Y79586D01*
X302327Y79750D01*
X302298Y80000D01*
X302327Y80250D01*
X302724Y80414D01*
X302911Y80866D01*
Y83622D01*
X302724Y84074D01*
X302272Y84261D01*
X298728D01*
X298276Y84074D01*
X298089Y83622D01*
Y80866D01*
X298276Y80414D01*
X298673Y80250D01*
X298702Y80000D01*
X298673Y79750D01*
X298276Y79586D01*
X298089Y79134D01*
Y76622D01*
X296861Y75395D01*
X296666Y75102D01*
X296597Y74756D01*
Y74354D01*
X296097Y74127D01*
X295772Y74261D01*
X292228D01*
X291776Y74074D01*
X291771Y74060D01*
X291229D01*
X291224Y74074D01*
X290772Y74261D01*
X289500D01*
Y72244D01*
X288500D01*
Y74261D01*
X287228D01*
X286776Y74074D01*
X286771Y74060D01*
X286229D01*
X286224Y74074D01*
X285772Y74261D01*
X284500D01*
Y72244D01*
X284000D01*
Y71744D01*
X281589D01*
Y70866D01*
X281776Y70414D01*
X281815Y70398D01*
X281716Y69898D01*
X279784D01*
X279685Y70398D01*
X279724Y70414D01*
X279911Y70866D01*
Y73622D01*
X279724Y74074D01*
X279272Y74261D01*
X275728D01*
X275276Y74074D01*
X275271Y74060D01*
X274729D01*
X274724Y74074D01*
X274272Y74261D01*
X273000D01*
Y72244D01*
Y70227D01*
X274272D01*
X274509Y70325D01*
X274742Y70119D01*
X274876Y69936D01*
X274749Y69300D01*
X274887Y68609D01*
X275122Y68257D01*
X275132Y68168D01*
X275016Y67671D01*
X274986Y67630D01*
X274886Y67563D01*
X270626Y63303D01*
X261500D01*
Y63500D01*
X261313Y63952D01*
X260861Y64139D01*
X257317D01*
X256866Y63952D01*
X256678Y63500D01*
Y61831D01*
X256271Y61564D01*
X255785Y61733D01*
X255641Y62008D01*
X255603Y62195D01*
X255342Y62586D01*
X254952Y62847D01*
X254765Y62884D01*
X254699Y62919D01*
X254638Y62963D01*
X254401Y63344D01*
X254383Y63427D01*
X254403Y63528D01*
X254403Y63528D01*
Y65473D01*
X254777Y65723D01*
X255169Y66309D01*
X255306Y67000D01*
X255169Y67691D01*
X254777Y68277D01*
X254328Y68577D01*
X254480Y69077D01*
X256635D01*
X256678Y69012D01*
Y68134D01*
X259089D01*
X261500D01*
Y68722D01*
X261571Y68748D01*
X262071Y68396D01*
Y67424D01*
X266226D01*
X270381D01*
Y68814D01*
X270298Y69229D01*
X270063Y69581D01*
X269979Y69637D01*
X269888Y70228D01*
X270276Y70414D01*
X270728Y70227D01*
X272000D01*
Y72244D01*
Y74261D01*
X270728D01*
X270276Y74074D01*
X270271Y74060D01*
X269729D01*
X269724Y74074D01*
X269272Y74261D01*
X268000D01*
Y72244D01*
X267000D01*
Y74261D01*
X266398D01*
X266191Y74761D01*
X267168Y75739D01*
X269272D01*
X269724Y75926D01*
X269729Y75940D01*
X270271D01*
X270276Y75926D01*
X270728Y75739D01*
X274272D01*
X274724Y75926D01*
X274729Y75940D01*
X275271D01*
X275276Y75926D01*
X275728Y75739D01*
X279272D01*
X279724Y75926D01*
X279911Y76378D01*
Y79134D01*
X279724Y79586D01*
X279327Y79750D01*
X279298Y80000D01*
X279327Y80250D01*
X279724Y80414D01*
X279911Y80866D01*
Y83622D01*
X279724Y84074D01*
X279272Y84261D01*
X275728D01*
X275276Y84074D01*
X275089Y83622D01*
Y80866D01*
X275276Y80414D01*
X275673Y80250D01*
X275702Y80000D01*
X275673Y79750D01*
X275276Y79586D01*
X275271Y79572D01*
X274729D01*
X274724Y79586D01*
X274272Y79773D01*
X273403D01*
Y80473D01*
X273777Y80723D01*
X274169Y81309D01*
X274306Y82000D01*
X274169Y82691D01*
X273777Y83277D01*
X273191Y83669D01*
X272500Y83806D01*
X271809Y83669D01*
X271223Y83277D01*
X270831Y82691D01*
X270694Y82000D01*
X270831Y81309D01*
X271223Y80723D01*
X271597Y80473D01*
Y79773D01*
X270728D01*
X270276Y79586D01*
X270271Y79572D01*
X269729D01*
X269724Y79586D01*
X269272Y79773D01*
X269004D01*
X268869Y80041D01*
X268811Y80273D01*
X269169Y80809D01*
X269306Y81500D01*
X269169Y82191D01*
X268777Y82777D01*
X268191Y83169D01*
X267500Y83306D01*
X266809Y83169D01*
X266223Y82777D01*
X265831Y82191D01*
X265804Y82056D01*
X265304Y82105D01*
Y83374D01*
X265591Y83431D01*
X266177Y83823D01*
X266569Y84409D01*
X266706Y85100D01*
X266569Y85791D01*
X266194Y86353D01*
X266222Y86491D01*
X266366Y86853D01*
X275089D01*
Y86378D01*
X275276Y85926D01*
X275728Y85739D01*
X279272D01*
X279724Y85926D01*
X279911Y86378D01*
Y89134D01*
X280089Y89400D01*
X286369D01*
X286561Y88938D01*
X283361Y85739D01*
X283166Y85446D01*
X283097Y85100D01*
Y79773D01*
X282228D01*
X281776Y79586D01*
X281589Y79134D01*
Y76378D01*
X281776Y75926D01*
X282228Y75739D01*
X285772D01*
X286224Y75926D01*
X286229Y75940D01*
X286771D01*
X286776Y75926D01*
X287228Y75739D01*
X290772D01*
X291224Y75926D01*
X291229Y75940D01*
X291771D01*
X291776Y75926D01*
X292228Y75739D01*
X295772D01*
X296224Y75926D01*
X296411Y76378D01*
Y79134D01*
X296224Y79586D01*
X295827Y79750D01*
X295798Y80000D01*
X295827Y80250D01*
X296224Y80414D01*
X296411Y80866D01*
Y83622D01*
X296224Y84074D01*
X295772Y84261D01*
X292228D01*
X291776Y84074D01*
X291589Y83622D01*
Y80866D01*
X291776Y80414D01*
X292173Y80250D01*
X292202Y80000D01*
X292173Y79750D01*
X291776Y79586D01*
X291771Y79572D01*
X291229D01*
X291224Y79586D01*
X290772Y79773D01*
X290504D01*
X290369Y80041D01*
X290311Y80273D01*
X290669Y80809D01*
X290806Y81500D01*
X290669Y82191D01*
X290277Y82777D01*
X289691Y83169D01*
X289000Y83306D01*
X288309Y83169D01*
X287723Y82777D01*
X287331Y82191D01*
X287194Y81500D01*
X287331Y80809D01*
X287689Y80273D01*
X287631Y80041D01*
X287496Y79773D01*
X287228D01*
X286776Y79586D01*
X286771Y79572D01*
X286229D01*
X286224Y79586D01*
X285772Y79773D01*
X284903D01*
Y84726D01*
X289359Y89181D01*
X289800Y89094D01*
X290491Y89231D01*
X290744Y89400D01*
X291411D01*
X291589Y89134D01*
Y86378D01*
X291776Y85926D01*
X292228Y85739D01*
X295772D01*
X296224Y85926D01*
X296411Y86378D01*
Y89134D01*
X296589Y89400D01*
X297911D01*
X298089Y89134D01*
D02*
G37*
G36*
X257689D02*
Y86642D01*
X257189Y86403D01*
X256791Y86669D01*
X256100Y86806D01*
X255409Y86669D01*
X254823Y86277D01*
X254431Y85691D01*
X254294Y85000D01*
X254431Y84309D01*
X254720Y83877D01*
X254723Y83277D01*
X254331Y82691D01*
X254194Y82000D01*
X254331Y81309D01*
X254723Y80723D01*
X255097Y80473D01*
Y79773D01*
X253328D01*
X252876Y79586D01*
X252871Y79572D01*
X252329D01*
X252324Y79586D01*
X251903Y79760D01*
Y82522D01*
X251903Y82522D01*
X251834Y82868D01*
X251639Y83161D01*
X249050Y85750D01*
X249137Y86191D01*
X249000Y86883D01*
X248608Y87469D01*
X248022Y87860D01*
X247331Y87998D01*
X246640Y87860D01*
X246054Y87469D01*
X245662Y86883D01*
X245525Y86191D01*
X245662Y85500D01*
X246054Y84914D01*
X246640Y84522D01*
X247331Y84385D01*
X247772Y84473D01*
X250097Y82148D01*
Y79773D01*
X248328D01*
X247876Y79586D01*
X247689Y79134D01*
Y76378D01*
X247876Y75926D01*
X247879Y75912D01*
X246561Y74595D01*
X246366Y74301D01*
X246297Y73956D01*
Y69416D01*
X246127Y69246D01*
X241342D01*
X240997Y69177D01*
X240704Y68981D01*
X236786Y65063D01*
X236590Y64770D01*
X236522Y64425D01*
Y64332D01*
X236060Y64141D01*
X235495Y64706D01*
X235202Y64901D01*
X234856Y64970D01*
X232210D01*
X231943Y65470D01*
X232169Y65809D01*
X232306Y66500D01*
X232169Y67191D01*
X231777Y67777D01*
X231375Y68046D01*
X231527Y68546D01*
X234154D01*
X234883Y68691D01*
X235502Y69104D01*
X235915Y69723D01*
X236060Y70453D01*
X235915Y71182D01*
X235502Y71801D01*
X234883Y72214D01*
X234154Y72360D01*
X226870D01*
X226140Y72214D01*
X225522Y71801D01*
X225442Y71682D01*
X224841D01*
X224777Y71777D01*
X224191Y72169D01*
X223659Y72275D01*
X223443Y72766D01*
X224947Y74269D01*
X225444Y74221D01*
X225522Y74104D01*
X226140Y73691D01*
X226870Y73546D01*
X234154D01*
X234883Y73691D01*
X235502Y74104D01*
X235915Y74723D01*
X236060Y75453D01*
X235915Y76182D01*
X235502Y76801D01*
X234883Y77214D01*
X234154Y77359D01*
X227467D01*
X227259Y77859D01*
X227946Y78546D01*
X234154D01*
X234883Y78691D01*
X235502Y79105D01*
X235915Y79723D01*
X236060Y80453D01*
X235915Y81182D01*
X235502Y81801D01*
X234883Y82214D01*
X234154Y82359D01*
X232413D01*
X232221Y82821D01*
X232946Y83546D01*
X234154D01*
X234883Y83691D01*
X235502Y84105D01*
X235915Y84723D01*
X236060Y85453D01*
X235915Y86182D01*
X235782Y86382D01*
X238800Y89400D01*
X257511D01*
X257689Y89134D01*
D02*
G37*
G36*
X107480Y79134D02*
X109058Y77557D01*
X109041Y72427D01*
X107614Y71000D01*
X88000Y71000D01*
X86500Y72500D01*
Y76000D01*
X87798Y77298D01*
X101437D01*
X101889Y77485D01*
X101904Y77500D01*
X103000D01*
X104634Y79134D01*
X107480Y79134D01*
D02*
G37*
G36*
X106000Y86000D02*
Y82500D01*
X101437Y77937D01*
X82269D01*
X77839Y82366D01*
X70162Y82366D01*
X65733Y77937D01*
X61009D01*
X61009Y83450D01*
X64550Y86991D01*
X82447Y86991D01*
D01*
X105009D01*
X106000Y86000D01*
D02*
G37*
G36*
X76000Y52500D02*
Y44500D01*
Y38000D01*
X77000Y37000D01*
X77164D01*
X77500Y36861D01*
X80500D01*
X80836Y37000D01*
X81792D01*
Y36400D01*
X81960Y35555D01*
X82439Y34839D01*
X89500Y27778D01*
Y18500D01*
X95000Y13000D01*
X111500D01*
X114000Y10500D01*
Y3000D01*
X113500Y2500D01*
X59000D01*
X56500Y5000D01*
Y45000D01*
X57500Y46000D01*
X60500D01*
X61500Y45000D01*
Y38000D01*
X61589Y37911D01*
Y37850D01*
X61776Y37398D01*
X62228Y37211D01*
X62289D01*
X62500Y37000D01*
X72000D01*
Y44500D01*
X68000Y48500D01*
X63000D01*
X61500Y50000D01*
Y54500D01*
X63500Y56500D01*
X72000D01*
X76000Y52500D01*
D02*
G37*
G36*
X115991Y47550D02*
X112450Y44009D01*
X93550Y44009D01*
X90008Y47551D01*
X90008Y53063D01*
X94731D01*
X99160Y48634D01*
X106838Y48634D01*
X111267Y53063D01*
X115991D01*
X115991Y47550D01*
D02*
G37*
G36*
X242923Y56323D02*
X243509Y55931D01*
X244200Y55794D01*
X244891Y55931D01*
X245320Y56217D01*
X245679Y56211D01*
X245917Y56081D01*
X246223Y55623D01*
X246809Y55231D01*
X247500Y55094D01*
X248084Y55210D01*
X248163Y55131D01*
X248300Y54440D01*
X248692Y53854D01*
X249278Y53462D01*
X249548Y53408D01*
X249579Y53387D01*
X250040Y53296D01*
X250501Y53387D01*
X250593Y53449D01*
X250660Y53462D01*
X251246Y53854D01*
X251494Y54225D01*
X251694Y54261D01*
X252098Y54147D01*
X252247Y53923D01*
X252193Y53358D01*
X251923Y53177D01*
X251531Y52591D01*
X251394Y51900D01*
X251531Y51209D01*
X251923Y50623D01*
X252509Y50231D01*
X253200Y50094D01*
X253891Y50231D01*
X254477Y50623D01*
X254630Y50852D01*
X255013Y51126D01*
X255271Y50979D01*
X255422Y50878D01*
X255609Y50841D01*
X255947Y50664D01*
X256125Y50325D01*
X256162Y50138D01*
X256423Y49747D01*
X256814Y49486D01*
X257001Y49449D01*
X257462Y49207D01*
X257554Y48746D01*
X257815Y48355D01*
X258206Y48094D01*
X258393Y48057D01*
X258854Y47815D01*
X258946Y47354D01*
X259207Y46964D01*
X259598Y46702D01*
X259785Y46665D01*
X260246Y46423D01*
X260338Y45962D01*
X260599Y45572D01*
X260990Y45311D01*
X261177Y45273D01*
X261638Y45031D01*
X261730Y44570D01*
X261991Y44180D01*
X262382Y43919D01*
X262842Y43827D01*
X263303Y43919D01*
X263694Y44180D01*
X264930Y45416D01*
X266719Y43627D01*
X266694Y43500D01*
X266719Y43373D01*
X264930Y41584D01*
X263694Y42820D01*
X263303Y43081D01*
X262842Y43173D01*
X262382Y43081D01*
X261991Y42820D01*
X261730Y42430D01*
X261638Y41969D01*
X261177Y41727D01*
X261036Y41699D01*
X263892Y38843D01*
X263185Y38135D01*
X260329Y40992D01*
X260314Y40914D01*
X259771Y40750D01*
X259000Y41521D01*
X259037Y42062D01*
X259277Y42223D01*
X259669Y42809D01*
X259806Y43500D01*
X259669Y44191D01*
X259277Y44777D01*
X258691Y45169D01*
X258000Y45306D01*
X257309Y45169D01*
X256723Y44777D01*
X256331Y44191D01*
X256194Y43500D01*
X256331Y42809D01*
X256456Y42622D01*
X256068Y42303D01*
X253651Y44719D01*
Y46675D01*
X253651Y46675D01*
X253583Y47021D01*
X253387Y47314D01*
X253387Y47314D01*
X247458Y53242D01*
X247369Y53691D01*
X246977Y54277D01*
X246391Y54669D01*
X245700Y54806D01*
X245009Y54669D01*
X244423Y54277D01*
X244031Y53691D01*
X243894Y53000D01*
X244031Y52309D01*
X244423Y51723D01*
Y51647D01*
X244212Y51262D01*
X243973Y50903D01*
X237412D01*
X237145Y51403D01*
X237230Y51530D01*
X237267Y51717D01*
X237445Y52055D01*
X237783Y52233D01*
X237970Y52270D01*
X238361Y52531D01*
X238622Y52922D01*
X238713Y53383D01*
X239175Y53625D01*
X239362Y53662D01*
X239753Y53923D01*
X240014Y54314D01*
X240051Y54501D01*
X240228Y54839D01*
X240567Y55017D01*
X240754Y55054D01*
X241145Y55315D01*
X241406Y55706D01*
X241443Y55893D01*
X241620Y56231D01*
X241959Y56409D01*
X242146Y56446D01*
X242536Y56707D01*
X242666D01*
X242923Y56323D01*
D02*
G37*
G36*
X249460Y48686D02*
X249349Y48214D01*
X249285Y48153D01*
X248723Y47777D01*
X248331Y47191D01*
X248194Y46500D01*
X248331Y45809D01*
X248511Y45540D01*
X248390Y44889D01*
X248223Y44777D01*
X247884Y44271D01*
X247343Y44105D01*
X247309Y44139D01*
X247016Y44334D01*
X246670Y44403D01*
X231011D01*
X230639Y44872D01*
X230715Y45217D01*
X230823Y45273D01*
X230964Y45301D01*
X228108Y48158D01*
X228815Y48865D01*
X231671Y46008D01*
X231754Y46423D01*
X232215Y46665D01*
X232402Y46702D01*
X232793Y46964D01*
X233054Y47354D01*
X233146Y47815D01*
X233607Y48057D01*
X233794Y48094D01*
X234185Y48355D01*
X234446Y48746D01*
X234476Y48900D01*
X234975Y49164D01*
X234999Y49161D01*
X235324Y49097D01*
X235324Y49097D01*
X243973D01*
X244223Y48723D01*
X244809Y48331D01*
X245500Y48194D01*
X246191Y48331D01*
X246777Y48723D01*
X247169Y49309D01*
X247306Y50000D01*
X247273Y50165D01*
X247734Y50411D01*
X249460Y48686D01*
D02*
G37*
G36*
X245780Y39772D02*
X245615Y39230D01*
X245309Y39169D01*
X244723Y38777D01*
X244331Y38191D01*
X244194Y37500D01*
X244331Y36809D01*
X244723Y36223D01*
X245309Y35831D01*
X246000Y35694D01*
X246350Y35763D01*
X246926Y35432D01*
X246960Y35261D01*
X247042Y35139D01*
X246885Y34762D01*
X246771Y34644D01*
X246223Y34277D01*
X245831Y33691D01*
X245694Y33000D01*
X245746Y32739D01*
X245285Y32493D01*
X242219Y35559D01*
X242306Y36000D01*
X242169Y36691D01*
X241777Y37277D01*
X241191Y37669D01*
X240500Y37806D01*
X239809Y37669D01*
X239223Y37277D01*
X238831Y36691D01*
X238694Y36000D01*
X238831Y35309D01*
X239223Y34723D01*
X239809Y34331D01*
X240500Y34194D01*
X240941Y34281D01*
X244928Y30294D01*
X245221Y30099D01*
X245567Y30030D01*
X248399D01*
X248724Y29644D01*
X248586Y29186D01*
X248462Y29162D01*
X248072Y28901D01*
X247811Y28510D01*
X247719Y28049D01*
X247257Y27807D01*
X247070Y27770D01*
X246680Y27509D01*
X246419Y27118D01*
X246327Y26658D01*
X246416Y26211D01*
X246146Y25780D01*
X245886Y25753D01*
X245581Y26197D01*
X245673Y26658D01*
X245581Y27118D01*
X245320Y27509D01*
X244930Y27770D01*
X244469Y27862D01*
X244227Y28323D01*
X244199Y28464D01*
X241343Y25608D01*
X240635Y26315D01*
X243492Y29171D01*
X243351Y29199D01*
X242889Y29441D01*
X242798Y29902D01*
X242536Y30293D01*
X242146Y30554D01*
X241959Y30591D01*
X241497Y30833D01*
X241406Y31294D01*
X241145Y31685D01*
X240754Y31946D01*
X240567Y31983D01*
X240105Y32225D01*
X240014Y32686D01*
X239753Y33077D01*
X239362Y33338D01*
X239175Y33375D01*
X238713Y33617D01*
X238622Y34078D01*
X238361Y34469D01*
X237970Y34730D01*
X237783Y34767D01*
X237321Y35009D01*
X237230Y35470D01*
X236969Y35861D01*
X236578Y36122D01*
X236391Y36159D01*
X235929Y36401D01*
X235838Y36862D01*
X235577Y37253D01*
X235186Y37514D01*
X234999Y37551D01*
X234538Y37793D01*
X234446Y38254D01*
X234185Y38645D01*
X233794Y38906D01*
X233607Y38943D01*
X233146Y39185D01*
X233054Y39646D01*
X232995Y39735D01*
X233262Y40235D01*
X245318D01*
X245780Y39772D01*
D02*
G37*
G36*
X193089Y41505D02*
Y39366D01*
X193276Y38914D01*
X193652Y38758D01*
X193541Y38490D01*
Y34159D01*
X193728Y33707D01*
X193666Y33192D01*
X193331Y32691D01*
X193194Y32000D01*
X193331Y31309D01*
X193723Y30723D01*
X194309Y30331D01*
X194501Y30293D01*
X194551Y30255D01*
X194732Y29737D01*
X194684Y29680D01*
X194180D01*
X193728Y29493D01*
X193541Y29041D01*
Y24710D01*
X193728Y24258D01*
X194180Y24071D01*
X196739D01*
X196966Y24165D01*
X197330Y24232D01*
X197694Y24165D01*
X197921Y24071D01*
X197993D01*
Y22696D01*
X197603Y22306D01*
X187500D01*
Y24089D01*
X187595Y24213D01*
X187952Y25075D01*
X188074Y26000D01*
X187952Y26925D01*
X187595Y27787D01*
X187500Y27911D01*
Y32428D01*
X187905Y32595D01*
X188092Y33047D01*
Y37215D01*
X192589Y41712D01*
X193089Y41505D01*
D02*
G37*
G36*
X203437Y61022D02*
X203245Y60561D01*
X200532D01*
X200079Y60373D01*
X199892Y59921D01*
X199881Y59912D01*
X199709Y59947D01*
X199018Y59809D01*
X198854Y59699D01*
X198242Y59872D01*
X197790Y60059D01*
X193459D01*
X193007Y59872D01*
X192820Y59420D01*
Y56861D01*
X193007Y56409D01*
X193459Y56221D01*
X197790D01*
X198242Y56409D01*
X198854Y56581D01*
X199018Y56471D01*
X199709Y56334D01*
X199796Y56351D01*
X199886Y56261D01*
X199886Y56261D01*
X199962Y56210D01*
X200079Y55926D01*
X200532Y55739D01*
X204468D01*
X204921Y55926D01*
X205108Y56378D01*
Y58698D01*
X205570Y58889D01*
X206068Y58391D01*
Y53936D01*
X206136Y53590D01*
X206332Y53297D01*
X213077Y46552D01*
Y45491D01*
X213039Y45301D01*
Y41811D01*
X213108Y41465D01*
X213304Y41172D01*
X214163Y40314D01*
X214476Y39974D01*
X214289Y39522D01*
Y39047D01*
X213749D01*
X213138Y39658D01*
X212845Y39854D01*
X212499Y39923D01*
X211354D01*
X207572Y43706D01*
X207279Y43901D01*
X206933Y43970D01*
X205421D01*
X205242Y44470D01*
X205411Y44878D01*
Y47634D01*
X205224Y48086D01*
X204772Y48273D01*
X201228D01*
X201208Y48265D01*
X201192Y48258D01*
X200754Y48112D01*
X200754Y48112D01*
X200577Y48377D01*
X200480Y48443D01*
X200480Y48443D01*
X200425Y48479D01*
X199991Y48769D01*
X199300Y48906D01*
X198727Y48792D01*
X198442Y49038D01*
X198349Y49188D01*
X198429Y49380D01*
Y51939D01*
X198242Y52391D01*
X197790Y52579D01*
X193459D01*
X193007Y52391D01*
X192820Y51939D01*
Y49380D01*
X193007Y48928D01*
X193459Y48741D01*
X193651D01*
X193728Y48273D01*
X193276Y48086D01*
X193089Y47634D01*
Y44878D01*
X193228Y44543D01*
X193003Y44072D01*
X192615Y44004D01*
X192160Y44350D01*
Y45200D01*
X189750D01*
Y45700D01*
X189250D01*
Y48308D01*
X188601D01*
X188502Y48808D01*
X188793Y48928D01*
X188980Y49380D01*
Y51939D01*
X188886Y52166D01*
X188819Y52530D01*
X188886Y52894D01*
X188980Y53120D01*
Y53900D01*
X186176D01*
Y54900D01*
X188980D01*
Y55680D01*
X188886Y55906D01*
X188819Y56270D01*
X188886Y56634D01*
X188980Y56861D01*
Y59420D01*
X188793Y59872D01*
X188712Y59905D01*
X188595Y60495D01*
X189654Y61554D01*
X202906D01*
X203437Y61022D01*
D02*
G37*
G36*
X97376Y41246D02*
Y38400D01*
X99885D01*
X102394D01*
Y40599D01*
X102894Y40806D01*
X103300Y40400D01*
Y34500D01*
X100500Y31700D01*
X95903D01*
X95486Y32168D01*
Y32771D01*
X93300D01*
Y33271D01*
X92800D01*
Y35457D01*
X92198D01*
X92000Y35418D01*
X91500Y35741D01*
Y36500D01*
X96400Y41400D01*
X97273D01*
X97376Y41246D01*
D02*
G37*
G36*
X206000Y25194D02*
X206103Y25214D01*
X206489Y24897D01*
Y22866D01*
X206640Y22501D01*
X206579Y22351D01*
Y19000D01*
X206079D01*
Y18500D01*
X204258D01*
Y17179D01*
X203758Y16972D01*
X199717Y21014D01*
X200048Y21345D01*
X200309Y21736D01*
X200401Y22197D01*
X200401Y22197D01*
Y24071D01*
X200480D01*
X200706Y24165D01*
X201070Y24232D01*
X201434Y24165D01*
X201661Y24071D01*
X204220D01*
X204672Y24258D01*
X204859Y24710D01*
Y25101D01*
X205220Y25294D01*
X205359Y25321D01*
X206000Y25194D01*
D02*
G37*
G36*
X138500Y148500D02*
X97500D01*
X91500Y154500D01*
Y157500D01*
X89000Y160000D01*
X73000D01*
X70500Y157500D01*
Y142500D01*
X68000Y140000D01*
X62000D01*
X59000Y143000D01*
Y181500D01*
X59500Y182000D01*
X138500D01*
Y148500D01*
D02*
G37*
G36*
X363500Y181500D02*
X363500Y22859D01*
X363141Y22511D01*
X312500Y24000D01*
X312500Y86500D01*
X308000Y91000D01*
X296306D01*
X296306Y91000D01*
X296169Y91691D01*
X295777Y92277D01*
X295191Y92669D01*
X294500Y92806D01*
X293809Y92669D01*
X293223Y92277D01*
X292831Y91691D01*
X292694Y91000D01*
X292694Y91000D01*
X291586D01*
X291469Y91591D01*
X291077Y92177D01*
X290491Y92569D01*
X289800Y92706D01*
X289109Y92569D01*
X288523Y92177D01*
X288131Y91591D01*
X288014Y91000D01*
X281400D01*
X278500Y93900D01*
X278500Y114000D01*
X279500Y115000D01*
X288556D01*
X288809Y114831D01*
X289500Y114694D01*
X290191Y114831D01*
X290444Y115000D01*
X293556D01*
X293649Y114938D01*
X293666Y114854D01*
X293861Y114561D01*
X295553Y112869D01*
Y110349D01*
X295622Y110003D01*
X295818Y109710D01*
X296521Y109007D01*
X296814Y108812D01*
X297159Y108743D01*
X302559D01*
X302905Y108812D01*
X303198Y109007D01*
X304182Y109991D01*
X304245Y110085D01*
X310595D01*
X311047Y110272D01*
X311234Y110724D01*
Y113334D01*
X312500Y114600D01*
X312500Y176500D01*
X318000Y182000D01*
X363000D01*
X363500Y181500D01*
D02*
G37*
G36*
X271500Y115000D02*
X276500D01*
X277500Y114000D01*
Y94000D01*
X276500Y93000D01*
X267500D01*
X266000Y94500D01*
Y119847D01*
X266462Y120038D01*
X271500Y115000D01*
D02*
G37*
G36*
X311000Y126500D02*
Y115000D01*
X310000Y114000D01*
X298000D01*
X296500Y115500D01*
Y132000D01*
X298000Y133500D01*
X304000D01*
X311000Y126500D01*
D02*
G37*
G36*
X223600D02*
X223600Y111002D01*
X223228Y110630D01*
X213970D01*
X209100Y115500D01*
Y132000D01*
X210600Y133500D01*
X216600D01*
X223600Y126500D01*
D02*
G37*
G36*
X137500D02*
X137500Y111122D01*
X137008Y110630D01*
X127870D01*
X123000Y115500D01*
Y132000D01*
X124500Y133500D01*
X130500D01*
X137500Y126500D01*
D02*
G37*
G36*
X185500Y115000D02*
X190500D01*
X191500Y114000D01*
Y94000D01*
X190500Y93000D01*
X181500D01*
X180000Y94500D01*
Y119847D01*
X180462Y120038D01*
X185500Y115000D01*
D02*
G37*
G36*
X310500Y148500D02*
X269500D01*
X263500Y154500D01*
Y157500D01*
X261000Y160000D01*
X245000D01*
X242500Y157500D01*
Y142500D01*
X240000Y140000D01*
X234000D01*
X231000Y143000D01*
Y181500D01*
X231500Y182000D01*
X310500D01*
Y148500D01*
D02*
G37*
G36*
X209366Y113634D02*
Y110724D01*
X209554Y110272D01*
X210005Y110085D01*
X212915D01*
X223380Y99620D01*
Y92294D01*
X223449Y91948D01*
X223500Y91872D01*
Y91500D01*
X222500Y90500D01*
X194000Y90500D01*
X192500Y92000D01*
X192500Y114000D01*
X193500Y115000D01*
X208000D01*
X209366Y113634D01*
D02*
G37*
G36*
X123266Y113734D02*
Y110724D01*
X123453Y110272D01*
X123906Y110085D01*
X126915D01*
X137380Y99620D01*
Y91380D01*
X136500Y90500D01*
X108000Y90500D01*
X106500Y92000D01*
X106500Y114000D01*
X107500Y115000D01*
X122000D01*
X123266Y113734D01*
D02*
G37*
G36*
X99500Y115000D02*
X104500D01*
X105500Y114000D01*
Y94000D01*
X104500Y93000D01*
X95500D01*
X94000Y94500D01*
Y119847D01*
X94462Y120038D01*
X99500Y115000D01*
D02*
G37*
G36*
X224500Y148500D02*
X183500D01*
X177500Y154500D01*
Y157500D01*
X175000Y160000D01*
X159000D01*
X156500Y157500D01*
Y142500D01*
X154000Y140000D01*
X148000D01*
X145000Y143000D01*
Y181500D01*
X145500Y182000D01*
X224500D01*
Y148500D01*
D02*
G37*
%LPC*%
G36*
X27559Y102991D02*
X25613Y102838D01*
X23715Y102382D01*
X21911Y101635D01*
X20247Y100615D01*
X18763Y99348D01*
X17495Y97863D01*
X16475Y96199D01*
X15728Y94395D01*
X15272Y92497D01*
X15119Y90551D01*
X15272Y88605D01*
X15728Y86707D01*
X16475Y84904D01*
X17495Y83239D01*
X18763Y81755D01*
X20247Y80487D01*
X21911Y79467D01*
X23715Y78720D01*
X25613Y78264D01*
X27559Y78111D01*
X29505Y78264D01*
X31403Y78720D01*
X33207Y79467D01*
X34871Y80487D01*
X36355Y81755D01*
X37623Y83239D01*
X38643Y84904D01*
X39390Y86707D01*
X39846Y88605D01*
X39999Y90551D01*
X39846Y92497D01*
X39390Y94395D01*
X38643Y96199D01*
X37623Y97863D01*
X36355Y99348D01*
X34871Y100615D01*
X33207Y101635D01*
X31403Y102382D01*
X29505Y102838D01*
X27559Y102991D01*
D02*
G37*
G36*
X36685Y179567D02*
X35503Y179411D01*
X34402Y178955D01*
X33456Y178229D01*
X32730Y177283D01*
X32274Y176182D01*
X32118Y175000D01*
X32274Y173818D01*
X32730Y172717D01*
X33456Y171771D01*
X34402Y171045D01*
X35503Y170589D01*
X36685Y170433D01*
X37867Y170589D01*
X38968Y171045D01*
X39914Y171771D01*
X40640Y172717D01*
X41096Y173818D01*
X41252Y175000D01*
X41096Y176182D01*
X40640Y177283D01*
X39914Y178229D01*
X38968Y178955D01*
X37867Y179411D01*
X36685Y179567D01*
D02*
G37*
G36*
X37402Y132519D02*
X36220Y132364D01*
X35118Y131908D01*
X34172Y131182D01*
X33447Y130236D01*
X32991Y129135D01*
X32835Y127953D01*
X32991Y126771D01*
X33447Y125669D01*
X34172Y124724D01*
X35118Y123998D01*
X36220Y123542D01*
X37402Y123386D01*
X38583Y123542D01*
X39685Y123998D01*
X40631Y124724D01*
X41356Y125669D01*
X41813Y126771D01*
X41968Y127953D01*
X41813Y129135D01*
X41356Y130236D01*
X40631Y131182D01*
X39685Y131908D01*
X38583Y132364D01*
X37402Y132519D01*
D02*
G37*
G36*
X27559Y160061D02*
X26891Y159974D01*
X26269Y159716D01*
X25734Y159305D01*
X25324Y158771D01*
X25066Y158148D01*
X24978Y157480D01*
X25066Y156812D01*
X25324Y156190D01*
X25734Y155655D01*
X26269Y155245D01*
X26891Y154987D01*
X27559Y154899D01*
X28227Y154987D01*
X28850Y155245D01*
X29384Y155655D01*
X29794Y156190D01*
X30052Y156812D01*
X30140Y157480D01*
X30052Y158148D01*
X29794Y158771D01*
X29384Y159305D01*
X28850Y159716D01*
X28227Y159974D01*
X27559Y160061D01*
D02*
G37*
G36*
X37402Y57716D02*
X36220Y57561D01*
X35118Y57104D01*
X34172Y56379D01*
X33447Y55433D01*
X32991Y54331D01*
X32835Y53150D01*
X32991Y51968D01*
X33447Y50866D01*
X34172Y49920D01*
X35118Y49195D01*
X36220Y48739D01*
X37402Y48583D01*
X38583Y48739D01*
X39685Y49195D01*
X40631Y49920D01*
X41356Y50866D01*
X41813Y51968D01*
X41968Y53150D01*
X41813Y54331D01*
X41356Y55433D01*
X40631Y56379D01*
X39685Y57104D01*
X38583Y57561D01*
X37402Y57716D01*
D02*
G37*
G36*
X273776Y9768D02*
X270093D01*
Y6724D01*
X270280Y6272D01*
X270732Y6085D01*
X273776D01*
Y9768D01*
D02*
G37*
G36*
X306411Y38256D02*
X304500D01*
Y36739D01*
X305772D01*
X306224Y36926D01*
X306411Y37378D01*
Y38256D01*
D02*
G37*
G36*
X305772Y40773D02*
X304500D01*
Y39256D01*
X306411D01*
Y40134D01*
X306224Y40586D01*
X305772Y40773D01*
D02*
G37*
G36*
X269305Y9768D02*
X265327D01*
Y4904D01*
X266746D01*
X267725Y5098D01*
X268555Y5653D01*
X269110Y6483D01*
X269305Y7463D01*
Y9768D01*
D02*
G37*
G36*
X295000Y46900D02*
X293417D01*
X293484Y46565D01*
X293957Y45857D01*
X294665Y45384D01*
X295000Y45317D01*
Y46900D01*
D02*
G37*
G36*
X297652Y9768D02*
X293673D01*
Y4904D01*
X295093D01*
X296072Y5098D01*
X296902Y5653D01*
X297457Y6483D01*
X297652Y7463D01*
Y9768D01*
D02*
G37*
G36*
X303500Y40773D02*
X302228D01*
X301776Y40586D01*
X301589Y40134D01*
Y39256D01*
X303500D01*
Y40773D01*
D02*
G37*
G36*
X292673Y9768D02*
X288695D01*
Y7463D01*
X288890Y6483D01*
X289444Y5653D01*
X290275Y5098D01*
X291254Y4904D01*
X292673D01*
Y9768D01*
D02*
G37*
G36*
X266746Y15632D02*
X265327D01*
Y10768D01*
X269305D01*
Y13073D01*
X269110Y14052D01*
X268555Y14882D01*
X267725Y15437D01*
X266746Y15632D01*
D02*
G37*
G36*
X269051Y21972D02*
X266564D01*
Y20898D01*
X266701Y20206D01*
X267093Y19620D01*
X267679Y19229D01*
X268370Y19091D01*
X269051D01*
Y21972D01*
D02*
G37*
G36*
X295093Y15632D02*
X293673D01*
Y10768D01*
X297652D01*
Y13073D01*
X297457Y14052D01*
X296902Y14882D01*
X296072Y15437D01*
X295093Y15632D01*
D02*
G37*
G36*
X287907Y9768D02*
X284224D01*
Y6085D01*
X287268D01*
X287720Y6272D01*
X287907Y6724D01*
Y9768D01*
D02*
G37*
G36*
X292673Y15632D02*
X291254D01*
X290275Y15437D01*
X289444Y14882D01*
X288890Y14052D01*
X288695Y13073D01*
Y10768D01*
X292673D01*
Y15632D01*
D02*
G37*
G36*
X290500Y49582D02*
X289665Y49416D01*
X288957Y48943D01*
X288484Y48235D01*
X288317Y47400D01*
X288484Y46565D01*
X288957Y45857D01*
X289177Y45709D01*
X288831Y45191D01*
X288694Y44500D01*
X288831Y43809D01*
X289223Y43223D01*
X289809Y42831D01*
X290500Y42694D01*
X291191Y42831D01*
X291777Y43223D01*
X291902Y43409D01*
X291904Y43413D01*
X292331Y43191D01*
X292326Y43164D01*
X292194Y42500D01*
X292331Y41809D01*
X292723Y41223D01*
X293309Y40831D01*
X294000Y40694D01*
X294441Y40781D01*
X295920Y39303D01*
Y35575D01*
X296107Y35123D01*
X296559Y34936D01*
X298921D01*
X299373Y35123D01*
X299560Y35575D01*
Y35753D01*
X300022Y35944D01*
X301589Y34378D01*
Y31866D01*
X301776Y31414D01*
X302228Y31227D01*
X305772D01*
X306224Y31414D01*
X306411Y31866D01*
Y34622D01*
X306224Y35074D01*
X305772Y35261D01*
X303260D01*
X302283Y36239D01*
X302490Y36739D01*
X303500D01*
Y38256D01*
X301589D01*
Y37639D01*
X301089Y37432D01*
X299749Y38772D01*
X299560Y38898D01*
Y40693D01*
X299373Y41145D01*
X298921Y41332D01*
X296559D01*
X296479Y41299D01*
X295719Y42059D01*
X295806Y42500D01*
X295669Y43191D01*
X295277Y43777D01*
X294691Y44169D01*
X294000Y44306D01*
X293309Y44169D01*
X292723Y43777D01*
X292598Y43591D01*
X292596Y43587D01*
X292169Y43809D01*
X292174Y43836D01*
X292306Y44500D01*
X292169Y45191D01*
X291823Y45709D01*
X292043Y45857D01*
X292516Y46565D01*
X292683Y47400D01*
X292516Y48235D01*
X292043Y48943D01*
X291335Y49416D01*
X290500Y49582D01*
D02*
G37*
G36*
X278458Y9768D02*
X274776D01*
Y6085D01*
X277819D01*
X278271Y6272D01*
X278458Y6724D01*
Y9768D01*
D02*
G37*
G36*
X283224D02*
X279542D01*
Y6724D01*
X279729Y6272D01*
X280181Y6085D01*
X283224D01*
Y9768D01*
D02*
G37*
G36*
X297583Y46900D02*
X296000D01*
Y45317D01*
X296335Y45384D01*
X297043Y45857D01*
X297516Y46565D01*
X297583Y46900D01*
D02*
G37*
G36*
X294100Y58306D02*
X293409Y58169D01*
X292823Y57777D01*
X292595Y58006D01*
X292302Y58201D01*
X291956Y58270D01*
X289044D01*
X288698Y58201D01*
X288405Y58006D01*
X286591Y56191D01*
X286129Y56382D01*
Y56976D01*
X282474D01*
Y54502D01*
X283893D01*
X284045Y54002D01*
X283957Y53943D01*
X283484Y53235D01*
X283317Y52400D01*
X283484Y51565D01*
X283957Y50857D01*
X284665Y50384D01*
X285500Y50217D01*
X286335Y50384D01*
X287043Y50857D01*
X287516Y51565D01*
X287683Y52400D01*
X287516Y53235D01*
X287043Y53943D01*
X287030Y54076D01*
X288215Y55261D01*
X288738Y55077D01*
X288831Y54609D01*
X289177Y54091D01*
X288957Y53943D01*
X288484Y53235D01*
X288317Y52400D01*
X288484Y51565D01*
X288957Y50857D01*
X289665Y50384D01*
X290500Y50217D01*
X291335Y50384D01*
X292043Y50857D01*
X292516Y51565D01*
X292683Y52400D01*
X292516Y53235D01*
X292043Y53943D01*
X291823Y54091D01*
X292169Y54609D01*
X292275Y55142D01*
X292780Y55287D01*
X292823Y55223D01*
X293409Y54831D01*
X294100Y54694D01*
X294214Y54716D01*
X294409Y54245D01*
X293957Y53943D01*
X293484Y53235D01*
X293318Y52400D01*
X293484Y51565D01*
X293957Y50857D01*
X294665Y50384D01*
X295500Y50217D01*
X296335Y50384D01*
X297043Y50857D01*
X297516Y51565D01*
X297682Y52400D01*
X297516Y53235D01*
X297043Y53943D01*
X296335Y54416D01*
X295500Y54583D01*
X295242Y54531D01*
X295047Y55002D01*
X295377Y55223D01*
X295769Y55809D01*
X295906Y56500D01*
X295769Y57191D01*
X295377Y57777D01*
X294791Y58169D01*
X294100Y58306D01*
D02*
G37*
G36*
X274272Y49761D02*
X273000D01*
Y48244D01*
X274911D01*
Y49122D01*
X274724Y49574D01*
X274272Y49761D01*
D02*
G37*
G36*
X300500Y48324D02*
X300440Y48298D01*
X300375Y48311D01*
X299693Y48175D01*
X299587Y48105D01*
X299462Y48080D01*
X298883Y47693D01*
X298813Y47587D01*
X298707Y47517D01*
X298320Y46938D01*
X298295Y46813D01*
X298225Y46707D01*
X298089Y46025D01*
X298114Y45900D01*
X298089Y45775D01*
X298225Y45092D01*
X298295Y44987D01*
X298320Y44862D01*
X298707Y44283D01*
X298813Y44212D01*
X298883Y44107D01*
X299462Y43720D01*
X299587Y43695D01*
X299693Y43625D01*
X300375Y43489D01*
X300440Y43502D01*
X300500Y43477D01*
X300560Y43502D01*
X300625Y43489D01*
X301308Y43625D01*
X301413Y43695D01*
X301538Y43720D01*
X302117Y44107D01*
X302187Y44212D01*
X302293Y44283D01*
X302680Y44862D01*
X302705Y44987D01*
X302775Y45092D01*
X302911Y45775D01*
X302886Y45900D01*
X302911Y46025D01*
X302775Y46707D01*
X302705Y46813D01*
X302680Y46938D01*
X302293Y47517D01*
X302187Y47587D01*
X302117Y47693D01*
X301538Y48080D01*
X301413Y48105D01*
X301308Y48175D01*
X300625Y48311D01*
X300560Y48298D01*
X300500Y48324D01*
D02*
G37*
G36*
X295000Y49483D02*
X294665Y49416D01*
X293957Y48943D01*
X293484Y48235D01*
X293417Y47900D01*
X295000D01*
Y49483D01*
D02*
G37*
G36*
X296000D02*
Y47900D01*
X297583D01*
X297516Y48235D01*
X297043Y48943D01*
X296335Y49416D01*
X296000Y49483D01*
D02*
G37*
G36*
X300500Y56323D02*
X300440Y56298D01*
X300375Y56311D01*
X299693Y56175D01*
X299587Y56105D01*
X299462Y56080D01*
X298883Y55693D01*
X298813Y55588D01*
X298707Y55517D01*
X298320Y54938D01*
X298295Y54813D01*
X298225Y54707D01*
X298089Y54025D01*
X298114Y53900D01*
X298089Y53775D01*
X298225Y53092D01*
X298295Y52987D01*
X298320Y52862D01*
X298707Y52283D01*
X298813Y52213D01*
X298883Y52107D01*
X299462Y51720D01*
X299587Y51695D01*
X299693Y51625D01*
X300375Y51489D01*
X300440Y51502D01*
X300500Y51477D01*
X300560Y51502D01*
X300625Y51489D01*
X301308Y51625D01*
X301413Y51695D01*
X301538Y51720D01*
X302117Y52107D01*
X302187Y52213D01*
X302293Y52283D01*
X302680Y52862D01*
X302705Y52987D01*
X302775Y53092D01*
X302911Y53775D01*
X302886Y53900D01*
X302911Y54025D01*
X302775Y54707D01*
X302705Y54813D01*
X302680Y54938D01*
X302293Y55517D01*
X302187Y55588D01*
X302117Y55693D01*
X301538Y56080D01*
X301413Y56105D01*
X301308Y56175D01*
X300625Y56311D01*
X300560Y56298D01*
X300500Y56323D01*
D02*
G37*
G36*
X280500Y52324D02*
X280439Y52298D01*
X280375Y52311D01*
X279693Y52175D01*
X279587Y52105D01*
X279462Y52080D01*
X278883Y51693D01*
X278813Y51587D01*
X278707Y51517D01*
X278320Y50938D01*
X278295Y50813D01*
X278225Y50708D01*
X278089Y50025D01*
X278114Y49900D01*
X278089Y49775D01*
X278225Y49093D01*
X278295Y48987D01*
X278320Y48862D01*
X278707Y48283D01*
X278813Y48213D01*
X278883Y48107D01*
X279462Y47720D01*
X279587Y47695D01*
X279693Y47625D01*
X280375Y47489D01*
X280439Y47502D01*
X280500Y47477D01*
X280560Y47502D01*
X280625Y47489D01*
X281308Y47625D01*
X281413Y47695D01*
X281538Y47720D01*
X282117Y48107D01*
X282187Y48213D01*
X282293Y48283D01*
X282680Y48862D01*
X282705Y48987D01*
X282775Y49093D01*
X282911Y49775D01*
X282886Y49900D01*
X282911Y50025D01*
X282775Y50708D01*
X282705Y50813D01*
X282680Y50938D01*
X282293Y51517D01*
X282187Y51587D01*
X282117Y51693D01*
X281538Y52080D01*
X281413Y52105D01*
X281308Y52175D01*
X280625Y52311D01*
X280560Y52298D01*
X280500Y52324D01*
D02*
G37*
G36*
X261500Y67134D02*
X259589D01*
Y65617D01*
X260861D01*
X261313Y65804D01*
X261500Y66256D01*
Y67134D01*
D02*
G37*
G36*
X283500Y74261D02*
X282228D01*
X281776Y74074D01*
X281589Y73622D01*
Y72744D01*
X283500D01*
Y74261D01*
D02*
G37*
G36*
X265726Y66424D02*
X262071D01*
Y65035D01*
X262154Y64620D01*
X262389Y64268D01*
X262740Y64033D01*
X263155Y63951D01*
X265726D01*
Y66424D01*
D02*
G37*
G36*
X270381D02*
X266726D01*
Y63951D01*
X269297D01*
X269712Y64033D01*
X270063Y64268D01*
X270298Y64620D01*
X270381Y65035D01*
Y66424D01*
D02*
G37*
G36*
X258589Y67134D02*
X256678D01*
Y66256D01*
X256866Y65804D01*
X257317Y65617D01*
X258589D01*
Y67134D01*
D02*
G37*
G36*
X191521Y48308D02*
X190250D01*
Y46200D01*
X192160D01*
Y47668D01*
X191973Y48120D01*
X191521Y48308D01*
D02*
G37*
G36*
X202000Y54261D02*
X200532D01*
X200079Y54074D01*
X199892Y53622D01*
Y52350D01*
X202000D01*
Y54261D01*
D02*
G37*
G36*
X204468D02*
X203000D01*
Y52350D01*
X205108D01*
Y53622D01*
X204921Y54074D01*
X204468Y54261D01*
D02*
G37*
G36*
X202000Y51350D02*
X199892D01*
Y50079D01*
X200079Y49627D01*
X200532Y49439D01*
X202000D01*
Y51350D01*
D02*
G37*
G36*
X205108D02*
X203000D01*
Y49439D01*
X204468D01*
X204921Y49627D01*
X205108Y50079D01*
Y51350D01*
D02*
G37*
G36*
X102394Y37400D02*
X100385D01*
Y33914D01*
X101755D01*
X102207Y34102D01*
X102394Y34554D01*
Y37400D01*
D02*
G37*
G36*
X99385D02*
X97376D01*
Y34554D01*
X97563Y34102D01*
X98015Y33914D01*
X99385D01*
Y37400D01*
D02*
G37*
G36*
X94402Y35457D02*
X93800D01*
Y33771D01*
X95486D01*
Y34373D01*
X95404Y34788D01*
X95169Y35140D01*
X94817Y35375D01*
X94402Y35457D01*
D02*
G37*
G36*
X205579Y22001D02*
X204898D01*
X204446Y21814D01*
X204258Y21362D01*
Y19500D01*
X205579D01*
Y22001D01*
D02*
G37*
G36*
X338583Y102991D02*
X336637Y102838D01*
X334738Y102382D01*
X332935Y101635D01*
X331271Y100615D01*
X329786Y99348D01*
X328519Y97863D01*
X327499Y96199D01*
X326752Y94395D01*
X326296Y92497D01*
X326143Y90551D01*
X326296Y88605D01*
X326752Y86707D01*
X327499Y84904D01*
X328519Y83239D01*
X329786Y81755D01*
X331271Y80487D01*
X332935Y79467D01*
X334738Y78720D01*
X336637Y78264D01*
X338583Y78111D01*
X340529Y78264D01*
X342427Y78720D01*
X344230Y79467D01*
X345895Y80487D01*
X347379Y81755D01*
X348647Y83239D01*
X349667Y84904D01*
X350414Y86707D01*
X350869Y88605D01*
X351023Y90551D01*
X350869Y92497D01*
X350414Y94395D01*
X349667Y96199D01*
X348647Y97863D01*
X347379Y99348D01*
X345895Y100615D01*
X344230Y101635D01*
X342427Y102382D01*
X340529Y102838D01*
X338583Y102991D01*
D02*
G37*
G36*
Y160061D02*
X337915Y159974D01*
X337292Y159716D01*
X336757Y159305D01*
X336347Y158771D01*
X336089Y158148D01*
X336001Y157480D01*
X336089Y156812D01*
X336347Y156190D01*
X336757Y155655D01*
X337292Y155245D01*
X337915Y154987D01*
X338583Y154899D01*
X339251Y154987D01*
X339873Y155245D01*
X340408Y155655D01*
X340818Y156190D01*
X341076Y156812D01*
X341164Y157480D01*
X341076Y158148D01*
X340818Y158771D01*
X340408Y159305D01*
X339873Y159716D01*
X339251Y159974D01*
X338583Y160061D01*
D02*
G37*
G36*
X328000Y179567D02*
X326818Y179411D01*
X325717Y178955D01*
X324771Y178229D01*
X324045Y177283D01*
X323589Y176182D01*
X323433Y175000D01*
X323589Y173818D01*
X324045Y172717D01*
X324771Y171771D01*
X325717Y171045D01*
X326818Y170589D01*
X328000Y170433D01*
X329182Y170589D01*
X330283Y171045D01*
X331229Y171771D01*
X331955Y172717D01*
X332411Y173818D01*
X332567Y175000D01*
X332411Y176182D01*
X331955Y177283D01*
X331229Y178229D01*
X330283Y178955D01*
X329182Y179411D01*
X328000Y179567D01*
D02*
G37*
G36*
X328740Y132519D02*
X327558Y132364D01*
X326457Y131908D01*
X325511Y131182D01*
X324785Y130236D01*
X324329Y129135D01*
X324173Y127953D01*
X324329Y126771D01*
X324785Y125669D01*
X325511Y124724D01*
X326457Y123998D01*
X327558Y123542D01*
X328740Y123386D01*
X329922Y123542D01*
X331024Y123998D01*
X331969Y124724D01*
X332695Y125669D01*
X333151Y126771D01*
X333307Y127953D01*
X333151Y129135D01*
X332695Y130236D01*
X331969Y131182D01*
X331024Y131908D01*
X329922Y132364D01*
X328740Y132519D01*
D02*
G37*
G36*
Y57716D02*
X327558Y57561D01*
X326457Y57104D01*
X325511Y56379D01*
X324785Y55433D01*
X324329Y54331D01*
X324173Y53150D01*
X324329Y51968D01*
X324785Y50866D01*
X325511Y49920D01*
X326457Y49195D01*
X327558Y48739D01*
X328740Y48583D01*
X329922Y48739D01*
X331024Y49195D01*
X331969Y49920D01*
X332695Y50866D01*
X333151Y51968D01*
X333307Y53150D01*
X333151Y54331D01*
X332695Y55433D01*
X331969Y56379D01*
X331024Y57104D01*
X329922Y57561D01*
X328740Y57716D01*
D02*
G37*
%LPD*%
D10*
X304000Y95468D02*
D03*
Y115154D02*
D03*
X216600Y95468D02*
D03*
Y115154D02*
D03*
X130500Y95468D02*
D03*
Y115154D02*
D03*
D11*
X221300Y38144D02*
D03*
Y43656D02*
D03*
X204400Y122244D02*
D03*
Y127756D02*
D03*
X119500Y54256D02*
D03*
Y48744D02*
D03*
X58500Y49756D02*
D03*
Y44244D02*
D03*
X119500Y63756D02*
D03*
Y58244D02*
D03*
X58500Y60256D02*
D03*
Y54744D02*
D03*
X300500Y87756D02*
D03*
Y82244D02*
D03*
X260100Y87756D02*
D03*
Y82244D02*
D03*
Y77756D02*
D03*
Y72244D02*
D03*
X141500Y145256D02*
D03*
Y139744D02*
D03*
X277500Y87756D02*
D03*
Y82244D02*
D03*
Y77756D02*
D03*
Y72244D02*
D03*
X227500Y145356D02*
D03*
Y139844D02*
D03*
X294000Y87756D02*
D03*
Y82244D02*
D03*
Y77756D02*
D03*
Y72244D02*
D03*
X289600Y127256D02*
D03*
Y121744D02*
D03*
X99000Y129244D02*
D03*
Y134756D02*
D03*
X185000Y129244D02*
D03*
Y134756D02*
D03*
X271000Y129244D02*
D03*
Y134756D02*
D03*
X94000Y143756D02*
D03*
Y138244D02*
D03*
X180000Y143756D02*
D03*
Y138244D02*
D03*
X266000Y143756D02*
D03*
Y138244D02*
D03*
X213500Y24244D02*
D03*
Y29756D02*
D03*
X304000Y28256D02*
D03*
Y22744D02*
D03*
X218100Y24244D02*
D03*
Y29756D02*
D03*
X304000Y38756D02*
D03*
Y33244D02*
D03*
X222800Y24244D02*
D03*
Y29756D02*
D03*
X271000Y33256D02*
D03*
Y27744D02*
D03*
X130500Y29256D02*
D03*
Y23744D02*
D03*
X288900Y67556D02*
D03*
Y62044D02*
D03*
X258000Y11756D02*
D03*
Y6244D02*
D03*
X244000Y6244D02*
D03*
Y11756D02*
D03*
X124500Y58244D02*
D03*
Y63756D02*
D03*
X305500Y72244D02*
D03*
Y77756D02*
D03*
X129000Y48744D02*
D03*
Y54256D02*
D03*
X255100Y72244D02*
D03*
Y77756D02*
D03*
X272500Y72244D02*
D03*
Y77756D02*
D03*
X289000Y72244D02*
D03*
Y77756D02*
D03*
X112992Y79134D02*
D03*
Y73622D02*
D03*
X157874Y77559D02*
D03*
Y72047D02*
D03*
X202756Y77559D02*
D03*
Y72047D02*
D03*
X293900Y67556D02*
D03*
Y62044D02*
D03*
X259089Y62122D02*
D03*
Y67634D02*
D03*
X272500Y53256D02*
D03*
Y47744D02*
D03*
X271000Y37744D02*
D03*
Y43256D02*
D03*
X216700Y43656D02*
D03*
Y38144D02*
D03*
X300500Y77756D02*
D03*
Y72244D02*
D03*
X250100Y77756D02*
D03*
Y72244D02*
D03*
X267500Y77756D02*
D03*
Y72244D02*
D03*
X284000Y77756D02*
D03*
Y72244D02*
D03*
X203000Y46256D02*
D03*
Y40744D02*
D03*
X195500Y46256D02*
D03*
Y40744D02*
D03*
X208900Y24244D02*
D03*
Y29756D02*
D03*
D12*
X216244Y47600D02*
D03*
X221756D02*
D03*
X253744Y16000D02*
D03*
X259256D02*
D03*
X258244Y22500D02*
D03*
X263756D02*
D03*
X243744Y16000D02*
D03*
X249256D02*
D03*
X146756Y58000D02*
D03*
X141244D02*
D03*
X168656D02*
D03*
X163144D02*
D03*
X158256Y58000D02*
D03*
X152744D02*
D03*
X178956D02*
D03*
X173444D02*
D03*
D13*
X169685Y19000D02*
D03*
X164764D02*
D03*
X159843D02*
D03*
X154921D02*
D03*
X150000D02*
D03*
X145079D02*
D03*
X140157D02*
D03*
X135236D02*
D03*
X225764D02*
D03*
X220843D02*
D03*
X215921D02*
D03*
X211000D02*
D03*
X206079D02*
D03*
D14*
X179724Y8567D02*
D03*
X125197D02*
D03*
X235803D02*
D03*
X196077D02*
D03*
D15*
X290500Y52400D02*
D03*
X295500Y47400D02*
D03*
Y52400D02*
D03*
X290500Y47400D02*
D03*
X285500Y52400D02*
D03*
Y47400D02*
D03*
D16*
X118276Y43240D02*
D03*
Y39500D02*
D03*
Y35760D02*
D03*
X127724D02*
D03*
Y39500D02*
D03*
Y43240D02*
D03*
X186176Y58140D02*
D03*
Y54400D02*
D03*
Y50660D02*
D03*
X195624D02*
D03*
Y58140D02*
D03*
D17*
X74000Y16591D02*
D03*
D18*
X64000Y41000D02*
D03*
X69000D02*
D03*
X74000D02*
D03*
X79000D02*
D03*
X84000D02*
D03*
D19*
X175000Y49949D02*
D03*
X170000D02*
D03*
X165000D02*
D03*
X160000D02*
D03*
X175000Y31051D02*
D03*
X170000D02*
D03*
X165000D02*
D03*
X160000D02*
D03*
D20*
X264930Y47119D02*
D03*
X263539Y48511D02*
D03*
X262146Y49903D02*
D03*
X260755Y51295D02*
D03*
X259363Y52687D02*
D03*
X257971Y54079D02*
D03*
X256579Y55471D02*
D03*
X255187Y56863D02*
D03*
X253795Y58255D02*
D03*
X252403Y59646D02*
D03*
X251011Y61039D02*
D03*
X249619Y62430D02*
D03*
X227070Y39881D02*
D03*
X228462Y38489D02*
D03*
X229854Y37097D02*
D03*
X231245Y35705D02*
D03*
X232637Y34313D02*
D03*
X234029Y32921D02*
D03*
X235421Y31529D02*
D03*
X236813Y30137D02*
D03*
X238205Y28745D02*
D03*
X239597Y27354D02*
D03*
X240989Y25962D02*
D03*
X242381Y24570D02*
D03*
D21*
X242381Y62430D02*
D03*
X240989Y61039D02*
D03*
X239597Y59646D02*
D03*
X238205Y58255D02*
D03*
X236813Y56863D02*
D03*
X235421Y55471D02*
D03*
X234029Y54079D02*
D03*
X232637Y52687D02*
D03*
X231245Y51295D02*
D03*
X229854Y49903D02*
D03*
X228462Y48511D02*
D03*
X227070Y47119D02*
D03*
X249619Y24570D02*
D03*
X251011Y25962D02*
D03*
X252403Y27354D02*
D03*
X253795Y28745D02*
D03*
X255187Y30137D02*
D03*
X256579Y31529D02*
D03*
X257971Y32921D02*
D03*
X259363Y34313D02*
D03*
X260755Y35705D02*
D03*
X262146Y37097D02*
D03*
X263539Y38489D02*
D03*
X264930Y39881D02*
D03*
D22*
X224500Y59500D02*
D03*
Y64500D02*
D03*
X214500D02*
D03*
Y59500D02*
D03*
D23*
X118000Y164961D02*
D03*
X204000D02*
D03*
X75000Y109646D02*
D03*
X161000D02*
D03*
X247000D02*
D03*
X290000Y164961D02*
D03*
D24*
X128000Y126000D02*
D03*
X108000D02*
D03*
X214000D02*
D03*
X194000D02*
D03*
X65000Y150000D02*
D03*
X85000D02*
D03*
X151000D02*
D03*
X171000D02*
D03*
X237000D02*
D03*
X257000D02*
D03*
X300000Y126000D02*
D03*
X280000D02*
D03*
D25*
X297740Y38134D02*
D03*
X290260D02*
D03*
X294000Y29866D02*
D03*
D26*
X252870Y5244D02*
D03*
X249130D02*
D03*
Y10756D02*
D03*
X252870D02*
D03*
D27*
X103000Y46370D02*
D03*
Y67630D02*
D03*
X74000Y63370D02*
D03*
Y84630D02*
D03*
D28*
X283724Y10268D02*
D03*
X274276D02*
D03*
D29*
X273882Y21291D02*
D03*
X276441Y21291D02*
D03*
X279000Y21291D02*
D03*
X281559D02*
D03*
X284118D02*
D03*
D30*
X136500Y30854D02*
D03*
X141500D02*
D03*
X146500D02*
D03*
X151500D02*
D03*
X136500Y50146D02*
D03*
X141500D02*
D03*
X146500D02*
D03*
X151500D02*
D03*
D31*
X66126Y52000D02*
D03*
X81874D02*
D03*
D32*
X304000Y17929D02*
D03*
Y9071D02*
D03*
X93300Y33271D02*
D03*
Y42129D02*
D03*
D33*
X119641Y103504D02*
D03*
X99759D02*
D03*
X291641Y103500D02*
D03*
X271759D02*
D03*
X205641D02*
D03*
X185759D02*
D03*
D34*
X110515Y37900D02*
D03*
X99885D02*
D03*
D35*
X93000Y85315D02*
D03*
Y74685D02*
D03*
X102000Y85315D02*
D03*
Y74685D02*
D03*
D36*
X102000Y7059D02*
D03*
Y26941D02*
D03*
D37*
X196850Y83071D02*
D03*
X203150D02*
D03*
X151969D02*
D03*
X158268D02*
D03*
X189750Y45700D02*
D03*
X183450D02*
D03*
D38*
X275760Y38724D02*
D03*
X279500D02*
D03*
X283240D02*
D03*
Y29276D02*
D03*
X279500D02*
D03*
X275760D02*
D03*
X202940Y26876D02*
D03*
X199200D02*
D03*
X195460D02*
D03*
Y36324D02*
D03*
X199200D02*
D03*
X202940D02*
D03*
D39*
X202500Y51850D02*
D03*
Y58150D02*
D03*
D40*
X117500Y15217D02*
D03*
Y29783D02*
D03*
D41*
X266226Y66924D02*
D03*
X281974D02*
D03*
Y57476D02*
D03*
X266226D02*
D03*
D42*
X140748Y70453D02*
D03*
Y75453D02*
D03*
Y80453D02*
D03*
Y85453D02*
D03*
X121457Y70453D02*
D03*
Y75453D02*
D03*
Y80453D02*
D03*
Y85453D02*
D03*
X185630Y70453D02*
D03*
Y75453D02*
D03*
Y80453D02*
D03*
Y85453D02*
D03*
X166339Y70453D02*
D03*
Y75453D02*
D03*
Y80453D02*
D03*
Y85453D02*
D03*
X230512Y70453D02*
D03*
Y75453D02*
D03*
Y80453D02*
D03*
Y85453D02*
D03*
X211221Y70453D02*
D03*
Y75453D02*
D03*
Y80453D02*
D03*
Y85453D02*
D03*
D43*
X27559Y157480D02*
D03*
X338583D02*
D03*
X210000Y152000D02*
D03*
X206000D02*
D03*
Y156500D02*
D03*
X210000D02*
D03*
X222000Y152000D02*
D03*
X218000Y156500D02*
D03*
X214000D02*
D03*
X218000Y152000D02*
D03*
X151000Y118500D02*
D03*
Y123000D02*
D03*
X147000D02*
D03*
X245000Y118500D02*
D03*
X136000Y152000D02*
D03*
X132000D02*
D03*
Y156500D02*
D03*
X128000D02*
D03*
X124000D02*
D03*
X288000Y152000D02*
D03*
X292000D02*
D03*
Y156500D02*
D03*
X288000D02*
D03*
X233000Y123000D02*
D03*
Y118500D02*
D03*
X237000Y123000D02*
D03*
X241000D02*
D03*
X245000D02*
D03*
X249000D02*
D03*
Y118500D02*
D03*
X237000D02*
D03*
X73500Y6000D02*
D03*
X77500D02*
D03*
X81500D02*
D03*
Y10500D02*
D03*
X77500D02*
D03*
X73500D02*
D03*
X65500Y6000D02*
D03*
Y10500D02*
D03*
X69500D02*
D03*
Y6000D02*
D03*
X60500Y20500D02*
D03*
Y16500D02*
D03*
Y12500D02*
D03*
Y24500D02*
D03*
X87000Y20500D02*
D03*
Y16500D02*
D03*
Y12500D02*
D03*
Y24500D02*
D03*
X102000Y22000D02*
D03*
X109000Y108000D02*
D03*
X113000D02*
D03*
Y112000D02*
D03*
X272000Y156500D02*
D03*
X276000D02*
D03*
X280000D02*
D03*
X284000D02*
D03*
X308000D02*
D03*
X296000D02*
D03*
X300000D02*
D03*
X304000D02*
D03*
X272000Y152000D02*
D03*
X276000D02*
D03*
X280000D02*
D03*
X284000D02*
D03*
X308000D02*
D03*
X296000D02*
D03*
X300000D02*
D03*
X304000D02*
D03*
X202000Y156500D02*
D03*
X186000D02*
D03*
X190000D02*
D03*
X194000D02*
D03*
X198000D02*
D03*
X222000D02*
D03*
X202000Y152000D02*
D03*
X186000D02*
D03*
X190000D02*
D03*
X194000D02*
D03*
X198000D02*
D03*
X214000D02*
D03*
X116000Y156500D02*
D03*
X100000D02*
D03*
X104000D02*
D03*
X108000D02*
D03*
X112000D02*
D03*
X136000D02*
D03*
X120000D02*
D03*
X116000Y152000D02*
D03*
X100000D02*
D03*
X104000D02*
D03*
X108000D02*
D03*
X112000D02*
D03*
X120000D02*
D03*
X124000D02*
D03*
X128000D02*
D03*
X292000Y174209D02*
D03*
X308000D02*
D03*
X304000D02*
D03*
X300000D02*
D03*
X296000D02*
D03*
X272000D02*
D03*
X288000D02*
D03*
X284000D02*
D03*
X280000D02*
D03*
X276000D02*
D03*
X292000Y178709D02*
D03*
X304000D02*
D03*
X300000D02*
D03*
X296000D02*
D03*
X272000D02*
D03*
X288000D02*
D03*
X284000D02*
D03*
X280000D02*
D03*
X276000D02*
D03*
X206000Y174209D02*
D03*
X222000D02*
D03*
X218000D02*
D03*
X214000D02*
D03*
X210000D02*
D03*
X186000D02*
D03*
X202000D02*
D03*
X198000D02*
D03*
X194000D02*
D03*
X190000D02*
D03*
X206000Y178709D02*
D03*
X218000D02*
D03*
X214000D02*
D03*
X210000D02*
D03*
X186000D02*
D03*
X202000D02*
D03*
X198000D02*
D03*
X194000D02*
D03*
X190000D02*
D03*
X120000Y174209D02*
D03*
X136000D02*
D03*
X132000D02*
D03*
X128000D02*
D03*
X124000D02*
D03*
X100000D02*
D03*
X116000D02*
D03*
X112000D02*
D03*
X108000D02*
D03*
X104000D02*
D03*
X120000Y178709D02*
D03*
X132000D02*
D03*
X128000D02*
D03*
X124000D02*
D03*
X100000D02*
D03*
X116000D02*
D03*
X112000D02*
D03*
X108000D02*
D03*
X104000D02*
D03*
X265000Y118500D02*
D03*
X253000D02*
D03*
X229000D02*
D03*
X241000D02*
D03*
X265000Y123000D02*
D03*
X261000D02*
D03*
X257000D02*
D03*
X253000D02*
D03*
X229000D02*
D03*
X163000Y118500D02*
D03*
X179000D02*
D03*
X175000D02*
D03*
X171000D02*
D03*
X167000D02*
D03*
X143000D02*
D03*
X159000D02*
D03*
X155000D02*
D03*
X147000D02*
D03*
X163000Y123000D02*
D03*
X179000D02*
D03*
X175000D02*
D03*
X171000D02*
D03*
X167000D02*
D03*
X143000D02*
D03*
X159000D02*
D03*
X155000D02*
D03*
X61000D02*
D03*
X65000D02*
D03*
X69000D02*
D03*
X73000D02*
D03*
X57000D02*
D03*
X81000D02*
D03*
X85000D02*
D03*
X89000D02*
D03*
X93000D02*
D03*
X77000D02*
D03*
X61000Y118500D02*
D03*
X65000D02*
D03*
X69000D02*
D03*
X73000D02*
D03*
X57000D02*
D03*
X81000D02*
D03*
X85000D02*
D03*
X89000D02*
D03*
X93000D02*
D03*
X77000D02*
D03*
X109000Y112000D02*
D03*
X113000Y104000D02*
D03*
Y100000D02*
D03*
Y96000D02*
D03*
X109000D02*
D03*
Y100000D02*
D03*
Y104000D02*
D03*
X117000D02*
D03*
Y100000D02*
D03*
Y96000D02*
D03*
X121000D02*
D03*
Y100000D02*
D03*
Y104000D02*
D03*
Y108000D02*
D03*
Y112000D02*
D03*
X117000D02*
D03*
Y108000D02*
D03*
X203400D02*
D03*
Y112000D02*
D03*
X207400D02*
D03*
Y108000D02*
D03*
Y104000D02*
D03*
Y100000D02*
D03*
X203400Y96000D02*
D03*
Y100000D02*
D03*
Y104000D02*
D03*
X195400D02*
D03*
Y100000D02*
D03*
Y96000D02*
D03*
X199400D02*
D03*
Y100000D02*
D03*
Y104000D02*
D03*
X195400Y112000D02*
D03*
X199400D02*
D03*
Y108000D02*
D03*
X195400D02*
D03*
X290500D02*
D03*
Y112000D02*
D03*
X294500Y108000D02*
D03*
Y104000D02*
D03*
Y100000D02*
D03*
Y96000D02*
D03*
X290500D02*
D03*
Y100000D02*
D03*
Y104000D02*
D03*
X282500D02*
D03*
Y100000D02*
D03*
Y96000D02*
D03*
X286500D02*
D03*
Y100000D02*
D03*
Y104000D02*
D03*
X282500Y112000D02*
D03*
X286500D02*
D03*
Y108000D02*
D03*
X282500D02*
D03*
X261000Y118500D02*
D03*
X257000D02*
D03*
D44*
X225465Y137809D02*
X227500Y139844D01*
X294500Y115200D02*
X296457Y113243D01*
Y110349D02*
Y113243D01*
Y110349D02*
X297159Y109646D01*
X304200Y113400D02*
Y116922D01*
X303300Y112500D02*
X303543Y112743D01*
X304200Y113400D01*
X303543Y110630D02*
Y112743D01*
X302559Y109646D02*
X303543Y110630D01*
X297159Y109646D02*
X302559D01*
X294500Y115200D02*
Y116500D01*
X138284Y89217D02*
Y102268D01*
X130500Y110051D02*
X138284Y102268D01*
X130500Y110051D02*
Y117122D01*
X224284Y92294D02*
Y102094D01*
X216600Y109778D02*
X224284Y102094D01*
X216600Y109778D02*
Y117122D01*
X231300Y16300D02*
X237000D01*
X224000Y9000D02*
X231300Y16300D01*
X139000Y40000D02*
Y43700D01*
X136500Y46200D02*
X139000Y43700D01*
X136500Y46200D02*
Y50146D01*
X300500Y87756D02*
Y88100D01*
X304700D01*
X139465Y137709D02*
X141500Y139744D01*
X304000Y117122D02*
X304200Y116922D01*
X139465Y92135D02*
X140400Y91200D01*
X139465Y92135D02*
Y137709D01*
X138284Y89217D02*
X138500Y89000D01*
X206244Y27000D02*
X209000Y24244D01*
X206000Y27000D02*
X206244D01*
X195500Y46256D02*
X196344Y47100D01*
X199300D01*
X202156D02*
X203000Y46256D01*
X199300Y47100D02*
X202156D01*
X204000Y9000D02*
X224000D01*
X233857Y18643D02*
X241883D01*
X237676Y19824D02*
X241394D01*
X235500Y22000D02*
X237676Y19824D01*
X238918Y21005D02*
X240905D01*
X237000Y22923D02*
X238918Y21005D01*
X211000Y21744D02*
X213500Y24244D01*
X211000Y19000D02*
Y21744D01*
X215921Y22165D02*
X218000Y24244D01*
X215921Y19000D02*
Y22165D01*
X276556Y69300D02*
X278500Y71244D01*
X289600Y127256D02*
Y164954D01*
X207502Y165354D02*
X227500Y145356D01*
X258244Y85000D02*
X261000Y87756D01*
X254526Y9100D02*
X255200D01*
X252870Y5244D02*
X258000D01*
X283240Y29276D02*
Y38724D01*
X221300Y37400D02*
X223300Y35400D01*
X221300Y37400D02*
Y38144D01*
X225901Y40800D02*
X228601Y43500D01*
X214953Y40800D02*
X225901D01*
X213943Y41811D02*
X214953Y40800D01*
X213980Y45361D02*
Y46926D01*
Y45361D02*
X213992Y45350D01*
X206971Y53936D02*
X213980Y46926D01*
X224056Y53033D02*
X224623Y53600D01*
X228940D01*
X130500Y17000D02*
Y23744D01*
X213943Y41811D02*
Y45301D01*
X213992Y45350D01*
X213992D02*
X213992D01*
X211534Y51043D02*
X219740D01*
X223200Y55100D02*
Y55310D01*
X217027Y57236D02*
X230872D01*
X212800Y53200D02*
X220507D01*
X208152Y54425D02*
X211534Y51043D01*
X204400Y131100D02*
X204400Y131100D01*
X204400Y127756D02*
Y131100D01*
X204300Y122144D02*
X204400Y122244D01*
X204300Y118900D02*
Y122144D01*
X210400Y55100D02*
X210567Y55267D01*
X207800Y39200D02*
X209161Y37839D01*
X210567Y55267D02*
X215656D01*
X141500Y44600D02*
Y50146D01*
Y44600D02*
X147600Y38500D01*
X151600D01*
X159843Y19000D02*
Y20343D01*
X165000Y25500D01*
X146500Y28000D02*
X154921Y19579D01*
X146500Y28000D02*
Y30854D01*
X139000Y20157D02*
Y40000D01*
X141500Y28500D02*
X150000Y20000D01*
X145079Y16579D02*
Y19000D01*
X142500Y14000D02*
X145079Y16579D01*
X260900Y24777D02*
X261467Y25344D01*
X260900Y20400D02*
Y24777D01*
X260000Y19500D02*
X260900Y20400D01*
X257971Y32921D02*
X261467Y29425D01*
Y25344D02*
Y29425D01*
X256471Y25157D02*
X256757D01*
X254913Y23600D02*
X256471Y25157D01*
X253373Y23600D02*
X254913D01*
X251011Y25962D02*
X253373Y23600D01*
X215357Y57236D02*
X216538Y56055D01*
X214764Y59500D02*
X217027Y57236D01*
X214500Y59500D02*
X214764D01*
X216538Y56055D02*
X220992D01*
X216049Y54874D02*
X220503D01*
X215656Y55267D02*
X216049Y54874D01*
X220507Y53200D02*
X221855Y51852D01*
X224545D01*
X224769Y52075D01*
X222344Y53033D02*
X224056D01*
X220503Y54874D02*
X222344Y53033D01*
X220992Y56055D02*
X221737Y55310D01*
X228940Y53600D02*
X231245Y51295D01*
X219662Y67662D02*
X224838D01*
X216500Y64500D02*
X219662Y67662D01*
X226599Y66500D02*
X230500D01*
X224599Y64500D02*
X226599Y66500D01*
X224500Y64500D02*
X224599D01*
X230872Y57236D02*
X234029Y54079D01*
X224769Y52075D02*
X227681D01*
X229854Y49903D01*
X247331Y86191D02*
X251000Y82522D01*
X141500Y145256D02*
Y145500D01*
X267500Y77756D02*
X267500Y77756D01*
X272500D02*
Y82000D01*
X265744Y87756D02*
X277500D01*
X263181Y90319D02*
X265744Y87756D01*
X266800Y90000D02*
Y90700D01*
X118000Y165354D02*
X121646D01*
X237425Y61819D02*
X239597Y59646D01*
X241014Y21114D02*
X242014D01*
X240905Y21005D02*
X241014Y21114D01*
X252870Y10756D02*
X254526Y9100D01*
X267500Y77348D02*
Y77756D01*
X227478Y39881D02*
X229507Y41911D01*
X227070Y39881D02*
X227478D01*
X228601Y43500D02*
X246670D01*
X229507Y41911D02*
Y42319D01*
X248400Y42400D02*
X249500Y43500D01*
X247770Y42400D02*
X248400D01*
X246670Y43500D02*
X247770Y42400D01*
X247011Y39819D02*
X249758D01*
X245692Y41138D02*
X247011Y39819D01*
X231110Y41138D02*
X245692D01*
X228462Y38489D02*
X231110Y41138D01*
X229507Y42319D02*
X246181D01*
X246000Y37500D02*
X246520Y38020D01*
X247500Y41000D02*
X251500D01*
X251567Y43856D02*
Y44356D01*
Y43856D02*
X253567Y41856D01*
Y40144D02*
Y41856D01*
X252748Y44345D02*
X260755Y36339D01*
X258000Y41244D02*
Y43500D01*
X250644Y38933D02*
X252356D01*
X249758Y39819D02*
X250644Y38933D01*
X256100Y85000D02*
X258244D01*
X250000Y45923D02*
X251567Y44356D01*
X249887Y38020D02*
X256377Y31529D01*
X256579D01*
X246520Y38020D02*
X249887D01*
X252356Y38933D02*
X253567Y40144D01*
X260755Y35705D02*
Y36339D01*
X250000Y45923D02*
Y46500D01*
X294000Y42500D02*
X297740Y38760D01*
X246181Y42319D02*
X247500Y41000D01*
X274535Y30500D02*
X275760Y29276D01*
X258000Y41244D02*
X262146Y37097D01*
X249371Y35953D02*
X255187Y30137D01*
X231000Y59892D02*
X235421Y55471D01*
X231000Y59892D02*
Y62000D01*
X233966Y59710D02*
X236813Y56863D01*
X119500Y55000D02*
X125500Y49000D01*
X249540Y33000D02*
X253795Y28745D01*
X206000Y66000D02*
X207500Y64500D01*
X249000Y63050D02*
X249619Y62430D01*
X242381D02*
Y62552D01*
X214500Y64500D02*
X216500D01*
X236033Y60427D02*
X238205Y58255D01*
X234856Y64067D02*
X236033Y62890D01*
X230144Y64067D02*
X234856D01*
X225577Y59500D02*
X230144Y64067D01*
X224500Y59500D02*
X225577D01*
X258000Y19500D02*
X260000D01*
X256500Y18000D02*
X258000Y19500D01*
X256500Y13256D02*
Y18000D01*
Y13256D02*
X258000Y11756D01*
X247500Y6874D02*
X249130Y5244D01*
X247500Y6874D02*
Y8256D01*
X244000Y11756D02*
X247500Y8256D01*
X230500Y22000D02*
X233857Y18643D01*
X237000Y22923D02*
Y24756D01*
X239597Y27354D01*
X235000Y22000D02*
X235500D01*
X244000Y6244D02*
X244000Y6244D01*
X232637Y52687D02*
X235324Y50000D01*
X243244Y16500D02*
X243744Y16000D01*
X240000Y16500D02*
X243244D01*
X272500Y77756D02*
X272500Y77756D01*
X251011Y61039D02*
X253500Y63528D01*
X256000Y77756D02*
X256000Y77756D01*
Y82000D01*
X289000Y77756D02*
X289000Y77756D01*
Y81500D01*
X249256Y16000D02*
Y17000D01*
Y11130D02*
Y16000D01*
Y11130D02*
X249630Y10756D01*
Y12130D01*
X249256Y10882D02*
Y11130D01*
X249130Y10756D02*
X249256Y10882D01*
X252870Y5244D02*
X252870Y5244D01*
X259256Y17000D02*
X260256Y18000D01*
X249130Y5244D02*
X249630D01*
X228134Y24000D02*
X228567Y24433D01*
X231000Y26500D02*
Y27108D01*
X233067Y26391D02*
X236813Y30137D01*
X233067Y25644D02*
Y26391D01*
X230500Y22000D02*
X231460D01*
X238205Y28745D01*
X228567Y24433D02*
X231856D01*
X233067Y25644D01*
X228108Y27000D02*
X234029Y32921D01*
X231000Y27108D02*
X235421Y31529D01*
X196067Y30933D02*
X197697D01*
X228013Y29689D02*
X232637Y34313D01*
X284000Y85100D02*
X289800Y90900D01*
X289000Y77756D02*
X294000D01*
Y82244D01*
X277500Y77756D02*
Y82244D01*
X272500Y77756D02*
X277500D01*
X140500Y91200D02*
X141300Y90400D01*
X204000Y165354D02*
X207502D01*
X289500Y116500D02*
X289600Y116600D01*
Y121744D01*
Y164954D02*
X290000Y165354D01*
X140400Y91200D02*
X140500D01*
X277500Y87756D02*
X277500Y87756D01*
X294500Y88256D02*
Y91000D01*
X294000Y87756D02*
X294500Y88256D01*
X151500Y42500D02*
Y50146D01*
X130500Y31000D02*
X131500Y32000D01*
X130500Y29256D02*
Y31000D01*
Y17000D02*
X133500Y14000D01*
X142500D01*
X283240Y29276D02*
X288724D01*
X295256Y22744D01*
X304000D01*
X295610Y28256D02*
X304000D01*
X294000Y29866D02*
X295610Y28256D01*
X299110Y38134D02*
X304000Y33244D01*
X297740Y38134D02*
X299110D01*
X297740D02*
Y38760D01*
X283240Y27240D02*
Y29276D01*
X282000Y26000D02*
X283240Y27240D01*
X280500Y26000D02*
X282000D01*
X279000Y24500D02*
X280500Y26000D01*
X279000Y21291D02*
Y24500D01*
X275760Y29276D02*
Y38724D01*
Y29276D02*
X276441Y28594D01*
Y21291D02*
Y28594D01*
X195457Y28693D02*
X197697Y30933D01*
X195457Y27209D02*
Y28693D01*
X139000Y20157D02*
X140157Y19000D01*
X141500Y28500D02*
Y30854D01*
X150000Y19000D02*
Y20000D01*
X154921Y19000D02*
Y19579D01*
X165000Y25500D02*
Y31051D01*
X164764Y19000D02*
Y22264D01*
X170000Y27500D01*
Y31051D01*
X119500Y54256D02*
Y55000D01*
X125500Y46500D02*
Y49000D01*
X119500Y55000D02*
Y58244D01*
X122740Y35760D02*
X127724D01*
X121433Y37067D02*
X122740Y35760D01*
X121433Y37067D02*
Y42433D01*
X125500Y46500D01*
X69000Y41000D02*
Y44500D01*
X66500Y47000D02*
X69000Y44500D01*
X61256Y47000D02*
X66500D01*
X58500Y49756D02*
X61256Y47000D01*
X58500Y49756D02*
Y54744D01*
Y75500D02*
X63500Y80500D01*
X58500Y60256D02*
Y75500D01*
X160000Y31051D02*
Y33900D01*
X141500Y50146D02*
X146500D01*
X267500Y77756D02*
Y81500D01*
X300500Y77756D02*
X305500D01*
X300500D02*
Y82244D01*
X284000Y77756D02*
Y85100D01*
X248823Y30933D02*
X252403Y27354D01*
X245567Y30933D02*
X248823D01*
X247500Y33000D02*
X249540D01*
X248628Y35953D02*
X249371D01*
X252001Y18657D02*
X253658Y17000D01*
X242014Y21114D02*
X242899Y22000D01*
X241394Y19824D02*
X241408Y19839D01*
X252504Y19824D02*
X255568D01*
X258244Y22500D01*
X242899Y22000D02*
X242994Y21905D01*
X240500Y36000D02*
X245567Y30933D01*
X241883Y18643D02*
X241897Y18657D01*
X242994Y21905D02*
X244019D01*
X244000Y3000D02*
Y6244D01*
X256757Y25157D02*
X257800Y26200D01*
X259400D01*
X247511Y18657D02*
X252001D01*
X248800Y22000D02*
X248951D01*
Y23901D02*
X249619Y24570D01*
X241408Y19839D02*
X245978D01*
X246062D02*
X246076Y19824D01*
X247007D01*
X247022Y19839D01*
X252490D01*
X252504Y19824D01*
X241897Y18657D02*
X245572D01*
X245587Y18643D01*
X247497D01*
X247511Y18657D01*
X157400Y26200D02*
Y28451D01*
X160000Y31051D01*
X175000D02*
Y33900D01*
X172500Y36400D02*
X175000Y33900D01*
X159300Y36400D02*
X172500D01*
X157300Y38400D02*
X159300Y36400D01*
X157300Y38400D02*
Y57044D01*
X158256Y58000D01*
X294500Y116500D02*
X295000Y116000D01*
X209333Y58906D02*
X211003Y57236D01*
X215357D01*
X203280Y62457D02*
X206971Y58765D01*
Y53936D02*
Y58765D01*
X203769Y63638D02*
X208152Y59255D01*
Y54425D02*
Y59255D01*
X209333Y58906D02*
Y59744D01*
X204258Y64819D02*
X209333Y59744D01*
X203000Y36720D02*
Y40744D01*
X202937Y36658D02*
X203000Y36720D01*
X195457Y35043D02*
Y40701D01*
X195500Y40744D01*
X226089Y33333D02*
X229854Y37097D01*
X219997Y35780D02*
X222444Y33333D01*
X226089D01*
X219261Y35780D02*
X219997D01*
X209161Y37839D02*
X212010D01*
X215249Y34599D01*
X219507D01*
X202937Y36658D02*
X211521D01*
X214760Y33418D01*
X216700Y38144D02*
X216898D01*
X219261Y35780D01*
X186000Y36400D02*
X192667Y43067D01*
X206933D01*
X210980Y39020D01*
X212499D01*
X213375Y38144D01*
X216700D01*
X253658Y17000D02*
X253744D01*
X214760Y33418D02*
X219018D01*
X222500Y29936D01*
Y29689D02*
Y29756D01*
Y29936D01*
Y29689D02*
X228013D01*
X221955Y32152D02*
X226579D01*
X227427Y33000D01*
X228540D01*
X231245Y35705D01*
X219507Y34599D02*
X221955Y32152D01*
X210630Y29756D02*
X213500D01*
X197697Y30933D02*
X209453D01*
X210630Y29756D01*
X214271Y32237D02*
X215519D01*
X218000Y29756D01*
X220756Y27000D02*
X228108D01*
X218000Y29756D02*
X220756Y27000D01*
X212677Y23519D02*
Y24177D01*
X218000Y24244D02*
X218323Y23921D01*
X277500Y72244D02*
X278500Y71244D01*
X259363Y52687D02*
X262176Y55500D01*
X263539Y48511D02*
X266228Y51200D01*
X268600D01*
X269300Y50500D01*
X265544Y53300D02*
X267500D01*
X262146Y49903D02*
X265544Y53300D01*
X290500Y44500D02*
Y47400D01*
Y48500D01*
X297500Y74756D02*
X300500Y77756D01*
X288900Y62044D02*
X293900D01*
X293900Y62044D01*
X262631Y70173D02*
X263300Y70842D01*
Y73148D01*
X267500Y77348D01*
X260300Y77756D02*
Y81544D01*
X256000Y77756D02*
X260100D01*
X260300D01*
Y81544D02*
X261000Y82244D01*
X262431Y70173D02*
X262631D01*
X262239Y69980D02*
X262431Y70173D01*
X265300Y91500D02*
X266800Y90000D01*
X247200Y73956D02*
X251000Y77756D01*
Y82522D01*
X275524Y66924D02*
X281974D01*
X271000Y62400D02*
X275524Y66924D01*
X260520Y56628D02*
Y60692D01*
X257971Y54079D02*
X260520Y56628D01*
X262176Y55500D02*
X264250D01*
X266226Y57476D01*
X270446Y53256D02*
X272500D01*
X269567Y54135D02*
X270446Y53256D01*
X269567Y54135D02*
Y54156D01*
X266248Y57476D02*
X269567Y54156D01*
X266226Y57476D02*
X266248D01*
X291276Y69520D02*
X294000Y72244D01*
X290864Y69520D02*
X291276D01*
X297500Y61242D02*
Y74756D01*
X288900Y67556D02*
X290344Y69000D01*
X290864Y69520D01*
X274931Y56591D02*
Y59308D01*
X277527Y61905D01*
X278341Y60724D02*
X285608D01*
X277100Y59483D02*
X278341Y60724D01*
X276600Y53600D02*
X277100Y54100D01*
X276600Y53200D02*
Y53600D01*
X277100Y54100D02*
Y59483D01*
X285500Y52400D02*
Y53823D01*
X294100Y56500D02*
Y56600D01*
X277527Y61905D02*
X288739D01*
X285608Y60724D02*
X286631Y59700D01*
X295958D01*
X297500Y61242D01*
X290500Y53500D02*
Y55300D01*
X248951Y22000D02*
Y23901D01*
X289044Y57367D02*
X291956D01*
X285500Y53823D02*
X289044Y57367D01*
X291956D02*
X292723Y56600D01*
X252600Y51292D02*
X253200Y51892D01*
X252500Y51392D02*
X252600Y51292D01*
X252500Y51392D02*
X256579Y55471D01*
X288739Y61905D02*
X288900Y61744D01*
X237425Y61819D02*
Y64425D01*
X241342Y68343D01*
X249809Y69980D02*
X262239D01*
X253500Y63528D02*
Y67000D01*
X236033Y60427D02*
Y62346D01*
X236033Y62346D01*
Y62890D01*
X233966Y59710D02*
Y62000D01*
X249000Y63050D02*
Y65500D01*
X235324Y50000D02*
X245500D01*
X253200Y51892D02*
Y51900D01*
X241342Y68343D02*
X246501D01*
X247200Y69042D01*
Y73956D01*
X242381Y62552D02*
X249809Y69980D01*
X259367Y62400D02*
X271000D01*
X259089Y62122D02*
X260520Y60692D01*
X259089Y62122D02*
X259367Y62400D01*
X248587Y56673D02*
X249113Y57198D01*
X249954D01*
X252403Y59646D01*
X245700Y53077D02*
X246023Y53400D01*
X245700Y53000D02*
Y53077D01*
X243900Y56928D02*
X243947Y56880D01*
X240989Y61039D02*
X243947Y58080D01*
X243900Y56833D02*
X243947Y56880D01*
X243900Y56833D02*
X243947Y56786D01*
X244200Y57038D01*
Y57600D01*
X243947Y56880D02*
Y58080D01*
X248360Y56900D02*
X248587Y56673D01*
X247500Y56900D02*
X248360D01*
X292723Y56600D02*
X294100D01*
X252748Y44345D02*
Y46675D01*
X221737Y55310D02*
X223200D01*
X246023Y53400D02*
X252748Y46675D01*
X226747Y91500D02*
X265300D01*
X225465Y92783D02*
X226747Y91500D01*
X225465Y92783D02*
Y137809D01*
X224284Y92294D02*
X226258Y90319D01*
X263181D01*
X220500Y70500D02*
Y71100D01*
X230465Y70500D02*
X230512Y70453D01*
X223500Y70500D02*
X230465D01*
X220500Y71100D02*
X224853Y75453D01*
X230512D01*
X179134Y72047D02*
X182539Y75453D01*
X185630D01*
X190083Y66000D02*
X206000D01*
X185630Y70453D02*
X190083Y66000D01*
X121646Y165354D02*
X141500Y145500D01*
X134646Y68504D02*
X138331Y64819D01*
X134646Y68504D02*
Y71653D01*
X138445Y75453D01*
X140748D01*
Y70453D02*
X145201Y66000D01*
X213508Y33000D02*
X214271Y32237D01*
X195457Y35043D02*
X197500Y33000D01*
X213508D01*
X195000Y32000D02*
X196067Y30933D01*
X264995Y31495D02*
X265000Y31500D01*
X264600Y31000D02*
X264995Y31495D01*
X262360Y31316D02*
X264600Y31000D01*
X259363Y34313D02*
X262360Y31316D01*
X269914Y30500D02*
X274535D01*
X260256Y18000D02*
X264000D01*
X265000Y31500D02*
X269244D01*
X271000Y33256D01*
X263756Y22500D02*
X267700Y26444D01*
X269733Y30319D02*
X269914Y30500D01*
X267700Y26444D02*
Y29300D01*
X268719Y30319D01*
X269733D01*
X179134Y70166D02*
Y72047D01*
Y70166D02*
X184481Y64819D01*
X204258D01*
X145201Y66000D02*
X181630D01*
X183992Y63638D01*
X203769D01*
X138331Y64819D02*
X181140D01*
X183503Y62457D01*
X203280D01*
X179400Y50600D02*
Y57556D01*
X178956Y58000D02*
X179400Y57556D01*
X172700Y57256D02*
X173444Y58000D01*
X172700Y45400D02*
Y57256D01*
X171200Y43900D02*
X172700Y45400D01*
X162000Y43900D02*
X171200D01*
X160000Y45900D02*
X162000Y43900D01*
X160000Y45900D02*
Y49949D01*
Y39000D02*
X168900D01*
X175000Y45100D01*
Y49949D01*
X220843Y19000D02*
Y21143D01*
X222500Y22800D01*
Y24244D01*
D45*
X197676Y20500D02*
X204176Y14000D01*
X197500Y20500D02*
X197676D01*
X204176Y14000D02*
X224000D01*
X225764Y16236D02*
Y19000D01*
Y16236D02*
X226000Y16000D01*
X224000Y14000D02*
X226000Y16000D01*
X183000Y20500D02*
X197500D01*
X216244Y47500D02*
X217900D01*
X218500Y46900D01*
X216700Y43656D02*
X221300D01*
X135236Y19000D02*
Y23136D01*
X135700Y23600D01*
X136500Y24400D01*
Y30854D01*
X141244Y58000D02*
X141244Y58000D01*
X124500Y63756D02*
X124756Y63500D01*
X97000Y40000D02*
X99185D01*
X97000Y36000D02*
X99185D01*
X111744Y63756D02*
X119500D01*
X124500D01*
X103000Y46370D02*
X115244D01*
X124756Y63500D02*
X132300D01*
X133200Y62600D01*
X141244Y58000D02*
Y62556D01*
X141200Y62600D02*
X141244Y62556D01*
X133200Y62600D02*
X141200D01*
X155000D01*
X115244Y46272D02*
X118276Y43240D01*
X115244Y46370D02*
X116057Y45557D01*
X155000Y62600D02*
X174600D01*
X174700Y62500D01*
X178900Y24600D02*
X183000Y20500D01*
X178900Y24600D02*
Y41150D01*
X183450Y45700D01*
D46*
X197500Y20500D02*
X199197Y22197D01*
Y27209D01*
X261000Y72244D02*
Y72936D01*
X268500Y43500D02*
X279500D01*
X250040Y54500D02*
X253795Y58255D01*
X200737Y57112D02*
X202725D01*
X221756Y47500D02*
X226689D01*
X243711Y25900D02*
X245711Y23900D01*
X267115Y34912D02*
X267200D01*
X221756Y44944D02*
Y47500D01*
X222600Y44100D02*
X225500D01*
X202000Y84150D02*
X202490D01*
X199300Y86850D02*
Y87300D01*
X287268Y21291D02*
X288449Y22472D01*
X284118Y21291D02*
X287268D01*
X263539Y38489D02*
X267115Y34912D01*
X264100Y84300D02*
X264900Y85100D01*
X264100Y76036D02*
Y84300D01*
X199197Y27209D02*
X199200Y27206D01*
X304000Y10155D02*
X306100Y12255D01*
Y12500D01*
X304000Y9071D02*
Y10155D01*
X226689Y47500D02*
X227070Y47119D01*
X127244Y52500D02*
X129000Y54256D01*
X127724Y43240D02*
X129000Y44516D01*
Y48744D01*
X303571Y17500D02*
X304000Y17929D01*
X289000Y17500D02*
X303571D01*
X287500Y16000D02*
X289000Y17500D01*
X275000Y16000D02*
X287500D01*
X273882Y17118D02*
X275000Y16000D01*
X273882Y17118D02*
Y21291D01*
X279500Y38724D02*
Y43500D01*
X284894D02*
X285500Y44106D01*
X284894Y43500D02*
X290260Y38134D01*
X264930Y39881D02*
X268500Y43450D01*
X271000Y138000D02*
X271000Y138000D01*
Y134756D02*
Y138000D01*
X266000Y135500D02*
Y138244D01*
X265500Y135000D02*
X266000Y135500D01*
X180756Y134756D02*
X185000D01*
X180000Y138244D02*
X180244Y138000D01*
X184500D01*
X99000Y134756D02*
Y137500D01*
Y134756D02*
X99000Y134756D01*
X94000Y135500D02*
Y138244D01*
X242381Y24570D02*
X243711Y25900D01*
X245711Y23900D02*
X246200D01*
X155000Y62600D02*
X155300Y62300D01*
Y60264D02*
Y62300D01*
X155303Y55739D02*
Y60261D01*
X155300Y60264D02*
X155303Y60261D01*
X195624Y58140D02*
X199709D01*
X200737Y57112D01*
X264930Y47119D02*
X268500Y43549D01*
X279500Y43500D02*
X284894D01*
X268500Y43450D02*
Y43500D01*
Y43549D01*
X285500Y44106D02*
Y47400D01*
X261000Y72936D02*
X264100Y76036D01*
X294000Y72244D02*
X294200Y72044D01*
X249969Y54571D02*
X250040Y54500D01*
X249969Y54571D02*
Y55131D01*
X204612Y85500D02*
X204659Y85453D01*
X204674Y85438D01*
X202490Y84150D02*
X203285Y84944D01*
X204056D01*
X204612Y85500D01*
X202756Y77559D02*
X204331D01*
X207224Y80453D01*
X211221D01*
X204350Y70453D02*
X211221D01*
X202756Y72047D02*
X204350Y70453D01*
X223005Y85453D02*
X230512D01*
X157874Y77559D02*
X159449D01*
X162343Y80453D01*
X166339D01*
X159468Y70453D02*
X166339D01*
X157874Y72047D02*
X159468Y70453D01*
X178366Y85453D02*
X185630D01*
X222632Y85827D02*
X223005Y85453D01*
X219685Y85827D02*
X222632D01*
X218897Y85039D02*
X219685Y85827D01*
X211221Y70453D02*
X216122D01*
X211221Y75453D02*
X213642D01*
X216122Y70453D02*
X219685Y74016D01*
Y77559D01*
X213642Y75453D02*
X221653Y83464D01*
X174803Y81890D02*
X178366Y85453D01*
X166339Y70453D02*
X170846D01*
X173622Y73228D01*
Y76772D01*
X168963Y75453D02*
X172644Y79134D01*
X177165D02*
X177559Y78740D01*
X172644Y79134D02*
X177165D01*
X166339Y75453D02*
X168963D01*
X130315Y87008D02*
X131870Y85453D01*
X140748D01*
X130709Y80709D02*
Y81496D01*
X125453Y75453D02*
X130709Y80709D01*
X121457Y75453D02*
X125453D01*
X113976Y73032D02*
X116555Y70453D01*
X121457D01*
X112992Y79134D02*
X114311Y80453D01*
X121457D01*
Y70453D02*
X125965D01*
X133071Y77559D01*
Y79134D01*
X155300Y55736D02*
X155303Y55739D01*
X151500Y30854D02*
X155300Y34654D01*
Y55736D01*
D47*
X107500Y38000D02*
X111815D01*
X169700Y15200D02*
Y18444D01*
X270465Y36209D02*
X271000Y36744D01*
X268496Y36209D02*
X270465D01*
X267200Y34912D02*
X268496Y36209D01*
X269551Y22472D02*
X271000Y23921D01*
Y27744D01*
X279500Y29276D02*
Y33400D01*
X146756Y58000D02*
X146756Y58000D01*
X303744Y38756D02*
X304000D01*
X272500Y47744D02*
X275344D01*
X119744Y48500D02*
X123000D01*
X119500Y48744D02*
X119744Y48500D01*
X115244Y46272D02*
Y46370D01*
X146500Y57744D02*
X146756Y58000D01*
X124500Y55500D02*
X124500Y55500D01*
X124500Y55500D02*
Y58244D01*
X123500Y39500D02*
X127724D01*
X113315D02*
X118276D01*
X111815Y38000D02*
X113315Y39500D01*
X85000Y150000D02*
X91244Y143756D01*
X94000D01*
X99000Y129244D02*
X103244Y125000D01*
X108000D01*
X275244D02*
X280000D01*
X271000Y129244D02*
X275244Y125000D01*
X257000Y150000D02*
X263244Y143756D01*
X266000D01*
X171000Y150000D02*
X177244Y143756D01*
X180000D01*
X185000Y129244D02*
X189244Y125000D01*
X194000D01*
X146756Y58000D02*
X149700D01*
X149700Y58000D01*
X152744D01*
X184244Y50660D02*
X186176D01*
X183450Y45700D02*
Y47935D01*
X186176Y50660D01*
X93300Y42129D02*
Y44800D01*
X94200Y45700D01*
X199197Y36658D02*
Y40597D01*
X199300Y40700D01*
X182000Y52904D02*
X184244Y50660D01*
X110515Y36768D02*
X117500Y29783D01*
X110515Y36768D02*
Y37900D01*
X275344Y47744D02*
X275800Y48200D01*
X267500Y68198D02*
Y72244D01*
X266226Y66924D02*
X267500Y68198D01*
X211201Y85433D02*
X211221Y85453D01*
X204764Y85433D02*
X211201D01*
X204744Y85453D02*
X204764Y85433D01*
X203841Y84944D02*
X204350Y85453D01*
X204659D01*
X204744D01*
X199300Y86850D02*
X202000Y84150D01*
X196850Y79528D02*
Y83071D01*
X196850Y83071D01*
X155905Y87008D02*
X158268Y84646D01*
Y83071D02*
Y84646D01*
Y83071D02*
X160650Y85453D01*
X166339D01*
X222185Y80453D02*
X230512D01*
X221654Y79921D02*
X222185Y80453D01*
X151969Y79528D02*
Y83071D01*
X102138Y85453D02*
X121457D01*
X102000Y85315D02*
X102138Y85453D01*
X140748Y80453D02*
X151043D01*
X151969Y79528D01*
X185630Y80453D02*
X195925D01*
X196850Y79528D01*
X279500Y33400D02*
X279600Y33500D01*
X168656Y57500D02*
X170000Y56156D01*
Y49949D02*
Y56156D01*
X165000Y49949D02*
Y55644D01*
X182000Y57500D02*
X182600Y58100D01*
X182640Y58140D02*
X186176D01*
X182000Y57500D02*
X182640Y58140D01*
X182000Y52904D02*
Y57500D01*
X174700Y62500D02*
X180815D01*
X182600Y60715D01*
Y58100D02*
Y60715D01*
X168656Y57500D02*
Y58000D01*
X163144D02*
X165000Y55000D01*
X162644Y58000D02*
X165000Y55644D01*
D48*
X82500Y74000D02*
X88500D01*
X102000Y22000D02*
X102000Y22000D01*
X102000Y22000D02*
Y26941D01*
X93459D02*
X102000D01*
X109343Y7059D02*
X117500Y15217D01*
X102000Y7059D02*
X109343D01*
D49*
X84000Y36400D02*
Y41000D01*
Y36400D02*
X93459Y26941D01*
D50*
X255100Y56863D02*
X255187D01*
X251938Y53700D02*
X255100Y56863D01*
X251600Y53700D02*
X251938D01*
D51*
X348425Y127953D02*
D03*
X328740D02*
D03*
X348425Y53150D02*
D03*
X328740D02*
D03*
X37402D02*
D03*
X17717D02*
D03*
X37402Y127953D02*
D03*
X17717D02*
D03*
X328000Y175000D02*
D03*
X347685D02*
D03*
X17000D02*
D03*
X36685D02*
D03*
D52*
X338583Y90551D02*
D03*
X27559D02*
D03*
D53*
X338000Y13000D02*
D03*
D54*
X12992Y12992D02*
D03*
X40945D02*
D03*
D55*
X249000Y171000D02*
D03*
X163000D02*
D03*
X77000D02*
D03*
D56*
X280500Y49900D02*
D03*
X300500Y53900D02*
D03*
Y45900D02*
D03*
D57*
X288449Y22472D02*
D03*
X269551Y22472D02*
D03*
D58*
X293173Y10268D02*
D03*
X264827D02*
D03*
D59*
X184500Y26000D02*
D03*
D60*
Y36000D02*
D03*
D61*
X264600Y31000D02*
D03*
Y27600D02*
D03*
D62*
X237000Y16300D02*
D03*
X304700Y88100D02*
D03*
X138500Y89000D02*
D03*
X206000Y27000D02*
D03*
X202000Y22000D02*
D03*
X204000Y9000D02*
D03*
X255200Y9100D02*
D03*
X223300Y35400D02*
D03*
X218500Y46900D02*
D03*
X219740Y51043D02*
D03*
X223200Y55100D02*
D03*
X199300Y87300D02*
D03*
X212800Y53200D02*
D03*
X204400Y131100D02*
D03*
X204300Y118900D02*
D03*
X210400Y55100D02*
D03*
X207800Y39200D02*
D03*
X135700Y23600D02*
D03*
X169700Y15200D02*
D03*
X151600Y38500D02*
D03*
X130500Y19100D02*
D03*
X224838Y67662D02*
D03*
X243000Y38500D02*
D03*
X267500Y81500D02*
D03*
X264900Y85100D02*
D03*
X272500Y82000D02*
D03*
X266800Y90700D02*
D03*
X270000Y84900D02*
D03*
X247331Y86191D02*
D03*
X245000Y82000D02*
D03*
X306100Y12500D02*
D03*
X246000Y37500D02*
D03*
X251500Y41000D02*
D03*
X258000Y43500D02*
D03*
X242400Y46200D02*
D03*
X303400Y50700D02*
D03*
X282000Y46300D02*
D03*
X284200Y4000D02*
D03*
X270100D02*
D03*
X288000Y85000D02*
D03*
X256100D02*
D03*
X281300Y81800D02*
D03*
X304400Y81300D02*
D03*
X299700Y61800D02*
D03*
X191400Y57800D02*
D03*
X199300Y40700D02*
D03*
X302200Y5300D02*
D03*
X299100Y14000D02*
D03*
X297700Y19900D02*
D03*
X298600Y25700D02*
D03*
X298200Y32100D02*
D03*
X293900Y35600D02*
D03*
X288800Y32700D02*
D03*
X271700Y15800D02*
D03*
X267200Y34400D02*
D03*
X254400Y37900D02*
D03*
X255100Y47900D02*
D03*
X237700Y47100D02*
D03*
X250000Y46500D02*
D03*
X294000Y42500D02*
D03*
X249500Y43500D02*
D03*
X139000Y40000D02*
D03*
X126000Y52000D02*
D03*
X123000Y48500D02*
D03*
X207500Y64500D02*
D03*
X220500Y70500D02*
D03*
X230500Y66500D02*
D03*
X235000Y22000D02*
D03*
X240000Y16500D02*
D03*
X256000Y82000D02*
D03*
X231000Y62000D02*
D03*
X289000Y81500D02*
D03*
X283000Y34000D02*
D03*
X290500Y44500D02*
D03*
X160000Y39000D02*
D03*
X228134Y24000D02*
D03*
X231000Y26500D02*
D03*
X230500Y22000D02*
D03*
X116000Y45500D02*
D03*
X141300Y90400D02*
D03*
X289500Y116500D02*
D03*
X289800Y90900D02*
D03*
X294500Y91000D02*
D03*
X151500Y42500D02*
D03*
X131500Y32000D02*
D03*
X124500Y55500D02*
D03*
X107500Y38000D02*
D03*
X123500Y39500D02*
D03*
X97000Y36000D02*
D03*
Y40000D02*
D03*
X72000Y49000D02*
D03*
Y53000D02*
D03*
X82500Y74000D02*
D03*
X107087Y73228D02*
D03*
X155905Y87008D02*
D03*
X88500Y81000D02*
D03*
X91000D02*
D03*
X93500D02*
D03*
X96000D02*
D03*
X98500D02*
D03*
X101000D02*
D03*
X271000Y138000D02*
D03*
X265500Y135000D02*
D03*
X180756Y134756D02*
D03*
X184500Y138000D02*
D03*
X99000Y137500D02*
D03*
X94000Y135500D02*
D03*
X301100Y67900D02*
D03*
X297200Y56900D02*
D03*
X225500Y44100D02*
D03*
X247500Y33000D02*
D03*
X248628Y35953D02*
D03*
X240500Y36000D02*
D03*
X244019Y21905D02*
D03*
X244000Y3000D02*
D03*
X246200Y23900D02*
D03*
X259400Y26200D02*
D03*
X248800Y22000D02*
D03*
X157400Y26200D02*
D03*
X149700Y58000D02*
D03*
X207000Y49000D02*
D03*
X191000Y50500D02*
D03*
X199709Y58140D02*
D03*
X202700Y87700D02*
D03*
X294500Y116500D02*
D03*
X199300Y47100D02*
D03*
X190500Y28500D02*
D03*
X275800Y48200D02*
D03*
X268500Y43500D02*
D03*
X269300Y50500D02*
D03*
X267500Y53300D02*
D03*
X276556Y69300D02*
D03*
X293900Y65500D02*
D03*
X290344Y69000D02*
D03*
X280700Y75000D02*
D03*
X274931Y56591D02*
D03*
X276600Y53200D02*
D03*
X294100Y56500D02*
D03*
X290500Y55300D02*
D03*
X273700Y62000D02*
D03*
X272200Y67700D02*
D03*
X236800Y67800D02*
D03*
X252600Y72500D02*
D03*
X253500Y67000D02*
D03*
X233966Y62000D02*
D03*
X249000Y65500D02*
D03*
X245500Y50000D02*
D03*
X253200Y51900D02*
D03*
X249969Y55131D02*
D03*
X245700Y53000D02*
D03*
X244200Y57600D02*
D03*
X247500Y56900D02*
D03*
X242500Y55100D02*
D03*
X256400Y65100D02*
D03*
X205905Y88189D02*
D03*
X196850Y79528D02*
D03*
X223500Y70500D02*
D03*
X218897Y85039D02*
D03*
X221653Y83464D02*
D03*
X219685Y77559D02*
D03*
X221654Y79921D02*
D03*
X177559Y78740D02*
D03*
X174803Y81890D02*
D03*
X173622Y76772D02*
D03*
X151969Y79528D02*
D03*
X107087Y76772D02*
D03*
X133071Y79134D02*
D03*
X130709Y81496D02*
D03*
X130315Y87008D02*
D03*
X86614Y74000D02*
D03*
X97638Y73622D02*
D03*
X195000Y32000D02*
D03*
X279600Y33500D02*
D03*
X264000Y18000D02*
D03*
X170000Y55000D02*
D03*
X179400Y50600D02*
D03*
X165000Y55000D02*
D03*
M02*
